<?xml version="1.0" encoding="UTF-8"?>
<svg xmlns="http://www.w3.org/2000/svg" id="Layer_1" data-name="Layer 1" viewBox="0 0 24 24">
  <path d="m7,8.5c0,1.381-1.119,2.5-2.5,2.5s-2.5-1.119-2.5-2.5,1.119-2.5,2.5-2.5,2.5,1.119,2.5,2.5ZM0,15v5h2v4h2v-4h1v-2h-3v-3c0-.551.449-1,1-1h2v-2h-2c-1.654,0-3,1.346-3,3ZM11.5,3c-1.381,0-2.5,1.119-2.5,2.5s1.119,2.5,2.5,2.5,2.5-1.119,2.5-2.5-1.119-2.5-2.5-2.5Zm-4.5,9v7h2v5h2v-5h1v-2h-3v-5c0-.551.449-1,1-1h2v-2h-2c-1.654,0-3,1.346-3,3Zm11.5-7c1.381,0,2.5-1.119,2.5-2.5s-1.119-2.5-2.5-2.5-2.5,1.119-2.5,2.5,1.119,2.5,2.5,2.5Zm4.5,13h-2v6h-2v-6h-1v6h-2v-6h-2v-9c0-1.654,1.346-3,3-3h3c1.654,0,3,1.346,3,3v9Zm-2-9c0-.551-.449-1-1-1h-3c-.551,0-1,.449-1,1v7h5v-7Z"/>
</svg>
