<?xml version="1.0" encoding="UTF-8"?>
<svg xmlns="http://www.w3.org/2000/svg" id="Layer_1" data-name="Layer 1" viewBox="0 0 24 24">
  <path d="M23.998,12.477c0,.008,.002,.015,.002,.023,0,2.91-1.61,5.499-4,6.895v-3.931c.629-.847,1-1.878,1-2.964,0-.008,.002-.015,.002-.023h-.002c.054-2.963-2.755-4.767-5.63-4.512-.479-2.633-2.634-5.009-5.279-4.965-2.902,0-5.091,2.149-5.091,5,.008,1.84,.27,2.014,.726,3.283-1.318,.56-2.805,1.473-2.726,3.104h-.011c.003,.894,.341,1.743,1.011,2.328v3.421C1.624,19.288-.074,16.964,.011,14.386h-.011c0-1.773,.794-3.407,2.133-4.494-.089-.55-.133-1.178-.133-1.892C2,3.514,5.554,0,10.091,0c3.225,0,6.177,2.051,7.493,5.097,3.723,.58,6.416,3.596,6.416,7.38h-.002Zm-5.998,4.023v7.5H6V15.5c0-1.378,1.122-2.5,2.5-2.5h2.191l1.714,1h3.095c1.379,0,2.5,1.122,2.5,2.5Zm-3,.5h-6v4h6v-4Zm.949-5c.019-.166,.051-.329,.051-.5,0-2.481-2.019-4.5-4.5-4.5-1.214,0-2.348,.502-3.175,1.325l-1.325-1.325v3.429c0,.316,.256,.571,.571,.571h3.429l-1.264-1.264c.46-.457,1.09-.736,1.764-.736,1.378,0,2.5,1.122,2.5,2.5,0,.171-.018,.338-.051,.5h2Z"/>
</svg>
