<?xml version="1.0" encoding="utf-8"?>
<!-- Generator: Adobe Illustrator 27.2.0, SVG Export Plug-In . SVG Version: 6.00 Build 0)  -->
<svg xmlns="http://www.w3.org/2000/svg" xmlns:xlink="http://www.w3.org/1999/xlink" version="1.1" id="Layer_1" x="0px" y="0px" viewBox="0 0 24 24" style="enable-background:new 0 0 24 24;" xml:space="preserve">
<g>
	<path d="M15.8,15.3c-0.5-0.1-0.9-0.2-1.4-0.4c-0.4-0.2-0.9-0.1-1.2,0.1c-1.2,0.6-2.9,1-4.6,1C5,16,3.2,14.9,3,14.5V13   c1.6,0.7,3.5,1,5.5,1c0.8,0,1.5-0.7,1.5-1.5c0-0.8-0.7-1.5-1.5-1.5C5,11,3.2,9.9,3,9.5V8c1.2,0.5,2.7,0.8,4.4,1c0,0,0.1,0,0.1,0   C8.3,9,8.9,8.4,9,7.6C9,6.7,8.4,6,7.6,6C4.7,5.8,3.2,4.9,3,4.5C3.2,4.1,5.1,3,8.5,3C9.3,3,10,2.3,10,1.5S9.3,0,8.5,0   C4.3,0,0,1.5,0,4.5v15c0,3,4.3,4.5,8.5,4.5s8.5-1.5,8.5-4.5v-2.7C17,16.1,16.5,15.5,15.8,15.3z M8.5,21C5,21,3.2,19.9,3,19.5V18   c3.1,1.3,7.9,1.3,10.9-0.1c0,0,0,0,0.1,0l0,1.5C13.8,19.9,12,21,8.5,21z"/>
	<g>
		<path d="M21.8,7.5c-0.6,0-1,0.3-1.3,0.8c-0.6,1-1.7,1.7-3,1.7c-0.4,0-0.9-0.1-1.3-0.2l0.8-0.8C17.4,8.6,17.2,8,16.7,8H13    c-0.6,0-1,0.4-1,1v3.7c0,0.5,0.6,0.7,0.9,0.4L14,12c1,0.6,2.2,1,3.5,1c2.4,0,4.4-1.3,5.6-3.2C23.7,8.8,23,7.5,21.8,7.5z"/>
		<path d="M23.1,0.9l-1,1C20.9,0.7,19.3,0,17.5,0c-2.9,0-5.4,1.9-6.2,4.5c-0.3,1,0.4,2,1.4,2c0.6,0,1.2-0.4,1.4-1    C14.6,4.1,15.9,3,17.5,3c0.9,0,1.8,0.4,2.4,1H20l-1.1,1.1C18.6,5.4,18.8,6,19.3,6h4.2C23.8,6,24,5.8,24,5.5V1.3    C24,0.8,23.4,0.6,23.1,0.9z"/>
	</g>
</g>
</svg>
