<?xml version="1.0" encoding="UTF-8"?>
<svg xmlns="http://www.w3.org/2000/svg" id="Layer_1" data-name="Layer 1" viewBox="0 0 24 24" width="512" height="512"><path d="M23,15.78v-2.28c0-2.48-2.02-4.5-4.5-4.5s-4.5,2.02-4.5,4.5v2.28c-.61,.55-1,1.34-1,2.22v3c0,1.66,1.34,3,3,3h5c1.66,0,3-1.34,3-3v-3c0-.89-.39-1.67-1-2.22Zm-4.5-3.78c.83,0,1.5,.67,1.5,1.5v1.5h-3v-1.5c0-.83,.67-1.5,1.5-1.5Zm0,9c-.83,0-1.5-.67-1.5-1.5s.67-1.5,1.5-1.5,1.5,.67,1.5,1.5-.67,1.5-1.5,1.5ZM4.5,11c2.48,0,4.5-2.02,4.5-4.5v-2C9,2.02,6.98,0,4.5,0S0,2.02,0,4.5v2c0,2.48,2.02,4.5,4.5,4.5Zm-1.5-6.5c0-.83,.67-1.5,1.5-1.5s1.5,.67,1.5,1.5v2c0,.83-.67,1.5-1.5,1.5s-1.5-.67-1.5-1.5v-2ZM12,14.5c0,.83-.67,1.5-1.5,1.5s-1.5,.67-1.5,1.5v2c0,.63,.4,1.2,1,1.41,.78,.28,1.19,1.13,.91,1.91-.22,.62-.8,1-1.41,1-.17,0-.33-.03-.5-.09-1.79-.63-3-2.34-3-4.24v-2c0-2.48,2.02-4.5,4.5-4.5,.83,0,1.5,.67,1.5,1.5Zm1.5-4.5c-.83,0-1.5-.67-1.5-1.5v-3.59c-.53,.19-1.14,.07-1.56-.35-.59-.59-.59-1.54,0-2.12L12.44,.44c.43-.43,1.08-.56,1.63-.33,.56,.23,.93,.78,.93,1.39v7c0,.83-.67,1.5-1.5,1.5ZM5,14.5v8c0,.83-.67,1.5-1.5,1.5s-1.5-.67-1.5-1.5v-4.59c-.53,.19-1.14,.07-1.56-.35-.59-.59-.59-1.54,0-2.12l2-2c.43-.43,1.08-.56,1.63-.33,.56,.23,.93,.78,.93,1.39Z"/></svg>
