<?xml version="1.0" encoding="UTF-8"?>
<svg xmlns="http://www.w3.org/2000/svg" id="Layer_1" data-name="Layer 1" viewBox="0 0 24 24">
  <path d="m11.923,17.806c.108.268.076.572-.085.811-.162.24-.431.383-.72.383h-2.131s-2.132,0-2.132,0c-.289,0-.558-.144-.72-.383-.161-.239-.193-.543-.085-.811.367-.908,1.073-1.781,2.099-2.592l.3-.237c.316-.25.765-.249,1.08.002l.294.235c1.027.816,1.734,1.689,2.1,2.593Zm4.93,2.218c-.681-.471-1.615-.303-2.087.38-.259.374-.683.596-1.135.596H4.368c-.401,0-.782-.176-1.046-.481-.147-.172-.385-.537-.308-1.048.337-2.244,1.746-4.361,4.188-6.294.359-.285.569-.718.569-1.176s-.21-.892-.569-1.176c-2.442-1.933-3.852-4.051-4.188-6.295-.077-.511.16-.875.308-1.047.264-.306.645-.481,1.046-.481h9.264c.4,0,.781.174,1.044.479.54.626,1.486.697,2.115.156.628-.541.697-1.488.156-2.116-.833-.966-2.042-1.52-3.315-1.52H4.368C3.093,0,1.883.556,1.049,1.524.227,2.479-.139,3.737.048,4.975c.382,2.542,1.704,4.899,3.936,7.025C1.752,14.126.43,16.483.048,19.025c-.187,1.238.179,2.496,1.001,3.451.834.969,2.044,1.524,3.319,1.524h9.264c1.437,0,2.783-.706,3.602-1.889.472-.681.302-1.616-.38-2.087Zm7.146-8.024c0,3.314-2.686,6-6,6s-6-2.686-6-6,2.686-6,6-6,6,2.686,6,6Zm-3.5,1.086l-1.5-1.5v-2.586c0-.552-.448-1-1-1h0c-.552,0-1,.448-1,1v2.586c0,.53.211,1.039.586,1.414l1.5,1.5c.391.39,1.024.39,1.414,0,.391-.391.391-1.024,0-1.414Z"/>
</svg>
