<?xml version="1.0" encoding="UTF-8"?>
<svg xmlns="http://www.w3.org/2000/svg" id="Layer_1" data-name="Layer 1" viewBox="0 0 24 24">
  <path d="M15.5,16c-1.381,0-2.5-1.119-2.5-2.5v-5.5h1.6v5.5c0,.496,.404,.9,.9,.9s.9-.404,.9-.9v-5.5h1.6v5.5c0,1.381-1.119,2.5-2.5,2.5Zm-4.5-6.4v-1.6H6.5v8h4.5v-1.6h-2.9v-1.601h2.9v-1.6h-2.9v-1.601h2.9Zm1.013-6.6c.828,0,1.5-.672,1.5-1.5s-.672-1.5-1.5-1.5-1.5,.672-1.5,1.5,.672,1.5,1.5,1.5Zm-.013,18c-.828,0-1.5,.672-1.5,1.5s.672,1.5,1.5,1.5,1.5-.672,1.5-1.5-.672-1.5-1.5-1.5Zm10.506-10.494c-.828,0-1.5,.672-1.5,1.5s.672,1.5,1.5,1.5,1.5-.672,1.5-1.5-.672-1.5-1.5-1.5ZM3.006,11.994c0-.828-.672-1.5-1.5-1.5S.006,11.165,.006,11.994s.672,1.5,1.5,1.5,1.5-.672,1.5-1.5Zm18.784,4.1c-.712-.424-1.632-.191-2.056,.52-.424,.712-.191,1.632,.52,2.056,.712,.424,1.632,.191,2.057-.52,.424-.712,.191-1.632-.521-2.056ZM3.758,5.33c-.712-.424-1.632-.191-2.057,.52-.424,.712-.191,1.632,.521,2.057,.712,.424,1.632,.191,2.056-.52,.424-.712,.191-1.632-.52-2.057Zm3.634-1.057c.712-.424,.945-1.345,.52-2.057-.424-.712-1.345-.945-2.056-.52-.712,.424-.945,1.345-.52,2.057,.424,.712,1.345,.945,2.056,.52Zm9.227,15.455c-.712,.424-.945,1.345-.52,2.056,.424,.712,1.345,.945,2.056,.52,.712-.424,.945-1.345,.521-2.056-.424-.712-1.345-.945-2.057-.52Zm-14.398-3.634c-.712,.424-.945,1.345-.521,2.056,.424,.712,1.345,.945,2.057,.52,.712-.424,.945-1.345,.52-2.056-.424-.712-1.345-.945-2.056-.52ZM21.79,7.907c.712-.424,.945-1.345,.521-2.057-.424-.712-1.345-.945-2.057-.52-.712,.424-.945,1.345-.52,2.057,.424,.712,1.345,.945,2.056,.52Zm-3.634-6.211c-.712-.424-1.632-.191-2.056,.52-.424,.712-.191,1.632,.52,2.057,.712,.424,1.632,.191,2.057-.52,.424-.712,.191-1.632-.521-2.057ZM7.393,19.728c-.712-.424-1.632-.191-2.056,.52-.424,.712-.191,1.632,.52,2.056,.712,.424,1.632,.191,2.056-.52,.424-.712,.191-1.632-.52-2.056Z"/>
</svg>
