<?xml version="1.0" encoding="UTF-8"?>
<svg xmlns="http://www.w3.org/2000/svg" id="Layer_1" data-name="Layer 1" viewBox="0 0 24 24" width="512" height="512"><path d="M12,0C5.383,0,0,5.383,0,12s5.383,12,12,12,12-5.383,12-12S18.617,0,12,0Zm0,21c-4.963,0-9-4.037-9-9S7.037,3,12,3s9,4.037,9,9-4.037,9-9,9Zm5-5.5c0,.828-.672,1.5-1.5,1.5h-3.5c-.821,0-1.751,.318-2.69,.921-.25,.16-.531,.237-.809,.237-.493,0-.977-.243-1.264-.69-.447-.696-.244-1.625,.453-2.072,1.423-.913,2.913-1.396,4.31-1.396h3.5c.828,0,1.5,.672,1.5,1.5Zm1-5.5c0,1.105-.895,2-2,2s-2-.895-2-2,.895-2,2-2,2,.895,2,2Zm-10,2c-1.105,0-2-.895-2-2s.895-2,2-2,2,.895,2,2-.895,2-2,2Z"/></svg>
