<?xml version="1.0" encoding="UTF-8"?>
<svg xmlns="http://www.w3.org/2000/svg" id="Layer_1" data-name="Layer 1" viewBox="0 0 24 24">
  <path d="m11.126,8.168c-.232-.112-.476-.168-.718-.168-.282,0-.561.075-.816.225-.471.277-.809.776-.926,1.356l-1.165,5.479c-.103.484.266.939.76.939.365,0,.68-.254.759-.61l.175-.79h2.379l.165.782c.076.36.437.617.804.617.494,0,.862-.454.761-.937l-1.142-5.435c-.135-.668-.523-1.213-1.035-1.459Zm-1.578,4.832l.686-3.104c.03-.149.105-.253.176-.296,0,0,.138.124.185.355l.641,3.044h-1.688Zm-3.948-3.4v1.801h.601c.442,0,.8.358.8.8s-.358.8-.8.8h-.601v2.223c0,.429-.348.777-.777.777s-.822-.348-.822-.777v-6.445c0-.429.348-.777.777-.777h1.445c.429,0,.777.348.777.777s-.348.822-.777.822h-.623Zm10-.822v6.445c0,.429-.393.777-.823.777s-.777-.348-.777-.777v-6.445c0-.429.348-.777.777-.777s.823.348.823.777Zm2.9-5.777H5.5C2.467,3,0,5.468,0,8.5v7c0,3.032,2.467,5.5,5.5,5.5h13c3.032,0,5.5-2.468,5.5-5.5v-7c0-3.032-2.468-5.5-5.5-5.5Zm2.5,12.5c0,1.379-1.121,2.5-2.5,2.5H5.5c-1.378,0-2.5-1.121-2.5-2.5v-7c0-1.379,1.122-2.5,2.5-2.5h13c1.379,0,2.5,1.121,2.5,2.5v7Zm-1-.322v.045c0,.429-.348.777-.777.777h-1.445c-.429,0-.777-.348-.777-.777v-6.445c0-.429.348-.777.777-.777s.822.348.822.777v5.623h.623c.429,0,.777.348.777.777Z"/>
</svg>
