<?xml version="1.0" encoding="UTF-8"?>
<svg xmlns="http://www.w3.org/2000/svg" id="Layer_1" data-name="Layer 1" viewBox="0 0 24 24">
  <path d="m10,16.037v-3.037h2.485c.221-.178.449-.345.685-.502-.186-.474-.301-.979-.301-1.51v-.988H4.595l6.426-3.487,4.537,2.475h5.738c-.264-.33-.593-.611-.977-.82l-7.773-4.24,2.454-1.636L9.5,0v3.925L1.683,8.166C.646,8.732,0,9.818,0,11v2h1.999v8H0v3h8v-.01l2.542.004c-.955-1.061-1.542-2.459-1.542-3.994,0-1.394.37-2.747,1-3.963Zm-3.002,4.963h-1.998v-8h2v8Zm11.896-7.682c.63-.644,1.236-1.482,1.236-2.33h-5.263c0,.848.606,1.686,1.236,2.33-2.773.758-5.104,3.646-5.104,6.682,0,2.199,1.794,3.988,4,3.988h5c2.206,0,4-1.789,4-3.988,0-3.036-2.331-5.924-5.104-6.682Zm1.104,7.67h-5c-.552,0-1-.443-1-.988,0-1.886,1.799-3.88,3.5-3.88s3.5,1.994,3.5,3.88c0,.545-.448.988-1,.988Z"/>
</svg>
