<?xml version="1.0" encoding="UTF-8"?>
<svg xmlns="http://www.w3.org/2000/svg" id="Layer_1" data-name="Layer 1" viewBox="0 0 24 24">
  <path d="m23,6.408v2.511c0,.597-.484,1.081-1.082,1.081-.477,0-.886-.317-1.031-.772-.219-.686-.782-1.228-1.887-1.228h-1.425s1.201,2.708,1.228,2.756c.158.276.216.581.19.875-.008.254-.166.869-.94,1.281l-2.847,1.627c-.526.301-1.127.461-1.736.461h-7.969c-1.378,0-2.5,1.121-2.5,2.5v5c0,.828-.671,1.5-1.5,1.5s-1.5-.672-1.5-1.5v-5c0-3.032,2.467-5.5,5.5-5.5h7.969c.087,0,.172-.022.247-.065l2.155-1.231-1.703-3.907c-.106-.244-.167-.513-.167-.797v-2c0-1.105.895-2,2-2h3c1.105,0,1.667-.543,1.887-1.228.146-.455.554-.772,1.031-.772.597,0,1.082.484,1.082,1.082v2.51c.581.207,1,.757,1,1.408s-.419,1.201-1,1.408Zm-17,3.592c2.209,0,4-1.791,4-4s-1.791-4-4-4S2,3.791,2,6s1.791,4,4,4Zm3.5,7c-.829,0-1.5.672-1.5,1.5v4c0,.828.671,1.5,1.5,1.5s1.5-.672,1.5-1.5v-4c0-.828-.671-1.5-1.5-1.5Z"/>
</svg>
