<?xml version="1.0" encoding="utf-8"?>
<!-- Generator: Adobe Illustrator 26.5.3, SVG Export Plug-In . SVG Version: 6.00 Build 0)  -->
<svg xmlns="http://www.w3.org/2000/svg" xmlns:xlink="http://www.w3.org/1999/xlink" version="1.1" id="Layer_1" x="0px" y="0px" viewBox="0 0 24 24" style="enable-background:new 0 0 24 24;" xml:space="preserve">
<path d="M18,1.3c-0.2-1.7-2.8-1.6-3,0.1C14.9,3.1,13.3,4,10.5,4h-6C2,4,0,6,0,8.5v2c0,1.9,1.1,3.5,2.8,4.2l3.3,7.8  C6.5,23.4,7.4,24,8.5,24c1.8,0,3.1-1.9,2.4-3.5L8.5,15h1.9c4.3,0,4.4,1.9,4.5,2.6c0.1,1.9,3,1.7,3-0.1C18,17.5,18,1.3,18,1.3L18,1.3  z M10.5,12h-6C3.7,12,3,11.3,3,10.5v-2C3,7.7,3.7,7,4.5,7h6c1.8,0,3.3-0.3,4.5-0.9v6.8C13.9,12.3,12.5,12,10.5,12L10.5,12z M24,9.5  c0,1.9-0.7,3.7-2.1,5.1c-0.6,0.6-1.5,0.6-2.1,0c-0.6-0.6-0.6-1.5,0-2.1c0.8-0.8,1.2-1.8,1.2-2.9s-0.4-2.2-1.2-2.9  c-0.6-0.6-0.6-1.5,0-2.1c0.6-0.6,1.5-0.6,2.1,0C23.3,5.8,24,7.6,24,9.5L24,9.5z"/>
</svg>
