<?xml version="1.0" encoding="UTF-8"?>
<svg xmlns="http://www.w3.org/2000/svg" id="Layer_1" data-name="Layer 1" viewBox="0 0 24 24">
  <path d="m12.5,5.41l-1.5-4.37c0-.177.045-.351.131-.505.279-.502.912-.683,1.415-.404l11.454,6.368-11.456,6.37c-.321.179-.714.174-1.029-.015-.077-.045-.148-.1-.212-.163-.194-.195-.303-.459-.302-.734l1.499-4.457,8.5-1-8.5-1.09ZM0,24h4v-3H0v3Zm6,0h4v-3h-4v3Zm13.5-9H6.5c-1.93,0-3.5-1.57-3.5-3.5s1.57-3.5,3.5-3.5h2.5v-3h-2.5C2.916,5,0,7.916,0,11.5s2.916,6.5,6.5,6.5h13c.827,0,1.5.673,1.5,1.5s-.673,1.5-1.5,1.5h-7.5v3h7.5c2.481,0,4.5-2.019,4.5-4.5s-2.019-4.5-4.5-4.5Z"/>
</svg>
