<?xml version="1.0" encoding="UTF-8"?>
<svg xmlns="http://www.w3.org/2000/svg" id="Layer_1" data-name="Layer 1" viewBox="0 0 24 24" width="512" height="512"><path d="M2.974,2.5c0-1.381,1.119-2.5,2.5-2.5s2.5,1.119,2.5,2.5-1.119,2.5-2.5,2.5-2.5-1.119-2.5-2.5ZM23.928,13.028l-.879-4.254c-.334-1.617-1.775-2.791-3.428-2.791h-1.245c-1.253,0-2.417,.676-3.04,1.764l-1.286,2.253h-4.102l-1.286-2.253c-.622-1.088-1.786-1.764-3.039-1.764h-1.245c-1.652,0-3.094,1.174-3.428,2.791L.073,13.028c-.293,1.418,.333,2.892,1.557,3.666l3.371,2.132v5.174h3v-6.826l-2.751-1.74,1.24-5.443,2.511,4.398v1.611h6v-1.611l2.511-4.399,1.24,5.444-2.751,1.74v6.826h3v-5.174l3.371-2.132c1.224-.774,1.849-2.248,1.557-3.666Zm-5.428-8.028c1.381,0,2.5-1.119,2.5-2.5s-1.119-2.5-2.5-2.5-2.5,1.119-2.5,2.5,1.119,2.5,2.5,2.5Zm1.695,15.437l.779,3.563h3l-1.147-5.228-2.632,1.664ZM.026,24H3.026l.779-3.563-2.632-1.664L.026,24Z"/></svg>
