<?xml version="1.0" encoding="UTF-8"?>
<svg xmlns="http://www.w3.org/2000/svg" id="Layer_1" data-name="Layer 1" viewBox="0 0 24 24">
  <path d="M11.249,14.153c-.295,.337-.311,.525-.074,.904l4.841,6.296-.016,2.656-3-.018,.01-1.626-1.049-1.365H0V8C0,3.589,3.589,0,8,0s8,3.589,8,8v2.946l-.595-.527c-.704-.624-1.536-1.023-2.405-1.233v-1.185c0-2.757-2.243-5-5-5S3,5.243,3,8v10h6.655l-.813-1.057c-1.245-1.404-1.033-3.883,.464-5.076,1.373-1.167,3.425-1.145,4.772,.048l3.917,3.471-1.99,2.245-3.916-3.471c-.236-.209-.598-.214-.841-.008Zm-6.249-6.153c0,1.657,1.343,3,3,3s3-1.343,3-3-1.343-3-3-3-3,1.343-3,3Zm12.977-1.128c.007,.149,.023,.296,.023,.446v3.558l3,2.623v10.5h3V12.138l-6.023-5.265Z"/>
</svg>
