<?xml version="1.0" encoding="UTF-8"?>
<svg xmlns="http://www.w3.org/2000/svg" id="Layer_1" data-name="Layer 1" viewBox="0 0 24 24">
  <path d="m23.993,15.05c-.273,2.225-2.18,3.949-4.492,3.949-2.347,0-4.275-1.775-4.503-4.048-.015-.149.003-.952,1.009-.952s6.035,0,7.04,0,.969.87.946,1.05Zm-14.993-3.051s.054-1-.952-1-6.036,0-7.042,0S-.017,11.823,0,11.981c.242,2.259,2.164,4.019,4.501,4.019s4.248-1.75,4.499-4Zm9.5,9h-5.024l.019-15.361,5.664,1.322c.115.026.229.04.342.04.681,0,1.298-.468,1.459-1.16.188-.807-.313-1.613-1.12-1.802l-6.342-1.48v-1.057c.002-.829-.669-1.501-1.497-1.502h-.002c-.828,0-1.499.67-1.5,1.498v.361S4.841.539,4.841.539c-.803-.186-1.613.313-1.802,1.12-.188.807.313,1.613,1.12,1.802l6.337,1.479-.02,16.061h-4.976c-.829,0-1.5.671-1.5,1.5s.671,1.5,1.5,1.5h13c.829,0,1.5-.671,1.5-1.5s-.671-1.5-1.5-1.5ZM2.293,9.707c.195.195.451.293.707.293s.512-.098.707-.293l.793-.793.793.793c.195.195.451.293.707.293s.512-.098.707-.293c.391-.391.391-1.023,0-1.414l-.793-.793.793-.793c.391-.391.391-1.023,0-1.414s-1.023-.391-1.414,0l-.793.793-.793-.793c-.391-.391-1.023-.391-1.414,0s-.391,1.023,0,1.414l.793.793-.793.793c-.391.391-.391,1.023,0,1.414Zm15.414-.414c-.391-.391-1.023-.391-1.414,0s-.391,1.023,0,1.414l1.436,1.436c.339.34.791.526,1.271.526s.932-.187,1.271-.526l2.436-2.436c.391-.391.391-1.023,0-1.414s-1.023-.391-1.414,0l-2.293,2.293-1.293-1.293Z"/>
</svg>
