<?xml version="1.0" encoding="UTF-8"?>
<svg xmlns="http://www.w3.org/2000/svg" id="Layer_1" data-name="Layer 1" viewBox="0 0 24 24">
  <path d="M23,21.5c0,1.381-1.119,2.5-2.5,2.5-.815,0-1.532-.396-1.989-1h-2.011c-1.93,0-3.5-1.57-3.5-3.5v-5c0-.828,.671-1.5,1.5-1.5s1.5,.672,1.5,1.5v5c0,.275,.224,.5,.5,.5h2.011c.456-.604,1.173-1,1.989-1,1.381,0,2.5,1.119,2.5,2.5ZM9.5,13c-.829,0-1.5,.672-1.5,1.5v5c0,.275-.224,.5-.5,.5h-2.011c-.456-.604-1.173-1-1.989-1-1.381,0-2.5,1.119-2.5,2.5s1.119,2.5,2.5,2.5c.815,0,1.532-.396,1.989-1h2.011c1.93,0,3.5-1.57,3.5-3.5v-5c0-.828-.671-1.5-1.5-1.5Zm-8.5,.029c0,1.938,1.085,3.682,2.833,4.55,.214,.106,.442,.156,.666,.156,.552,0,1.083-.306,1.345-.833,.368-.742,.065-1.643-.677-2.011-.72-.357-1.167-1.071-1.167-1.862,0-.689,.305-1.41,.775-1.834,.848-.762,1.244-1.899,1.035-2.97-.104-.53-.11-1.079-.017-1.632,.303-1.808,1.786-3.3,3.605-3.63,2.089-.373,4.092,.624,4.987,2.492,.445,.931,1.29,1.581,2.315,1.783,1.881,.371,3.3,1.988,3.3,3.761,0,1.197-.532,2.327-1.46,3.101-.636,.531-.722,1.477-.191,2.113,.53,.635,1.477,.722,2.112,.191,1.614-1.346,2.539-3.315,2.539-5.405,0-3.23-2.405-6.05-5.719-6.704-.052-.01-.145-.041-.19-.135C15.627,1.104,12.243-.603,8.863,.013,5.774,.571,3.351,3.017,2.834,6.098c-.152,.909-.142,1.819,.032,2.704,.003,.014-.015,.09-.097,.164-1.107,.997-1.769,2.517-1.769,4.063Z"/>
</svg>
