<?xml version="1.0" encoding="utf-8"?>
<!-- Generator: Adobe Illustrator 25.4.1, SVG Export Plug-In . SVG Version: 6.00 Build 0)  -->
<svg version="1.1" id="Layer_1" xmlns="http://www.w3.org/2000/svg" xmlns:xlink="http://www.w3.org/1999/xlink" x="0px" y="0px"
	 viewBox="0 0 461.93 215.16" style="enable-background:new 0 0 461.93 215.16;" xml:space="preserve">
<style type="text/css">
	.st0{fill:#010202;}
</style>
<g>
	<path class="st0" d="M104.24,136.05c-4.44,1.4-9.09,2.11-13.81,2.11c-25.36,0-46-20.64-46-46s20.64-46,46-46
		c4.67,0,9.28,0.7,13.68,2.07c7.39,2.3,15.23-1.83,17.53-9.21c2.3-7.38-1.83-15.23-9.21-17.53c-7.1-2.21-14.5-3.33-22-3.33
		c-40.8,0-74,33.2-74,74s33.2,74,74,74c7.57,0,15.04-1.14,22.2-3.39c7.38-2.32,11.48-10.18,9.16-17.55
		C119.48,137.83,111.62,133.73,104.24,136.05z"/>
	<path class="st0" d="M373.33,18.21c-8.39-0.32-16.69,0.76-24.63,3.19c-7.32,2.25-11.82,9.89-9.75,17.27
		c2.14,7.65,10.16,11.95,17.68,9.59c4.45-1.4,9.09-2.11,13.81-2.11c25.23,0,45.79,20.42,46,45.61
		c0.21,24.76-19.65,45.53-44.39,46.37c-5.27,0.18-10.47-0.52-15.42-2.08c-9.02-2.83-18.2,3.9-18.2,13.36v38.87
		c0,7.54,5.79,14.03,13.32,14.38c8.04,0.38,14.68-6.03,14.68-13.98v-22.62c1.33,0.07,2.67,0.11,4.01,0.11
		c40.14,0,72.91-32.12,73.97-72C445.48,53.87,413.59,19.75,373.33,18.21z"/>
	<path class="st0" d="M270.43,18.15c-14.3,0-28.16,4.13-40.03,11.78c-11.54-7.44-25.26-11.78-39.97-11.78c-40.8,0-74,33.2-74,74
		s33.2,74,74,74c14.3,0,28.16-4.13,40.03-11.78c11.54,7.44,25.26,11.78,39.97,11.78c40.8,0,74-33.2,74-74S311.24,18.15,270.43,18.15
		z M270.43,138.15c-25.36,0-46-20.64-46-46c0-7.73-6.27-14-14-14s-14,6.27-14,14c0,15.53,4.82,29.96,13.03,41.87
		c-5.92,2.69-12.4,4.13-19.03,4.13c-25.36,0-46-20.64-46-46s20.64-46,46-46s46,20.64,46,46c0,7.73,6.27,14,14,14
		c7.73,0,14-6.27,14-14c0-15.53-4.82-29.96-13.03-41.87c5.92-2.69,12.4-4.13,19.03-4.13c25.36,0,46,20.64,46,46
		S295.8,138.15,270.43,138.15z"/>
</g>
</svg>
