<?xml version="1.0" encoding="UTF-8"?><svg width="144" height="144" viewBox="0 0 144 144" xmlns="http://www.w3.org/2000/svg" xmlns:xlink="http://www.w3.org/1999/xlink"><svg data-name="Layer 1" width="24" height="24" viewBox="0 0 24 24" id="age-alt" xmlns="http://www.w3.org/2000/svg"><path d="M16.5 2.5a2.5 2.5 0 1 1 5 0 2.5 2.5 0 0 1-5 0ZM24 19h-2.5v5h-5v-5H14V9.5C14 7.57 15.57 6 17.5 6h3C22.43 6 24 7.57 24 9.5V19Zm-7-3h4V9.5a.5.5 0 0 0-.5-.5h-3a.5.5 0 0 0-.5.5V16ZM12 3a2.5 2.5 0 1 0 0 5 2.5 2.5 0 0 0 0-5Zm-5 9.5V20h2v4h3v-7h-2v-4.5a.5.5 0 0 1 .5-.5H12V9h-1.5C8.57 9 7 10.57 7 12.5ZM5 6a2.5 2.5 0 1 0 0 5 2.5 2.5 0 0 0 0-5Zm-5 9.5V21h2v3h3v-6H3v-2.5a.5.5 0 0 1 .5-.5H5v-3H3.5C1.57 12 0 13.57 0 15.5Z"/></svg><svg data-name="Layer 1" width="24" height="24" viewBox="0 0 24 24" id="age-alt-2" x="24" xmlns="http://www.w3.org/2000/svg"><path d="M7 8.5a2.5 2.5 0 1 1-5 0 2.5 2.5 0 0 1 5 0ZM0 15v5h2v4h2v-4h1v-2H2v-3c0-.551.449-1 1-1h2v-2H3c-1.654 0-3 1.346-3 3ZM11.5 3a2.5 2.5 0 1 0 0 5 2.5 2.5 0 0 0 0-5ZM7 12v7h2v5h2v-5h1v-2H9v-5c0-.551.449-1 1-1h2V9h-2c-1.654 0-3 1.346-3 3Zm11.5-7a2.5 2.5 0 1 0 0-5 2.5 2.5 0 0 0 0 5ZM23 18h-2v6h-2v-6h-1v6h-2v-6h-2V9c0-1.654 1.346-3 3-3h3c1.654 0 3 1.346 3 3v9Zm-2-9c0-.551-.449-1-1-1h-3c-.551 0-1 .449-1 1v7h5V9Z"/></svg><svg data-name="Layer 1" width="24" height="24" viewBox="0 0 24 24" id="auto-sync" y="24" xmlns="http://www.w3.org/2000/svg"><path d="M23.998 12.477 24 12.5c0 2.91-1.61 5.499-4 6.895v-3.931c.629-.847 1-1.878 1-2.964l.002-.023H21c.054-2.963-2.755-4.767-5.63-4.512-.479-2.633-2.634-5.009-5.279-4.965C7.189 3 5 5.149 5 8c.008 1.84.27 2.014.726 3.283-1.318.56-2.805 1.473-2.726 3.104h-.011c.003.894.341 1.743 1.011 2.328v3.421c-2.376-.848-4.074-3.172-3.989-5.75H0c0-1.773.794-3.407 2.133-4.494A11.93 11.93 0 0 1 2 8c0-4.486 3.554-8 8.091-8 3.225 0 6.177 2.051 7.493 5.097 3.723.58 6.416 3.596 6.416 7.38h-.002ZM18 16.5V24H6v-8.5C6 14.122 7.122 13 8.5 13h2.191l1.714 1H15.5c1.379 0 2.5 1.122 2.5 2.5Zm-3 .5H9v4h6v-4Zm.949-5c.019-.166.051-.329.051-.5C16 9.019 13.981 7 11.5 7a4.513 4.513 0 0 0-3.175 1.325L7 7v3.429a.57.57 0 0 0 .571.571H11L9.736 9.736A2.51 2.51 0 0 1 11.5 9a2.503 2.503 0 0 1 2.449 3h2Z"/></svg><svg style="enable-background:new 0 0 24 24" xml:space="preserve" width="24" height="24" viewBox="0 0 24 24" id="back-up" x="24" y="24" xmlns="http://www.w3.org/2000/svg"><path d="M15.8 15.3c-.5-.1-.9-.2-1.4-.4-.4-.2-.9-.1-1.2.1-1.2.6-2.9 1-4.6 1C5 16 3.2 14.9 3 14.5V13c1.6.7 3.5 1 5.5 1 .8 0 1.5-.7 1.5-1.5S9.3 11 8.5 11C5 11 3.2 9.9 3 9.5V8c1.2.5 2.7.8 4.4 1h.1c.8 0 1.4-.6 1.5-1.4C9 6.7 8.4 6 7.6 6 4.7 5.8 3.2 4.9 3 4.5 3.2 4.1 5.1 3 8.5 3c.8 0 1.5-.7 1.5-1.5S9.3 0 8.5 0C4.3 0 0 1.5 0 4.5v15c0 3 4.3 4.5 8.5 4.5s8.5-1.5 8.5-4.5v-2.7c0-.7-.5-1.3-1.2-1.5zM8.5 21C5 21 3.2 19.9 3 19.5V18c3.1 1.3 7.9 1.3 10.9-.1h.1v1.5c-.2.5-2 1.6-5.5 1.6z"/><path d="M21.8 7.5c-.6 0-1 .3-1.3.8-.6 1-1.7 1.7-3 1.7-.4 0-.9-.1-1.3-.2L17 9c.4-.4.2-1-.3-1H13c-.6 0-1 .4-1 1v3.7c0 .5.6.7.9.4L14 12c1 .6 2.2 1 3.5 1 2.4 0 4.4-1.3 5.6-3.2.6-1-.1-2.3-1.3-2.3zM23.1.9l-1 1A6.42 6.42 0 0 0 17.5 0c-2.9 0-5.4 1.9-6.2 4.5-.3 1 .4 2 1.4 2 .6 0 1.2-.4 1.4-1 .5-1.4 1.8-2.5 3.4-2.5.9 0 1.8.4 2.4 1h.1l-1.1 1.1c-.3.3-.1.9.4.9h4.2c.3 0 .5-.2.5-.5V1.3c0-.5-.6-.7-.9-.4z"/></svg><svg data-name="Layer 1" width="24" height="24" viewBox="0 0 24 24" id="bank" x="48" xmlns="http://www.w3.org/2000/svg"><path d="M24 22.5a1.5 1.5 0 0 1-1.5 1.5h-21a1.5 1.5 0 0 1 0-3h21a1.5 1.5 0 0 1 1.5 1.5zM.37 9.341A3.03 3.03 0 0 1 .5 6.228a5.1 5.1 0 0 1 1.785-1.669L9.444.652a5.314 5.314 0 0 1 5.112 0l7.16 3.907A5.106 5.106 0 0 1 23.5 6.226a3.032 3.032 0 0 1 .134 3.115A3.126 3.126 0 0 1 21 10.991V16h.5a1.5 1.5 0 0 1 0 3h-19a1.5 1.5 0 0 1 0-3H3v-5.009a3.126 3.126 0 0 1-2.63-1.65zM6 16h2v-5H6zm5-5v5h2v-5zm7 5v-5h-2v5zM3 7.887A.14.14 0 0 0 3.131 8h17.738A.145.145 0 0 0 21 7.885a2.145 2.145 0 0 0-.721-.693l-7.16-3.906a2.325 2.325 0 0 0-2.236 0L3.722 7.192A2.1 2.1 0 0 0 3 7.887z"/></svg><svg data-name="Layer 1" width="24" height="24" viewBox="0 0 24 24" id="binary-lock" x="48" y="24" xmlns="http://www.w3.org/2000/svg"><path d="M23 15.78V13.5c0-2.48-2.02-4.5-4.5-4.5S14 11.02 14 13.5v2.28c-.61.55-1 1.34-1 2.22v3c0 1.66 1.34 3 3 3h5c1.66 0 3-1.34 3-3v-3c0-.89-.39-1.67-1-2.22ZM18.5 12c.83 0 1.5.67 1.5 1.5V15h-3v-1.5c0-.83.67-1.5 1.5-1.5Zm0 9c-.83 0-1.5-.67-1.5-1.5s.67-1.5 1.5-1.5 1.5.67 1.5 1.5-.67 1.5-1.5 1.5Zm-14-10C6.98 11 9 8.98 9 6.5v-2C9 2.02 6.98 0 4.5 0S0 2.02 0 4.5v2C0 8.98 2.02 11 4.5 11ZM3 4.5C3 3.67 3.67 3 4.5 3S6 3.67 6 4.5v2C6 7.33 5.33 8 4.5 8S3 7.33 3 6.5v-2Zm9 10c0 .83-.67 1.5-1.5 1.5S9 16.67 9 17.5v2c0 .63.4 1.2 1 1.41.78.28 1.19 1.13.91 1.91-.22.62-.8 1-1.41 1-.17 0-.33-.03-.5-.09-1.79-.63-3-2.34-3-4.24v-2c0-2.48 2.02-4.5 4.5-4.5.83 0 1.5.67 1.5 1.5Zm1.5-4.5c-.83 0-1.5-.67-1.5-1.5V4.91c-.53.19-1.14.07-1.56-.35a1.49 1.49 0 0 1 0-2.12l2-2a1.5 1.5 0 0 1 1.63-.33c.56.23.93.78.93 1.39v7c0 .83-.67 1.5-1.5 1.5ZM5 14.5v8c0 .83-.67 1.5-1.5 1.5S2 23.33 2 22.5v-4.59c-.53.19-1.14.07-1.56-.35a1.49 1.49 0 0 1 0-2.12l2-2a1.5 1.5 0 0 1 1.63-.33c.56.23.93.78.93 1.39Z"/></svg><svg data-name="Layer 1" width="24" height="24" viewBox="0 0 24 24" id="branching" y="48" xmlns="http://www.w3.org/2000/svg"><path d="M6 12a3 3 0 1 1-6 0 3 3 0 0 1 6 0Zm15-3a3 3 0 1 0 0 6 3 3 0 0 0 0-6Zm0 9a3 3 0 1 0 0 6 3 3 0 0 0 0-6Zm0-12a3 3 0 1 0 0-6 3 3 0 0 0 0 6Zm-6.5-1.5h1a1.5 1.5 0 1 0 0-3h-1C12.57 1.5 11 3.07 11 5v5.5H8.5a1.5 1.5 0 1 0 0 3H11V19c0 1.93 1.57 3.5 3.5 3.5h1a1.5 1.5 0 0 0 0-3h-1a.501.501 0 0 1-.5-.5v-5.5h1.5a1.5 1.5 0 1 0 0-3H14V5a.5.5 0 0 1 .5-.5Z"/></svg><svg data-name="Layer 1" width="24" height="24" viewBox="0 0 24 24" id="chart-arrow-down" x="24" y="48" xmlns="http://www.w3.org/2000/svg"><path d="M3 20.5V0H0v20.5A3.5 3.5 0 0 0 3.5 24H24v-3H3.5a.5.5 0 0 1-.5-.5Z"/><path d="M21.561 12.439 16 6.879l-2.5 2.5-4.939-4.94-2.122 2.122 7.061 7.06 2.5-2.5 3.439 3.44L17 17h5.5a1.5 1.5 0 0 0 1.5-1.5V10Z"/></svg><svg data-name="Layer 1" width="24" height="24" viewBox="0 0 24 24" id="chart-line-up" x="48" y="48" xmlns="http://www.w3.org/2000/svg"><path d="M3.5 21H24v3H3.5C1.57 24 0 22.43 0 20.5V0h3v20.5a.5.5 0 0 0 .5.5ZM16 4v3h2.879L14.5 11.379l-4-4-5.561 5.561 2.121 2.121 3.439-3.439 4 4 6.5-6.5v2.879h3V4h-8Z"/></svg><svg data-name="Layer 1" width="24" height="24" viewBox="0 0 24 24" id="chart-tree" x="72" xmlns="http://www.w3.org/2000/svg"><path d="M21.864 18.127A5.337 5.337 0 0 0 16.674 14H13.5v-1.616a6.282 6.282 0 1 0-3 0V14H7.326a5.337 5.337 0 0 0-5.19 4.127 3 3 0 1 0 2.921.69A2.331 2.331 0 0 1 7.326 17H10.5v1.4a3 3 0 1 0 3 0V17h3.174a2.331 2.331 0 0 1 2.269 1.817 3 3 0 1 0 2.921-.69ZM8.718 6.283A3.282 3.282 0 1 1 12 9.565a3.286 3.286 0 0 1-3.282-3.282Z"/></svg><svg viewBox="0 0 507.506 507.506" style="enable-background:new 0 0 507.506 507.506" xml:space="preserve" width="24" height="24" id="check" x="72" y="24" xmlns="http://www.w3.org/2000/svg"><path d="M163.865 436.934a54.228 54.228 0 0 1-38.4-15.915L9.369 304.966c-12.492-12.496-12.492-32.752 0-45.248 12.496-12.492 32.752-12.492 45.248 0l109.248 109.248L452.889 79.942c12.496-12.492 32.752-12.492 45.248 0 12.492 12.496 12.492 32.752 0 45.248L202.265 421.019a54.228 54.228 0 0 1-38.4 15.915z"/></svg><svg data-name="Layer 1" width="24" height="24" viewBox="0 0 24 24" id="coins" x="72" y="48" xmlns="http://www.w3.org/2000/svg"><path d="M16.5 0C12.224 0 9 1.935 9 4.5c0 .2.02.397.058.589C8.558 5.03 8.037 5 7.5 5 3.224 5 0 6.935 0 9.5v10C0 22.065 3.224 24 7.5 24s7.5-1.935 7.5-4.5v-.585c.491.056.994.085 1.5.085 4.276 0 7.5-1.935 7.5-4.5v-10C24 1.935 20.776 0 16.5 0ZM21 9.5c0 .374-1.596 1.5-4.5 1.5-.513 0-1.018-.037-1.5-.109V9.5c0-.2-.02-.397-.058-.589.5.059 1.021.089 1.558.089 1.716 0 3.263-.312 4.5-.851V9.5ZM3 13.149c1.237.539 2.784.851 4.5.851s3.263-.312 4.5-.851V14.5c0 .374-1.596 1.5-4.5 1.5S3 14.874 3 14.5v-1.351ZM16.5 3C19.404 3 21 4.126 21 4.5S19.404 6 16.5 6 12 4.874 12 4.5 13.596 3 16.5 3Zm-9 5C10.404 8 12 9.126 12 9.5S10.404 11 7.5 11 3 9.874 3 9.5 4.596 8 7.5 8Zm0 13C4.596 21 3 19.874 3 19.5v-1.351c1.237.539 2.784.851 4.5.851s3.263-.312 4.5-.851V19.5c0 .374-1.596 1.5-4.5 1.5Zm9-5c-.513 0-1.018-.037-1.5-.109v-1.976c.491.056.994.085 1.5.085 1.716 0 3.263-.312 4.5-.851V14.5c0 .374-1.596 1.5-4.5 1.5Z"/></svg><svg width="24" height="24" viewBox="0 0 24 24" id="dollar" y="72" xmlns="http://www.w3.org/2000/svg"><path d="M18.5 9.5A1.5 1.5 0 0 0 20 8v-.687A5.32 5.32 0 0 0 14.687 2H13.5v-.5a1.5 1.5 0 0 0-3 0V2H9.313a5.313 5.313 0 0 0-1.541 10.4l2.728.746V19H9.313A2.316 2.316 0 0 1 7 16.687V16a1.5 1.5 0 0 0-3 0v.687A5.32 5.32 0 0 0 9.313 22H10.5v.5a1.5 1.5 0 0 0 3 0V22h1.187a5.313 5.313 0 0 0 1.541-10.4l-2.728-.744V5h1.187A2.316 2.316 0 0 1 17 7.313V8a1.5 1.5 0 0 0 1.5 1.5Zm-3.118 4.979a2.314 2.314 0 0 1-.7 4.521H13.5v-5.035ZM10.5 10.035l-1.882-.514A2.314 2.314 0 0 1 9.313 5H10.5Z"/></svg><svg data-name="Layer 1" width="24" height="24" viewBox="0 0 24 24" id="duration-alt" x="24" y="72" xmlns="http://www.w3.org/2000/svg"><path d="M11.923 17.806A.87.87 0 0 1 11.118 19H6.855a.87.87 0 0 1-.805-1.194c.367-.908 1.073-1.781 2.099-2.592l.3-.237a.87.87 0 0 1 1.08.002l.294.235c1.027.816 1.734 1.689 2.1 2.593Zm4.93 2.218a1.499 1.499 0 0 0-2.087.38 1.38 1.38 0 0 1-1.135.596H4.368c-.401 0-.782-.176-1.046-.481a1.301 1.301 0 0 1-.308-1.048c.337-2.244 1.746-4.361 4.188-6.294a1.502 1.502 0 0 0 0-2.352C4.76 8.892 3.35 6.774 3.014 4.53c-.077-.511.16-.875.308-1.047a1.38 1.38 0 0 1 1.046-.481h9.264c.4 0 .781.174 1.044.479a1.5 1.5 0 0 0 2.271-1.96 4.375 4.375 0 0 0-3.315-1.52H4.368a4.375 4.375 0 0 0-3.319 1.523A4.304 4.304 0 0 0 .048 4.975C.43 7.517 1.752 9.874 3.984 12 1.752 14.126.43 16.483.048 19.025a4.304 4.304 0 0 0 1.001 3.451A4.376 4.376 0 0 0 4.368 24h9.264a4.382 4.382 0 0 0 3.602-1.889 1.499 1.499 0 0 0-.38-2.087ZM23.999 12a6 6 0 1 1-12 0 6 6 0 0 1 12 0Zm-3.5 1.086-1.5-1.5V9a1 1 0 0 0-2 0v2.586A2 2 0 0 0 17.585 13l1.5 1.5a1 1 0 0 0 1.414-1.414Z"/></svg><svg data-name="Layer 1" width="24" height="24" viewBox="0 0 24 24" id="european-union" x="48" y="72" xmlns="http://www.w3.org/2000/svg"><path d="M15.5 16a2.5 2.5 0 0 1-2.5-2.5V8h1.6v5.5c0 .496.404.9.9.9s.9-.404.9-.9V8H18v5.5a2.5 2.5 0 0 1-2.5 2.5ZM11 9.6V8H6.5v8H11v-1.6H8.1v-1.601H11v-1.6H8.1V9.598H11ZM12.013 3a1.5 1.5 0 1 0-.001-3.001A1.5 1.5 0 0 0 12.013 3ZM12 21a1.5 1.5 0 1 0 .001 3.001A1.5 1.5 0 0 0 12 21Zm10.506-10.494a1.5 1.5 0 1 0 .001 3.001 1.5 1.5 0 0 0-.001-3.001Zm-19.5 1.488a1.5 1.5 0 1 0-3.001.001 1.5 1.5 0 0 0 3.001-.001Zm18.784 4.1a1.5 1.5 0 1 0-1.536 2.577 1.5 1.5 0 0 0 1.536-2.577ZM3.758 5.33a1.501 1.501 0 0 0-1.536 2.577A1.5 1.5 0 0 0 3.758 5.33Zm3.634-1.057a1.5 1.5 0 1 0-1.534-2.576 1.5 1.5 0 0 0 1.534 2.576Zm9.227 15.455a1.498 1.498 0 0 0-.52 2.056 1.5 1.5 0 1 0 .52-2.056ZM2.221 16.094a1.5 1.5 0 1 0 1.534 2.577 1.5 1.5 0 0 0-1.534-2.577ZM21.79 7.907a1.5 1.5 0 1 0-1.536-2.578 1.5 1.5 0 0 0 1.536 2.578Zm-3.634-6.211a1.5 1.5 0 1 0-1.536 2.577 1.5 1.5 0 0 0 1.536-2.577ZM7.393 19.728a1.5 1.5 0 1 0-1.536 2.577 1.5 1.5 0 0 0 1.536-2.577Z"/></svg><svg data-name="Layer 1" width="24" height="24" viewBox="0 0 24 24" id="face-confused" x="72" y="72" xmlns="http://www.w3.org/2000/svg"><path d="M12 0C5.383 0 0 5.383 0 12s5.383 12 12 12 12-5.383 12-12S18.617 0 12 0Zm0 21c-4.963 0-9-4.037-9-9s4.037-9 9-9 9 4.037 9 9-4.037 9-9 9Zm5-5.5a1.5 1.5 0 0 1-1.5 1.5H12c-.821 0-1.751.318-2.69.921a1.5 1.5 0 1 1-1.62-2.525C9.113 14.483 10.603 14 12 14h3.5a1.5 1.5 0 0 1 1.5 1.5Zm1-5.5a2 2 0 1 1-3.999.001A2 2 0 0 1 18 10ZM8 12a2 2 0 1 1-.001-3.999A2 2 0 0 1 8 12Z"/></svg><svg data-name="Layer 1" width="24" height="24" viewBox="0 0 24 24" id="fail" x="96" xmlns="http://www.w3.org/2000/svg"><path d="M11.126 8.168a1.602 1.602 0 0 0-1.534.057c-.471.277-.809.776-.926 1.356L7.501 15.06a.777.777 0 0 0 1.519.329l.175-.79h2.379l.165.782c.076.36.437.617.804.617a.777.777 0 0 0 .761-.937l-1.142-5.435c-.135-.668-.523-1.213-1.035-1.459ZM9.548 13l.686-3.104c.03-.149.105-.253.176-.296 0 0 .138.124.185.355l.641 3.044H9.548ZM5.6 9.6v1.801h.601a.8.8 0 1 1 0 1.6H5.6v2.223c0 .429-.348.777-.777.777s-.822-.348-.822-.777V8.779c0-.429.348-.777.777-.777h1.445c.429 0 .777.348.777.777s-.348.822-.777.822H5.6Zm10-.822v6.445c0 .429-.393.777-.823.777S14 15.652 14 15.223V8.778c0-.429.348-.777.777-.777s.823.348.823.777Zm2.9-5.777h-13A5.505 5.505 0 0 0 0 8.5v7C0 18.532 2.467 21 5.5 21h13c3.032 0 5.5-2.468 5.5-5.5v-7C24 5.468 21.532 3 18.5 3Zm2.5 12.5c0 1.379-1.121 2.5-2.5 2.5h-13a2.503 2.503 0 0 1-2.5-2.5v-7c0-1.379 1.122-2.5 2.5-2.5h13c1.379 0 2.5 1.121 2.5 2.5v7Zm-1-.322v.045a.777.777 0 0 1-.777.777h-1.445a.777.777 0 0 1-.777-.777V8.779c0-.429.348-.777.777-.777s.822.348.822.777v5.623h.623c.429 0 .777.348.777.777Z"/></svg><svg data-name="Layer 1" width="24" height="24" viewBox="0 0 24 24" id="file-pdf" x="96" y="24" xmlns="http://www.w3.org/2000/svg"><path d="m19.95 5.54-3.49-3.49A6.96 6.96 0 0 0 11.51 0H7C4.24 0 2 2.24 2 5v14c0 2.76 2.24 5 5 5h10c2.76 0 5-2.24 5-5v-8.51c0-1.87-.73-3.63-2.05-4.95Zm-1.41 1.41c.32.32.59.67.81 1.05h-4.34c-.55 0-1-.45-1-1V2.66c.38.22.73.49 1.05.81l3.49 3.49ZM20 19c0 1.65-1.35 3-3 3H7c-1.65 0-3-1.35-3-3V5c0-1.65 1.35-3 3-3h4.51c.16 0 .33 0 .49.02V7c0 1.65 1.35 3 3 3h4.98c.02.16.02.32.02.49V19ZM7.09 13H6c-.55 0-1 .45-1 1v4.44c0 .35.28.62.62.62s.62-.28.62-.62v-1.22h.84c1.18 0 2.14-.95 2.14-2.11S8.26 13 7.08 13Zm0 2.97h-.83v-1.72h.84c.48 0 .89.39.89.86s-.41.86-.89.86Zm11.93-2.34c0 .35-.28.62-.62.62h-1.69v1.14h1.24c.35 0 .62.28.62.62s-.28.62-.62.62h-1.24v1.8c0 .35-.28.62-.62.62s-.62-.28-.62-.62v-4.81c0-.35.28-.62.62-.62h2.31c.35 0 .62.28.62.62Zm-6.93-.62H11c-.55 0-1 .45-1 1v4.44c0 .35.28.56.62.56h1.46c1.18 0 2.14-.95 2.14-2.11v-1.78c0-1.16-.96-2.11-2.14-2.11Zm.89 3.89c0 .47-.41.86-.89.86h-.83v-3.5h.84c.48 0 .89.39.89.86v1.78Z"/></svg><svg data-name="Layer 1" width="24" height="24" viewBox="0 0 24 24" id="government-budget" x="96" y="48" xmlns="http://www.w3.org/2000/svg"><path d="M10 16.037V13h2.485c.221-.178.449-.345.685-.502a4.119 4.119 0 0 1-.301-1.51V10H4.595l6.426-3.487 4.537 2.475h5.738a3.225 3.225 0 0 0-.977-.82l-7.773-4.24L15 2.292 9.5 0v3.925L1.683 8.166A3.229 3.229 0 0 0 0 11v2h1.999v8H0v3h8v-.01l2.542.004A5.953 5.953 0 0 1 9 20c0-1.394.37-2.747 1-3.963ZM6.998 21H5v-8h2v8Zm11.896-7.682c.63-.644 1.236-1.482 1.236-2.33h-5.263c0 .848.606 1.686 1.236 2.33-2.773.758-5.104 3.646-5.104 6.682a3.998 3.998 0 0 0 4 3.988h5c2.206 0 4-1.789 4-3.988 0-3.036-2.331-5.924-5.104-6.682Zm1.104 7.67h-5c-.552 0-1-.443-1-.988 0-1.886 1.799-3.88 3.5-3.88s3.5 1.994 3.5 3.88a.995.995 0 0 1-1 .988Z"/></svg><svg data-name="Layer 1" width="24" height="24" viewBox="0 0 24 24" id="megaphone-announcement-leader" x="96" y="72" xmlns="http://www.w3.org/2000/svg"><path d="M23 6.408v2.511C23 9.516 22.516 10 21.918 10c-.477 0-.886-.317-1.031-.772C20.668 8.542 20.105 8 19 8h-1.425s1.201 2.708 1.228 2.756c.158.276.216.581.19.875-.008.254-.166.869-.94 1.281l-2.847 1.627A3.503 3.503 0 0 1 13.47 15H5.501a2.503 2.503 0 0 0-2.5 2.5v5a1.5 1.5 0 1 1-3 0v-5c0-3.032 2.467-5.5 5.5-5.5h7.969a.496.496 0 0 0 .247-.065l2.155-1.231-1.703-3.907A1.995 1.995 0 0 1 14.002 6V4a2 2 0 0 1 2-2h3c1.105 0 1.667-.543 1.887-1.228A1.088 1.088 0 0 1 21.92 0c.597 0 1.082.484 1.082 1.082v2.51c.581.207 1 .757 1 1.408s-.419 1.201-1 1.408ZM6 10a4 4 0 1 0 0-8 4 4 0 0 0 0 8Zm3.5 7A1.5 1.5 0 0 0 8 18.5v4a1.5 1.5 0 1 0 3 0v-4A1.5 1.5 0 0 0 9.5 17Z"/></svg><svg style="enable-background:new 0 0 24 24" xml:space="preserve" width="24" height="24" viewBox="0 0 24 24" id="megaphone-sound-waves" y="96" xmlns="http://www.w3.org/2000/svg"><path d="M18 1.3c-.2-1.7-2.8-1.6-3 .1-.1 1.7-1.7 2.6-4.5 2.6h-6C2 4 0 6 0 8.5v2c0 1.9 1.1 3.5 2.8 4.2l3.3 7.8c.4.9 1.3 1.5 2.4 1.5 1.8 0 3.1-1.9 2.4-3.5L8.5 15h1.9c4.3 0 4.4 1.9 4.5 2.6.1 1.9 3 1.7 3-.1.1 0 .1-16.2.1-16.2zM10.5 12h-6c-.8 0-1.5-.7-1.5-1.5v-2C3 7.7 3.7 7 4.5 7h6c1.8 0 3.3-.3 4.5-.9v6.8c-1.1-.6-2.5-.9-4.5-.9zM24 9.5c0 1.9-.7 3.7-2.1 5.1-.6.6-1.5.6-2.1 0-.6-.6-.6-1.5 0-2.1.8-.8 1.2-1.8 1.2-2.9s-.4-2.2-1.2-2.9c-.6-.6-.6-1.5 0-2.1.6-.6 1.5-.6 2.1 0 1.4 1.2 2.1 3 2.1 4.9z"/></svg><svg data-name="Layer 1" width="24" height="24" viewBox="0 0 24 24" id="mobile-hand" x="24" y="96" xmlns="http://www.w3.org/2000/svg"><path d="M18.5 0h-4A5.506 5.506 0 0 0 9 5.5v2a1.5 1.5 0 1 0 3 0v-2C12 4.122 13.121 3 14.5 3h4C19.879 3 21 4.122 21 5.5V16h-5.3c.607-1.407.181-3.157-1.005-4.133a3.658 3.658 0 0 0-4.774.05l-3.915 3.47a1.501 1.501 0 0 0 1.99 2.245l3.915-3.47a.65.65 0 0 1 .842-.008c.309.376.32.514.026.962l-3.643 4.741a5.532 5.532 0 0 0-1.054 2.38 1.5 1.5 0 1 0 2.953.529c.08-.577.466-1.089.824-1.53a4.89 4.89 0 0 0 2.628.765H19c2.658 0 4.81-2.08 4.97-4.698.02-.098.03-.199.03-.302V5.5C24 2.467 21.532 0 18.5 0Zm-1.501 20.008h-1a1 1 0 0 1 0-2h1a1 1 0 0 1 0 2ZM6.561 10.061l-1.364 1.364a7.453 7.453 0 0 0-2.196 5.303V22.5a1.5 1.5 0 1 1-3 0v-5.772c0-2.805 1.092-5.441 3.075-7.425L4.44 7.939a1.501 1.501 0 0 1 2.121 2.122Z"/></svg><svg width="24" height="24" viewBox="0 0 24 24" id="palette" x="48" y="96" xmlns="http://www.w3.org/2000/svg"><circle cx="16" cy="8" r="2"/><circle cx="9" cy="8" r="2"/><circle cx="8" cy="15" r="2"/><path d="M24.036 10.928A12.144 12.144 0 0 0 12.5.008 12 12 0 1 0 12.083 24c.338 0 .669-.022 1-.049a1.5 1.5 0 0 0 1.376-1.508l-.03-3.425a2.859 2.859 0 0 1 4.88-2.047l.1.1a2.38 2.38 0 0 0 2.19.644A2.344 2.344 0 0 0 23.3 16.25a11.909 11.909 0 0 0 .736-5.322Zm-3.249 3.366a5.86 5.86 0 0 0-9.359 4.75l.017 1.933A9 9 0 0 1 12.082 3c.1 0 .212 0 .318.006a9.105 9.105 0 0 1 8.648 8.185 8.964 8.964 0 0 1-.261 3.103Z"/></svg><svg data-name="Layer 1" width="24" height="24" viewBox="0 0 24 24" id="paper-plane-launch" x="72" y="96" xmlns="http://www.w3.org/2000/svg"><path d="M12.5 5.41 11 1.04a1.04 1.04 0 0 1 1.546-.909L24 6.499l-11.456 6.37a1.028 1.028 0 0 1-1.029-.015 1.036 1.036 0 0 1-.514-.897L12.5 7.5l8.5-1-8.5-1.09ZM0 24h4v-3H0v3Zm6 0h4v-3H6v3Zm13.5-9h-13C4.57 15 3 13.43 3 11.5S4.57 8 6.5 8H9V5H6.5C2.916 5 0 7.916 0 11.5S2.916 18 6.5 18h13c.827 0 1.5.673 1.5 1.5s-.673 1.5-1.5 1.5H12v3h7.5c2.481 0 4.5-2.019 4.5-4.5S21.981 15 19.5 15Z"/></svg><svg data-name="Layer 1" width="24" height="24" viewBox="0 0 24 24" id="people-carry-box" x="96" y="96" xmlns="http://www.w3.org/2000/svg"><path d="M2.974 2.5a2.5 2.5 0 1 1 5 0 2.5 2.5 0 0 1-5 0Zm20.954 10.528-.879-4.254a3.513 3.513 0 0 0-3.428-2.791h-1.245a3.511 3.511 0 0 0-3.04 1.764L14.05 10H9.948L8.662 7.747a3.508 3.508 0 0 0-3.039-1.764H4.378A3.514 3.514 0 0 0 .95 8.774l-.877 4.254a3.518 3.518 0 0 0 1.557 3.666l3.371 2.132V24h3v-6.826l-2.751-1.74 1.24-5.443 2.511 4.398V16h6v-1.611l2.511-4.399 1.24 5.444-2.751 1.74V24h3v-5.174l3.371-2.132a3.52 3.52 0 0 0 1.557-3.666ZM18.5 5a2.5 2.5 0 1 0 0-5 2.5 2.5 0 0 0 0 5Zm1.695 15.437L20.974 24h3l-1.147-5.228-2.632 1.664ZM.026 24h3l.779-3.563-2.632-1.664L.026 24Z"/></svg><svg data-name="Layer 1" width="24" height="24" viewBox="0 0 24 24" id="pound" x="120" xmlns="http://www.w3.org/2000/svg"><path d="M20.5 21H8.493A8.213 8.213 0 0 0 9 18v-4h5.5a1.5 1.5 0 0 0 0-3H9V8a5.013 5.013 0 0 1 10-.5 1.5 1.5 0 0 0 3 0C22 3.505 18.262 0 14 0a8.009 8.009 0 0 0-8 8v3H4.5a1.5 1.5 0 0 0 0 3H6v4c0 2.583-.737 3-2.5 3a1.5 1.5 0 0 0 0 3h17a1.5 1.5 0 0 0 0-3z"/></svg><svg data-name="Layer 1" width="24" height="24" viewBox="0 0 24 24" id="remote-control-hand" x="120" y="24" xmlns="http://www.w3.org/2000/svg"><path d="M11.249 14.153c-.295.337-.311.525-.074.904l4.841 6.296L16 24.009l-3-.018.01-1.626L11.961 21H0V8c0-4.411 3.589-8 8-8s8 3.589 8 8v2.946l-.595-.527A5.57 5.57 0 0 0 13 9.186V8.001c0-2.757-2.243-5-5-5S3 5.243 3 8v10h6.655l-.813-1.057c-1.245-1.404-1.033-3.883.464-5.076a3.659 3.659 0 0 1 4.772.048l3.917 3.471-1.99 2.245-3.916-3.471a.646.646 0 0 0-.841-.008ZM5 8a3 3 0 1 0 6 0 3 3 0 0 0-6 0Zm12.977-1.128c.007.149.023.296.023.446v3.558l3 2.623v10.5h3V12.138l-6.023-5.265Z"/></svg><svg data-name="Layer 1" width="24" height="24" viewBox="0 0 24 24" id="rocket-lunch" x="120" y="48" xmlns="http://www.w3.org/2000/svg"><path d="M18 8.5A2.5 2.5 0 1 1 15.5 6 2.5 2.5 0 0 1 18 8.5Zm-1.341 9.213a11.038 11.038 0 0 1-.828 2.222A7.634 7.634 0 0 1 9 24H8v-4.857A3.214 3.214 0 0 0 4.857 16H0v-1a7.634 7.634 0 0 1 4.065-6.831 11.038 11.038 0 0 1 2.222-.828C9.96 2.38 14.221.178 20.458 0h.042A3.489 3.489 0 0 1 24 3.551C23.82 9.877 21.686 14 16.659 17.713ZM21 3.508A.5.5 0 0 0 20.515 3c-5.461.162-8.839 1.966-12.038 6.431a28.441 28.441 0 0 0-2.206 3.737 6.287 6.287 0 0 1 4.561 4.561 28.376 28.376 0 0 0 3.737-2.206C19.042 12.317 20.846 8.949 21 3.508ZM1.631 18.728C.857 19.5.38 21.831.211 22.8L0 24l1.2-.212c.961-.17 3.278-.649 4.052-1.425a2.58 2.58 0 0 0 0-3.635 2.613 2.613 0 0 0-3.621 0Z"/></svg><svg data-name="Layer 1" width="24" height="24" viewBox="0 0 24 24" id="scale-comparison-alt" x="120" y="72" xmlns="http://www.w3.org/2000/svg"><path d="M23.993 15.05a4.517 4.517 0 0 1-4.492 3.949 4.516 4.516 0 0 1-4.503-4.048c-.015-.149.003-.952 1.009-.952h7.04c1.005 0 .969.87.946 1.05ZM9 11.999s.054-1-.952-1H1.006c-1.006 0-1.023.824-1.006.982C.242 14.24 2.164 16 4.501 16S8.749 14.25 9 12Zm9.5 9h-5.024l.019-15.361 5.664 1.322a1.5 1.5 0 0 0 .681-2.922l-6.342-1.48V1.501a1.498 1.498 0 0 0-1.497-1.502h-.002a1.5 1.5 0 0 0-1.5 1.498v.361L4.841.539a1.5 1.5 0 0 0-.682 2.922l6.337 1.479-.02 16.061H5.5a1.5 1.5 0 1 0 0 3h13a1.5 1.5 0 1 0 0-3ZM2.293 9.707a.997.997 0 0 0 1.414 0l.793-.793.793.793a.997.997 0 0 0 1.414 0 .999.999 0 0 0 0-1.414L5.914 7.5l.793-.793a.999.999 0 1 0-1.414-1.414l-.793.793-.793-.793a.999.999 0 1 0-1.414 1.414l.793.793-.793.793a.999.999 0 0 0 0 1.414Zm15.414-.414a.999.999 0 1 0-1.414 1.414l1.436 1.436c.339.34.791.526 1.271.526s.932-.187 1.271-.526l2.436-2.436a.999.999 0 1 0-1.414-1.414L19 10.586l-1.293-1.293Z"/></svg><svg width="24" height="24" viewBox="0 0 24 24" id="smartphone" x="120" y="96" xmlns="http://www.w3.org/2000/svg"><path d="M14.5 0h-5A5.506 5.506 0 0 0 4 5.5v13A5.506 5.506 0 0 0 9.5 24h5a5.506 5.506 0 0 0 5.5-5.5v-13A5.506 5.506 0 0 0 14.5 0Zm-5 3h5A2.5 2.5 0 0 1 17 5.5V18H7V5.5A2.5 2.5 0 0 1 9.5 3ZM12 22a1 1 0 0 1-1-1 1 1 0 0 1 1-1 1 1 0 0 1 1 1 1 1 0 0 1-1 1Z"/></svg><svg data-name="Layer 1" width="24" height="24" viewBox="0 0 24 24" id="system-cloud" y="120" xmlns="http://www.w3.org/2000/svg"><path d="M23 21.5a2.5 2.5 0 0 1-2.5 2.5 2.49 2.49 0 0 1-1.989-1H16.5c-1.93 0-3.5-1.57-3.5-3.5v-5a1.5 1.5 0 1 1 3 0v5a.5.5 0 0 0 .5.5h2.011c.456-.604 1.173-1 1.989-1a2.5 2.5 0 0 1 2.5 2.5ZM9.5 13A1.5 1.5 0 0 0 8 14.5v5a.5.5 0 0 1-.5.5H5.489A2.486 2.486 0 0 0 3.5 19a2.5 2.5 0 1 0 0 5 2.49 2.49 0 0 0 1.989-1H7.5c1.93 0 3.5-1.57 3.5-3.5v-5A1.5 1.5 0 0 0 9.5 13Zm-8.5.029a5.057 5.057 0 0 0 2.833 4.55 1.501 1.501 0 0 0 1.334-2.688A2.073 2.073 0 0 1 4 13.029c0-.689.305-1.41.775-1.834.848-.762 1.244-1.899 1.035-2.97a4.538 4.538 0 0 1-.017-1.632c.303-1.808 1.786-3.3 3.605-3.63 2.089-.373 4.092.624 4.987 2.492A3.23 3.23 0 0 0 16.7 7.238c1.881.371 3.3 1.988 3.3 3.761a4.031 4.031 0 0 1-1.46 3.101 1.5 1.5 0 0 0 1.921 2.304A7.022 7.022 0 0 0 23 10.999c0-3.23-2.405-6.05-5.719-6.704a.259.259 0 0 1-.19-.135C15.627 1.104 12.243-.603 8.863.013 5.774.571 3.351 3.017 2.834 6.098a7.532 7.532 0 0 0 .032 2.704c.003.014-.015.09-.097.164C1.662 9.963 1 11.483 1 13.029Z"/></svg><svg data-name="Layer 1" width="24" height="24" viewBox="0 0 24 24" id="time-fast" x="24" y="120" xmlns="http://www.w3.org/2000/svg"><path d="M9.5 24h-8a1.5 1.5 0 0 1 0-3h8a1.5 1.5 0 0 1 0 3zM7.5 19h-6a1.5 1.5 0 0 1 0-3h6a1.5 1.5 0 0 1 0 3zM5.5 14h-4a1.5 1.5 0 0 1 0-3h4a1.5 1.5 0 0 1 0 3z"/><path d="M14.5 23.722a1.5 1.5 0 0 1-.354-2.958A9.022 9.022 0 1 0 3.843 8.142a1.5 1.5 0 0 1-2.711-1.284 12.023 12.023 0 1 1 13.723 16.821 1.513 1.513 0 0 1-.355.043z"/><path d="M12.5 6A1.5 1.5 0 0 0 11 7.5v4.293a2 2 0 0 0 .586 1.414L13.379 15a1.5 1.5 0 0 0 2.121-2.121l-1.5-1.5V7.5A1.5 1.5 0 0 0 12.5 6z"/></svg><svg data-name="Layer 1" width="24" height="24" viewBox="0 0 24 24" id="time-forward" x="48" y="120" xmlns="http://www.w3.org/2000/svg"><path d="M22.559 11a1.487 1.487 0 0 0-1.569 1.43 9.027 9.027 0 1 1-3.154-7.266l-1.129 1.129A1 1 0 0 0 17.414 8H22a1 1 0 0 0 1-1V2.414a1 1 0 0 0-1.707-.707l-1.335 1.335a11.984 11.984 0 1 0 4.028 9.528A1.5 1.5 0 0 0 22.559 11z"/><path d="M11.5 7A1.5 1.5 0 0 0 10 8.5v4.293a2 2 0 0 0 .586 1.414L12.379 16a1.5 1.5 0 0 0 2.121-2.121l-1.5-1.5V8.5A1.5 1.5 0 0 0 11.5 7z"/></svg><svg data-name="Layer 1" width="24" height="24" viewBox="0 0 24 24" id="user-lock" x="72" y="120" xmlns="http://www.w3.org/2000/svg"><path d="M8 0C4.691 0 2 2.691 2 6s2.691 6 6 6 6-2.691 6-6-2.691-6-6-6Zm0 9C6.346 9 5 7.654 5 6s1.346-3 3-3 3 1.346 3 3-1.346 3-3 3Zm2.96 7.019a1.504 1.504 0 0 1-1.805 1.115A5.006 5.006 0 0 0 3 22v.5a1.5 1.5 0 1 1-3 0V22c0-4.411 3.589-8 8-8 .623 0 1.244.072 1.845.214a1.5 1.5 0 0 1 1.115 1.805ZM23 15.765V13.5c0-2.481-2.019-4.5-4.5-4.5S14 11.019 14 13.5v2.265A2.99 2.99 0 0 0 13 18v3a3 3 0 0 0 3 3h5a3 3 0 0 0 3-3v-3a2.99 2.99 0 0 0-1-2.235ZM18.5 12c.827 0 1.5.673 1.5 1.5V15h-3v-1.5c0-.827.673-1.5 1.5-1.5Zm0 9a1.5 1.5 0 1 1 .001-3.001A1.5 1.5 0 0 1 18.5 21Z"/></svg><svg data-name="Layer 1" width="24" height="24" viewBox="0 0 24 24" id="users-alt" x="96" y="120" xmlns="http://www.w3.org/2000/svg"><path d="M12 16a4 4 0 1 1 4-4 4 4 0 0 1-4 4Zm-6.317 0H1a1 1 0 0 1-1-1 6.022 6.022 0 0 1 5.131-5.916 1 1 0 0 1 1.1 1.266A6.009 6.009 0 0 0 6 12a5.937 5.937 0 0 0 .586 2.57 1 1 0 0 1-.9 1.43ZM17 24H7a1 1 0 0 1-1-1 6 6 0 0 1 12 0 1 1 0 0 1-1 1Zm1-16a4 4 0 1 1 4-4 4 4 0 0 1-4 4ZM6 8a4 4 0 1 1 4-4 4 4 0 0 1-4 4Zm17 8h-4.683a1 1 0 0 1-.9-1.43A5.937 5.937 0 0 0 18 12a6.009 6.009 0 0 0-.236-1.65 1 1 0 0 1 1.105-1.266A6.022 6.022 0 0 1 24 15a1 1 0 0 1-1 1Z"/></svg></svg>