<svg id="Layer_1" data-name="Layer 1" xmlns="http://www.w3.org/2000/svg" viewBox="0 0 183.90119 117.19903"><g id="turf-intersect"><path d="M121.04048,46.16928l3.842-16.958a1.99823,1.99823,0,0,0-1.312-2.337l-40.175-13.517a2.0022,2.0022,0,0,0-1.946.382l-28.407,24.557a2.002,2.002,0,0,0-.678,1.749l4.7,39.609a1.99952,1.99952,0,0,0,1.797,1.756l14.747,1.395a32.74387,32.74387,0,1,0,47.432-36.636Zm-60.194,31.411-4.385-36.952,26.741-23.115,37.38,12.577-3.247,14.33c-.246-.097-.496-.182-.743-.272-.171-.062-.34-.128-.512-.187q-.765-.2655-1.539-.492c-.025-.007-.05-.016-.075-.023-.544-.157-1.093-.297-1.644-.425-.167-.039-.335-.071-.502-.107-.387-.083-.776-.162-1.166-.231-.202-.036-.404-.068-.607-.099q-.549-.087-1.102-.155c-.206-.025-.411-.05-.618-.072-.39-.04-.781-.071-1.173-.098-.181-.012-.361-.028-.542-.037-.571-.029-1.144-.047-1.721-.047a32.78164,32.78164,0,0,0-32.745,32.745c0,.591.02,1.182.052,1.774.01.188.028.375.042.562.029.406.062.811.106,1.216.009.083.012.166.022.249Zm44.545,26.081a28.81654,28.81654,0,0,1-27.528-20.453l32.304,3.056c.063.006.127.009.19.009.034,0,.067-.007.102-.009.047-.003.092-.006.138-.012a1.999,1.999,0,0,0,.231-.043c.032-.008.065-.016.096-.025a2.05533,2.05533,0,0,0,.255-.096l.059-.026a1.97452,1.97452,0,0,0,.258-.154l.036-.024a2.04154,2.04154,0,0,0,.234-.202c.01-.01.021-.019.03-.029a2.05154,2.05154,0,0,0,.191-.234c.011-.015.023-.028.033-.043a1.97861,1.97861,0,0,0,.14-.256c.01-.021.022-.039.031-.06a1.96262,1.96262,0,0,0,.113-.345l7.814-34.486a28.74688,28.74688,0,0,1-14.727,53.432Z"/></g><path d="M8.94266,66.93746l10.37845-1.13828c.33479,5.62446,2.07569,7.70015,5.95924,7.70015,4.55313,0,5.75837-3.147,5.75837-8.03494V44.97531h0l-.00218-9.64192H41.618V66.067c0,10.51238-6.42794,17.1412-16.3377,17.1412C15.90626,83.20821,9.61223,77.182,8.94266,66.93746Z"/><path d="M149.992,82.60559V45.57793H136.33265V35.936h37.89811v9.64192H160.63833V82.60559Z" style="fill:#1d1d1b"/><rect width="183.90119" height="117.19903" style="fill:none"/></svg>