<?xml version="1.0" encoding="utf-8"?>
<!-- Generator: Adobe Illustrator 25.4.1, SVG Export Plug-In . SVG Version: 6.00 Build 0)  -->
<svg version="1.1" id="Layer_1" xmlns="http://www.w3.org/2000/svg" xmlns:xlink="http://www.w3.org/1999/xlink" x="0px" y="0px"
	 viewBox="0 0 378.84 203.84" style="enable-background:new 0 0 378.84 203.84;" xml:space="preserve">
<style type="text/css">
	.st0{fill:#010202;}
</style>
<g>
	<path class="st0" d="M230.6,44.09c-15.2,0-29.32,5.8-40,16.38c-10.67-10.58-24.8-16.38-40-16.38c-31.43,0-57,25.57-57,57
		s25.57,57,57,57c15.2,0,29.33-5.8,40-16.38c10.68,10.58,24.8,16.38,40,16.38c31.43,0,57-25.57,57-57S262.03,44.09,230.6,44.09z
		 M173.6,101.09c0,10.48,2.84,20.66,8.24,29.53c-8.17,8.7-19.21,13.47-31.24,13.47c-23.71,0-43-19.29-43-43s19.29-43,43-43
		c13.65,0,26.19,6.27,34.4,17.2c5.62,7.49,8.6,16.41,8.6,25.8c0,3.86,3.14,7,7,7s7-3.14,7-7c0-10.48-2.85-20.65-8.24-29.53
		c8.17-8.7,19.21-13.47,31.24-13.47c23.71,0,43,19.29,43,43s-19.29,43-43,43c-13.65,0-26.19-6.27-34.4-17.2
		c-5.62-7.49-8.6-16.41-8.6-25.8c0-3.86-3.14-7-7-7S173.6,97.23,173.6,101.09z"/>
	<g>
		<path class="st0" d="M94.72,30.67c-0.71,0.34-2.27,0.73-4.27,0.73c-5.22,0-8.39-3.27-8.39-8.3c0-5.42,3.78-8.69,8.81-8.69
			c1.98,0,3.37,0.41,3.98,0.73l-0.63,2.39c-0.78-0.34-1.88-0.63-3.22-0.63c-3.34,0-5.76,2.1-5.76,6.05c0,3.64,2.1,5.93,5.73,5.93
			c1.2,0,2.46-0.24,3.27-0.59L94.72,30.67z"/>
		<path class="st0" d="M111.87,22.74c0,5.51-3.34,8.66-7.86,8.66c-4.66,0-7.59-3.56-7.59-8.37c0-5.08,3.2-8.64,7.83-8.64
			C109.04,14.39,111.87,18.03,111.87,22.74z M99.59,22.96c0,3.37,1.68,6.03,4.56,6.03c2.9,0,4.54-2.71,4.54-6.15
			c0-3.1-1.54-6.03-4.54-6.03C101.18,16.81,99.59,19.57,99.59,22.96z"/>
		<path class="st0" d="M121.22,21.76v2.07h-6.22v-2.07H121.22z"/>
		<path class="st0" d="M139.77,22.74c0,5.51-3.34,8.66-7.86,8.66c-4.66,0-7.59-3.56-7.59-8.37c0-5.08,3.2-8.64,7.83-8.64
			C136.94,14.39,139.77,18.03,139.77,22.74z M127.5,22.96c0,3.37,1.68,6.03,4.56,6.03c2.9,0,4.54-2.71,4.54-6.15
			c0-3.1-1.54-6.03-4.54-6.03C129.09,16.81,127.5,19.57,127.5,22.96z"/>
		<path class="st0" d="M143.24,14.91c1.1-0.2,2.59-0.34,4.59-0.34c2.2,0,3.78,0.46,4.83,1.34c0.98,0.81,1.61,2.1,1.61,3.64
			c0,1.56-0.49,2.83-1.39,3.71c-1.22,1.2-3.07,1.78-5.2,1.78c-0.56,0-1.05-0.02-1.46-0.12v6.22h-2.98V14.91z M146.22,22.54
			c0.39,0.12,0.85,0.15,1.46,0.15c2.25,0,3.61-1.12,3.61-3.03c0-1.83-1.27-2.78-3.34-2.78c-0.83,0-1.42,0.07-1.73,0.15V22.54z"/>
		<path class="st0" d="M166.49,23.84h-6.2v4.83h6.93v2.46h-9.93V14.69h9.57v2.46h-6.56v4.25h6.2V23.84z"/>
		<path class="st0" d="M170.7,14.93c1.15-0.22,2.81-0.37,4.54-0.37c2.37,0,3.95,0.39,5.08,1.32c0.9,0.76,1.42,1.9,1.42,3.32
			c0,2.12-1.44,3.56-3,4.1v0.07c1.2,0.44,1.9,1.59,2.29,3.17c0.54,2.05,0.98,3.95,1.29,4.59h-3.07c-0.24-0.49-0.66-1.83-1.1-3.88
			c-0.49-2.15-1.24-2.83-2.95-2.88h-1.51v6.76h-2.98V14.93z M173.68,22.18h1.78c2.03,0,3.27-1.07,3.27-2.71
			c0-1.78-1.24-2.64-3.2-2.64c-0.95,0-1.56,0.07-1.85,0.15V22.18z"/>
		<path class="st0" d="M189.09,26.47l-1.42,4.66h-3.1l5.27-16.45h3.83l5.34,16.45h-3.25l-1.49-4.66H189.09z M193.8,24.2l-1.29-4.05
			c-0.32-1-0.59-2.12-0.83-3.07h-0.05c-0.24,0.95-0.51,2.1-0.78,3.07l-1.27,4.05H193.8z"/>
		<path class="st0" d="M203.57,17.2h-4.69v-2.51h12.42v2.51h-4.73v13.93h-3V17.2z"/>
		<path class="st0" d="M216.99,14.69v16.45h-3V14.69H216.99z"/>
		<path class="st0" d="M224.95,31.13l-5.32-16.45h3.27l2.25,7.49c0.63,2.07,1.2,3.98,1.61,5.98h0.05c0.44-1.95,1.05-3.95,1.68-5.95
			l2.39-7.52h3.2l-5.69,16.45H224.95z"/>
		<path class="st0" d="M245.91,23.84h-6.2v4.83h6.93v2.46h-9.93V14.69h9.57v2.46h-6.56v4.25h6.2V23.84z"/>
		<path class="st0" d="M250,27.86c0.95,0.56,2.44,1.05,3.98,1.05c1.9,0,2.98-0.9,2.98-2.25c0-1.24-0.83-1.98-2.9-2.73
			c-2.73-0.98-4.47-2.42-4.47-4.78c0-2.71,2.25-4.73,5.83-4.73c1.78,0,3.07,0.39,3.93,0.83l-0.71,2.42
			c-0.61-0.32-1.76-0.78-3.29-0.78c-1.9,0-2.71,1-2.71,1.98c0,1.27,0.95,1.85,3.15,2.71c2.86,1.07,4.22,2.51,4.22,4.88
			c0,2.66-2,4.95-6.22,4.95c-1.76,0-3.56-0.49-4.47-1.05L250,27.86z"/>
		<path class="st0" d="M272.7,14.69v9.59c0,3.22,1.34,4.71,3.37,4.71c2.17,0,3.47-1.49,3.47-4.71v-9.59h3v9.4
			c0,5.08-2.61,7.32-6.56,7.32c-3.81,0-6.27-2.12-6.27-7.3v-9.42H272.7z"/>
		<path class="st0" d="M286.76,14.69h2.98v7.57h0.07c0.39-0.63,0.81-1.22,1.2-1.78l4.32-5.78h3.68l-5.66,7l6.03,9.44h-3.51
			l-4.64-7.54l-1.49,1.76v5.78h-2.98V14.69z"/>
	</g>
	<path class="st0" d="M310.6,44.09c-6.24,0-12.42,1.03-18.27,3.01c-4.06,1.37-5.99,5.98-4.07,9.81v0c1.58,3.14,5.22,4.6,8.54,3.47
		c4.42-1.5,9.09-2.28,13.8-2.28c23.71,0,43,19.29,43,43s-19.29,43-43,43c-7.63,0-15.11-2.02-21.66-5.84
		c-2.19-1.28-4.95-1.38-7.16-0.13c-2.21,1.26-3.53,3.53-3.53,6.08v40.69c0,3.69,2.78,6.84,6.32,7.18c0.22,0.02,0.44,0.03,0.67,0.03
		c3.06,0,5.98-2,6.82-5.37c0.15-0.59,0.2-1.2,0.2-1.81v-29.86c5.37,1.82,10.94,2.83,16.63,3c30.58,0.9,56.75-22.91,58.6-53.44
		C369.5,71.6,343.2,44.09,310.6,44.09z"/>
	<path class="st0" d="M93.2,145.19c-1.58-3.15-5.24-4.61-8.57-3.46c-4.49,1.55-9.23,2.36-14.03,2.36c-23.71,0-43-19.29-43-43
		s19.29-43,43-43c4.81,0,9.57,0.81,14.07,2.37c3.33,1.15,7-0.31,8.58-3.46l0,0c1.92-3.82-0.01-8.4-4.05-9.8
		c-5.95-2.05-12.24-3.12-18.6-3.12c-31.43,0-57,25.57-57,57s25.57,57,57,57c6.34,0,12.61-1.06,18.55-3.1
		C93.19,153.6,95.12,149.01,93.2,145.19L93.2,145.19z"/>
</g>
</svg>
