<?xml version="1.0" encoding="utf-8"?>
<!-- Generator: Adobe Illustrator 25.4.1, SVG Export Plug-In . SVG Version: 6.00 Build 0)  -->
<svg version="1.1" id="Layer_1" xmlns="http://www.w3.org/2000/svg" xmlns:xlink="http://www.w3.org/1999/xlink" x="0px" y="0px"
	 viewBox="0 0 477.27 203.84" style="enable-background:new 0 0 477.27 203.84;" xml:space="preserve">
<style type="text/css">
	.st0{fill:#010202;}
</style>
<g>
	<g>
		<path class="st0" d="M41.53,131c0-0.66,0.03-1.31,0.05-1.96l-10.62-0.97c-1.5-0.14-2.71-1.32-2.89-2.81l-7.3-61.51
			c-0.13-1.06,0.28-2.1,1.09-2.8L67.97,21.1c0.58-0.5,1.33-0.78,2.1-0.78c0.35,0,0.69,0.06,1.02,0.17l61.67,20.75
			c1.56,0.52,2.46,2.13,2.11,3.73l-3.26,14.69c2.93,0.69,5.81,1.54,8.64,2.59l3.4-15.33c1.35-6.09-2.11-12.22-8.02-14.21
			L73.95,11.95c-1.27-0.43-2.59-0.64-3.89-0.64c-2.89,0-5.73,1.03-7.98,2.97L15.98,54.14c-3.06,2.65-4.62,6.65-4.14,10.67l7.3,61.51
			c0.68,5.72,5.27,10.19,11.01,10.71l11.74,1.07C41.66,135.75,41.53,133.37,41.53,131z"/>
		<path class="st0" d="M148.08,79.75l-2.14,9.62c12.05,9.48,19.82,24.17,19.82,40.66c0,28.51-23.2,51.71-51.71,51.71
			c-20.67,0-38.54-12.2-46.81-29.77l-10.16-0.92c8.55,23.17,30.83,39.7,56.97,39.7c33.53,0,60.71-27.18,60.71-60.71
			C174.76,109.12,164.18,90.67,148.08,79.75z"/>
		<g>
			<path class="st0" d="M139.41,72.65c-7.56-3.19-15.86-4.95-24.57-4.95c-34.96,0-63.3,28.34-63.3,63.3c0,3.25,0.25,6.45,0.72,9.57
				l70.65,6.43L139.41,72.65z"/>
		</g>
	</g>
	<g>
		<path class="st0" d="M210.45,77.66c-0.67,1.71-1.62,3.11-2.83,4.19c-1.21,1.08-2.66,1.88-4.32,2.41c-1.67,0.52-3.5,0.78-5.49,0.78
			c-3.29,0-5.87-0.69-7.74-2.08l0.98-8.84c0.87,0.69,1.79,1.2,2.76,1.53c0.97,0.32,1.89,0.49,2.76,0.49c1.52,0,2.65-0.44,3.41-1.33
			c0.76-0.89,1.14-2.37,1.14-4.45V34.92h10.33v36.66C211.46,73.92,211.12,75.95,210.45,77.66z"/>
		<path class="st0" d="M253.05,67.62c0,2.43-0.43,4.69-1.3,6.79c-0.87,2.1-2.09,3.93-3.67,5.49c-1.58,1.56-3.5,2.79-5.75,3.67
			c-2.25,0.89-4.77,1.33-7.54,1.33c-2.77,0-5.28-0.44-7.51-1.33s-4.13-2.11-5.69-3.67c-1.56-1.56-2.76-3.39-3.61-5.49
			c-0.84-2.1-1.27-4.37-1.27-6.79c0-2.56,0.43-4.91,1.3-7.05c0.87-2.15,2.1-3.98,3.71-5.49c1.6-1.52,3.53-2.7,5.78-3.54
			s4.75-1.27,7.48-1.27c2.82,0,5.34,0.44,7.57,1.33c2.23,0.89,4.13,2.11,5.69,3.67s2.75,3.4,3.58,5.53
			C252.64,62.92,253.05,65.19,253.05,67.62z M244.02,67.62c0-1.26-0.21-2.46-0.62-3.61c-0.41-1.15-1.01-2.14-1.79-2.99
			c-0.78-0.85-1.73-1.52-2.86-2.02c-1.13-0.5-2.38-0.75-3.77-0.75c-1.39,0-2.66,0.25-3.8,0.75c-1.15,0.5-2.12,1.17-2.92,2.02
			c-0.8,0.84-1.42,1.83-1.85,2.96c-0.43,1.13-0.65,2.34-0.65,3.64c0,1.26,0.21,2.45,0.62,3.58c0.41,1.13,1,2.11,1.75,2.96
			c0.76,0.84,1.7,1.52,2.83,2.01c1.13,0.5,2.41,0.75,3.83,0.75s2.72-0.24,3.87-0.72c1.15-0.48,2.12-1.14,2.93-1.98
			c0.8-0.84,1.41-1.83,1.82-2.96S244.02,68.92,244.02,67.62z"/>
		<path class="st0" d="M267.68,39.86c0,0.69-0.14,1.36-0.42,1.98c-0.28,0.63-0.67,1.18-1.17,1.66s-1.06,0.86-1.69,1.14
			c-0.63,0.28-1.29,0.42-1.98,0.42c-0.69,0-1.37-0.14-2.02-0.42c-0.65-0.28-1.21-0.66-1.69-1.14c-0.48-0.48-0.86-1.03-1.14-1.66
			c-0.28-0.63-0.42-1.29-0.42-1.98c0-1.43,0.52-2.67,1.56-3.71s2.28-1.56,3.71-1.56c0.69,0,1.35,0.14,1.98,0.42
			c0.63,0.28,1.19,0.66,1.69,1.14c0.5,0.48,0.89,1.03,1.17,1.66C267.54,38.45,267.68,39.13,267.68,39.86z M257.6,83.93v-32.7h9.62
			v32.7H257.6z"/>
		<path class="st0" d="M297.32,83.93V66.77c0-0.95-0.04-1.95-0.13-2.99c-0.09-1.04-0.31-1.99-0.68-2.86
			c-0.37-0.87-0.95-1.58-1.75-2.15c-0.8-0.56-1.91-0.84-3.33-0.84c-1.21,0-2.24,0.24-3.1,0.71c-0.86,0.48-1.57,1.12-2.13,1.92
			s-0.96,1.74-1.2,2.83c-0.24,1.08-0.36,2.23-0.36,3.45v17.09h-9.62v-32.7h9.62v4.36h0.13c1.13-1.73,2.62-3.05,4.48-3.96
			s3.97-1.37,6.31-1.37c3.77,0,6.61,1.15,8.51,3.45c1.91,2.3,2.86,5.55,2.86,9.75v20.47H297.32z"/>
		<path class="st0" d="M211.26,105.36v40.17h-10.27v-40.17h-11.11v-8.84h32.43v8.84H211.26z"/>
		<path class="st0" d="M254.87,129.22c0,2.43-0.43,4.69-1.3,6.79c-0.87,2.1-2.09,3.93-3.67,5.49c-1.58,1.56-3.5,2.79-5.75,3.67
			c-2.25,0.89-4.77,1.33-7.54,1.33c-2.77,0-5.28-0.44-7.51-1.33s-4.13-2.11-5.69-3.67c-1.56-1.56-2.76-3.39-3.61-5.49
			c-0.84-2.1-1.27-4.37-1.27-6.79c0-2.56,0.43-4.91,1.3-7.05c0.87-2.15,2.1-3.98,3.71-5.49c1.6-1.52,3.53-2.7,5.78-3.54
			s4.75-1.27,7.48-1.27c2.82,0,5.34,0.44,7.57,1.33c2.23,0.89,4.13,2.11,5.69,3.67s2.75,3.4,3.58,5.53
			C254.46,124.52,254.87,126.79,254.87,129.22z M245.84,129.22c0-1.26-0.21-2.46-0.62-3.61c-0.41-1.15-1.01-2.14-1.79-2.99
			c-0.78-0.85-1.73-1.52-2.86-2.02c-1.13-0.5-2.38-0.75-3.77-0.75c-1.39,0-2.66,0.25-3.8,0.75c-1.15,0.5-2.12,1.17-2.92,2.02
			c-0.8,0.84-1.42,1.83-1.85,2.96c-0.43,1.13-0.65,2.34-0.65,3.64c0,1.26,0.21,2.45,0.62,3.58c0.41,1.13,1,2.11,1.75,2.96
			c0.76,0.84,1.7,1.52,2.83,2.01c1.13,0.5,2.41,0.75,3.83,0.75s2.72-0.24,3.87-0.72c1.15-0.48,2.12-1.14,2.93-1.98
			c0.8-0.84,1.41-1.83,1.82-2.96S245.84,130.52,245.84,129.22z"/>
		<path class="st0" d="M294.72,151.68c-0.91,2.45-2.18,4.46-3.8,6.04c-1.62,1.58-3.55,2.76-5.79,3.54
			c-2.23,0.78-4.69,1.17-7.38,1.17c-2.25,0-4.38-0.26-6.37-0.78c-1.99-0.52-3.76-1.33-5.3-2.44c-1.54-1.11-2.81-2.48-3.8-4.13
			c-1-1.65-1.65-3.62-1.95-5.92h9.66c0.3,1.82,1.21,3.22,2.72,4.19c1.51,0.98,3.31,1.46,5.38,1.46c2.9,0,5.01-0.96,6.35-2.89
			c1.34-1.93,2.01-4.73,2.01-8.42v-2.02h-0.13c-0.87,1.47-2.27,2.68-4.21,3.61c-1.95,0.93-4.13,1.4-6.55,1.4
			c-2.03,0-4-0.41-5.9-1.23c-1.9-0.82-3.58-1.98-5.03-3.48s-2.6-3.32-3.47-5.46c-0.87-2.15-1.3-4.54-1.3-7.18
			c0-2.34,0.41-4.56,1.23-6.66c0.82-2.1,1.96-3.93,3.41-5.49c1.45-1.56,3.16-2.8,5.12-3.74c1.97-0.93,4.07-1.4,6.32-1.4
			s4.26,0.4,6.03,1.2c1.77,0.8,3.22,1.96,4.34,3.48h0.2l-0.07-3.71h9.62V143C296.08,146.34,295.63,149.23,294.72,151.68z
			 M286.79,129.09c0-1.21-0.21-2.37-0.62-3.48c-0.41-1.1-1-2.08-1.78-2.92c-0.78-0.84-1.72-1.53-2.82-2.05
			c-1.1-0.52-2.34-0.78-3.72-0.78c-1.34,0-2.57,0.26-3.69,0.78c-1.12,0.52-2.07,1.2-2.85,2.05c-0.78,0.84-1.38,1.83-1.81,2.96
			s-0.65,2.32-0.65,3.57c0,1.21,0.22,2.38,0.65,3.51s1.05,2.12,1.85,2.99c0.8,0.87,1.76,1.55,2.88,2.05
			c1.12,0.5,2.35,0.75,3.69,0.75c1.38,0,2.62-0.26,3.72-0.78c1.1-0.52,2.03-1.21,2.79-2.08c0.75-0.87,1.34-1.86,1.75-2.99
			C286.58,131.54,286.79,130.35,286.79,129.09z"/>
		<path class="st0" d="M352.76,120.83v24.7h-9.62v-24.7h-3.71v-8h3.71v-10.21h9.62v10.21h6.37v8H352.76z"/>
		<path class="st0" d="M386.24,145.53v-17.75c0-1.08-0.08-2.12-0.23-3.12c-0.15-1-0.45-1.87-0.91-2.63s-1.08-1.37-1.88-1.82
			s-1.84-0.68-3.14-0.68c-1.21,0-2.23,0.25-3.07,0.75c-0.84,0.5-1.52,1.17-2.04,2.02c-0.52,0.84-0.9,1.81-1.13,2.89
			c-0.24,1.08-0.36,2.21-0.36,3.38v16.96h-9.62V91.71h9.62v25.42h0.13c1.25-1.78,2.71-3.1,4.38-3.96c1.66-0.87,3.64-1.3,5.93-1.3
			c3.93,0,6.9,1.21,8.91,3.64c2.01,2.43,3.01,5.68,3.01,9.75v20.28H386.24z"/>
		<path class="st0" d="M458.32,120.83c-2.69,0-4.56,0.91-5.62,2.73c-1.06,1.82-1.59,4.42-1.59,7.8v14.17h-9.62v-32.7h9.62v5.14h0.19
			c0.95-1.82,2.26-3.23,3.93-4.23c1.67-1,3.61-1.5,5.82-1.5c0.43,0,0.85,0.02,1.24,0.07c0.39,0.04,0.78,0.11,1.17,0.2l-0.33,9.36
			C461.62,121.18,460.01,120.83,458.32,120.83z"/>
		<path class="st0" d="M326.81,135.86c-0.68,0.88-1.53,1.64-2.58,2.26c-1.3,0.78-2.88,1.17-4.75,1.17c-2.34,0-4.34-0.68-6.01-2.05
			c-1.5-1.23-2.39-3.01-2.68-5.34h25.53v-1.87h-0.02c-0.1-5.63-1.57-10.02-4.46-13.16c-3.08-3.34-7.39-5-12.94-5
			c-2.6,0-4.97,0.42-7.12,1.27c-2.15,0.84-4,2.03-5.56,3.54c-1.56,1.52-2.77,3.36-3.64,5.53c-0.87,2.17-1.3,4.55-1.3,7.15
			c0,2.69,0.46,5.09,1.37,7.21s2.18,3.92,3.8,5.39c1.62,1.47,3.55,2.6,5.79,3.38c2.23,0.78,4.67,1.17,7.31,1.17
			c1.82,0,3.58-0.24,5.3-0.71s3.29-1.18,4.75-2.11c1.45-0.93,2.72-2.08,3.8-3.45c1.01-1.28,1.77-2.74,2.29-4.38H326.81z
			 M313.54,120.64c1.45-1.26,3.33-1.89,5.62-1.89c2.21,0,4,0.63,5.36,1.89c1.22,1.13,2.02,2.61,2.42,4.4h-16.01
			C311.38,123.25,312.23,121.77,313.54,120.64z"/>
		<path class="st0" d="M426.68,135.86c-0.68,0.88-1.53,1.64-2.58,2.26c-1.3,0.78-2.88,1.17-4.75,1.17c-2.34,0-4.34-0.68-6.01-2.05
			c-1.5-1.23-2.39-3.01-2.68-5.34h25.53v-1.87h-0.02c-0.1-5.63-1.57-10.02-4.46-13.16c-3.08-3.34-7.39-5-12.94-5
			c-2.6,0-4.97,0.42-7.12,1.27c-2.15,0.84-4,2.03-5.56,3.54c-1.56,1.52-2.77,3.36-3.64,5.53c-0.87,2.17-1.3,4.55-1.3,7.15
			c0,2.69,0.46,5.09,1.37,7.21s2.18,3.92,3.8,5.39c1.62,1.47,3.55,2.6,5.79,3.38c2.23,0.78,4.67,1.17,7.31,1.17
			c1.82,0,3.58-0.24,5.3-0.71s3.29-1.18,4.75-2.11c1.45-0.93,2.72-2.08,3.8-3.45c1.01-1.28,1.77-2.74,2.29-4.38H426.68z
			 M413.41,120.64c1.45-1.26,3.33-1.89,5.62-1.89c2.21,0,4,0.63,5.36,1.89c1.22,1.13,2.02,2.61,2.42,4.4h-16.01
			C411.25,123.25,412.1,121.77,413.41,120.64z"/>
	</g>
</g>
</svg>
