<?xml version="1.0" encoding="utf-8"?>
<!-- Generator: Adobe Illustrator 25.4.1, SVG Export Plug-In . SVG Version: 6.00 Build 0)  -->
<svg version="1.1" xmlns="http://www.w3.org/2000/svg" xmlns:xlink="http://www.w3.org/1999/xlink" x="0px" y="0px"
	 viewBox="0 0 2600 3000" style="enable-background:new 0 0 2600 3000;" xml:space="preserve">
<style type="text/css">
	.st0{display:none;}
	.st1{display:inline;}
	.st2{fill:#020203;}
	.st3{fill:#010202;}
	.st4{fill:none;stroke:#E30613;stroke-miterlimit:10;}
</style>
<g id="Layer_1" class="st0">
</g>
<g id="Layer_3">
	<g>
		<path class="st3" d="M273.75,1962.36c-9.74-34.23-21.06-68.33-32.05-101.36c-17.36-52.18-35.31-106.14-46.94-160.82
			c-13.53-63.59-17.43-129-21.21-192.25c-1.51-25.29-3.07-51.43-5.23-77.29l-49.62-595.47c66.52-58.18,134.54-116.93,200.36-173.78
			c201.54-174.08,409.91-354.05,604.02-542.45c112.9,14.41,222.87,31.02,327.23,72.22c59.87,23.64,114.36,59.14,167.05,93.47
			c22.45,14.63,45.67,29.76,69.19,43.91c80.84,48.67,171.2,92.29,276.24,133.35l8.83,3.45c105.06,41.08,213.7,83.57,325.23,112.76
			l0.31-1.17c3.49,0.62,7.24-1.92,8.52-5.86c1.33-4.11-0.52-8.19-4.13-9.13c-0.15-0.04-0.3-0.06-0.44-0.09l0.31-1.17
			c-110.51-28.93-218.65-71.22-323.23-112.11l-8.83-3.45c-104.09-40.69-193.55-83.87-273.51-132.01
			c-23.24-13.99-46.32-29.03-68.64-43.57c-53.44-34.82-108.7-70.82-170.27-95.13c-107.62-42.49-220.29-59.2-335.87-73.88l-4.3-0.55
			l-3.11,3.02C719.02,292.15,509.71,472.94,307.28,647.78c-66.97,57.84-136.21,117.65-203.86,176.84l-3.42,2.99l50.38,604.53
			c2.14,25.64,3.69,51.68,5.2,76.86c3.82,63.92,7.76,130.01,21.57,194.92c11.84,55.66,29.95,110.11,47.47,162.76
			c11.36,34.14,23.08,69.41,32.96,104.6c-2.62,2.62-4.04,5.21-3.58,7.03c0.81,3.21,7.2,2.72,14.47-1.29
			c7.27-4.01,12.6-9.95,11.69-13.06C279.62,1962.16,277.14,1961.69,273.75,1962.36z"/>
		<path class="st3" d="M370.17,1912.14c-14.82-31.91-32.35-62.26-49.18-90.41c-34.41-57.55-72.53-125.33-89.38-201.59
			c-7.87-35.62-9.58-70.52-11.39-107.46c-0.79-16.19-1.61-32.94-3-49.61c-4.39-52.72-8.77-105.43-13.16-158.15
			c-3.25-39.12-6.66-78.89-9.95-117.35c-7.16-83.64-14.56-170.12-20.86-255.23c2.05-6.93,8.6-14.19,14.42-20.64
			c1.39-1.54,2.74-3.04,4-4.49c17.14-19.78,35.52-38.28,56.03-58.68c56.64-56.35,114.45-109.94,183.82-173.05
			c83.46-75.94,170-151.28,253.69-224.15c58.71-51.11,119.41-103.97,178.58-156.61l7.99-7.12c24.44-21.76,49.71-44.26,75.21-65.52
			c2.79-2.33,5.57-4.78,8.51-7.37c9.5-8.38,20.21-17.82,30.85-21.97c36.45,3.7,73.61,15.27,109.56,26.47l0.58,0.18
			c81.76,25.46,159.88,62.59,232.19,110.37c102.41,67.68,203.46,120.23,308.92,160.67c68.71,26.35,139.63,50.53,208.22,73.91
			c30.96,10.56,62.97,21.47,94.29,32.42c36.31,12.69,73.67,23.04,109.81,33.04c11.34,3.14,23.07,6.39,34.59,9.66l0.33-1.17
			c3.2,0.6,6.76-1.45,8.35-5.01c1.77-3.96,0.42-8.28-3.01-9.66c-0.35-0.14-0.72-0.24-1.09-0.31l0.33-1.17
			c-11.58-3.29-23.33-6.54-34.71-9.69c-35.85-9.92-72.92-20.19-108.67-32.68c-31.39-10.97-63.44-21.9-94.43-32.47
			c-68.43-23.33-139.19-47.46-207.58-73.68c-104.22-39.96-204.13-91.93-305.44-158.88c-73.72-48.71-153.38-86.58-236.76-112.54
			l-0.58-0.18c-35.74-11.13-76.26-23.74-115.22-27.4l-1.9-0.18l-1.81,0.61c-14.65,4.91-27.45,16.2-38.75,26.16
			c-2.84,2.51-5.53,4.88-8.13,7.05c-25.72,21.45-51.1,44.05-75.65,65.91l-7.99,7.11c-59.1,52.58-119.76,105.4-178.43,156.48
			c-83.76,72.93-170.38,148.34-253.99,224.41c-69.55,63.28-127.52,117.02-184.4,173.61c-20.77,20.66-39.39,39.41-56.93,59.65
			c-1.19,1.37-2.46,2.78-3.76,4.23c-7.25,8.04-16.27,18.04-18.92,29.94l-0.29,1.3l0.1,1.32c6.33,85.69,13.78,172.73,20.98,256.91
			c3.29,38.45,6.69,78.21,9.94,117.31c4.38,52.72,8.77,105.43,13.16,158.15c1.36,16.37,2.18,32.96,2.96,49
			c1.77,36.06,3.59,73.35,11.79,110.46c17.42,78.89,56.37,148.19,91.5,206.94c16.91,28.27,34.51,58.77,49.15,90.6
			c-3.98,3.6-6.02,7-4.9,8.75c1.63,2.56,9.47,0.52,17.65-4.69s13.5-11.53,11.73-13.94C378.08,1910.2,374.58,1910.5,370.17,1912.14z"
			/>
		<path class="st3" d="M477.83,1850.73c-17.23-23.2-37.33-45.63-62.97-70.29c-3.29-3.16-6.58-6.32-9.88-9.47
			c-41.17-39.41-83.74-80.17-109.13-132.47c-17.35-35.74-27.52-77.06-30.23-122.8c-2.86-48.37-5.75-95.7-9.66-142.87
			c-2.95-35.54-6.12-71.68-9.18-106.62c-6.74-76.86-13.71-156.33-18.75-234.54c0.87-11.59,9.33-23.74,16.81-34.48
			c0.63-0.9,1.25-1.79,1.85-2.66c16.05-23.22,34.98-45,51.47-63.6c57.82-65.25,120.29-125.82,179.18-181.56
			c127.21-120.4,259.04-233.46,417.85-366.18c31.21-26.09,59.48-49.45,89.4-71.17c2.5-1.82,5.03-3.72,7.71-5.73
			c13.21-9.94,28.13-21.16,42.37-23.7c26.62,3.82,55.25,18.37,80.56,31.24c4.14,2.11,8.2,4.17,12.16,6.14
			c47.24,23.53,92.73,51.9,136.71,79.34c22.18,13.83,45.11,28.14,68.08,41.71c132.44,78.26,280.42,122.01,423.53,164.32
			c58.15,17.19,118.28,34.97,176.46,54.81c27.98,9.54,56.73,17.25,84.53,24.71c18.31,4.91,37.24,9.99,55.68,15.52l0.37-1.23
			c3.24,0.62,6.87-1.46,8.47-5.03c1.77-3.93,0.4-8.18-3.05-9.5c-0.32-0.12-0.65-0.21-0.98-0.27l0.36-1.21
			c-18.69-5.61-37.75-10.72-56.19-15.66c-27.52-7.38-55.97-15.01-83.39-24.36c-58.53-19.95-118.84-37.79-177.17-55.03
			c-142.06-42-288.95-85.44-419.47-162.56c-22.78-13.46-45.62-27.71-67.71-41.48c-44.35-27.66-90.2-56.26-138.21-80.17
			c-3.92-1.95-7.93-3.99-12.03-6.07c-27-13.73-57.6-29.29-87.65-33.22l-1.23-0.16l-1.22,0.18c-19.16,2.76-37.26,16.38-51.8,27.32
			c-2.61,1.97-5.08,3.83-7.46,5.55c-30.38,22.06-58.9,45.63-90.37,71.93C724.58,502.32,592.51,615.59,464.97,736.3
			C405.78,792.33,342.97,853.23,284.69,919c-16.83,18.99-36.18,41.26-52.8,65.3c-0.59,0.86-1.2,1.73-1.82,2.62
			c-8.51,12.22-19.1,27.43-20.04,44.26l-0.03,0.54l0.03,0.54c5.05,78.6,12.05,158.38,18.81,235.54
			c3.06,34.92,6.23,71.03,9.17,106.53c3.89,46.97,6.78,94.18,9.63,142.44c2.85,48.11,13.61,91.72,32,129.6
			c26.8,55.21,70.56,97.1,112.88,137.61c3.29,3.15,6.57,6.29,9.85,9.45c24.56,23.61,43.83,45.05,60.3,67.09
			c-4.7,4.12-7.07,7.83-5.58,9.35c2.06,2.11,10.83-0.9,19.7-6.84c8.87-5.94,14.38-12.45,12.18-14.41
			C487.53,1847.32,483.15,1848.28,477.83,1850.73z"/>
		<path class="st3" d="M606.28,1777.72c-1.76-1.01-6.65,0.41-12.44,3.32c-22.09-18.87-46.54-35.39-74.69-50.44
			c-11.55-6.17-23.47-12.17-35-17.96c-38.66-19.43-78.64-39.52-110.19-69.42c-24.66-23.36-40.72-50.66-50.56-85.9
			c-8.9-31.88-11.58-66.06-14.42-102.26c-0.43-5.53-0.87-11.09-1.33-16.67c-2.61-31.58-5.48-63.69-8.25-94.75
			c-6.21-69.49-12.63-141.34-16.55-212c0.66-37.24,34.22-78.83,58.73-109.21c3.36-4.17,6.54-8.11,9.55-11.91
			c55.79-70.69,118.46-134.52,172.4-187.64c119.94-118.11,252.03-232.93,392.6-341.25c32.67-25.18,60.44-45.7,89.78-64.01
			c1.78-1.11,3.6-2.26,5.46-3.44c16.04-10.15,35.94-22.73,53.9-23.42c20.92,4.55,43.26,20.47,63,34.54
			c6.03,4.3,11.72,8.35,17.25,12.02l1.44,0.96c60.57,40.16,123.21,81.68,190.9,113.09c113.96,52.87,237.18,81.93,356.34,110.02
			c77.24,18.21,157.11,37.05,233.43,62.16c23.91,7.87,48.49,14.18,72.26,20.29c20,5.14,40.68,10.45,60.64,16.62l0.41-1.34
			c3.27,0.61,6.93-1.47,8.53-5.01c1.75-3.88,0.36-8.03-3.11-9.29c-0.3-0.11-0.61-0.18-0.92-0.24l0.41-1.32
			c-20.38-6.3-41.27-11.67-61.48-16.86c-23.49-6.04-47.77-12.28-71.12-19.96c-77.06-25.36-157.31-44.28-234.92-62.58
			c-118.28-27.89-240.59-56.73-352.9-108.83c-66.46-30.83-128.51-71.97-188.53-111.76l-1.44-0.96c-5.27-3.5-10.85-7.47-16.74-11.67
			c-21.51-15.33-45.89-32.71-70.86-37.73l-0.94-0.19l-0.96,0.01c-23.27,0.34-45.97,14.69-64.2,26.23c-1.83,1.16-3.62,2.29-5.37,3.38
			c-29.97,18.7-58.14,39.52-91.23,65.02C764,576.13,631.36,691.43,510.9,810.05C456.56,863.56,393.41,927.89,337,999.37
			c-2.94,3.73-6.09,7.63-9.42,11.76c-26.23,32.51-62.16,77.04-62.73,120.58l0,0.31l0.02,0.31c3.94,71.06,10.38,143.18,16.61,212.92
			c2.77,31.03,5.64,63.11,8.24,94.63c0.46,5.55,0.89,11.09,1.32,16.59c5.79,73.87,11.26,143.65,70.54,199.82
			c33.48,31.72,74.66,52.42,114.49,72.43c11.43,5.75,23.26,11.69,34.6,17.75c25.34,13.55,47.51,28.3,67.58,44.96
			c-4.89,4.3-7.21,7.96-5.41,9.16c2.49,1.66,11.98-2.1,21.29-8.49C603.43,1785.71,608.91,1779.23,606.28,1777.72z"/>
		<path class="st3" d="M727.84,1702.38c-1.99-0.71-7,0.92-12.84,3.93l0.07-0.12c-30.47-16.29-63.94-28.38-105.35-38.03
			c-13.43-3.13-27.61-6-41.33-8.78c-60.07-12.16-122.19-24.74-165.48-65.18c-25.69-24-40.73-57.58-44.7-99.8
			c-2.55-27.13-4.6-54.83-6.57-81.63c-1.17-15.86-2.38-32.27-3.69-48.39c-1.05-12.93-2.2-26.07-3.32-38.78
			c-2.7-30.77-5.5-62.59-6.96-93.82c0.28-47.74,34.7-96.83,62.37-136.29l1.93-2.75c53.03-75.68,115.34-142.52,163.7-192.29
			C689.9,772.59,808.87,670.43,929.36,588.13c25.32-17.3,55.52-37.14,87.42-53.18l0.54-0.27c19-9.55,42.6-21.42,63.44-19.54
			c17.36,4.81,34.91,18.83,51.88,32.4c7.6,6.08,14.78,11.82,21.88,16.67c54.36,37.22,119.74,67.87,199.89,93.7
			c94.18,30.34,192.56,47.78,287.71,64.64c93.22,16.52,189.62,33.6,281.35,62.79c21.6,6.87,43.8,12.39,65.27,17.73
			c19.92,4.95,40.51,10.07,60.31,16.21l0.47-1.52c3.28,0.57,6.93-1.48,8.51-4.93c1.73-3.79,0.3-7.82-3.18-9.02
			c-0.3-0.1-0.61-0.17-0.93-0.23l0.46-1.49c-20.29-6.29-41.13-11.47-61.29-16.49c-21.19-5.27-43.11-10.72-64.16-17.42
			c-92.87-29.55-189.87-46.74-283.67-63.36c-94.55-16.75-192.33-34.08-285.33-64.05c-78.48-25.28-142.34-55.19-195.24-91.42
			c-6.54-4.48-13.47-10.02-20.81-15.88c-17.79-14.22-37.94-30.33-59.21-35.93l-0.67-0.18l-0.69-0.07
			c-26.25-2.75-52.77,10.58-74.08,21.29l-0.54,0.27c-32.85,16.51-63.67,36.76-89.49,54.4c-121.5,82.99-241.37,185.91-366.45,314.65
			c-48.83,50.25-111.77,117.78-165.53,194.51l-1.92,2.74c-29.15,41.57-65.43,93.31-65.63,146.77l0,0.23l0.01,0.23
			c1.47,31.67,4.29,63.76,7.02,94.79c1.11,12.68,2.27,25.79,3.31,38.66c1.3,16.06,2.51,32.43,3.68,48.27
			c1.99,26.88,4.04,54.68,6.6,81.98c4.39,46.74,21.32,84.17,50.33,111.27c47.01,43.92,111.67,57.01,174.2,69.67
			c14.21,2.88,27.64,5.6,40.81,8.67c36.02,8.4,65.69,18.67,92.52,32.04c-4.48,4.06-6.38,7.3-4.36,8.16
			c2.9,1.23,12.88-3.04,22.35-9.6C725.62,1709.72,730.88,1703.47,727.84,1702.38z"/>
		<path class="st3" d="M850.34,1626.06c-2.41-0.51-8.27,1.65-14.76,5.19l0.72-2.23c-57.74-18.62-118.13-19.16-176.54-19.69
			c-53.84-0.49-109.51-0.99-161.76-15.98c-34.26-9.83-59.26-26.16-74.3-48.55c-17-25.31-19.27-54.98-21.67-86.4
			c-0.2-2.63-0.4-5.27-0.61-7.9c-0.9-11.25-1.9-22.68-2.86-33.73c-2.43-27.83-4.95-56.61-6.05-84.81
			c0.34-56.47,32.22-111.93,62.07-159.49c39.34-62.67,89.86-126.32,158.97-200.31C669.35,912.44,717,865.83,763.53,825.49
			c57.48-49.85,112.84-89.71,169.24-121.86c2.37-1.35,4.79-2.74,7.25-4.15c42.25-24.19,100.07-57.3,148.84-50.19
			c15.12,3.76,30.36,13.53,45.1,22.97c11.11,7.12,22.61,14.48,34.41,19.58c60.7,26.22,129.87,46.79,211.45,62.9
			c70.69,13.96,143.29,22.53,213.5,30.83c107.52,12.7,218.7,25.83,323.92,58.59c20.62,6.42,41.79,11.61,62.26,16.63
			c19.36,4.75,39.37,9.66,58.62,15.54l0.55-1.81c3.28,0.5,6.88-1.42,8.42-4.75c1.69-3.66,0.23-7.55-3.27-8.69
			c-0.32-0.1-0.64-0.17-0.97-0.22l0.53-1.74c-19.73-6.04-40-11.01-59.59-15.81c-20.21-4.96-41.1-10.08-61.19-16.34
			c-106.81-33.26-218.83-46.49-327.16-59.28c-69.87-8.25-142.12-16.79-212.12-30.61c-80.31-15.86-148.29-36.06-207.8-61.77
			c-10.46-4.52-20.84-11.17-31.84-18.21c-16.11-10.32-32.78-21-50.96-25.4l-0.78-0.15c-55.04-8.28-116.2,26.74-160.86,52.31
			c-2.45,1.4-4.86,2.78-7.22,4.13c-57.44,32.73-113.74,73.26-172.12,123.9c-47.01,40.77-95.1,87.8-151.33,147.99
			c-69.92,74.84-121.1,139.35-161.07,203.02c-31.21,49.72-64.53,107.89-64.83,169.17l0,0.19l0.01,0.19
			c1.11,28.71,3.65,57.77,6.11,85.88c0.96,11.02,1.96,22.42,2.85,33.6c0.21,2.61,0.41,5.22,0.61,7.83
			c2.47,32.36,5.02,65.82,24.67,95.07c17.47,26,45.83,44.78,84.28,55.81c54.6,15.67,111.52,16.18,166.56,16.68
			c53.11,0.48,107.9,0.98,159.69,15.39c-3.52,3.4-4.72,5.94-2.64,6.48c2,0.52,6.61-0.98,12.04-3.7c0.7,0.22,1.4,0.43,2.09,0.65
			l0.68-2.11c2.63-1.45,5.38-3.13,8.05-4.97C848.88,1632.61,853.74,1626.78,850.34,1626.06z"/>
		<path class="st3" d="M970.41,1552.28c-2.65-0.3-8.66,1.95-15.13,5.44l0.64-3.49c-73.44-13.46-148.06-3.54-220.21,6.06
			c-39.75,5.28-80.85,10.75-120.81,12.1c-24.74,0.84-56.82,0.91-85.51-6.03c-31.02-7.5-52.4-21.57-65.34-42.99
			c-14.77-24.45-15.67-55.75-16.55-86.03l-0.15-5.19c0.43-65.86,31.37-129.46,58.28-177.53c36.6-65.37,85.97-132.59,150.92-205.5
			c38.87-43.63,80.69-89.64,126.96-130.27c50.16-44.06,99.17-75.92,149.83-97.42c54.47-23.11,112.53-43.86,168.11-39.27
			c19.9,2.4,40.52,8.4,60.46,14.2c11.82,3.44,24.04,6.99,36.03,9.78c65.47,15.21,136.32,26.13,222.98,34.39
			c45,4.29,90.83,7.21,135.15,10.03c118.49,7.55,241.02,15.35,357.05,50.16c19.81,5.94,40.12,10.73,59.76,15.36
			c18.24,4.3,37.11,8.75,55.29,14.07l0.65-2.22c3.26,0.44,6.78-1.41,8.25-4.5c1.63-3.43,0.1-7.09-3.41-8.16
			c-0.35-0.11-0.71-0.18-1.07-0.22l0.64-2.18c-18.64-5.45-37.74-9.96-56.21-14.31c-19.38-4.57-39.43-9.29-58.72-15.08
			c-118-35.4-241.57-43.27-361.07-50.88c-44.18-2.81-89.86-5.72-134.59-9.98c-85.84-8.18-155.94-18.98-220.61-34
			c-11.51-2.67-23.49-6.16-35.07-9.53c-20.69-6.02-42.09-12.24-63.51-14.81l-0.32-0.03c-59.52-4.97-120.15,16.59-176.8,40.63
			c-52.45,22.26-103.05,55.12-154.68,100.47c-47.03,41.31-89.28,87.77-128.52,131.83c-65.83,73.9-115.93,142.15-153.18,208.67
			c-27.99,49.99-60.17,116.35-60.58,186.38l0,0.16l0.16,5.49c0.9,31.09,1.91,66.32,19.13,94.82c15.34,25.39,41.09,42.6,76.52,51.18
			c22.83,5.52,47.24,6.93,68.88,6.93c7.55,0,14.77-0.17,21.47-0.4c40.85-1.38,82.4-6.9,122.58-12.25
			c66.1-8.79,134.29-17.85,200.57-8.46c-2.16,2.42-2.55,4.09-0.61,4.38c1.9,0.28,5.66-0.86,10.12-2.89
			c1.51,0.26,3.02,0.51,4.52,0.78l0.62-3.36c2.48-1.36,5.04-2.89,7.5-4.56C969.79,1557.95,974.1,1552.69,970.41,1552.28z"/>
		<path class="st3" d="M2481.65,1677.64c-24.37-83.32-60.29-162.33-106.77-234.84c-84.94-132.54-211.73-228.55-376.91-285.45
			c-2.5-0.86-5-1.72-7.51-2.55c-0.01,0-0.02-0.01-0.02-0.01c0,0,0,0-0.01,0v0c-0.02-0.01-0.03-0.01-0.05-0.02c0,0,0,0,0,0l0,0
			c0,0,0,0,0,0l0,0c-0.01,0-0.02-0.01-0.03-0.01v0c-58.81-19.77-128.99-40.57-203.64-45.03c-97.73-5.84-196.98,6.68-272.52,18.23
			c-108.73,16.63-217.64,42.04-322.95,66.61c-23.2,5.41-47.18,11.01-70.78,16.42c-71.4,16.38-121.93,44.86-168.95,95.24
			c-29.62,31.73-59.1,69.52-90.13,115.53c-1.35,2-3.63,5.1-6.27,8.69c-17.69,24.06-36.02,50.54-41.58,72.79
			c-0.77,0.23-1.55,0.46-2.32,0.69c-20.87,6.02-43.83,12.65-67.17,17.43c-1.71-5.03-0.05-12.79,1.29-17.52
			c5.99-21.18,18.57-41.82,30.74-61.79c2.39-3.92,4.86-7.97,7.2-11.91c14.5-24.37,30.48-49.08,47.52-73.45
			c30.31-43.36,57.38-77.42,85.2-107.17c41.87-44.77,80.2-65.85,136.71-75.18c61.04-10.08,122.19-24.31,181.33-38.08
			c55.95-13.02,113.81-26.49,171.27-36.36c116.88-19.65,231.31-27.21,340.11-22.46c75.56,3.3,154.15,18.72,247.34,48.53l0.95-2.96
			c3.26,0.62,6.76-0.86,8.14-3.58c1.51-2.98-0.11-6.31-3.61-7.42c-0.31-0.1-0.62-0.17-0.93-0.23l0.94-2.95
			c-94.76-30.31-174.84-46-252.04-49.37c-110.06-4.8-225.76,2.83-343.91,22.7c-58.01,9.96-116.13,23.49-172.33,36.57
			c-58.86,13.7-119.72,27.86-180.18,37.85c-60.06,9.92-102.63,33.28-146.93,80.65c-28.42,30.39-56,65.07-86.81,109.15
			c-17.28,24.73-33.51,49.82-48.23,74.56c-2.29,3.86-4.63,7.69-7.1,11.75c-12.79,21-26.02,42.71-32.68,66.25
			c-2.85,10.06-3.41,18.62-1.74,25.65c-1.7,0.27-3.4,0.53-5.09,0.77l-2.87,0.41c-15.28,2.2-36.21,5.21-48.45-1.99
			c-6.06-3.56-13.37-10.94-6.96-33.81c4.79-17.07,15.39-35.91,23.14-49.66c2.59-4.6,4.83-8.58,6.56-11.95
			c45.59-88.92,107.5-175.85,179.06-251.4c35.25-37.21,67.6-61.49,119.89-67.53c60.18-6.95,119.97-20.53,177.78-33.67
			c41.31-9.39,84.02-19.1,126.34-26.25c119.5-19.73,256.68-27.5,407.74-23.09c93.83,2.74,191.19,20.01,297.65,52.8l0.88-2.84
			c3.26,0.55,6.75-1.02,8.14-3.8c1.53-3.07-0.07-6.43-3.59-7.51c-0.33-0.1-0.66-0.17-1-0.23l0.87-2.82
			c-108.02-33.28-206.95-50.81-302.42-53.59c-152.22-4.44-290.56,3.4-411.23,23.33c-42.85,7.24-85.81,17.01-127.36,26.45
			c-57.35,13.03-116.65,26.51-175.86,33.35c-57.51,6.64-93.92,33.99-130.89,73.03c-72.71,76.77-135.65,165.14-182,255.56
			c-1.57,3.06-3.73,6.89-6.23,11.33c-8.19,14.55-19.41,34.48-24.78,53.63c-4.75,16.95-6.23,39.44,12.48,52.45
			c-9.08,0.35-18.14,0.35-27.17-0.06c-20.35-0.96-35.85-7.06-43.65-17.19c-6.31-8.19-8.01-19.42-5.03-33.37
			c10.14-47.46,37.53-95.97,61.74-138.86c48.18-85.35,111.55-168.74,188.34-247.86c32.07-33.04,64.98-63.19,114.83-69.12
			c46.47-5.52,92.68-14.97,137.38-24.1c38.11-7.79,77.53-15.85,116.62-21.36c42.83-5.66,87.52-6.4,130.75-7.11
			c17.28-0.29,35.16-0.58,52.62-1.19l2.83-0.1c89.78-3.13,182.62-6.36,273.8-4.24c112.22,2.6,226.23,21.65,348.56,58.21l0.8-2.68
			c3.25,0.49,6.74-1.17,8.15-4.03c1.56-3.17-0.03-6.61-3.55-7.67c-0.34-0.1-0.69-0.17-1.04-0.22l0.79-2.65
			c-123.89-37.03-239.45-56.31-353.3-58.96c-91.7-2.13-184.8,1.11-274.84,4.25l-2.83,0.1c-17.3,0.6-35.09,0.9-52.29,1.18
			c-43.73,0.72-88.95,1.47-132.88,7.28c-39.72,5.6-79.41,13.71-117.79,21.56c-44.33,9.06-90.18,18.43-135.9,23.86
			c-55.71,6.62-91.21,39-125.62,74.45c-77.86,80.23-142.15,164.86-191.14,251.63c-24.8,43.93-52.91,93.72-63.62,143.87
			c-4.13,19.35-1.32,35.54,8.37,48.12c7.72,10.02,19.46,17.1,34.51,20.96c-15.14-0.37-30.04-1.99-44.43-5.3
			c-16.92-3.9-39.48-12.4-50.95-30.78c-15.17-27.17-0.05-68.93,10.99-99.44c1.07-2.95,2.1-5.8,3.07-8.53
			c15.35-43.33,37.07-87.68,66.42-135.59c51.4-83.91,118.22-166.47,204.3-252.38c42.62-42.54,76.95-69.65,126.33-82.34
			c65.52-16.84,139.79-35.93,214.16-41.96c26.1-1.84,53.63,1.14,80.24,4.01c11.29,1.22,22.96,2.48,34.33,3.35
			c63.78,4.88,133.76,7.96,220.22,9.68c17,0.34,34.27,0.61,50.96,0.87c127.81,1.98,259.98,4.04,386,39.88
			c17.52,4.98,35.46,9.25,52.8,13.37c18.73,4.45,38.11,9.05,56.77,14.53l0.72-2.47c3.25,0.45,6.76-1.3,8.19-4.27
			c1.59-3.29,0.03-6.83-3.49-7.88c-0.35-0.1-0.71-0.17-1.07-0.22l0.71-2.43c-19.11-5.61-38.72-10.27-57.68-14.78
			c-17.15-4.08-34.89-8.29-52.03-13.17c-128.3-36.49-261.67-38.56-390.65-40.57c-16.67-0.26-33.92-0.53-50.88-0.86
			c-86.11-1.71-155.77-4.77-219.2-9.63c-11.09-0.85-22.62-2.1-33.77-3.3c-27.4-2.96-55.74-6.02-83.54-4.07
			c-76,6.16-154.33,26.29-217.28,42.47c-26.14,6.72-50.25,17.9-73.7,34.18c-22.9,15.9-43.62,35.64-60.86,52.85
			c-87.09,86.93-154.78,170.58-206.93,255.72c-30.01,49-52.27,94.46-68.04,138.98c-0.96,2.7-1.97,5.51-3.03,8.42
			c-12.25,33.84-29.03,80.19-9.65,114.56l0.19,0.32c14.71,23.77,42.01,34.34,62.32,39.01c18.12,4.17,36.77,5.87,55.6,5.86
			c44.3,0,89.53-9.39,130.89-17.97c3.21-0.67,6.4-1.33,9.56-1.98c21.2-4.37,42.89-9.45,64.09-14.49c1.75,1.87,3.8,3.51,6.13,4.89
			c5.55,3.28,12.04,4.52,18.83,4.52c13.13,0,27.37-4.63,38.02-8.1c1.85-0.6,3.58-1.17,5.16-1.65c25.66-7.94,50.68-18.36,75.07-29.1
			c30.33-4.08,60.7-6.06,90.9-4.45c-0.55,1.15-0.19,1.89,1.25,2c1.48,0.12,3.88-0.45,6.75-1.49c2.52,0.19,5.04,0.4,7.55,0.64
			l0.4-4.18c2.44-1.26,4.94-2.69,7.31-4.22c8.36-5.4,11.97-9.93,8.08-10.14c-2.74-0.15-8.46,1.87-14.5,4.94l0.41-4.32
			c-19.24-1.84-38.48-2.18-57.69-1.39c12.71-5.78,25.39-11.6,37.81-17.3c12.8-5.88,25.69-11.8,38.66-17.69
			c28.74-4.57,57.57-6.79,86.32-5.22l0.26-4.81c2.45-1.12,4.93-2.41,7.24-3.79c7.45-4.45,10.24-8.12,6.27-8.24
			c-2.69-0.08-7.77,1.47-13.07,3.84l0.27-4.98c-11.57-0.63-23.13-0.67-34.65-0.23c19.35-8.37,38.81-16.49,58.37-24.12
			c23.04-3.71,46.14-5.46,69.23-4.18l0.3-5.45c2.44-0.87,4.91-1.91,7.12-3.05c6.27-3.22,8.13-5.92,4.22-6.1
			c-2.47-0.11-6.65,0.8-10.96,2.3l0.31-5.66c-2.57-0.14-5.13-0.24-7.69-0.31c10.8-3.59,22.37-7.27,34.35-10.56
			c16.71-2.04,33.35-2.59,49.65-0.83l0.68-6.3c2.39-0.44,4.81-1.06,6.84-1.77c1.72-0.61,2.92-1.21,3.6-1.75
			c14.26-0.69,28.34,0.25,41.75,3.56c45.27,22.43,30.59,88.26,20.85,131.91c-15.46,69.29-40.98,137.57-65.66,203.59
			c-3.55,9.49-7.09,18.96-10.6,28.43c-3.36,9.06-6.74,18.13-10.13,27.2c-23.28,62.36-47.35,126.84-63.82,192.55
			c-0.55,2.2-1.13,4.48-1.73,6.83c-0.12,0.46-0.24,0.94-0.36,1.41c-42.02,102.35-83.72,207.34-117.42,313.77
			c-21.39,67.55-44.21,147.73-51.31,230.3c-5.67,66.03,0.53,116.72,19.5,159.54c34.79,78.49,107.06,103.55,176.95,127.79
			c8.42,2.92,17.13,5.94,25.64,9.01c96.84,34.89,201.04,70.18,306.81,91.96c55.42,11.41,104.69,17.37,150.63,18.22
			c3.67,0.07,7.32,0.1,10.96,0.1c50.52,0,97.62-6.54,140.15-19.47c99.31-30.19,177.9-104.96,228.39-158.57
			c65.13-69.17,124-144.5,174.96-223.91c53.44-83.26,96.58-168.6,128.23-253.63c37.56-100.93,56.61-207,56.61-315.28
			C2518.35,1846.79,2506,1760.88,2481.65,1677.64z M2068.79,1419.24c-2.9-52.96-7.94-115.07-23.31-174.13l-0.3-1.15
			c1.51,3.49,3.03,7.15,4.56,10.99c22.94,57.69,33.22,120.8,39.6,169.34c16.52,125.53,18.41,255.16,18.21,354.06
			c-0.08,37.95-8.23,76.88-16.12,114.53l-0.9,4.32c-10.7,51.17-24.38,104.88-40.65,159.63c-14.67,49.37-32.28,101.03-53.83,157.95
			c-1.73,4.57-3.42,9.16-5.2,14.01c-11.12,30.24-23.72,64.51-45.33,86.61c-18.99,18.24-51.43,26.04-77.5,32.31l-0.76,0.18
			c-35.15,8.46-73.42,13.9-124.11,17.65c-73.63,5.46-151.2,6.2-230.55,2.21c-46.75-2.35-94.28-11.86-140.25-21.05
			c-7.52-1.5-15.03-3.01-22.52-4.47c-1.84-0.36-3.66-0.71-5.48-1.06c-28.6-5.51-51.19-9.86-64.05-35.47
			c-7.03-14-10.31-29.86-11.28-46.47c16.21,28.93,44.03,33.07,70.94,37.07c3.14,0.47,6.4,0.95,9.56,1.46
			c8.69,1.41,17.59,2.93,26.2,4.39c39.36,6.68,80.05,13.59,120.39,14.74c36.26,1.03,70.7,1.55,103.73,1.55
			c40.03,0,77.98-0.76,114.49-2.28c37.92-1.58,82.67-4.17,127.07-11.47c2.25-0.37,4.57-0.74,6.95-1.11
			c23.84-3.77,53.51-8.45,72.65-25.5l0.36-0.34c20.69-20.59,30.99-52.52,40.08-80.69c2.04-6.33,3.97-12.3,5.94-17.9
			c17.57-50.04,33.67-102.05,47.86-154.59c15.22-56.36,27.68-108.63,38.1-159.78c0.92-4.49,1.86-9.01,2.8-13.55
			c6.46-31.01,13.13-63.07,13.29-94.9c0.16-31.52,0.68-63.69,1.18-94.79C2071.9,1582.13,2073.22,1500.02,2068.79,1419.24z
			 M2107.19,1421.94c-6.29-47.81-16.31-109.54-38.26-167.28c0.25,0.44,0.49,0.88,0.74,1.33c15.55,28.28,38.5,76.91,58.25,172.32
			c23.7,114.53,35.73,239.74,35.74,372.15c0.01,94.56-29.22,192.71-61.78,293.33c-17.74,54.82-37.93,109.89-60.01,163.69
			c-0.92,2.24-1.84,4.5-2.77,6.76c-15.04,36.81-30.6,74.87-56.63,102.34c-20.38,21.09-51.06,32.56-80.75,42.5
			c-36.33,12.16-77.05,20.41-128.13,25.96c-77.66,8.43-159.9,9.42-244.42,2.93c-55.47-4.26-111.4-17.15-165.48-29.61
			c-5.47-1.26-10.93-2.52-16.39-3.77l-3.01-0.69c-30.39-6.93-54.39-12.4-69.14-38.6c-7.35-13.05-13.79-29.78-14.83-60.24
			c1.17,2.95,2.46,5.86,3.89,8.72c16.84,33.53,47.29,39.4,76.73,45.07c1.8,0.35,3.6,0.69,5.42,1.05c7.46,1.46,14.95,2.96,22.45,4.46
			c46.61,9.32,94.8,18.96,142.88,21.38c33.77,1.7,67.21,2.54,100.18,2.54c45.24,0,89.59-1.6,132.61-4.78
			c51.69-3.83,90.86-9.41,126.99-18.1l0.76-0.18c28.23-6.79,63.37-15.24,85.87-36.94l0.18-0.18c24.38-24.86,37.71-61.11,49.46-93.09
			c1.77-4.82,3.44-9.36,5.14-13.85c21.71-57.33,39.45-109.41,54.25-159.2c16.41-55.22,30.21-109.41,41.01-161.07l0.9-4.31
			c8.07-38.54,16.42-78.39,16.5-118.18C2125.76,1678.93,2123.85,1548.52,2107.19,1421.94z M1259.49,2374.14
			c8.46,15.03,20.32,26.05,36.25,33.69c13.75,6.6,28.72,10.01,44.57,13.62l2.99,0.68c5.45,1.25,10.9,2.5,16.36,3.76
			c54.73,12.61,111.33,25.66,168.15,30.02c37.17,2.85,73.92,4.28,110.04,4.28c47.09,0,93.13-2.42,137.69-7.26
			c52.4-5.69,94.32-14.2,131.91-26.78c31.79-10.64,64.77-23.05,88.04-47.12c28.4-29.99,45.34-71.42,60.28-107.98
			c0.92-2.26,1.84-4.51,2.76-6.74c22.25-54.22,42.6-109.72,60.48-164.98c33.02-102.05,62.67-201.7,62.65-298.88
			c-0.02-133.64-12.17-260.08-36.11-375.8c-9.17-44.31-24.69-108.75-54.81-167.37c4.45,6.37,8.78,13.05,13,20.05
			c24.29,40.34,44.83,91.03,62.8,154.97c34.86,124.02,53.27,258.97,53.24,390.24c-0.02,105.81-33.31,215.18-65.87,308.22
			c-22.06,63.04-43.21,117.29-64.64,165.85c-16.86,38.2-37.85,85.75-69.88,121.09c-23.02,25.05-56.12,45.55-98.38,60.93
			c-32.44,11.81-70.49,20.8-116.3,27.49c-79.73,11.64-166.69,12.71-258.45,3.17c-65.16-6.77-130.32-23.77-193.33-40.2l-10.26-2.67
			c-31.96-8.32-59.55-15.5-76.54-43.1c-14.72-23.9-18.98-53.05-19.18-81.88C1249.66,2352.9,1253.71,2363.88,1259.49,2374.14z
			 M1228.97,2372.59c0.05-5.48,0.19-10.96,0.4-16.44c1.53,26.77,7.16,53.46,21.41,76.61c20.78,33.76,54.62,42.56,87.34,51.08
			l10.25,2.67c63.67,16.6,129.5,33.77,196.02,40.69c41.91,4.36,82.85,6.53,122.6,6.53c48.69,0,95.61-3.27,140.32-9.8
			c47.04-6.87,86.25-16.15,119.86-28.38c45-16.38,80.49-38.47,105.52-65.71c34.02-37.54,55.66-86.56,73.05-125.95
			c21.63-49,42.94-103.68,65.16-167.17c33.06-94.47,66.86-205.67,66.88-314.17c0.03-132.9-18.61-269.53-53.91-395.12
			c-16.13-57.38-34.37-104.5-55.54-143.36c29.8,41.17,55.64,92.32,76.84,152.22c46.41,131.07,70.86,272.27,70.72,408.33
			c-0.06,57.65-7.38,153.87-69.97,323.21c-2.27,6.15-4.55,12.34-6.85,18.58c-35.23,95.77-75.17,204.33-143.04,281.67
			c-51.91,58.61-128.68,96.77-228.19,113.42c-77,12.88-165.89,12.85-264.2-0.09c-75.73-9.97-150.7-31.64-223.21-52.59
			c-2.16-0.62-4.31-1.24-6.46-1.85c-29.65-8.48-57.66-16.48-76.6-40.76C1231.25,2452.68,1228.65,2405.31,1228.97,2372.59z
			 M2021.92,1569.64c3.57-50.18,7.27-102.07,8.43-153.13c1.27-55.94,1.48-115.79-5.54-174.46c-0.27-2.23-0.54-4.92-0.83-7.77
			c1.33,4.75,2.52,9.34,3.63,13.61l0.45,1.74c14.97,57.52,19.9,118.51,22.76,170.58c4.39,80.15,3.08,161.93,1.8,241.02
			c-0.5,31.16-1.02,63.37-1.18,94.99c-0.15,30.02-6.64,61.18-12.92,91.32c-0.95,4.57-1.9,9.11-2.82,13.63
			c-10.34,50.78-22.71,102.69-37.84,158.68c-14.07,52.11-30.04,103.7-47.46,153.33c-2.04,5.82-4.01,11.9-6.08,18.34
			c-8.43,26.13-17.98,55.74-35.47,73.27c-15.23,13.4-41.88,17.61-63.31,21c-2.41,0.38-4.77,0.75-7.06,1.13
			c-43.45,7.14-87.52,9.69-124.9,11.25c-66.22,2.75-137.18,2.99-216.96,0.72c-39.08-1.11-79.14-7.91-117.89-14.49
			c-8.64-1.47-17.57-2.98-26.32-4.41c-3.29-0.54-6.6-1.03-9.81-1.5c-24.79-3.68-46.2-6.86-58.07-28.39
			c-6.85-12.43-10.07-26.62-11.01-41.76c16.96,21.29,43.7,23.92,67.45,26.24c4.62,0.45,8.97,0.88,13.22,1.43
			c9.03,1.17,18.29,2.46,27.24,3.71c32.64,4.55,66.39,9.26,99.64,9.78c8.91,0.14,17.82,0.29,26.75,0.43
			c46.2,0.76,93.65,1.54,140.88,1.54c12.2,0,24.4-0.05,36.55-0.17c40.11-0.39,83.04-1.25,125.23-4.91c3.4-0.29,7.19-0.52,11.21-0.77
			c20.72-1.26,46.5-2.82,62.89-15.41l0.64-0.49l0.54-0.59c16.25-17.86,23.91-45.51,30.67-69.92c1.73-6.25,3.37-12.15,5.04-17.48
			c16.86-53.66,30.63-108.25,41.88-154.56c13.38-55.07,24.66-105.81,34.49-155.14c1.26-6.32,2.65-12.87,4-19.2
			c5.47-25.72,11.12-52.31,11.48-78.52C2014.07,1679.78,2018.06,1623.79,2021.92,1569.64z M1212.67,2332.69
			c-0.98,13.22-1.56,26.46-1.69,39.72c-0.35,35.42,2.62,86.89,32.22,124.85c22.54,28.91,54.72,38.11,85.84,47
			c2.13,0.61,4.27,1.22,6.41,1.84c73.14,21.14,148.78,43,225.85,53.15c50.04,6.59,97.72,9.88,142.75,9.88
			c45.02,0,87.39-3.29,126.77-9.88c103.68-17.34,183.99-57.46,238.73-119.26c70.1-79.89,110.65-190.11,146.43-287.36
			c2.29-6.23,4.57-12.42,6.84-18.56c22.15-59.94,38.46-112.72,49.87-161.38c14.22-60.68,21.16-115.65,21.22-168.05
			c0.15-138.09-24.66-281.37-71.75-414.36c-18.41-52-40.3-97.69-65.24-136.29c31.11,37.6,60.95,85.44,86.93,146.3
			c28.28,66.25,50.23,136.54,65.25,208.93c15.12,72.88,22.84,146.07,22.92,217.51c0.12,99.74-23.39,207.26-73.99,338.4
			c-40.21,104.22-89.5,222.9-165.79,312.17c-58.02,67.45-136.83,112.43-234.25,133.68c-82,17.89-175.13,18.88-276.79,2.93
			c-80.13-12.57-157.81-35.96-243.78-62.97c-5-1.57-10.06-3.08-14.95-4.54c-28.64-8.54-55.68-16.61-76.2-38
			c-23.19-24.17-36.08-59.29-39.42-107.38C1204.31,2404.63,1207.32,2367.79,1212.67,2332.69z M2004.21,1244.16
			c0.09-3.13,0.43-7.42,0.82-12.39c0.09-1.09,0.17-2.17,0.25-3.25c0.29,2.65,0.54,5.12,0.76,7.3c0.31,3.04,0.6,5.91,0.89,8.38
			c6.89,57.55,6.68,116.63,5.42,171.91c-1.15,50.62-4.83,102.29-8.39,152.26c-3.87,54.4-7.88,110.66-8.63,165.71
			c-0.33,24.44-5.8,50.16-11.09,75.02c-1.36,6.39-2.76,13-4.04,19.43c-9.78,49.08-21.01,99.58-34.33,154.41
			c-11.18,46.03-24.87,100.26-41.57,153.42c-1.77,5.63-3.44,11.67-5.22,18.07c-6.14,22.15-13.08,47.22-26.09,61.99
			c-12.18,8.82-34.44,10.16-52.4,11.25c-4.13,0.25-8.04,0.49-11.67,0.8c-41.59,3.6-84.1,4.46-123.85,4.84
			c-58.93,0.57-118.93-0.41-176.96-1.37c-8.93-0.15-17.85-0.29-26.76-0.43c-32.14-0.51-65.33-5.14-97.43-9.61
			c-9-1.25-18.3-2.55-27.41-3.73c-4.52-0.59-9.23-1.05-13.78-1.49c-23.15-2.26-45.01-4.39-56.99-22.05
			c-4.11-6.06-6.96-12.91-8.87-20.22c0.9-5.08,1.85-10.16,2.84-15.23c16.97,11.92,40.2,13.04,60.98,14.04
			c5.74,0.28,11.16,0.54,16.05,1.02c8.9,0.88,18.02,1.87,26.84,2.83c27.19,2.95,55.3,6,82.94,6.53c34.2,0.65,69.2,1.81,103.05,2.92
			c28.76,0.95,58.5,1.93,87.73,2.6c39.18,0.9,80.86,1.75,121.84,1.29c4.31-0.05,9.05,0.08,14.07,0.23
			c4.73,0.13,9.63,0.27,14.57,0.27c13.79,0,27.91-1.07,39.71-6.28l2.19-0.97l1.42-1.94c11.89-16.2,16.75-39.54,21.03-60.15
			c1.29-6.18,2.5-12.02,3.82-17.24c13.17-52.08,24.85-105.05,35.5-154.54c11.96-55.53,22.26-105.75,31.49-153.54
			c1.31-6.8,2.81-13.85,4.26-20.67c4.38-20.64,8.91-41.99,9.98-63c1.3-25.45,4.86-52.05,8.31-77.78c1.26-9.41,2.57-19.15,3.74-28.66
			c1.26-10.2,2.52-20.4,3.78-30.6c6.56-52.98,13.35-107.77,18.84-161.83C1996.99,1363.25,2002.47,1303.65,2004.21,1244.16z
			 M1188.88,2442.26c3.64,52.46,18.16,91.26,44.39,118.59c23.81,24.82,54.43,33.95,84.04,42.79c4.83,1.44,9.82,2.93,14.7,4.46
			c86.67,27.24,165.03,50.82,246.38,63.58c48.81,7.66,95.74,11.48,140.51,11.48c50.51,0,98.28-4.87,142.91-14.61
			c101.32-22.11,183.44-69.05,244.08-139.55c35.29-41.29,67.3-91,97.87-151.98c27.58-55.01,50.45-112.02,71.05-165.43
			c51.42-133.28,75.31-242.87,75.19-344.9c-0.08-72.67-7.92-147.07-23.29-221.15c-15.26-73.55-37.58-144.99-66.32-212.34
			c-20.06-47-43.74-89.21-70.67-126.09c35.9,39.51,67.01,85.5,92.74,137.2c33.89,68.09,60.2,140.87,78.2,216.32
			c18.13,75.98,27.37,152.75,27.45,228.17c0.12,108.54-25.4,224.16-78.03,353.48c-56.79,139.54-114.72,242.08-182.28,322.7
			c-64.96,77.15-146.37,132.65-229.23,156.27c-84.97,24.22-183.09,25.85-299.95,4.99c-90.08-16.08-176.44-43.85-264.33-73.31
			c-8.15-2.73-16.37-5.18-24.33-7.55c-27.52-8.2-53.51-15.95-75.34-34.33c-26.54-22.35-44.39-56.95-51.63-100.07
			c-10.05-59.86-0.84-123.45,8.3-172.17c3.86-20.55,8.31-40.95,13.18-61.06C1193.84,2328.26,1184.94,2385.49,1188.88,2442.26z
			 M1987.08,1230.35c-0.41,5.21-0.76,9.7-0.87,13.27c-1.73,58.92-7.16,118.12-12.25,168.25c-5.47,53.87-12.24,108.55-18.79,161.44
			c-1.26,10.2-2.53,20.41-3.78,30.61c-1.16,9.41-2.46,19.1-3.71,28.46c-3.5,26.09-7.11,53.06-8.45,79.25
			c-1,19.58-5.38,40.22-9.61,60.18c-1.46,6.9-2.98,14.03-4.32,20.99c-9.21,47.66-19.49,97.76-31.42,153.16
			c-10.62,49.32-22.25,102.11-35.36,153.91c-1.41,5.59-2.67,11.61-3.99,17.99c-3.72,17.87-7.91,38-16.53,51.15
			c-12.2,4.49-29.18,4.01-44.27,3.59c-5.2-0.15-10.12-0.28-14.78-0.23c-40.69,0.46-82.19-0.38-121.22-1.28
			c-29.13-0.67-58.83-1.65-87.55-2.6c-33.91-1.12-68.98-2.27-103.3-2.93c-26.83-0.51-54.54-3.52-81.34-6.43
			c-8.86-0.96-18.02-1.96-27.01-2.84c-5.34-0.53-10.98-0.8-16.96-1.08c-20.24-0.97-43.19-2.07-55.47-14.06
			c-0.77-0.75-1.49-1.54-2.19-2.35c0.98-4.53,1.99-9.05,3.04-13.57c1.78-6.94,3.62-13.87,5.52-20.8
			c20.16,8.95,46.32,8.92,68.58,8.91c7.76-0.01,15.1-0.02,21.28,0.37l434.41,27.15l1.47-7.82c11.17-59.56,22.57-120.11,33.6-178.67
			c45.82-243.34,93.11-494.48,136.51-743.04C1988.01,1218.51,1987.48,1225.26,1987.08,1230.35z M1191.36,2255.93
			c-6.65,26.03-12.71,52.66-17.76,79.57c-9.42,50.18-18.88,115.81-8.36,178.47c7.95,47.39,27.94,85.72,57.78,110.86
			c24.7,20.8,53.73,29.45,81.8,37.81c7.81,2.33,15.89,4.74,23.75,7.37c88.56,29.68,175.6,57.67,266.89,73.96
			c55.19,9.85,106.35,14.78,154.08,14.78c55.72,0,106.75-6.72,153.97-20.18c86.28-24.59,170.82-82.12,238.08-162
			c68.82-82.11,127.66-186.18,185.17-327.5c53.53-131.52,79.49-249.37,79.36-360.28c-0.09-76.82-9.49-154.98-27.94-232.33
			c-18.32-76.78-45.1-150.85-79.6-220.16c-21.26-42.72-46.12-81.67-74.26-116.46c37.18,37.75,69.6,80.8,96.78,128.55
			c39.63,69.64,70.35,144.81,91.32,223.42c21.02,78.84,31.73,159.28,31.82,239.08c0.13,118.07-27.52,241.98-82.18,368.27
			c-54.84,126.71-121.92,238.34-199.38,331.78c-76.26,91.8-155.02,152.1-234.09,179.25c-47.05,16.15-97.8,24.06-155.14,24.16
			c-0.38,0-0.75,0-1.13,0c-47.44,0-98.7-5.42-156.66-16.55c-98.1-18.84-194.58-51.39-284.99-83.12c-10.71-3.76-21.52-7-31.98-10.13
			c-27.68-8.29-53.83-16.12-77.31-32.75c-30.21-21.4-52-53.26-63.02-92.12c-15.92-56.13-10.41-116.01-3.82-161.91
			C1162.58,2361.75,1176.39,2306.69,1191.36,2255.93z M979.46,1479.17l-4.54,2.03c-5.79,2.59-11.62,5.19-17.48,7.78
			c-9.18,1.27-18.35,2.72-27.5,4.32c10.61-4.25,21.15-8.54,31.63-12.83c14.06-4.23,28.19-8.4,42.38-12.33
			C995.77,1471.85,987.59,1475.54,979.46,1479.17z M1293.68,1350.6c-29.81,3.76-59.47,11.9-88.01,20.33
			c-44.39,13.11-88.62,29.02-131.36,45.28c-3.66,1.19-7.31,2.38-10.96,3.57l-6.65,2.17c-31.89,10.4-64.06,21.59-95.18,32.41
			c-41.43,14.41-84.05,29.23-126.75,42.44c8.7-20.16,26.54-44.44,34.83-55.7c2.87-3.9,5.14-6.99,6.69-9.29
			c30.5-45.22,59.4-82.29,88.37-113.32c44.38-47.55,92.18-74.46,159.81-89.97c23.64-5.42,47.64-11.02,70.85-16.44
			c104.98-24.49,213.54-49.82,321.59-66.35c74.67-11.42,172.69-23.79,268.73-18.06c69.51,4.15,135.53,23.06,191.69,41.7
			c-45.21,261.09-95.03,525.69-143.23,781.67c-10.54,56-21.43,113.82-32.13,170.86l-418.52-26.16c-6.75-0.42-14.37-0.41-22.43-0.4
			c-21.4,0.02-46.93,0.05-63.61-8.51c17.74-61.65,39.5-122.52,60.88-182.28c8.06-22.53,16.4-45.82,24.31-68.61
			c6.31-18.17,13.05-36.97,19.57-55.14c24.59-68.53,49.72-138.64,65.03-209.71c10.57-40.61,21.45-85.77,16.75-127.88
			c-2.31-20.68-8.86-39.3-18.8-54.85c-9.1-14.9-21.59-26.87-36.82-35.17c-1.53-0.86-3.1-1.67-4.7-2.45
			c-0.16-0.08-0.32-0.15-0.48-0.23c-0.84-0.4-1.7-0.8-2.56-1.18c-0.38-0.17-0.75-0.33-1.13-0.49c-0.67-0.29-1.35-0.56-2.03-0.83
			c-0.52-0.21-1.03-0.41-1.55-0.61c-0.58-0.22-1.17-0.43-1.76-0.64c-0.6-0.21-1.2-0.43-1.81-0.64c-0.58-0.19-1.17-0.37-1.75-0.56
			c-0.62-0.19-1.23-0.4-1.86-0.58c-0.43-0.13-0.87-0.24-1.3-0.36c-0.73-0.21-1.46-0.41-2.2-0.61c-0.01,0-0.03-0.01-0.04-0.01v0
			c-0.01,0-0.01,0-0.02,0c-0.02,0-0.03-0.01-0.05-0.01v0c-0.01,0-0.01,0-0.02-0.01v0c0,0,0,0,0,0v0c-0.01,0-0.02-0.01-0.04-0.01
			l-2.23,8.65c0,0,0,0,0,0l2.2-8.65C1368.68,1334.74,1329.23,1340.95,1293.68,1350.6z M1438.11,1497.05
			c1.77-7.93,3.74-16.77,5.5-26.12c-0.22,1.54-0.44,3.07-0.68,4.6c-6.8,41.74-19.4,83.14-33.89,123.92
			C1420.29,1565.76,1430.41,1531.6,1438.11,1497.05z M2444.87,2241.97c-31.2,83.82-73.76,168-126.51,250.18
			c-50.37,78.48-108.55,152.93-172.92,221.29c-49.07,52.11-125.32,124.75-220.52,153.69c-44.39,13.5-92,19.58-145.53,18.59
			c-44.81-0.83-93-6.67-147.33-17.85c-104.66-21.55-208.12-56.6-304.34-91.27c-8.62-3.11-17.38-6.14-25.84-9.08
			c-69.3-24.03-134.76-46.73-166.39-118.07c-17.7-39.93-23.43-87.82-18.03-150.7c6.86-79.83,28.89-157.85,49.75-223.94
			c-12.45,44.64-23.56,92.1-30.49,140.41c-6.84,47.66-12.53,109.98,4.32,169.38c12.16,42.86,36.34,78.1,69.94,101.9
			c25.89,18.34,54.69,26.96,82.55,35.3c10.26,3.07,20.87,6.25,31.18,9.87c91.05,31.95,188.24,64.74,287.55,83.81
			c59.1,11.35,111.47,16.87,160.06,16.87c0.39,0,0.77,0,1.16,0c59.35-0.11,112-8.33,160.95-25.14
			c82.24-28.23,163.69-90.4,242.09-184.78c78.55-94.76,146.53-207.85,202.04-336.13c55.65-128.57,83.79-254.89,83.66-375.44
			c-0.09-81.36-11-163.35-32.42-243.7c-21.36-80.11-52.67-156.71-93.07-227.69c-21.87-38.42-47.05-73.89-75.29-106.12
			c37.36,35.57,70.27,75.43,98.28,119.13c45.55,71.07,80.76,148.51,104.65,230.18c23.87,81.6,35.98,165.81,35.98,250.29
			C2500.35,2039.1,2481.68,2143.06,2444.87,2241.97z"/>
	</g>
</g>
<g id="Layer_2" class="st0">
</g>
</svg>
