<?xml version="1.0" encoding="utf-8"?>
<!-- Generator: Adobe Illustrator 25.4.1, SVG Export Plug-In . SVG Version: 6.00 Build 0)  -->
<svg version="1.1" xmlns="http://www.w3.org/2000/svg" xmlns:xlink="http://www.w3.org/1999/xlink" x="0px" y="0px"
	 viewBox="0 0 2600 3000" style="enable-background:new 0 0 2600 3000;" xml:space="preserve">
<style type="text/css">
	.st0{display:none;}
	.st1{display:inline;}
	.st2{fill:#020203;}
	.st3{fill:#010202;}
	.st4{fill:none;stroke:#E30613;stroke-width:3;stroke-miterlimit:10;}
</style>
<g id="Layer_1" class="st0">
</g>
<g id="Layer_3">
</g>
<g id="Layer_2" class="st0">
	<g class="st1">
		<polygon class="st4" points="900,100 100,800 200,2000 1800,2100 2100,500 		"/>
		<circle class="st4" cx="1601.58" cy="2001.58" r="898.42"/>
	</g>
</g>
<g id="Layer_2_copy">
	<g>
		<path class="st3" d="M2497.5,2001.58c0.17,97.62-16.74,202.06-50.27,310.41c-23.85,77.07-52.2,157.67-97.77,225.02
			c-45.57,67.35-110.79,127.99-199.39,185.4c-85.14,55.17-173.28,98.02-261.98,127.36c-95.25,31.52-191.64,47.57-286.48,47.72
			c-0.43,0-0.86,0-1.3,0c-98.09,0-197.3-17.3-303.27-52.88c-47.38-15.91-85.45-36.28-116.36-62.28
			c-34.11-28.69-58.95-63.64-75.93-106.85c-25.05-63.74-34.13-133.05-42.92-200.08c-5.77-43.99-11.73-89.47-22.15-133.01
			c-13.15-54.98-28.08-96.54-48.41-134.74c-20.18-37.92-37.73-77.58-52.21-117.96c13.8,34.02,30.89,66.64,47.5,98.3
			c22.23,42.39,45.22,86.22,59.99,133.07c15.71,49.84,23.12,102.52,30.29,153.48c8.24,58.57,16.76,119.14,37.92,175.94
			c17.52,47.02,42.27,84.93,73.56,112.68c34.61,30.69,75.58,46.57,118.04,61.41c98.13,34.32,199.18,51.72,300.4,51.72
			c0.85,0,1.71,0,2.56,0c93.6-0.24,189.52-17.45,285.1-51.16c86.7-30.57,173.78-74.9,258.8-131.75
			c88.11-58.91,151.77-120.56,194.63-188.47c44.02-69.76,70.19-152.38,91.26-224.35c31.35-107.05,47.15-209.86,46.99-305.57l-5,0.01
			c0.17,95.23-15.57,197.56-46.79,304.16c-20.98,71.64-47.01,153.87-90.69,223.09c-42.47,67.3-105.66,128.47-193.18,186.98
			c-84.68,56.62-171.38,100.76-257.69,131.2c-95.05,33.52-190.42,50.63-283.46,50.87c-101.51,0.31-202.87-17.01-301.29-51.43
			c-41.96-14.68-82.44-30.35-116.37-60.44c-30.67-27.2-54.96-64.44-72.19-110.69c-20.98-56.29-29.46-116.58-37.66-174.89
			c-7.19-51.16-14.63-104.05-30.47-154.29c-14.9-47.27-38-91.3-60.33-133.89c-18.3-34.89-37.2-70.95-51.53-108.63
			c16.26,38.12,37.43,73.95,57.95,108.67c22.36,37.84,45.49,76.97,61.96,118.68c20.83,52.73,28.95,110.01,36.81,165.39
			c7.3,51.47,14.85,104.7,32.55,154.6c17.69,49.89,42.89,89.42,74.89,117.5c34.17,29.99,76.3,44.89,113.48,58.03
			c92.04,32.55,194.57,49.71,296.83,49.71c1.46,0,2.94,0,4.41-0.01c173.97-0.72,354.22-64.51,535.75-189.62
			c88.21-60.79,150.3-124.12,189.83-193.62c38.83-68.28,63.4-147.71,84.16-223.38c27.55-100.41,41.96-199.66,42.84-295.01l-5-0.05
			c-0.87,94.92-15.23,193.74-42.66,293.73c-20.67,75.35-45.12,154.43-83.68,222.23c-39.14,68.82-100.74,131.62-188.32,191.97
			c-180.68,124.52-359.99,188.02-532.93,188.73c-103.14,0.48-206.73-16.59-299.55-49.41c-36.75-13-78.4-27.73-111.85-57.08
			c-31.35-27.51-56.07-66.35-73.48-115.42c-17.53-49.43-25.05-102.41-32.31-153.63c-7.9-55.67-16.06-113.24-37.11-166.53
			c-16.62-42.08-39.85-81.38-62.31-119.39c-21.93-37.11-44.61-75.48-61.12-116.41c-0.29-0.71-0.56-1.42-0.85-2.13
			c16.01,36.35,35.39,72.29,57.65,106.86c8.14,12.63,16.94,25.05,25.45,37.06c16.68,23.54,33.93,47.88,46.61,74.53
			c25.95,54.55,34.87,116.22,43.5,175.86c6.86,47.43,13.95,96.48,29.55,141.96c17.15,49.99,40.36,87.83,70.96,115.69
			c33.04,30.08,73.05,44.9,118.13,59.84c91.24,30.24,191.46,46.16,290.29,46.16c2.23,0,4.46-0.01,6.69-0.02
			c169.23-1.14,346.71-67.31,527.48-196.69c86.09-61.61,145.16-124.89,180.58-193.46c38.02-73.59,62.18-156.34,78.98-220.21
			c27.1-103.01,40.9-201.1,41.01-291.55l-5-0.01c-0.11,90.02-13.85,187.68-40.84,290.28c-16.74,63.62-40.79,146.03-78.59,219.19
			c-35.05,67.85-93.62,130.55-179.05,191.69c-179.92,128.76-356.43,194.62-524.61,195.75c-100.44,0.77-202.59-15.14-295.37-45.88
			c-44.53-14.76-84.03-29.37-116.34-58.79c-29.96-27.28-52.73-64.45-69.59-113.62c-15.45-45.04-22.51-93.85-29.33-141.06
			c-8.68-60-17.65-122.05-43.93-177.29c-12.86-27.04-30.24-51.56-47.05-75.27c-8.48-11.97-17.25-24.34-25.33-36.88
			c-22.67-35.21-42.35-71.83-58.47-108.87c-1.18-2.72-2.34-5.44-3.49-8.16c0.03,0.06,0.06,0.12,0.08,0.18
			c17.16,37.01,38.27,73.71,62.72,109.08c9.79,14.16,20.88,27.87,31.61,41.13c16.13,19.93,32.8,40.54,45.3,63.01
			c22.64,40.71,30.65,88.89,38.39,135.47c0.64,3.86,1.28,7.71,1.92,11.53c1.17,6.92,2.31,13.86,3.46,20.81
			c7.89,47.74,16.05,97.11,31.6,143.82c17.49,52.53,41.25,91.46,72.65,119.03c31.8,27.92,72.09,42.09,114.03,55.29
			c91.82,28.91,191.57,44.11,289.1,44.11c3.14,0,6.29-0.02,9.42-0.05c164.78-1.59,338.81-69.85,517.25-202.89
			c83.81-62.48,138.32-124.32,171.55-194.59c29.7-62.81,54.52-134.73,75.88-219.87c26.65-106.23,39.14-199.33,38.19-284.62l-5,0.06
			c0.94,84.85-11.5,177.53-38.04,283.34c-21.28,84.83-45.99,156.45-75.55,218.95c-32.87,69.5-86.89,130.74-170.02,192.72
			c-177.57,132.39-350.61,200.32-514.31,201.9c-99.99,1.01-202.69-14.15-296.97-43.83c-41.42-13.04-81.16-27-112.23-54.28
			c-30.71-26.97-54-65.19-71.2-116.85c-15.42-46.33-23.55-95.5-31.41-143.05c-1.15-6.95-2.3-13.89-3.46-20.82
			c-0.64-3.82-1.28-7.66-1.92-11.52c-7.81-47.01-15.89-95.61-38.95-137.08c-12.7-22.84-29.52-43.62-45.78-63.72
			c-10.67-13.19-21.7-26.83-31.39-40.83c-24.29-35.13-45.25-71.58-62.29-108.33c-1.62-3.49-3.19-6.99-4.75-10.49
			c0.83,1.71,1.66,3.42,2.52,5.12c17.42,34.95,38.93,69.89,63.94,103.86c11.33,15.39,24.4,29.96,37.04,44.05
			c15.08,16.81,30.68,34.2,43.24,52.93c26.24,39.15,35.32,90.57,43.32,135.94c0.56,3.17,1.12,6.32,1.67,9.45
			c1.65,9.27,3.28,18.73,4.86,27.88c7.67,44.5,15.6,90.51,29.64,134.3c16.84,52.5,39.86,91.24,70.38,118.42
			c31.74,28.27,72.02,41.65,117.57,55.04c91.88,27,190.5,41.18,286.07,41.17c4.17,0,8.34-0.03,12.5-0.08
			c86.58-1.11,177.05-22.36,268.88-63.17c77.8-34.57,157.38-83.5,236.55-145.41c76.96-60.19,128.64-122.37,162.64-195.7
			c29.06-62.68,53.15-134.6,73.64-219.87c26.18-108.95,37.32-197.16,35.07-277.6l-5,0.14c2.24,79.99-8.86,167.78-34.93,276.29
			c-20.41,84.94-44.39,156.55-73.31,218.93c-33.65,72.58-84.87,134.18-161.18,193.86c-78.85,61.66-158.08,110.38-235.5,144.78
			c-91.21,40.54-181.02,61.65-266.92,62.74c-98.93,1.28-201.67-12.85-297.09-40.89c-44.96-13.21-84.69-26.39-115.65-53.97
			c-29.83-26.57-52.39-64.59-68.94-116.22c-13.94-43.45-21.83-89.29-29.47-133.62c-1.58-9.15-3.21-18.62-4.87-27.91
			c-0.56-3.12-1.11-6.27-1.67-9.44c-8.09-45.85-17.26-97.83-44.09-137.86c-12.75-19.02-28.47-36.54-43.67-53.49
			c-12.56-14-25.55-28.48-36.74-43.67c-24.84-33.74-46.2-68.43-63.49-103.12c-2.54-5.09-4.99-10.19-7.36-15.3
			c1.32,2.58,2.66,5.15,4.03,7.73c18.49,34.76,41.34,69.42,67.91,103.01c12.17,15.38,26.05,29.81,39.48,43.76
			c14.9,15.48,30.3,31.48,43.22,48.69c28.41,37.82,38.12,89.25,46.69,134.62l1.09,5.77c2.23,11.75,4.38,23.73,6.45,35.33
			c7.42,41.44,15.1,84.3,28.07,125.2c17.4,54.88,41.33,94.24,73.17,120.34c33.83,27.74,77.4,39.38,119.55,50.63l0.32,0.09
			c93.11,24.87,187.22,37.45,280.01,37.45c5.43,0,10.87-0.04,16.29-0.13c84.7-1.34,173.37-23.48,263.53-65.81
			c76.18-35.76,153.31-85.78,229.25-148.65c70.02-57.97,118.71-120.14,153.24-195.65c29.02-63.46,52.77-136.27,72.62-222.59
			c16.9-73.5,35.7-170.44,30.96-268.49l-4.99,0.24c4.7,97.44-14.01,193.94-30.84,267.13c-19.78,85.99-43.42,158.49-72.3,221.63
			c-34.2,74.8-82.46,136.4-151.88,193.88c-75.62,62.61-152.39,112.4-228.19,147.98c-89.52,42.03-177.5,64.01-261.49,65.34
			c-97.59,1.55-196.8-10.95-294.92-37.15l-0.32-0.09c-41.63-11.12-84.68-22.62-117.67-49.67c-31.06-25.47-54.47-64.06-71.57-117.99
			c-12.87-40.59-20.52-83.28-27.92-124.57c-2.08-11.61-4.23-23.61-6.46-35.38l-1.09-5.77c-8.67-45.91-18.5-97.95-47.61-136.7
			c-13.11-17.45-28.62-33.57-43.62-49.15c-13.34-13.86-27.14-28.2-39.16-43.4c-26.39-33.35-49.07-67.76-67.42-102.25
			c-3.14-5.9-6.14-11.81-9.04-17.74c2.26,4.19,4.58,8.38,6.98,12.56c18.96,33.11,42.2,66.03,69.09,97.86
			c12.71,15.05,26.88,29.16,40.57,42.81c14.58,14.52,29.65,29.54,42.85,45.59c32.78,39.85,43.79,94.59,52.63,138.58
			c2.74,13.64,5.32,27.59,7.82,41.08c7.47,40.33,15.19,82.04,28.28,121.72c17.14,51.96,40.23,88.96,70.59,113.11
			c33.61,26.73,79.17,37.83,119.38,47.63l5.83,1.42c93.53,22.88,186.65,34.45,277.11,34.45c6.54,0,13.07-0.06,19.58-0.18
			c82.45-1.54,168.82-24.38,256.71-67.9c74.47-36.87,148.65-87.69,220.47-151.06c63.89-56.37,111.71-120.92,146.2-197.33
			c28.74-63.68,52.06-136.58,71.28-222.87c15.93-71.54,33.36-165.86,26.61-261.11l-4.99,0.35c6.7,94.6-10.65,188.46-26.51,259.67
			c-19.15,85.96-42.36,158.54-70.96,221.9c-34.19,75.75-81.6,139.74-144.95,195.63c-71.49,63.08-145.3,113.65-219.38,150.33
			c-87.23,43.18-172.88,65.85-254.59,67.38c-96.15,1.77-195.54-9.7-295.41-34.13l-5.83-1.42c-39.7-9.67-84.71-20.63-117.45-46.68
			c-29.58-23.53-52.13-59.76-68.96-110.77c-12.98-39.35-20.67-80.89-28.11-121.06c-2.5-13.51-5.09-27.48-7.84-41.15
			c-8.95-44.53-20.1-99.96-53.67-140.77c-13.36-16.24-28.52-31.35-43.18-45.95c-13.62-13.57-27.71-27.61-40.28-42.49
			c-26.69-31.6-49.76-64.27-68.57-97.11c-4.06-7.1-7.92-14.21-11.6-21.34c2.84,4.99,5.77,9.97,8.82,14.94
			c19.67,32.08,43.96,64.17,72.21,95.38c11.51,12.72,24.26,24.75,36.59,36.38c17.09,16.12,34.75,32.78,49.22,51.41
			c41.1,52.93,53.45,120.97,65.39,186.77c6.42,35.35,13.05,71.91,24.08,105.41c17.46,53.04,41.33,89.96,72.96,112.89
			c33.84,24.53,79.51,34.39,119.8,43.09c3.83,0.83,7.63,1.65,11.37,2.47c93.62,20.58,185.11,30.98,272.34,30.98
			c7.55,0,15.08-0.08,22.57-0.23c79.39-1.67,162.54-24.81,247.14-68.77c71.08-36.93,143.49-89.23,209.4-151.24
			c103.68-97.54,171.45-231.98,213.27-423.11c22.27-101.78,29.04-180.68,21.95-255.82l-4.98,0.47
			c7.04,74.61,0.3,153.03-21.86,254.29c-41.6,190.1-108.91,323.72-211.81,420.54c-84.91,79.88-256.7,214.51-453.22,218.66
			c-93.56,1.96-192.39-8.35-293.73-30.63c-3.75-0.82-7.55-1.64-11.39-2.47c-39.81-8.6-84.93-18.34-117.92-42.25
			c-30.75-22.29-54.02-58.4-71.15-110.4c-10.92-33.17-17.53-69.55-23.91-104.74c-12.05-66.39-24.51-135.05-66.36-188.94
			c-14.71-18.93-32.52-35.73-49.74-51.98c-12.26-11.56-24.94-23.52-36.32-36.1c-28.04-30.98-52.15-62.82-71.65-94.64
			c-4.96-8.09-9.64-16.21-14.03-24.33c3.85,6.45,7.89,12.89,12.14,19.33c20.03,30.32,44.72,60.72,73.38,90.36
			c10.73,11.09,22.5,21.63,33.88,31.82c18.21,16.3,37.04,33.16,51.95,52.62c41.31,53.94,54.69,120.77,67.62,185.4
			c7.25,36.22,14.74,73.68,27.07,108.59c18.1,51.25,42.87,86.1,75.72,106.54c34.29,21.33,79.45,29.98,119.29,37.61
			c5.08,0.97,10.1,1.93,15.01,2.9c94.3,18.63,185.52,28.05,271.55,28.05c7.83,0,15.62-0.08,23.36-0.23
			c76.85-1.77,157.25-25.45,238.98-70.38c69.74-38.35,138.4-91.42,198.54-153.5c54.67-56.42,98.63-121.38,134.4-198.57
			c31.06-67.03,55.17-141.87,73.72-228.79c19.1-89.54,24.17-170.01,15.49-246.01l-4.97,0.57c8.62,75.45,3.58,155.4-15.41,244.4
			c-18.47,86.55-42.47,161.05-73.36,227.74c-35.53,76.68-79.18,141.18-133.45,197.19c-59.8,61.72-128.05,114.49-197.36,152.6
			c-81.02,44.55-160.65,68.02-236.68,69.77c-92.45,1.87-191.31-7.46-293.83-27.72c-4.92-0.97-9.94-1.93-15.03-2.91
			c-39.41-7.55-84.08-16.1-117.59-36.95c-31.85-19.82-55.94-53.82-73.65-103.96c-12.21-34.57-19.67-71.85-26.88-107.9
			c-13.04-65.19-26.53-132.59-68.55-187.46c-15.19-19.84-34.2-36.85-52.58-53.31c-11.32-10.13-23.02-20.61-33.63-31.58
			c-28.45-29.42-52.95-59.58-72.81-89.64c-5.91-8.94-11.41-17.91-16.54-26.88c4.39,6.94,9.02,13.88,13.93,20.8
			c21.09,29.77,46.13,58.47,76.53,87.74c9.76,9.4,20.26,18.38,30.41,27.06c20.33,17.4,41.36,35.38,57.19,57.4
			c38.15,53.08,52.06,116.87,65.5,178.56c7.83,35.94,15.93,73.11,28.74,107.97c19.09,51.97,45.31,85.95,80.14,103.87
			c37.15,19.11,83.77,26.99,124.91,33.95c5.51,0.93,10.95,1.85,16.29,2.78c94.79,16.55,184.22,24.91,266.31,24.91
			c8.77,0,17.46-0.1,26.05-0.29c73.96-1.79,151.1-25.84,229.26-71.49c67.45-39.39,131.79-92.89,186.08-154.72
			c61.06-69.54,105.97-138.21,137.3-209.93c28.15-64.43,50.49-136.82,68.29-221.31c16.49-78.27,19.37-158.27,8.56-237.8l-4.95,0.67
			c10.73,78.95,7.87,158.39-8.5,236.09c-17.73,84.15-39.97,156.23-67.98,220.34c-31.12,71.25-75.77,139.49-136.48,208.64
			c-53.94,61.43-117.86,114.58-184.84,153.7c-77.42,45.22-153.75,69.04-226.85,70.81c-88.76,1.96-186.79-6.29-291.38-24.55
			c-5.35-0.93-10.8-1.85-16.32-2.79c-40.78-6.89-86.99-14.71-123.45-33.46c-33.67-17.32-59.1-50.41-77.74-101.15
			c-12.69-34.54-20.75-71.53-28.54-107.31c-13.55-62.19-27.56-126.5-66.32-180.42c-16.18-22.51-37.44-40.7-58-58.29
			c-10.1-8.64-20.54-17.57-30.19-26.86c-30.17-29.05-55.01-57.52-75.92-87.03c-6.86-9.68-13.2-19.37-19.03-29.08
			c5.39,8.09,11.16,16.18,17.35,24.26c21.54,28.13,46.94,55.24,77.65,82.86c8.96,8.06,18.46,15.79,27.63,23.26
			c21.33,17.37,43.39,35.33,59.67,58.32c36.55,51.63,50.85,113.45,64.68,173.24c8.99,38.86,18.28,79.03,33.59,116.25
			c20.07,48.8,48.79,80.71,85.36,94.84c42.1,16.27,88.62,23.58,133.61,30.65l6.01,0.95c98.34,15.5,186.21,23.1,267.63,23.09
			c9.59,0,19.11-0.11,28.53-0.32c71.57-1.9,145.29-26.59,219.12-73.4c61.6-39.06,121.68-92.85,173.74-155.56
			c52.32-63.03,96.12-131.95,130.18-204.86c34.3-73.41,58.94-151.33,73.26-231.59c12.59-70.6,12.85-149.29,0.76-227.55l-4.94,0.76
			c12.01,77.73,11.75,155.84-0.75,225.91c-14.24,79.84-38.75,157.34-72.86,230.36c-33.88,72.52-77.45,141.09-129.5,203.79
			c-51.73,62.32-111.4,115.75-172.57,154.53c-73.06,46.32-145.92,70.75-216.56,72.62c-89.06,1.99-185.64-5.44-295.27-22.72
			l-6.01-0.95c-44.73-7.03-90.98-14.3-132.58-30.37c-35.24-13.61-63-44.59-82.53-92.08c-15.15-36.84-24.4-76.82-33.35-115.48
			c-13.94-60.26-28.36-122.58-65.47-175.01c-16.67-23.55-39-41.73-60.6-59.31c-9.13-7.43-18.57-15.12-27.45-23.1
			c-30.48-27.42-55.68-54.3-77.03-82.19c-7.94-10.37-15.2-20.76-21.81-31.14c5.97,8.46,12.44,16.93,19.4,25.4
			c22.33,27.15,48.77,53.35,80.82,80.11c7.66,6.39,15.55,12.56,23.19,18.52c24.64,19.25,47.92,37.43,65.31,63.66
			c32.44,48.93,46.33,106.48,59.76,162.13c9.8,40.63,19.94,82.63,37.21,121.24c21.22,47.42,51.59,76.47,92.85,88.82
			c49.27,14.74,101.35,22.95,145.8,29.03c100.68,13.77,185.19,20.33,263.16,20.33c9.79,0,19.49-0.1,29.1-0.31
			c68.98-1.79,139.31-27.2,209.04-75.53c55.52-38.48,111.4-92.54,161.59-156.33c77.26-98.18,174.45-253.71,198.71-437.04
			c9.23-69.79,7.42-146.42-5.24-221.61l-4.93,0.83c12.58,74.71,14.38,150.82,5.21,220.13c-24.11,182.21-120.81,336.91-197.68,434.61
			c-49.89,63.4-105.4,117.11-160.51,155.31c-68.92,47.77-138.33,72.88-206.31,74.64c-85.79,1.84-178.41-4.51-291.47-19.98
			c-44.26-6.06-96.1-14.22-145.04-28.87c-39.79-11.91-69.13-40.06-89.72-86.07c-17.09-38.19-27.17-79.97-36.92-120.37
			c-13.53-56.07-27.52-114.06-60.45-163.72c-17.84-26.91-41.43-45.33-66.4-64.84c-7.6-5.94-15.46-12.08-23.06-18.42
			c-31.81-26.56-58.03-52.54-80.16-79.45c-8.93-10.85-17.02-21.7-24.29-32.53c7.3,9.79,15.35,19.59,24.16,29.39
			c22.67,25.23,49.43,49.7,81.83,74.8c6.13,4.75,12.35,9.38,18.36,13.86c26.07,19.4,50.69,37.72,68.8,65.74
			c30.05,46.49,43.23,100.69,55.98,153.1c10.51,43.19,21.37,87.85,41.61,128.3c22,43.98,53.22,69.19,101.21,81.77
			c52.22,13.68,106.16,21.05,152.03,26.46c103.66,12.22,185.2,17.87,259.73,17.87c9.35,0,18.59-0.09,27.75-0.27
			c65.64-1.48,132.17-27.37,197.73-76.93c50.12-37.89,100.29-90.12,149.14-155.23c52.76-70.33,95.6-140.28,127.34-207.9
			c37.98-80.91,60.5-159.5,66.92-233.6c5.96-68.69,2.45-142.8-10.14-214.32l-4.92,0.87c12.52,71.1,16.01,144.77,10.09,213.02
			c-6.37,73.5-28.74,151.53-66.46,231.9c-31.6,67.31-74.26,136.96-126.81,207.02c-48.56,64.74-98.41,116.63-148.15,154.24
			c-64.71,48.92-130.26,74.47-194.82,75.92c-81.91,1.57-170.36-3.84-286.78-17.57c-45.7-5.39-99.42-12.73-151.34-26.33
			c-46.48-12.18-76.71-36.59-98.01-79.17c-19.98-39.94-30.78-84.32-41.22-127.24c-12.85-52.82-26.13-107.43-56.64-154.63
			c-18.6-28.78-43.57-47.36-70.01-67.04c-6-4.46-12.19-9.07-18.29-13.8c-32.16-24.92-58.71-49.19-81.17-74.19
			c-10.67-11.88-20.22-23.74-28.64-35.57c7.94,10,16.79,20.04,26.52,30.07c22.77,23.49,49.61,46.34,82.06,69.84
			c4.83,3.5,9.68,6.94,14.37,10.26c29.19,20.68,56.76,40.22,76.38,72.59c26.37,43.52,38.62,93.62,50.46,142.08
			c11.43,46.74,23.24,95.08,47.71,137.7c26.59,46.31,67.57,61.31,107.9,70.61c53.68,12.39,107.71,18.79,158.11,23.86
			c82.02,8.25,169.61,15.75,257.95,15.75c7.91,0,15.84-0.06,23.76-0.19c62.71-1.24,125.99-28.07,188.08-79.74
			c45.17-37.59,90.28-88.54,137.92-155.76c53.81-75.93,94.45-144.59,124.25-209.91c37.66-82.56,58.3-161.48,61.35-234.58
			c2.84-68.23-1.83-139.3-13.5-205.51l-4.92,0.87c11.61,65.86,16.26,136.56,13.43,204.44c-3.02,72.44-23.5,150.74-60.9,232.71
			c-29.67,65.03-70.16,133.43-123.78,209.1c-47.39,66.87-92.21,117.5-137.04,154.81c-61.19,50.92-123.43,77.36-184.97,78.58
			c-96.1,1.52-191.91-6.57-281.13-15.54c-50.23-5.05-104.07-11.42-157.48-23.75c-39.23-9.05-79.06-23.59-104.69-68.23
			c-22.92-39.93-34.65-85.25-45.5-129.49c10.69,41.2,23.68,82.3,47.8,117.96c27.85,41.16,69.5,52.35,117.08,61.82
			c53.21,10.59,107.55,16.1,158.35,20.47c84.14,7.24,173.3,14.25,261.19,14.25c5.46,0,10.92-0.03,16.36-0.08
			c31.72-0.21,63.85-8.24,95.5-23.88c27.62-13.64,55.66-33.48,83.34-58.96c52.52-48.33,95.65-108.95,127.36-156.36
			c33.98-50.8,83.32-127.84,119.33-210.02c36.6-83.53,54.71-159.78,55.36-233.12c0.62-70.35-4.4-137.95-14.92-200.92l-4.93,0.82
			c10.48,62.68,15.47,129.99,14.85,200.05c-0.64,72.65-18.61,148.26-54.94,231.15c-17.17,39.18-48.18,103.5-118.91,209.25
			c-31.56,47.18-74.46,107.48-126.59,155.46c-27.33,25.15-54.98,44.72-82.17,58.15c-30.97,15.3-62.37,23.16-93.33,23.36
			c-92.94,0.95-187.85-6.47-277.09-14.15c-50.65-4.36-104.83-9.85-157.8-20.39c-46.48-9.25-87.13-20.13-113.91-59.72
			c-26.12-38.6-39.04-84.05-50.3-128.98c11.07,40.9,25.12,81.1,51.3,114.55c30.45,38.92,77.62,47.17,123.24,55.15l1.98,0.35
			c56.21,9.85,113.93,14.51,163.62,18.11c95.99,6.95,182.52,12.72,269.51,12.93c46.75-0.05,96.85-23.77,148.91-70.5
			c29.06-26.09,74.89-72.11,137.06-170.05c43.77-68.97,84.14-145.63,119.99-227.86c31.31-71.82,45.21-141,43.76-217.7
			c-1.41-74.64-6.17-138.52-14.55-195.27l-4.95,0.73c8.35,56.54,13.09,120.21,14.5,194.64c1.44,75.95-12.34,144.46-43.35,215.6
			c-35.74,81.99-75.99,158.43-119.63,227.18c-29.61,46.66-75.95,114.95-136.18,169.01c-51.11,45.89-100.09,69.18-145.56,69.23
			c-86.83-0.2-173.26-5.97-269.15-12.92c-49.57-3.59-107.14-8.24-163.12-18.05l-1.98-0.35c-44.68-7.82-90.89-15.91-120.16-53.31
			c-33.26-42.51-46.69-96.64-59.66-148.99c-10.63-42.88-21.62-87.21-43.44-125.48c-24.79-43.49-67.44-70.43-108.68-96.48
			c-23.03-14.55-46.84-29.59-67.13-47.29c-14.13-12.33-26.16-24.21-36.36-35.89c11.56,11.74,23.69,22.08,34.68,30.89
			c20.32,16.3,43.33,29.96,65.57,43.18c45.04,26.75,87.58,52.02,112.28,98.1c19.58,36.51,30.67,77.5,41.4,117.15
			c2.01,7.44,4.1,15.13,6.2,22.65l1.24,4.43c12.05,43.22,25.7,92.21,58.09,126.07c30.5,31.88,78.27,38.84,120.43,44.98
			c3.55,0.52,7.06,1.03,10.52,1.55c55.99,8.42,111.5,12.54,163.13,15.73c14.17,0.88,28.36,1.78,42.56,2.69
			c73.02,4.68,148.53,9.52,222.59,9.69c42.99-0.04,87.81-23.06,137.02-70.37c57.3-55.08,100.65-122.36,132.02-174.83
			c40.81-68.24,78.27-143.12,114.55-228.9c27.29-64.55,37.99-131.66,34.67-217.65c-2.39-61.97-4.87-126.05-12.14-188.34l-4.97,0.58
			c7.25,62.1,9.72,126.08,12.11,188.01c3.29,85.17-7.28,151.61-34.28,215.45c-36.18,85.57-73.55,160.25-114.24,228.29
			c-31.21,52.19-74.33,119.11-131.19,173.79c-48.23,46.37-91.92,68.94-133.55,68.98c-73.89-0.17-149.32-5-222.27-9.68
			c-14.21-0.91-28.4-1.82-42.57-2.7c-51.52-3.18-106.89-7.29-162.7-15.68c-3.46-0.52-6.98-1.03-10.54-1.55
			c-41.36-6.02-88.23-12.85-117.53-43.49c-31.52-32.95-45-81.3-56.89-123.95l-1.24-4.44c-2.09-7.5-4.17-15.18-6.18-22.61
			c-10.8-39.91-21.97-81.18-41.82-118.2c-25.36-47.31-70.49-74.11-114.14-100.04c-22.1-13.12-44.95-26.7-65-42.78
			c-12.52-10.04-26.55-22.09-39.45-35.93c12.16,11.5,25.34,21.86,37.9,31.11c19.98,14.71,42.06,26.92,63.42,38.73
			c46.44,25.69,90.31,49.96,115.53,98.08c18.11,34.56,28.73,73.07,39,110.33c2.46,8.92,5,18.13,7.6,27.13l0.61,2.13
			c13.13,45.47,28.01,97,65.96,128.18c31.66,26.02,78.66,31.57,120.12,36.47c5.6,0.66,10.88,1.29,16.07,1.95
			c55.93,7.2,113.24,10.9,166.83,13.82c22.55,1.23,45.56,2.67,67.82,4.07c61.32,3.84,124.73,7.81,186.84,7.92
			c23.02-0.11,46.92-7.97,71.04-23.36c18.1-11.56,36.27-27.06,57.17-48.8c54.25-56.43,95.79-125.32,125.93-179.03
			c44.04-78.5,80.49-155.36,108.33-228.45c25.57-67.12,28.35-134.81,24.66-215.79c-1.02-22.33-1.74-45.1-2.43-67.13
			c-1.21-38.38-2.47-78.07-5.34-116.93l-4.99,0.37c2.86,38.76,4.12,78.39,5.33,116.72c0.7,22.04,1.42,44.83,2.44,67.2
			c3.66,80.36,0.92,147.47-24.34,213.79c-27.76,72.86-64.1,149.5-108.02,227.78c-29.99,53.45-71.31,121.99-125.17,178.01
			c-29.04,30.21-73.56,70.4-124.62,70.63c-61.94-0.11-125.27-4.08-186.52-7.91c-22.27-1.4-45.3-2.84-67.86-4.07
			c-53.5-2.92-110.69-6.61-166.46-13.78c-5.22-0.67-10.52-1.3-16.13-1.96c-40.78-4.82-87-10.28-117.53-35.37
			c-36.75-30.2-51.41-80.94-64.33-125.71l-0.61-2.13c-2.59-8.97-5.13-18.17-7.58-27.07c-10.34-37.5-21.03-76.29-39.39-111.32
			c-25.91-49.45-72.49-75.22-117.53-100.14c-21.22-11.74-43.15-23.87-62.88-38.39c-13.89-10.22-28.55-21.83-41.66-34.81
			c12.94,11.24,27.37,21.54,41.66,31.07c25.64,17.09,54.77,33.29,91.7,51c43.23,20.73,68.5,44.3,87.22,81.35
			c16.59,32.83,26.78,69,36.63,103.98c3.21,11.4,6.53,23.18,10.02,34.66c12.04,39.6,28.52,93.83,69.73,122.19
			c34.09,23.46,83.19,27.99,126.51,31.98c7.35,0.68,14.28,1.32,20.99,2.04c55.94,6,112.02,8.99,164.66,11.53
			c27.47,1.33,55.53,3.14,82.67,4.9c53.54,3.46,108.91,7.04,163.12,7.15c48.36-0.25,89.28-39.34,119.52-73.37
			c50.61-56.94,88.6-123.6,119.08-181.31c41.48-78.51,80.55-155.45,102.77-233.58c20.32-71.46,17.3-146.31,14.63-212.36
			c-1.43-35.33-1.27-71.2-1.13-105.9c0.1-23.92,0.21-48.66-0.21-73.04l-5,0.08c0.41,24.32,0.31,49.03,0.21,72.93
			c-0.15,34.75-0.3,70.68,1.13,106.12c2.65,65.67,5.66,140.1-14.44,210.79c-22.09,77.67-61.03,154.35-102.38,232.61
			c-30.35,57.44-68.15,123.79-118.4,180.32c-29.56,33.25-69.43,71.45-115.79,71.69c-54.04-0.1-109.33-3.68-162.79-7.14
			c-27.16-1.76-55.25-3.57-82.75-4.9c-52.57-2.54-108.56-5.53-164.37-11.51c-6.74-0.72-13.7-1.36-21.06-2.04
			c-42.71-3.94-91.12-8.4-124.14-31.12c-39.77-27.37-55.96-80.63-67.78-119.52c-3.47-11.43-6.79-23.19-9.99-34.56
			c-9.92-35.21-20.18-71.61-36.98-104.88c-19.26-38.13-45.2-62.35-89.52-83.6c-36.7-17.6-65.65-33.69-91.08-50.65
			c-15.2-10.13-30.54-21.14-44.01-33.19c15.1,11.85,30.95,21.44,42.85,28.64c26.21,15.85,56.34,31.07,94.83,47.91
			c39.87,17.44,66.07,42.21,84.94,80.33c15.35,31.01,25.1,64.95,34.52,97.78c4.39,15.3,8.93,31.11,13.99,46.44
			c15.11,45.83,34.74,91.12,75.73,112c36.84,18.76,85.26,22.36,127.98,25.54c8.35,0.62,16.24,1.21,23.93,1.89
			c53.55,4.77,105.41,7.18,167.64,9.83c29.67,1.27,60,3.32,89.33,5.31c47.64,3.23,96.9,6.56,145.14,6.66
			c44.26-0.27,81.26-38.31,111.62-75.5c47.51-58.19,83.75-126.42,112.94-185.5l4.78-9.67c35.28-71.31,71.77-145.04,87.46-222.12
			c12.08-59.31,10.32-120.28,8.62-179.24c-0.3-10.55-0.62-21.46-0.85-32.17c-1.24-57.67,1.6-116.43,8.45-174.67l-4.97-0.58
			c-6.87,58.46-9.72,117.46-8.48,175.36c0.23,10.74,0.55,21.65,0.85,32.21c1.69,58.68,3.44,119.35-8.52,178.1
			c-15.57,76.44-51.91,149.88-87.05,220.9l-4.79,9.68c-29.06,58.82-65.14,126.74-112.33,184.55
			c-29.62,36.28-65.59,73.4-107.75,73.66c-48.06-0.09-97.24-3.43-144.8-6.65c-29.36-1.99-59.72-4.04-89.46-5.31
			c-62.16-2.65-113.96-5.06-167.41-9.82c-7.73-0.69-15.63-1.28-24-1.9c-42.25-3.14-90.13-6.7-126.08-25
			c-23.27-11.85-48.25-33.27-73.25-109.11c-5.02-15.23-9.55-31-13.93-46.25c-9.49-33.04-19.29-67.2-34.85-98.61
			c-19.43-39.25-46.39-64.76-87.42-82.7c-38.29-16.74-68.24-31.87-94.25-47.6c-13.28-8.03-31.58-19.1-48.06-32.93
			c15.45,11.21,32.16,20.37,45.33,27.59l0.85,0.47c33.28,18.24,67.77,32.73,100.1,45.67c36.69,14.69,62.65,40.04,81.72,79.77
			c13.84,28.85,23.03,60.15,31.91,90.41c5.26,17.91,10.69,36.44,17.05,54.3c14.65,41.21,35.58,85.71,79.67,103.27
			c40.27,16.04,89.69,19.08,133.29,21.76c8.58,0.53,16.69,1.03,24.73,1.61c53.19,3.88,107.36,5.91,159.75,7.88l9.81,0.37
			c30.84,1.16,62.34,3.39,92.81,5.55c43.61,3.09,88.7,6.28,132.9,6.42c46.01-0.33,83.5-50.6,103.64-77.61
			c43.7-58.6,76.33-124.06,105.08-186.08l2.36-5.1c34.22-73.77,69.6-150.05,79.76-231.61c5.76-46.19,4.56-93.26,3.4-138.79
			c-0.57-22.52-1.16-45.8-0.9-68.66c0.6-52.61,6.95-106.43,20-169.38l-4.9-1.01c-13.11,63.27-19.5,117.4-20.1,170.34
			c-0.26,22.95,0.33,46.28,0.9,68.85c1.15,45.34,2.34,92.23-3.37,138.04c-10.07,80.78-45.28,156.7-79.34,230.12l-2.36,5.1
			c-28.64,61.77-61.13,126.96-104.55,185.19c-19.62,26.31-56.14,75.29-99.64,75.6c-44-0.14-89.01-3.33-132.53-6.41
			c-30.51-2.16-62.05-4.39-92.98-5.56l-9.82-0.37c-52.34-1.96-106.47-3.99-159.57-7.87c-8.06-0.59-16.19-1.09-24.79-1.62
			c-43.23-2.66-92.22-5.67-131.75-21.42c-42.24-16.83-62.53-60.15-76.81-100.3c-0.91-2.55-1.79-5.13-2.67-7.71
			c17.64,43.77,43.23,81.23,89.49,93.26c48.46,12.61,100.4,15.4,150.64,18.09c5.15,0.28,10.28,0.55,15.39,0.84
			c44.96,2.51,90.71,3.96,134.95,5.37c10.71,0.34,21.42,0.68,32.14,1.04c30.86,1.02,62.36,3.37,92.82,5.64
			c39.99,2.98,81.33,6.06,121.9,6.2c41.46-0.3,74.54-48.84,94.3-77.84l0.68-1c41.12-60.32,72.33-127.9,99.94-191.94
			c33.96-78.78,62.5-150.63,67.79-232.35c2.36-36.42,1.43-73.43,0.53-109.22c-0.83-33.07-1.69-67.26,0.06-100.82
			c2.8-53.89,14.88-103.5,32.16-161.43l-4.79-1.43c-17.38,58.27-29.53,108.21-32.36,162.6c-1.76,33.75-0.89,68.05-0.06,101.21
			c0.9,35.68,1.82,72.58-0.52,108.77c-5.24,80.92-33.62,152.35-67.4,230.69c-27.51,63.81-58.6,131.13-99.48,191.1l-0.68,1
			c-19.21,28.19-51.37,75.38-90.18,75.66c-40.36-0.15-81.62-3.22-121.52-6.19c-30.51-2.27-62.06-4.62-93.02-5.65
			c-10.71-0.36-21.43-0.7-32.14-1.04c-44.21-1.41-89.93-2.86-134.83-5.37c-5.11-0.28-10.24-0.56-15.4-0.84
			c-49.99-2.68-101.67-5.45-149.65-17.93c-30.44-7.92-54.23-28.09-72.75-61.65c-16.48-29.87-26.75-66.05-36.68-101.03
			c-7.91-27.85-15.37-54.15-25.49-75.7c-19.82-42.22-46.84-68.55-85.02-82.88l-4.93-1.85c-30.76-11.53-62.56-23.45-92.64-38.08
			c-1.6-0.78-3.28-1.59-5.02-2.43c-13.98-6.75-32.08-15.48-48.15-26.33c15.08,8.67,31.39,15.58,44.25,21.02
			c2.69,1.14,5.19,2.2,7.47,3.19c24.25,10.51,49.49,19.14,73.9,27.48c9.62,3.29,19.56,6.68,29.32,10.15
			c34.63,12.32,60.9,39.62,80.31,83.48c8.72,19.7,15.49,42.56,22.67,66.77c10.36,34.97,21.08,71.13,38.74,100.75
			c20.22,33.92,46.68,53.76,80.9,60.65c85.42,17.21,175.43,18.37,262.48,19.5c25.5,0.33,51.86,0.67,77.46,1.42
			c30.82,0.9,62.23,3.33,92.62,5.68c37.23,2.88,75.73,5.86,113.57,6.06c37.57-0.52,66.69-48,84.09-76.36
			c0.98-1.59,1.92-3.13,2.83-4.6c35.35-57.22,62.45-118.35,92.27-192.52c27.43-68.23,53.01-143.63,54.4-232.65
			c0.4-25.42-0.28-51.22-0.94-76.17c-1.17-44.45-2.38-90.41,2.49-135.47c5.88-54.44,23.86-101.17,42.89-150.64l1.07-2.78l-4.67-1.79
			l-1.07,2.78c-19.15,49.79-37.25,96.81-43.19,151.9c-4.9,45.4-3.69,91.53-2.52,136.14c0.65,24.9,1.33,50.65,0.93,75.96
			c-1.38,88.2-26.79,163.08-54.04,230.86c-29.73,73.93-56.73,134.84-91.89,191.76c-0.91,1.48-1.86,3.02-2.84,4.62
			c-16.86,27.49-45.09,73.5-79.85,73.98c-37.61-0.2-76.02-3.17-113.16-6.04c-30.44-2.36-61.92-4.79-92.86-5.7
			c-25.65-0.75-52.03-1.09-77.55-1.42c-86.82-1.12-176.59-2.28-261.55-19.4c-32.75-6.6-58.13-25.67-77.59-58.31
			c-17.34-29.09-27.97-64.94-38.24-99.62c-7.22-24.36-14.04-47.38-22.89-67.37c-20-45.18-47.21-73.36-83.2-86.16
			c-9.78-3.48-19.74-6.88-29.38-10.17c-24.32-8.31-49.46-16.9-73.53-27.33c-2.29-0.99-4.81-2.06-7.51-3.2
			c-12.89-5.46-30.69-13-46.69-22.63c15.54,7.91,32.24,13.97,44.59,18.45c3.52,1.28,6.57,2.38,9.21,3.39
			c19.54,7.45,39.79,13.55,59.38,19.45c15.43,4.65,31.38,9.45,46.83,14.87c33.08,11.61,58.54,38.8,77.82,83.14
			c9.36,21.52,16.5,44.35,23.41,66.43c7.54,24.1,15.34,49.01,26.07,72.46c22.24,48.6,54.22,73.55,103.68,80.88
			c85.24,12.63,173.26,13.62,258.38,14.58c28.11,0.32,57.17,0.64,85.6,1.39c29.99,0.79,60.54,3.25,90.08,5.63
			c34.58,2.79,70.33,5.67,105.55,5.89c33.82-0.88,59.19-47.32,74.34-75.06c1.4-2.56,2.71-4.96,3.93-7.15
			c36.47-65.32,63.99-136.65,86.93-198.37c28.15-75.75,40.39-149.22,38.52-231.21c-0.27-11.81-0.64-23.8-1-35.4
			c-1.8-58.25-3.66-118.48,6.67-177.22c7.62-43.35,24.87-79.44,43.13-117.64c3.87-8.09,7.87-16.46,11.78-24.92l-4.54-2.1
			c-3.9,8.43-7.89,16.78-11.75,24.86c-18.41,38.52-35.81,74.91-43.54,118.94c-10.41,59.24-8.55,119.74-6.74,178.24
			c0.36,11.59,0.73,23.57,1,35.36c1.86,81.34-10.28,154.22-38.21,229.36c-22.87,61.55-50.32,132.66-86.61,197.67
			c-1.23,2.2-2.55,4.62-3.96,7.19c-14.64,26.8-39.15,71.65-70.01,72.46c-34.96-0.22-70.61-3.09-105.1-5.88
			c-29.6-2.39-60.22-4.86-90.35-5.65c-28.47-0.75-57.55-1.07-85.67-1.39c-84.95-0.96-172.8-1.94-257.7-14.53
			c-24.6-3.65-44.46-11.73-60.72-24.7c-15.63-12.48-28.44-29.91-39.15-53.31c-10.6-23.16-18.35-47.92-25.84-71.87
			c-6.95-22.21-14.14-45.17-23.6-66.93c-19.87-45.68-46.28-73.77-80.75-85.86c-15.56-5.46-31.56-10.28-47.04-14.94
			c-19.5-5.87-39.66-11.95-59.04-19.33c-2.69-1.02-5.89-2.19-9.29-3.42c-12.89-4.68-30.71-11.14-46.68-19.54
			c16.12,7.09,33.6,12.35,46.43,16.22c4.22,1.27,7.86,2.37,10.75,3.32c16.91,5.57,34.44,10.1,51.39,14.49
			c18.08,4.68,36.77,9.51,54.62,15.58c33.8,11.49,58.81,39.23,78.7,87.29c7.59,18.33,13.75,37.67,19.72,56.37
			c8.39,26.32,17.07,53.54,29.91,78.65c22.59,44.19,54.04,64.9,108.57,71.49c82.8,10,167.82,10.39,250.05,10.77
			c32.77,0.15,66.65,0.3,99.84,1.07c29.54,0.68,59.58,3.16,88.63,5.56c32.34,2.67,65.78,5.44,98.71,5.73l0.06,0l0.05,0
			c30.39-1.06,52.53-47.52,65.76-75.28c1.58-3.32,3.08-6.45,4.38-9.07c33.26-66.71,58.45-137.67,79.45-198.94
			c26.69-77.9,24.45-158.89,22.29-237.21c-1.92-69.28-3.9-140.91,14.22-209.97c9.24-35.21,26.26-64.37,44.27-95.24
			c6.85-11.74,13.94-23.89,20.53-36.34l-4.42-2.34c-6.54,12.36-13.6,24.46-20.43,36.16c-18.2,31.17-35.38,60.62-44.79,96.49
			c-18.3,69.75-16.3,141.75-14.38,211.38c2.15,77.88,4.38,158.41-22.02,235.45c-20.94,61.12-46.06,131.89-79.19,198.33
			c-1.32,2.65-2.83,5.81-4.42,9.15c-11.9,24.96-34.03,71.41-61.36,72.43c-32.73-0.29-66.06-3.05-98.29-5.71
			c-29.12-2.41-59.23-4.9-88.92-5.58c-33.23-0.77-67.14-0.92-99.93-1.07c-82.08-0.38-166.96-0.76-249.47-10.73
			c-52.65-6.36-82.99-26.29-104.72-68.8c-12.65-24.75-21.27-51.77-29.6-77.9c-5.99-18.8-12.19-38.23-19.86-56.76
			c-20.48-49.49-46.44-78.12-81.71-90.11c-18.03-6.13-36.82-10.99-54.98-15.69c-16.88-4.37-34.32-8.88-51.08-14.4
			c-2.95-0.97-6.62-2.08-10.87-3.36c-12.73-3.84-31.91-9.61-48.92-17.45c16.62,6.29,34.86,10.75,48.1,13.99
			c4.71,1.15,8.78,2.15,11.75,2.98c14.85,4.17,30.37,7.48,45.38,10.68c21.16,4.51,43.05,9.18,63.34,16.31
			c42.67,14.99,63.99,56.8,76.32,86.94c6.75,16.5,12.4,33.9,17.86,50.73c9.19,28.32,18.7,57.6,33.81,83.94
			c12.78,22.27,29.23,37.85,50.31,47.63c21.49,9.97,46.44,13.3,68.02,15.24c77.79,7.02,157.27,6.85,234.13,6.69
			c37.68-0.08,76.64-0.16,114.86,0.61c29.3,0.59,59.04,3.07,87.81,5.46c30.48,2.54,62,5.16,93.08,5.55l0.1,0l0.1-0.01
			c27-1.86,45.87-47.82,57.15-75.28c1.66-4.04,3.09-7.52,4.32-10.31c33.57-75.79,57.46-142.72,73.01-204.61
			c16.84-67,13.25-136.93,9.79-204.57c-4.08-79.69-8.3-162.09,21.3-239.09c11.37-29.56,28.76-55.44,45.57-80.47
			c9.15-13.62,18.61-27.7,27.13-42.37l-4.32-2.51c-8.44,14.52-17.85,28.54-26.96,42.09c-16.97,25.26-34.52,51.38-46.09,81.47
			c-29.98,77.99-25.74,160.93-21.63,241.14c3.45,67.26,7.01,136.82-9.65,203.09c-15.48,61.61-39.27,128.27-72.73,203.8
			c-1.26,2.85-2.71,6.37-4.38,10.44c-10.11,24.62-28.91,70.42-52.77,72.19c-30.87-0.39-62.26-3-92.62-5.53
			c-28.84-2.4-58.67-4.88-88.12-5.48c-38.27-0.77-77.26-0.69-114.97-0.61c-76.75,0.16-156.11,0.32-233.67-6.67
			c-53.29-4.81-89.1-16.23-114.44-60.38c-14.85-25.89-24.27-54.92-33.39-82.99c-5.49-16.92-11.17-34.41-17.99-51.08
			c-12.69-31.03-34.72-74.1-79.29-89.76c-20.6-7.24-42.64-11.94-63.95-16.48c-14.94-3.19-30.38-6.48-45.07-10.6
			c-3.05-0.86-7.16-1.86-11.91-3.02c-19.2-4.7-53.16-13.01-72.31-26.03c2.79,1.21,5.54,2.24,7.98,3.15c1.12,0.42,2.18,0.82,3.16,1.2
			c24.17,9.43,49.81,15.45,72.43,20.76c13.8,3.24,28.31,5.73,42.34,8.14c22.97,3.94,46.72,8.02,68.32,15.52
			c41.59,14.44,62.37,54.52,75.83,87.83c5.89,14.58,10.98,30.01,15.91,44.92c9.95,30.14,20.24,61.31,37.9,88.34
			c31.48,48.19,80.29,51.25,127.5,54.22c72.1,4.52,145.52,3.85,216.52,3.19c44.82-0.41,91.17-0.84,136.68,0.04
			c28.08,0.55,56.56,2.94,84.1,5.25c27.98,2.35,56.92,4.78,85.49,5.28l0.19,0l0.19-0.03c23.85-3.21,39.58-48.82,48.98-76.07
			c1.61-4.67,3-8.69,4.15-11.65c26.9-69.37,51.94-137.2,62.76-204.36c9.4-58.32,5.52-118.88,1.76-177.44
			c-2.92-45.52-5.94-92.6-2.6-137.92c3.72-50.65,15.18-93.88,35.02-132.18c12.21-23.56,28.17-44.85,43.6-65.45
			c11.04-14.73,22.45-29.96,32.48-45.98l-4.24-2.65c-9.92,15.84-21.27,30.98-32.24,45.63c-15.56,20.75-31.64,42.21-44.04,66.14
			c-44.89,86.66-38.83,181.24-32.96,272.71c3.74,58.29,7.6,118.56-1.71,176.33c-10.75,66.69-35.69,134.24-62.49,203.35
			c-1.18,3.05-2.58,7.12-4.21,11.83c-8.41,24.37-24.03,69.68-44.74,72.72c-28.34-0.51-57.12-2.92-84.96-5.26
			c-27.62-2.32-56.18-4.72-84.42-5.27c-45.59-0.89-91.97-0.46-136.82-0.05c-70.91,0.65-144.24,1.33-216.16-3.18
			c-26.09-1.64-49.36-3.55-69.91-10.45c-23.24-7.8-40.31-20.99-53.71-41.51c-17.3-26.48-27.48-57.33-37.34-87.17
			c-4.95-14.99-10.07-30.49-16.02-45.23c-13.85-34.29-35.33-75.59-78.83-90.69c-21.99-7.63-45.94-11.74-69.11-15.72
			c-13.96-2.4-28.39-4.87-42.04-8.08c-20.24-4.75-42.91-10.08-64.64-17.89c22.29,6.23,45.17,10.53,67.38,14.71
			c12.32,2.32,25.42,4,38.09,5.64c24.72,3.19,50.29,6.48,72.77,14.63c40.39,14.64,60.48,54,74.82,90.57
			c4.71,12.01,8.98,24.72,13.1,37.02c10.7,31.87,21.76,64.82,42.2,91.94c31.4,41.66,79.37,43.55,125.75,45.38
			c2.47,0.1,4.94,0.19,7.42,0.3c66.99,2.79,135.1,1.58,200.97,0.41c51.71-0.92,105.19-1.87,157.74-0.88
			c27.29,0.52,54.94,2.81,81.68,5.03c25.71,2.13,52.28,4.33,78.55,4.96l0.4,0.01l0.39-0.12c9.15-2.8,13.98-13,17.85-21.2
			c0.47-0.99,0.92-1.94,1.36-2.85c10.17-20.76,17.66-43.1,24.91-64.71l2.13-6.35c22-65.51,44.75-133.25,49.49-202.34
			c3.34-48.63-0.28-98.08-3.77-145.9c-3.67-50.15-7.46-102.01-2.95-151.71c5.03-55.46,20.15-102.84,46.2-144.84
			c12.2-19.66,26.97-37.91,41.25-55.56c12.85-15.88,26.14-32.31,37.56-49.75l-4.18-2.74c-11.28,17.23-24.49,33.55-37.26,49.34
			c-14.38,17.77-29.25,36.15-41.61,56.07c-26.48,42.68-41.83,90.77-46.93,147.03c-4.55,50.11-0.74,102.17,2.94,152.53
			c3.48,47.65,7.09,96.92,3.77,145.19c-4.7,68.46-27.35,135.89-49.25,201.09l-2.13,6.35c-7.2,21.45-14.64,43.64-24.66,64.1
			c-0.45,0.92-0.91,1.9-1.39,2.91c-3.4,7.18-7.61,16.09-14.43,18.44c-25.98-0.64-52.34-2.82-77.83-4.94
			c-26.82-2.22-54.55-4.52-82-5.04c-52.64-1-106.16-0.04-157.92,0.88c-65.8,1.17-133.83,2.39-200.67-0.4
			c-2.48-0.1-4.95-0.2-7.43-0.3c-47.3-1.86-91.98-3.62-121.96-43.39c-19.95-26.47-30.88-59.03-41.45-90.52
			c-4.15-12.35-8.44-25.13-13.19-37.25c-13.88-35.41-35.26-78.04-77.77-93.44c-23-8.34-48.84-11.67-73.83-14.89
			c-12.6-1.62-25.63-3.3-37.81-5.59c-22.72-4.27-46.14-8.68-68.81-15.14c23.23,4.81,46.96,8.25,69.99,11.57l0.89,0.13
			c11.3,1.63,23.39,2.71,35.08,3.76c25.72,2.31,52.32,4.69,75.27,12.99c39.23,14.19,59,52.6,73.16,88.29
			c4.44,11.2,8.52,23.09,12.47,34.59c11.16,32.54,22.7,66.18,44.83,92.85c32.71,39.41,85.26,39.59,131.62,39.76
			c5.68,0.02,11.56,0.04,17.19,0.13c58.51,0.97,117.96-0.61,175.46-2.15c58.44-1.56,118.88-3.17,178.3-2.09
			c27.31,0.5,54.99,2.69,81.75,4.82c23.34,1.85,47.48,3.77,71.32,4.55l0.7,0.02l0.61-0.34c7.21-4.03,10.57-13.58,13.27-21.26
			c0.5-1.42,0.98-2.78,1.46-4.03c8.09-21.16,14.39-43.33,20.48-64.77l0.22-0.78c18.95-66.65,38.54-135.56,38.12-207.21
			c-0.22-37.51-4.29-75.34-8.23-111.92c-4.29-39.81-8.72-80.98-8.16-121.7c1.1-80.02,23.24-148.99,67.7-210.84
			c10.98-15.27,23.45-29.96,35.51-44.16c14.25-16.78,28.99-34.14,41.44-52.65l-4.15-2.79c-12.3,18.29-26.95,35.53-41.11,52.21
			c-12.13,14.28-24.67,29.05-35.76,44.48c-45.08,62.71-67.53,132.61-68.64,213.69c-0.56,41.03,3.89,82.35,8.19,122.31
			c3.93,36.46,7.98,74.15,8.2,111.41c0.42,70.93-19.08,139.5-37.93,205.81l-0.22,0.78c-6.06,21.33-12.33,43.39-20.34,64.35
			c-0.49,1.29-0.99,2.69-1.5,4.16c-2.34,6.64-5.23,14.86-10.43,18.21c-23.49-0.8-47.31-2.69-70.35-4.52
			c-26.84-2.13-54.59-4.33-82.05-4.83c-59.54-1.08-120.03,0.53-178.53,2.09c-57.44,1.53-116.83,3.12-175.24,2.15
			c-5.67-0.09-11.56-0.12-17.25-0.14c-47.48-0.17-96.58-0.35-127.79-37.95c-21.55-25.97-32.94-59.17-43.95-91.28
			c-3.96-11.56-8.06-23.51-12.55-34.81c-14.57-36.73-35.01-76.29-76.11-91.15c-23.56-8.52-50.49-10.93-76.53-13.27
			c-12.16-1.09-23.65-2.12-34.81-3.73l-0.89-0.13c-23.17-3.34-47.04-6.8-70.33-11.66c23.23,3.1,46.8,5.54,69.66,7.9l0.14,0.01
			c10.78,1.11,21.92,1.68,33.71,2.28c28,1.43,56.96,2.91,81.21,12.07c37.43,14.15,56.27,50.61,71.05,87.9
			c3.87,9.75,7.36,19.74,11.05,30.32c12.29,35.17,25,71.55,51.7,97.43c32.67,31.67,82.81,30.65,127.04,29.76
			c7.3-0.15,14.2-0.28,20.91-0.28c54.61,0.03,110.03-1.98,163.65-3.94c64.13-2.35,130.45-4.77,195.68-3.66
			c28.78,0.49,57.97,2.64,86.19,4.72c20.08,1.48,40.85,3.01,61.33,3.93l1.25,0.06l0.79-0.97c4.63-5.67,6.68-13.82,8.49-21.01
			c0.45-1.8,0.88-3.51,1.34-5.12c5.89-20.92,10.95-42.42,15.85-63.21l0.16-0.68c15.18-64.42,29.56-133.52,24.24-207.8
			c-2.01-28.04-5.62-56.39-9.11-83.81c-6.38-50.11-12.98-101.93-9.94-153.42c4.33-73.32,30.33-138.28,81.82-204.45
			c9.98-12.83,20.82-25.47,31.3-37.7c15.33-17.89,31.19-36.39,44.84-56l-4.1-2.86c-13.51,19.4-29.29,37.8-44.54,55.6
			c-10.52,12.27-21.39,24.96-31.45,37.88c-52.14,67-78.47,132.85-82.86,207.22c-3.07,51.95,3.56,104.01,9.97,154.34
			c3.48,27.35,7.08,55.63,9.08,83.53c5.27,73.57-9.03,142.25-24.12,206.29l-0.16,0.68c-2.61,11.07-5.27,22.35-8.07,33.62
			c0.92-4.61,1.84-9.2,2.75-13.74c12.95-64.57,26.34-131.34,22.65-198.5c-2-36.41-7.57-72.94-12.96-108.27
			c-4.15-27.2-8.44-55.33-11.06-83.16c-7.42-78.88,0.26-142.24,23.47-193.7c23.37-51.81,60.63-96.39,96.66-139.5
			c16.27-19.46,33.09-39.59,48.36-60.07l-2-1.49l1-2.29c-112.16-48.81-233.89-62.7-348.72-70.44
			c-135.58-9.14-245.05,0.28-344.53,29.63c-96.77,28.56-191.19,65.94-280.63,111.12c-82.61,41.73-175.53,95.21-238.38,175.45
			c-23.91,30.53-73.67,94.05-36.28,141.87c4.4,5.63,9.11,10.96,13.67,16.12c9.94,11.26,19.34,21.89,25.91,35.49
			c14.1,29.2,13.44,61.67,12.8,93.07c-0.12,5.92-0.25,12.05-0.27,18.05c-0.04,9.29,0.13,19.1,0.51,29.99l0,0c0,0,0,0,0,0l0,0
			c0,0,0,0,0,0l0,0c0,0,0,0,0,0l0,0c0,0,0,0,0,0l0,0c0,0,0,0,0,0l0,0c0,0,0,0,0,0l0,0c0,0,0,0,0,0l0,0c0,0,0,0,0,0l0,0
			c0,0,0,0.01,0,0.01c0,0,0,0,0,0l0,0c0,0,0,0,0,0c0,0,0,0,0,0.01c0,0,0,0,0,0c0,0,0,0,0,0.01c3.14,92.32,20.02,182.67,50.17,268.56
			c14.93,42.5,33.25,84.27,54.46,124.13c20.12,37.81,34.92,79,47.96,133.55c10.35,43.29,16.3,88.64,22.05,132.5
			c8.83,67.33,17.96,136.95,43.23,201.26c17.29,44.01,42.6,79.61,77.37,108.85c31.41,26.41,70,47.08,117.99,63.2
			c106.49,35.76,206.22,53.14,304.86,53.14c0.43,0,0.88,0,1.3,0c95.38-0.15,192.29-16.29,288.04-47.97
			c89.1-29.48,177.63-72.52,263.13-127.91c89.17-57.77,154.86-118.87,200.81-186.79c45.94-67.89,74.45-148.9,98.41-226.34
			c33.68-108.84,50.67-213.78,50.5-311.9L2497.5,2001.58z M1059.62,2046.13c-4.68-3.31-9.51-6.74-14.33-10.23
			c-32.21-23.33-58.84-45.99-81.41-69.27c-11.49-11.85-21.73-23.71-30.67-35.47c8.25,9.7,17.51,19.48,27.81,29.36
			c24.03,23.04,52.58,45.49,87.28,68.63c2.12,1.41,4.23,2.81,6.32,4.2c32.05,21.28,59.73,39.67,79.97,73.01
			c22.59,37.22,34.45,79.87,44.96,121.92c-9.83-37.34-21.83-74.53-42.16-108.08C1117.23,2086.95,1089.25,2067.13,1059.62,2046.13z
			 M964.8,1953.77c20.57,17.96,44.55,33.1,67.75,47.75c40.72,25.72,82.83,52.32,107,94.72c17.97,31.52,28.54,67.47,37.69,103.29
			c-9.12-33.25-20.37-66.11-38.37-95.77c-20.82-34.3-50.28-53.87-81.48-74.59c-2.09-1.39-4.2-2.79-6.31-4.2
			c-34.45-22.97-62.78-45.24-86.59-68.08c-12.12-11.62-22.77-23.09-32.01-34.46C941.81,1932.68,952.53,1943.06,964.8,1953.77z
			 M977.13,1903.16c30.29,14.73,62.2,26.69,93.07,38.26l4.93,1.85c36.88,13.83,63.02,39.36,82.25,80.32
			c6.11,13.02,11.27,27.9,16.16,43.86c-4.14-11.38-8.71-22.61-13.94-33.53c-19.64-40.93-46.44-67.07-84.36-82.25
			c-32.18-12.88-66.51-27.3-99.55-45.42l-0.85-0.47c-13.49-7.39-30.78-16.87-46.44-28.45c14.99,9.53,31.01,17.26,43.74,23.4
			C973.86,1901.58,975.54,1902.39,977.13,1903.16z M1107.64,1844.56c-24.98-9.44-54.34-10.94-82.73-12.39
			c-11.73-0.6-22.8-1.16-33.46-2.26l-0.14-0.01c-22.85-2.36-46.41-4.8-69.6-7.9l121.85,7.62c43,2.68,80.14,4.99,107.58,42.14
			c14.38,19.47,23.8,44.28,32.51,68.93c-0.69-1.81-1.38-3.61-2.08-5.38C1167.1,1898.77,1146.99,1859.43,1107.64,1844.56z
			 M1893.4,2090.35c-19.99-0.93-40.26-2.42-59.88-3.86c-28.29-2.08-57.55-4.24-86.47-4.73c-65.37-1.11-131.75,1.32-195.95,3.66
			c-53.01,1.94-107.8,3.94-161.73,3.94c-0.58,0-1.16,0-1.74,0c-6.79,0-13.69,0.13-21.01,0.28c-43.26,0.88-92.29,1.87-123.46-28.35
			c-24.15-23.41-36.66-56.19-48.06-88.63c13.19,34.96,29.74,68.02,62.8,86.62c21.81,12.27,48.74,14.72,75.1,14.72
			c9.03,0,18-0.29,26.68-0.57c7.29-0.23,14.18-0.45,20.87-0.51c52.84-0.42,106.5-2.79,158.4-5.09l14.93-0.66
			c121.79-5.35,235.29-4.56,346.97,2.42l0.01,0c-0.22,0.86-0.45,1.75-0.68,2.66C1898.6,2078.5,1896.83,2085.53,1893.4,2090.35z
			 M873.69,1673.97c-6.87-14.22-16.93-25.61-26.66-36.63c-4.51-5.1-9.17-10.38-13.48-15.89c-34.98-44.73,13.15-106.18,36.28-135.71
			c62.25-79.47,154.58-132.59,236.7-174.07c89.17-45.04,183.31-82.32,279.79-110.79c98.89-29.18,207.81-38.54,342.78-29.44
			c113.38,7.64,233.47,21.31,344.13,68.79c-14.68,19.49-30.72,38.71-46.26,57.31c-36.25,43.37-73.73,88.21-97.38,140.65
			c-23.58,52.27-31.39,116.46-23.89,196.23c2.63,27.97,6.93,56.17,11.09,83.44c5.37,35.21,10.93,71.63,12.91,107.79
			c3.65,66.53-9.68,132.98-22.56,197.24c-2.73,13.63-5.55,27.7-8.17,41.57c-111.15-6.86-224.13-7.61-345.3-2.29l-14.93,0.66
			c-51.85,2.3-105.47,4.67-158.22,5.09c-6.75,0.05-13.67,0.27-20.99,0.51c-33.32,1.07-71.09,2.28-99.16-13.51
			c-39.01-21.95-54.38-65.77-69.25-108.14c-9.64-27.48-19.6-55.89-35.94-78.01c-28.82-39.02-67.04-41.4-111.29-44.16l-156.74-9.8
			c-0.32-9.93-0.46-18.97-0.43-27.53c0.02-5.96,0.15-12.06,0.27-17.97C887.63,1737.33,888.31,1704.25,873.69,1673.97z"/>
		<path class="st3" d="M179.52,1669.25c-11.87-68.43-17.11-138.83-22.18-206.92c-1.53-20.5-3.11-41.7-4.84-62.54l-49.9-598.74
			c43.96-38.47,88.33-78.09,131.25-116.42c86.84-77.54,176.63-157.72,267.78-232.69c36.99-30.43,80.68-53.14,122.93-75.1l1.44-0.75
			c24.6-12.79,49.78-25.48,74.13-37.76c29.02-14.63,59.02-29.76,88.28-45.16c126.67-66.68,225.92-133.01,312.19-208.66
			c103.13,34.4,212.43,71.16,343.82,115.62c10.49,3.55,21.38,6.99,31.91,10.31c36.36,11.47,73.95,23.33,106.26,43.1
			c25.62,15.67,45.44,36.56,67.32,63.11c19.79,24.01,42.13,48.83,71.37,67.63c34.58,22.24,74.66,35.77,113.42,48.85
			c10.43,3.52,21.21,7.16,31.61,10.88c146.65,52.52,259.05,92.26,364.44,128.85l1.64-4.72c-105.37-36.59-217.75-76.33-364.39-128.84
			c-10.44-3.74-21.25-7.39-31.7-10.91c-38.47-12.99-78.25-26.41-112.31-48.32c-28.66-18.43-50.68-42.9-70.21-66.6
			c-22.2-26.94-42.35-48.16-68.57-64.2c-32.84-20.08-70.73-32.04-107.37-43.6c-10.51-3.31-21.37-6.74-31.81-10.28
			c-131.98-44.66-241.67-81.54-345.2-116.08l-1.36-0.45l-1.08,0.95c-86.22,75.77-185.46,142.17-312.3,208.94
			c-29.22,15.38-59.2,30.5-88.2,45.12c-24.36,12.28-49.56,24.98-74.19,37.79l-1.44,0.75c-42.48,22.08-86.4,44.91-123.8,75.67
			c-91.23,75.04-181.06,155.25-267.93,232.82c-43.22,38.59-87.91,78.5-132.16,117.22l-0.95,0.83l50.1,601.26
			c1.73,20.82,3.31,42.01,4.84,62.5c5.08,68.2,10.33,138.73,22.24,207.4c6,34.61,12.64,69.53,19.07,103.3
			c11.94,62.78,24.28,127.7,32.89,192.57l4.96-0.66c-8.62-65.01-20.98-130-32.93-192.85
			C192.15,1738.72,185.51,1703.82,179.52,1669.25z"/>
		<path class="st3" d="M235.34,1823.76c-5.11-22.76-10.68-45.76-16.07-68c-14.63-60.37-29.77-122.8-36.83-185.98
			c-8.11-72.5-13.47-146.75-18.65-218.55c-2.75-38.03-5.58-77.35-8.8-115.92c-3.5-42.03-7.01-84.05-10.52-126.08
			c-7.39-88.45-15.02-179.91-22.45-269.88c12.09-20.25,34.59-38.86,54.46-55.31c8.02-6.64,15.6-12.9,22.34-19.09
			c64.77-59.4,131.76-119,189.48-170.2c11.04-9.8,22.22-19.83,33.03-29.54c25.76-23.13,52.4-47.05,79.32-69.62
			c44.3-37.15,98.77-62.81,151.44-87.63c7.55-3.55,15.05-7.09,22.49-10.64c9.51-4.54,19.03-9.07,28.56-13.6
			c105.33-50.11,214.24-101.92,310.25-171.67c30.73-22.33,59.01-45.95,84.04-70.22c2.09-2.03,4.22-4.22,6.28-6.33
			c6.56-6.73,13.33-13.69,21.06-18.03c29,8.58,58.16,18.57,86.37,28.23c11.71,4.01,23.81,8.16,35.73,12.14
			c31.05,10.38,62.92,20.56,93.73,30.4c69.51,22.19,141.39,45.14,209.78,72.33c39.96,15.89,72.74,40.25,103.13,76.68
			c28.06,33.63,56.69,65.62,98.26,87.47c39.4,20.71,83.33,35.16,125.81,49.15c15.78,5.19,32.1,10.57,47.75,16.13
			c53.63,19.06,102.17,36.2,148.38,52.42c22.24,7.8,44.88,15.63,66.78,23.2c29.58,10.22,60.16,20.8,90.14,31.45l1.67-4.71
			c-30-10.66-60.59-21.23-90.18-31.46c-21.89-7.57-44.53-15.4-66.76-23.19c-46.21-16.22-94.74-33.36-148.36-52.41
			c-15.71-5.58-32.05-10.96-47.86-16.17c-42.28-13.92-86.01-28.31-125.05-48.83c-40.76-21.42-69.02-53.02-96.75-86.24
			c-30.95-37.09-64.36-61.92-105.13-78.13c-68.56-27.25-140.52-50.23-210.11-72.45c-30.8-9.83-62.65-20-93.67-30.37
			c-11.9-3.98-24-8.12-35.7-12.13c-28.59-9.79-58.14-19.91-87.57-28.59l-0.98-0.29l-0.9,0.48c-8.79,4.66-16.1,12.18-23.18,19.44
			c-2.13,2.19-4.14,4.26-6.18,6.23c-24.86,24.11-52.96,47.58-83.5,69.77c-95.64,69.48-204.34,121.19-309.46,171.2
			c-9.53,4.53-19.06,9.06-28.56,13.61c-7.43,3.55-14.93,7.08-22.47,10.63c-52.96,24.95-107.73,50.75-152.52,88.32
			c-26.98,22.63-53.65,46.57-79.44,69.73c-10.81,9.7-21.98,19.73-33.01,29.52c-57.73,51.21-124.74,110.83-189.54,170.25
			c-6.65,6.1-14.18,12.33-22.15,18.92c-20.42,16.89-43.56,36.04-55.99,57.31l-0.4,0.68l0.06,0.79
			c7.44,90.23,15.11,181.96,22.51,270.68c3.51,42.03,7.02,84.05,10.52,126.08c3.21,38.54,6.05,77.85,8.79,115.87
			c5.19,71.85,10.55,146.14,18.67,218.74c7.1,63.49,22.27,126.08,36.94,186.61c5.39,22.22,10.95,45.19,16.05,67.91
			c8.34,37.18,13.48,75.4,18.46,112.37c0.87,6.47,1.74,12.94,2.63,19.42l4.95-0.68c-0.89-6.47-1.76-12.94-2.63-19.41
			C248.89,1899.48,243.73,1861.15,235.34,1823.76z"/>
		<path class="st3" d="M259.8,1817.71c-6.34-24.77-13.48-49.68-20.38-73.77c-15.24-53.18-30.99-108.17-38.9-164.27
			c-10.22-72.43-15.23-147.28-20.08-219.67c-2.28-33.99-4.63-69.15-7.49-103.5c-3.34-40.13-6.7-80.26-10.06-120.38
			c-7.08-84.65-14.41-172.17-21.44-258.28c2.63-7.49,9.46-14.45,15.5-20.61c1.54-1.57,3-3.06,4.38-4.53
			c18.6-19.95,38.51-39.06,56.08-55.93c63.49-60.96,129.06-120.28,185.54-171.1c10.41-9.36,20.92-19.18,31.09-28.68
			c26.44-24.68,53.77-50.2,82.95-71.38c48.69-35.35,105.78-60.4,160.98-84.64c9.63-4.23,19.59-8.6,29.28-12.93
			c7.67-3.43,15.35-6.85,23.04-10.28c108.95-48.54,221.62-98.74,317.32-172.3c26.62-20.46,49.09-43.15,72.89-67.16l2.22-2.24
			c1.48-1.5,3-3.09,4.6-4.78c7.34-7.73,15.64-16.47,24.67-19.65c29.92,7.81,59.9,18.27,88.91,28.38
			c12.21,4.26,24.84,8.66,37.25,12.79c39.27,13.07,81.87,27.32,134.06,44.86c15.47,5.19,31.45,10.2,46.92,15.04
			c38.24,11.98,77.78,24.36,114.2,41c40.69,18.6,70.23,50.73,98.79,81.81c27.73,30.17,56.41,61.37,95.49,80.81
			c38.05,18.93,79.9,32.68,120.37,45.99c15.5,5.09,31.52,10.36,46.93,15.8c50.47,17.81,96.76,34.03,141.5,49.59
			c19.12,6.65,38.61,13.28,57.46,19.69c31.27,10.64,63.61,21.64,95.17,33.04l1.7-4.7c-31.61-11.42-63.97-22.43-95.26-33.08
			c-18.84-6.41-38.32-13.04-57.43-19.68c-44.73-15.56-91.01-31.78-141.48-49.58c-15.46-5.45-31.51-10.73-47.03-15.83
			c-40.3-13.25-81.98-26.95-119.71-45.72c-38.25-19.03-66.61-49.88-94.04-79.72c-28.9-31.45-58.79-63.96-100.4-82.98
			c-36.7-16.78-76.4-29.21-114.78-41.23c-15.44-4.83-31.4-9.83-46.82-15.01c-52.2-17.54-94.81-31.79-134.08-44.86
			c-12.37-4.12-24.98-8.52-37.18-12.77c-29.33-10.23-59.67-20.81-90.02-28.69l-0.7-0.18l-0.69,0.22
			c-10.52,3.36-19.51,12.83-27.45,21.19c-1.58,1.67-3.08,3.25-4.53,4.71l-2.22,2.24c-23.67,23.89-46.03,46.46-72.38,66.72
			c-95.24,73.2-207.62,123.28-316.31,171.7c-7.69,3.43-15.38,6.85-23.04,10.28c-9.67,4.32-19.63,8.69-29.25,12.92
			c-55.45,24.34-112.78,49.51-161.91,85.17c-29.43,21.36-56.88,46.99-83.43,71.77c-10.15,9.48-20.65,19.28-31.03,28.62
			c-56.51,50.85-122.12,110.2-185.66,171.21c-17.61,16.91-37.58,36.08-56.27,56.13c-1.33,1.43-2.77,2.89-4.29,4.44
			c-6.55,6.68-13.98,14.24-16.85,23.02l-0.16,0.48l0.04,0.5c7.05,86.28,14.39,173.98,21.49,258.8
			c3.36,40.13,6.71,80.25,10.06,120.38c2.86,34.31,5.21,69.44,7.49,103.42c4.85,72.48,9.88,147.42,20.12,220.04
			c7.96,56.44,23.76,111.61,39.05,164.95c6.89,24.06,14.02,48.94,20.35,73.64c9.96,38.89,15.57,79.07,21,117.93l1.33,9.54l4.95-0.69
			l-1.33-9.54C275.46,1897.2,269.83,1856.87,259.8,1817.71z"/>
		<path class="st3" d="M285.2,1811.72c-7.62-26.39-16.52-52.76-25.13-78.27c-15.48-45.87-31.49-93.3-40.39-142.06
			c-12.97-71.09-17.6-145.62-22.08-217.69c-1.88-30.22-3.82-61.46-6.35-91.84c-3.21-38.54-6.44-77.08-9.67-115.62
			c-6.86-81.87-13.96-166.52-20.7-249.8c1.93-9.09,9.6-17.71,16.37-25.33c1.36-1.53,2.67-3.01,3.89-4.43
			c17.49-20.46,36.08-39.33,56.83-60.11c60.12-60.23,123.72-118.98,183.5-173.5c8.15-7.43,16.4-15.18,24.38-22.68
			c29.94-28.13,60.9-57.21,95.91-78.55c51.72-31.53,109.15-55.28,164.69-78.25c10.28-4.25,20.91-8.65,31.3-13.01
			c8.95-3.76,17.95-7.52,26.97-11.28c109.19-45.6,222.1-92.75,314.39-167.5c17.55-14.21,32.87-30.57,47.68-46.39
			c7.43-7.93,15.11-16.13,22.99-23.98c1.31-1.3,2.68-2.71,4.1-4.19c7.89-8.15,17.69-18.25,27.87-20.44
			c29.99,7.04,60.04,17.6,89.11,27.82c12,4.22,24.4,8.57,36.56,12.6c38.87,12.86,80.31,26.66,134.36,44.75
			c13.42,4.49,27.41,8.81,40.93,12.99c38.97,12.03,79.27,24.47,114.78,43.51c32.91,17.65,57.68,43.22,84.76,76.19
			c32.31,39.34,62.59,64.52,98.19,81.65c37.38,17.99,78.18,31.33,117.64,44.23c15.33,5.01,31.19,10.2,46.47,15.54
			c47.52,16.61,91.54,31.89,134.58,46.7c17.46,6.01,35.28,11.96,52.52,17.71c30.96,10.34,62.98,21.02,94.08,32.45l1.72-4.69
			c-31.17-11.45-63.23-22.15-94.22-32.5c-17.22-5.75-35.04-11.7-52.48-17.7c-43.03-14.81-87.05-30.08-134.56-46.7
			c-15.33-5.36-31.21-10.55-46.57-15.57c-39.3-12.85-79.94-26.13-117.03-43.98c-34.91-16.8-64.67-41.57-96.49-80.32
			c-27.45-33.43-52.63-59.39-86.26-77.42c-35.93-19.27-76.47-31.78-115.67-43.88c-13.5-4.17-27.45-8.48-40.82-12.95
			c-54.06-18.09-95.5-31.9-134.38-44.76c-12.12-4.01-24.5-8.36-36.47-12.57c-29.36-10.32-59.72-20.99-90.16-28.09l-0.51-0.12
			l-0.52,0.1c-11.92,2.25-22.52,13.19-31.04,21.98c-1.41,1.45-2.75,2.84-4.04,4.12c-7.95,7.92-15.66,16.15-23.11,24.11
			c-14.7,15.69-29.9,31.92-47.18,45.92c-91.73,74.3-204.31,121.31-313.17,166.77c-9.03,3.77-18.02,7.53-26.98,11.29
			c-10.38,4.36-21,8.75-31.27,13c-55.71,23.04-113.32,46.87-165.38,78.6c-35.46,21.61-66.61,50.88-96.73,79.18
			c-7.97,7.48-16.2,15.22-24.33,22.63c-59.83,54.56-123.48,113.36-183.67,173.66c-20.82,20.86-39.48,39.8-57.09,60.4
			c-1.2,1.41-2.49,2.86-3.83,4.36c-7.28,8.19-15.53,17.47-17.61,28.02l-0.07,0.34l0.03,0.34c6.75,83.4,13.86,168.18,20.73,250.17
			c3.23,38.54,6.46,77.08,9.67,115.62c2.52,30.33,4.46,61.55,6.34,91.74c4.49,72.22,9.13,146.9,22.16,218.28
			c8.96,49.12,25.03,96.72,40.57,142.76c8.59,25.45,17.47,51.77,25.06,78.06c11.39,39.47,16.98,78.69,22.91,120.22l0.31,2.19
			l4.95-0.71l-0.31-2.19C302.57,1892.75,296.69,1851.52,285.2,1811.72z"/>
		<path class="st3" d="M281.24,1724.11c-15.14-38.2-30.79-77.69-40.62-118.5c-16.79-69.69-21.21-144.16-25.48-216.18
			c-1.55-26.19-3.16-53.26-5.34-79.47c-3.11-37.43-6.26-74.86-9.4-112.3c-6.68-79.5-13.59-161.7-20.06-242.57
			c1.41-10.77,9.78-21.12,17.17-30.27c1.14-1.41,2.25-2.79,3.3-4.12c16.89-21.44,36.09-41.88,54.31-60.98
			c59.62-62.51,123.28-122.38,183.19-177.77c3.17-2.93,6.33-5.86,9.49-8.79c36.09-33.49,70.19-65.12,112.31-89.2
			c53.44-30.55,112.33-53.3,169.29-75.31c12.76-4.93,25.95-10.03,38.83-15.12c11.41-4.51,23.18-9.11,34.56-13.55
			c109.55-42.78,222.82-87.02,310.24-163.66c13.45-11.79,25.38-25.28,36.92-38.32c8.88-10.03,18.05-20.41,27.82-29.89
			c1.14-1.11,2.33-2.29,3.56-3.51c9.11-9.05,20.43-20.28,32.27-21.86c30.01,6.25,60.16,16.91,89.33,27.23
			c11.85,4.19,24.11,8.53,36.06,12.46c48.24,15.85,95.78,31.66,131.81,43.66c11.17,3.72,22.78,7.32,34,10.8
			c38.52,11.94,78.35,24.28,112.56,45.01c32.29,19.56,55.6,47.97,78.14,75.45c31.06,37.87,63.06,63.33,100.7,80.15
			c35.38,15.8,73.26,28.19,109.9,40.17c14.73,4.81,29.96,9.79,44.71,14.9c44.38,15.35,87.59,30.17,128.4,44.04
			c15.93,5.41,32.2,10.75,47.94,15.91c31.14,10.21,63.34,20.77,94.45,32.43l1.75-4.68c-31.21-11.7-63.46-22.27-94.65-32.5
			c-15.72-5.16-31.98-10.49-47.89-15.89c-40.81-13.87-84-28.68-128.38-44.03c-14.79-5.12-30.04-10.1-44.79-14.92
			c-36.51-11.94-74.27-24.28-109.41-39.98c-36.91-16.49-68.33-41.51-98.88-78.76c-22.81-27.8-46.39-56.55-79.42-76.56
			c-34.73-21.04-74.86-33.48-113.67-45.51c-11.2-3.47-22.78-7.06-33.9-10.77c-36.03-12-83.58-27.81-131.83-43.67
			c-11.91-3.91-24.13-8.24-35.96-12.42c-29.45-10.42-59.91-21.19-90.38-27.49l-0.39-0.08l-0.4,0.05
			c-13.7,1.58-25.85,13.64-35.61,23.32c-1.22,1.21-2.39,2.38-3.52,3.47c-9.9,9.61-19.15,20.06-28.09,30.16
			c-11.44,12.93-23.26,26.29-36.47,37.88c-86.76,76.07-199.62,120.14-308.76,162.77c-11.39,4.45-23.16,9.04-34.58,13.56
			c-12.86,5.08-26.05,10.18-38.8,15.1c-57.13,22.07-116.2,44.9-169.96,75.63c-42.62,24.36-78.51,57.67-113.23,89.88
			c-3.15,2.93-6.31,5.86-9.48,8.79c-59.97,55.45-123.7,115.38-183.42,177.99c-18.3,19.19-37.59,39.73-54.62,61.34
			c-1.04,1.32-2.14,2.67-3.26,4.07c-7.48,9.25-16.79,20.77-18.28,33.05l-0.03,0.25l0.02,0.25c6.48,80.97,13.39,163.26,20.08,242.85
			c3.15,37.43,6.29,74.86,9.4,112.29c2.17,26.15,3.78,53.2,5.33,79.35c4.29,72.24,8.72,146.93,25.61,217.05
			c9.91,41.14,25.63,80.81,40.83,119.17c10.78,27.21,21.93,55.34,30.89,83.73c11.84,37.5,17.47,76.59,22.92,114.39l4.95-0.71
			c-5.48-38-11.14-77.29-23.1-115.18C303.23,1779.61,292.05,1751.4,281.24,1724.11z"/>
		<path class="st3" d="M302.89,1715.64c-14.97-32.43-30.45-65.97-41.06-100.8c-20.58-67.61-24.96-141.08-29.19-212.12
			c-1.32-22.21-2.69-45.19-4.54-67.4c-2.99-35.94-6.01-71.89-9.04-107.83c-6.45-76.59-13.11-155.79-19.28-233.7
			c0.86-12.17,10-24.58,17.35-34.56c0.87-1.18,1.72-2.34,2.54-3.46c16.81-23.16,35.91-44.47,54.04-64.31
			c58.94-64.52,122.04-124.93,181.45-180.61c37.37-35.02,79.29-71.18,132.6-98.38c58.14-29.67,120.55-52.6,180.9-74.78
			c13.17-4.84,26.78-9.84,40.12-14.83c72.73-27.19,143.57-54.41,210.69-88.33c43.72-22.1,89.27-47.49,126.18-83.35
			c10.27-9.98,19.8-20.89,29.02-31.44c10.74-12.29,21.84-25.01,34.1-36.21c0.82-0.75,1.66-1.52,2.52-2.32
			c10.05-9.27,22.54-20.8,35.72-21.88c29.77,5.31,59.85,16.03,88.95,26.4c11.7,4.17,23.79,8.48,35.52,12.3
			c46.68,15.21,93.29,30.62,128.69,42.35c8.46,2.8,17.19,5.55,25.62,8.21c38.03,11.98,77.35,24.38,110.4,46.96
			c25.8,17.63,44.61,40.73,64.52,65.18c2.47,3.03,4.94,6.07,7.43,9.1c29.26,35.6,61.84,60.7,99.6,76.72
			c62.95,26.71,129.99,48.06,194.82,68.71c25.51,8.12,51.88,16.52,77.49,25.09c13.51,4.52,27.33,9,40.69,13.33
			c31.95,10.36,65,21.07,96.73,33.28l1.8-4.67c-31.86-12.26-64.97-22.99-96.99-33.37c-13.35-4.33-27.15-8.8-40.64-13.31
			c-25.64-8.58-52.03-16.98-77.56-25.11c-64.72-20.61-131.65-41.93-194.38-68.55c-37-15.7-68.95-40.33-97.69-75.29
			c-2.49-3.03-4.95-6.06-7.42-9.08c-19.26-23.65-39.18-48.1-65.58-66.15c-33.66-23-73.34-35.51-111.72-47.6
			c-8.42-2.65-17.12-5.4-25.55-8.19c-35.4-11.73-82.03-27.14-128.71-42.36c-11.66-3.8-23.72-8.1-35.39-12.26
			c-29.39-10.48-59.78-21.31-90.06-26.67l-0.3-0.05l-0.31,0.02c-15.04,1.05-28.36,13.34-39.07,23.21c-0.85,0.79-1.69,1.56-2.5,2.3
			c-12.46,11.39-23.66,24.21-34.49,36.61c-9.15,10.48-18.61,21.31-28.73,31.14c-36.43,35.4-81.58,60.56-124.95,82.48
			c-66.89,33.8-137.59,60.97-210.19,88.11c-13.33,4.99-26.94,9.98-40.1,14.82c-60.49,22.23-123.05,45.21-181.45,75.02
			c-53.86,27.49-96.11,63.92-133.74,99.19c-59.48,55.74-122.66,116.24-181.72,180.88c-18.22,19.95-37.43,41.38-54.39,64.75
			c-0.81,1.12-1.66,2.26-2.52,3.44c-7.77,10.55-17.45,23.69-18.32,37.38l-0.01,0.18l0.01,0.18c6.18,77.99,12.85,157.26,19.3,233.91
			c3.02,35.94,6.05,71.88,9.04,107.82c1.84,22.15,3.21,45.09,4.53,67.28c4.25,71.34,8.64,145.11,29.4,213.28
			c10.7,35.16,26.26,68.85,41.3,101.44c12.64,27.38,25.71,55.7,35.78,84.65c12.77,36.72,18.39,75.58,23.34,109.87l4.95-0.71
			c-4.99-34.51-10.64-73.63-23.57-110.8C328.7,1771.56,315.58,1743.14,302.89,1715.64z"/>
		<path class="st3" d="M324.82,1707.48c-14.47-27.07-29.43-55.07-40.55-84.23c-24.9-65.31-29.47-137.11-33.89-206.55
			c-1.11-17.5-2.27-35.6-3.73-53.19c-2.9-34.88-5.89-70.35-8.78-104.64c-6.26-74.18-12.73-150.89-18.63-226.36
			c0.59-13.9,9.79-27.55,17.91-39.6l1.52-2.26c16.76-25,36.75-48.28,54.17-68.15c57.71-65.8,121.59-128.04,176.47-180.25
			c44.55-42.38,90.1-73.86,143.35-99.06c63.57-30.08,131.11-53.79,196.43-76.72c8.78-3.08,17.56-6.16,26.32-9.26
			c78.65-27.77,149.29-53.5,217.46-87.28c43.87-21.74,89.09-46.86,122.63-83.17c5.23-5.67,10.46-11.49,15.51-17.12
			c14.84-16.54,30.19-33.64,47.31-48.47l1.31-1.14c11.79-10.23,26.44-22.95,41.84-23.72c29.69,4.58,59.88,15.35,89.08,25.76
			c11.52,4.11,23.44,8.36,34.93,12.07c44.6,14.4,88.95,28.96,122.6,40.03c4.94,1.63,9.91,3.23,14.87,4.83
			c39.05,12.61,79.43,25.66,112.46,51.53c19.93,15.61,35.8,35.54,51.15,54.81c4.83,6.06,9.82,12.33,14.89,18.41
			c26.54,31.82,57.15,54.66,93.59,69.83c59.13,24.61,121.88,44.37,182.55,63.48c26.69,8.4,54.29,17.1,81.07,26.04
			c12.87,4.3,26.04,8.55,38.77,12.67c31.72,10.25,64.52,20.84,95.88,33.18l1.83-4.65c-31.5-12.39-64.38-23.01-96.17-33.28
			c-12.72-4.11-25.88-8.36-38.73-12.65c-26.82-8.96-54.44-17.66-81.15-26.07c-60.57-19.07-123.21-38.8-182.13-63.33
			c-35.68-14.85-65.66-37.23-91.67-68.41c-5.03-6.04-10.01-12.28-14.82-18.33c-15.53-19.5-31.58-39.66-51.97-55.63
			c-33.73-26.42-74.54-39.61-114.01-52.35c-4.96-1.6-9.91-3.2-14.85-4.82c-33.65-11.07-78.01-25.63-122.62-40.04
			c-11.42-3.69-23.3-7.92-34.78-12.02c-29.5-10.52-60-21.4-90.25-26.03l-0.24-0.04l-0.24,0.01c-17.23,0.72-32.71,14.16-45.15,24.95
			l-1.31,1.14c-17.36,15.04-32.81,32.26-47.76,48.91c-5.04,5.62-10.26,11.43-15.47,17.07c-32.99,35.71-77.74,60.56-121.18,82.08
			c-67.91,33.66-138.41,59.33-216.9,87.05c-8.76,3.09-17.54,6.17-26.31,9.25c-65.44,22.97-133.1,46.72-196.91,76.92
			c-53.75,25.44-99.71,57.2-144.66,99.96c-54.96,52.29-118.94,114.63-176.78,180.57c-17.52,19.98-37.64,43.41-54.57,68.66
			l-1.51,2.25c-8.1,12.02-18.18,26.98-18.77,42.35l-0.01,0.15l0.01,0.15c5.9,75.54,12.38,152.3,18.64,226.54
			c2.89,34.29,5.89,69.76,8.78,104.64c1.46,17.54,2.61,35.61,3.72,53.09c4.44,69.81,9.04,142,34.2,208.01
			c11.23,29.46,26.27,57.6,40.81,84.81c14.42,26.97,29.32,54.86,40.42,83.9c12.68,33.19,18.11,66.47,23.88,106.53l4.95-0.71
			c-5.82-40.38-11.29-73.94-24.16-107.6C354.29,1762.63,339.31,1734.59,324.82,1707.48z"/>
		<path class="st3" d="M346.87,1699.47c-13.25-21.54-26.96-43.81-38.04-66.93c-31-64.67-36.1-136.45-41.03-205.86
			c-0.88-12.4-1.79-25.22-2.84-37.8c-2.76-33.29-5.62-67.14-8.39-99.88c-6.03-71.35-12.26-145.14-17.88-217.74
			c0.87-34.7,34.53-73.19,59.11-101.29c4.38-5,8.51-9.73,12.18-14.11c57.2-68.21,121.15-131.66,176.16-184.72
			c89.79-86.6,214.51-127.42,335.12-166.89c16.25-5.32,33.05-10.82,49.23-16.27c67.78-22.84,144.61-48.73,216.43-84.01
			c34.53-16.97,78.69-41.31,113.92-79.28c19.92-21.48,42.5-45.82,67.34-65.92c13.6-11,30.5-24.68,48.31-25.22
			c29.33,3.96,59.3,14.59,88.29,24.86c11.15,3.95,22.67,8.04,33.74,11.57c42.97,13.72,85.88,27.69,118.46,38.33
			c37.78,12.33,80.61,26.32,114.39,55.92c15.98,14,29.14,31.01,41.87,47.45c6.06,7.83,12.33,15.92,18.85,23.64
			c25.58,30.27,57.55,52.8,95.03,66.96c54.45,20.58,111,38.68,165.68,56.18c27.27,8.73,55.47,17.76,83.01,26.96
			c12.63,4.22,25.57,8.39,38.08,12.42c31.56,10.17,64.2,20.68,95.26,33.15l1.86-4.64c-31.23-12.54-63.95-23.08-95.6-33.27
			c-12.5-4.03-25.42-8.19-38.03-12.4c-27.57-9.22-55.79-18.25-83.07-26.98c-54.62-17.48-111.11-35.56-165.44-56.09
			c-36.67-13.86-67.95-35.9-92.97-65.51c-6.45-7.64-12.69-15.69-18.72-23.48c-12.87-16.63-26.19-33.83-42.53-48.15
			c-34.55-30.28-77.89-44.43-116.13-56.92c-32.59-10.64-75.52-24.61-118.5-38.34c-10.99-3.51-21.97-7.4-33.59-11.52
			c-29.3-10.38-59.59-21.12-89.49-25.13l-0.2-0.03l-0.2,0.01c-19.57,0.49-37.29,14.82-51.52,26.33
			c-25.12,20.32-47.83,44.8-67.87,66.4c-34.67,37.37-78.31,61.42-112.45,78.2c-71.52,35.14-148.19,60.97-215.82,83.76
			c-16.15,5.44-32.94,10.94-49.18,16.25c-121.15,39.65-246.43,80.65-337.04,168.05c-55.11,53.15-119.17,116.71-176.52,185.11
			c-3.64,4.34-7.75,9.04-12.11,14.03c-25.12,28.72-59.52,68.04-60.35,104.59l0,0.12l0.01,0.12c5.62,72.66,11.86,146.5,17.89,217.9
			c2.76,32.73,5.62,66.58,8.39,99.87c1.04,12.55,1.95,25.36,2.83,37.75c4.96,69.88,10.1,142.14,41.51,207.67
			c11.2,23.36,24.97,45.75,38.29,67.39c16.76,27.23,34.08,55.38,46.27,85.54c13.49,33.38,18.58,69.11,23.07,100.64l4.95-0.71
			c-4.53-31.81-9.67-67.87-23.39-101.81C381.18,1755.21,363.74,1726.87,346.87,1699.47z"/>
		<path class="st3" d="M368.7,1691.09c-12.56-17.84-25.55-36.29-36.57-55.44c-36.32-63.11-41.67-130.72-47.32-202.3
			c-0.52-6.64-1.05-13.3-1.6-19.97c-2.64-31.82-5.38-64.18-8.03-95.47c-5.77-68.13-11.74-138.57-17.02-207.9
			c0.73-38.1,35.02-79.55,60.06-109.83c3.68-4.44,7.15-8.64,10.36-12.64C379.51,924.26,438.19,861.17,503,800.02
			c45.05-42.51,103.25-70.57,159.44-94.56c73-31.17,149.75-56.56,223.97-81.12l16.94-5.61c9.66-3.2,19.37-6.38,29.09-9.56
			c105.48-34.5,214.56-70.18,295.5-150.11c4.67-4.61,9.75-9.89,15.12-15.48c29.28-30.44,69.37-72.11,108.56-72.8
			c28.9,3.44,58.52,13.82,87.17,23.87c10.72,3.76,21.79,7.64,32.42,10.99c14.26,4.5,28.78,8.61,44.16,12.96
			c61.87,17.51,125.86,35.63,170.28,79.03c12.67,12.38,23.48,26.8,33.92,40.75c6.92,9.24,14.08,18.8,21.76,27.74
			c24.16,28.14,55.28,49.1,92.5,62.31c49.76,17.66,100.89,34.21,150.33,50.21c29.14,9.43,59.26,19.18,88.77,29.04
			c12.23,4.09,24.75,8.13,36.86,12.03c31.57,10.18,64.22,20.71,95.24,33.29l1.88-4.63c-31.2-12.65-63.93-23.2-95.59-33.41
			c-12.1-3.9-24.61-7.94-36.81-12.02c-29.53-9.87-59.67-19.63-88.81-29.06c-49.41-15.99-100.5-32.52-150.2-50.16
			c-36.39-12.92-66.8-33.39-90.38-60.86c-7.57-8.82-14.68-18.31-21.55-27.48c-10.56-14.1-21.48-28.67-34.43-41.32
			c-45.33-44.3-109.93-62.58-172.41-80.27c-15.34-4.34-29.83-8.44-44.02-12.92c-10.54-3.33-21.09-7.03-32.26-10.94
			c-28.96-10.15-58.91-20.65-88.41-24.13l-0.16-0.02l-0.17,0c-41.34,0.6-82.33,43.21-112.26,74.33
			c-5.35,5.57-10.41,10.82-15.03,15.39c-80.1,79.1-188.6,114.59-293.54,148.91c-9.73,3.18-19.44,6.36-29.11,9.56l-16.94,5.61
			c-74.32,24.59-151.16,50.01-224.36,81.26c-56.61,24.17-115.28,52.47-160.91,95.52c-64.97,61.3-123.81,124.56-174.88,188.03
			c-3.2,3.97-6.66,8.16-10.32,12.59c-25.54,30.87-60.51,73.16-61.2,113.04l0,0.12l0.01,0.12c5.29,69.38,11.26,139.88,17.03,208.06
			c2.65,31.29,5.39,63.64,8.03,95.46c0.55,6.67,1.08,13.32,1.6,19.95c5.7,72.16,11.09,140.31,47.97,204.4
			c11.13,19.35,24.19,37.89,36.81,55.83c19.13,27.18,38.92,55.29,52.16,86.49c13.2,31.1,17.82,64.08,22.29,95.97l4.95-0.69
			c-4.51-32.21-9.18-65.51-22.64-97.22C407.93,1746.81,387.99,1718.48,368.7,1691.09z"/>
		<path class="st3" d="M448.72,1770.12c-14.48-32.52-36.78-60.36-58.34-87.28c-10.55-13.17-21.45-26.78-31.28-40.75
			c-26.17-37.19-47.02-75.79-57.6-203.44c-2.52-30.41-5.14-61.32-7.68-91.21c-5.53-65.11-11.25-132.43-16.22-198.69
			c0.48-41.59,34.09-84.38,61.1-118.76c2.93-3.72,5.75-7.32,8.43-10.79c63.09-81.62,117.49-141.31,171.19-187.84
			c47.34-41.02,106.39-68.63,163.14-92.36c73.5-30.73,150.55-56.08,225.06-80.58c6.95-2.29,13.89-4.57,20.84-6.86
			c11.18-3.69,22.6-7.39,33.65-10.98c62.21-20.19,126.53-41.06,185.93-70.37c41.87-20.66,74.85-48.75,105.03-75.75
			c5.23-4.68,10.8-9.9,16.7-15.43c33.61-31.51,75.43-70.71,117.66-71.15c28.62,2.95,58.08,13.15,86.59,23.01
			c10.82,3.74,21.04,7.28,31.27,10.46c11,3.42,22.49,6.74,33.6,9.95c58.3,16.84,118.59,34.25,159.77,78.92
			c9.95,10.79,18.73,22.92,27.23,34.65c8.04,11.1,16.36,22.59,25.72,33.03c22.19,24.77,51.21,43.02,88.71,55.79
			c44.35,15.11,89.64,29.9,133.44,44.21c33.33,10.89,67.8,22.15,101.61,33.47c11.54,3.86,23.36,7.67,34.8,11.36
			c30.47,9.82,61.98,19.98,91.83,32.29l1.91-4.62c-30.02-12.38-61.63-22.57-92.2-32.43c-11.42-3.68-23.24-7.49-34.75-11.34
			c-33.83-11.32-68.3-22.59-101.65-33.48c-43.78-14.3-89.06-29.09-133.38-44.19c-36.67-12.49-65-30.28-86.6-54.4
			c-9.18-10.25-17.42-21.63-25.39-32.63c-8.58-11.85-17.45-24.09-27.6-35.1c-42.13-45.7-103.1-63.31-162.06-80.34
			c-11.09-3.2-22.55-6.51-33.5-9.92c-10.15-3.16-20.33-6.68-31.12-10.41c-28.82-9.97-58.61-20.28-87.85-23.27l-0.14-0.01l-0.14,0
			c-44.23,0.37-86.89,40.36-121.17,72.5c-5.88,5.51-11.43,10.71-16.61,15.35c-29.93,26.77-62.61,54.62-103.91,75
			c-59.08,29.15-123.23,49.96-185.27,70.1c-11.05,3.59-22.48,7.29-33.67,10.98c-6.94,2.29-13.89,4.57-20.83,6.86
			c-74.6,24.54-151.75,49.91-225.43,80.72c-57.13,23.89-116.6,51.72-164.48,93.2c-53.96,46.75-108.58,106.67-171.88,188.56
			c-2.67,3.45-5.49,7.04-8.4,10.76c-27.5,35.01-61.73,78.58-62.17,121.9l0,0.11l0.01,0.11c4.98,66.31,10.7,133.69,16.23,198.84
			c2.54,29.89,5.16,60.8,7.68,91.2c6.53,78.84,14.98,144.06,58.49,205.9c9.91,14.09,20.87,27.77,31.46,41
			c21.36,26.67,43.45,54.25,57.67,86.19c13.07,29.36,17.25,59.92,21.68,92.28l0.06,0.46l4.95-0.68l-0.06-0.46
			C466.51,1832.48,462.09,1800.13,448.72,1770.12z"/>
		<path class="st3" d="M475.88,1761.94c-15.51-33.73-40.41-61.16-64.49-87.69c-8.63-9.51-17.55-19.34-25.89-29.29
			c-49.44-59.04-60.79-121.9-65.68-181.03c-2.39-28.93-4.9-58.34-7.32-86.78c-5.29-62.14-10.75-126.39-15.43-189.62
			c0.41-44.91,34.33-90.51,61.58-127.15c1.93-2.59,3.81-5.13,5.65-7.61c47.58-64.4,105.02-137.3,170.19-189.66
			c51.88-41.68,114.43-69.9,174.29-94.19c70.41-28.57,143.85-52.82,214.86-76.27c8.04-2.66,16.08-5.31,24.12-7.97
			c10.82-3.58,21.88-7.2,32.57-10.69c63.69-20.81,129.55-42.33,190.39-72.09c33.68-16.48,62.73-39.99,90.83-62.72
			c4.15-3.36,8.31-6.72,12.49-10.07c5.93-4.76,12.14-9.95,18.7-15.44c36.54-30.58,82-68.64,127.45-69
			c28.01,2.46,56.94,12.3,84.92,21.82c10.3,3.5,20.03,6.81,29.75,9.79c7.03,2.15,14.22,4.28,21.18,6.34
			c55.59,16.45,113.06,33.46,151.63,79.97c7.41,8.93,14.18,18.67,20.72,28.08c8.5,12.22,17.29,24.86,27.66,36.05
			c20.58,22.21,48.41,38.67,87.6,51.81c38.35,12.86,77.44,25.66,115.23,38.04c36.9,12.08,75.05,24.58,112.49,37.12
			c11.28,3.78,22.86,7.5,34.05,11.11c30.35,9.77,61.73,19.87,91.33,32.29l1.93-4.61c-29.8-12.5-61.29-22.64-91.74-32.44
			c-11.18-3.6-22.74-7.32-33.99-11.09c-37.45-12.54-75.61-25.04-112.52-37.13c-37.79-12.38-76.86-25.17-115.2-38.03
			c-38.36-12.86-65.53-28.9-85.52-50.47c-10.13-10.94-18.82-23.43-27.22-35.51c-6.61-9.5-13.44-19.33-20.98-28.42
			c-39.54-47.68-97.76-64.91-154.06-81.58c-6.95-2.06-14.13-4.18-21.13-6.32c-9.65-2.95-19.34-6.25-29.61-9.74
			c-28.3-9.63-57.56-19.58-86.21-22.08l-0.12-0.01l-0.12,0c-47.28,0.31-93.56,39.05-130.74,70.17
			c-6.54,5.48-12.73,10.65-18.62,15.37c-4.19,3.35-8.35,6.72-12.5,10.09c-29.17,23.6-56.71,45.89-89.88,62.12
			c-60.53,29.61-126.22,51.08-189.74,71.83c-10.7,3.5-21.76,7.11-32.59,10.69c-8.03,2.66-16.07,5.32-24.11,7.97
			c-71.09,23.48-144.61,47.75-215.17,76.39c-60.21,24.43-123.16,52.84-175.54,94.92c-65.62,52.71-123.3,125.92-171.08,190.59
			c-1.83,2.48-3.71,5.01-5.64,7.6c-27.71,37.25-62.19,83.62-62.57,130.2l0,0.1l0.01,0.1c4.68,63.29,10.15,127.59,15.44,189.78
			c2.42,28.44,4.92,57.85,7.32,86.77c4.96,59.96,16.49,123.72,66.83,183.83c8.4,10.04,17.36,19.9,26.02,29.45
			c23.82,26.24,48.46,53.38,63.65,86.41c12.73,27.68,16.57,56.68,20.64,87.38l0.33,2.47l4.96-0.66l-0.33-2.47
			C492.99,1821.03,488.92,1790.3,475.88,1761.94z"/>
		<path class="st3" d="M503.13,1755.07c-16.44-35.73-44.43-63.04-71.51-89.46c-6.38-6.22-12.98-12.66-19.31-19.09
			c-45.25-46.01-68.81-95.73-74.12-156.49c-8.6-98.29-15.58-180.76-21.66-263.75c0.28-49.15,35.56-98.64,63.91-138.41l2.99-4.2
			c50.39-70.8,106.22-143.09,172.95-192.27c100.19-73.85,224.54-113.95,344.78-152.73c23.09-7.45,46.97-15.15,69.93-22.87
			c8.69-2.92,17.4-5.83,26.12-8.73c62.96-20.99,128.07-42.69,188.03-72.82c31.49-15.83,60.56-36.91,88.68-57.3
			c6.82-4.94,13.86-10.06,20.81-14.99c6.65-4.73,13.5-9.8,20.75-15.17c39.53-29.27,88.73-65.69,137.16-65.93
			c27.11,2.01,55.17,11.34,82.31,20.36c9.61,3.19,18.69,6.21,27.75,8.93l4.44,1.33c57.35,17.17,111.52,33.39,148.44,82.99
			c4.83,6.49,9.45,13.32,13.91,19.93c9.31,13.78,18.93,28.02,31.17,40.17c26.73,26.51,60.82,40.06,90.64,49.81l13.34,4.36
			c67.25,22,136.79,44.74,205.02,67.61c10.73,3.6,21.74,7.15,32.38,10.59c30.09,9.72,61.21,19.77,90.55,32.15l1.94-4.61
			c-29.55-12.46-60.77-22.55-90.96-32.3c-10.63-3.43-21.62-6.99-32.33-10.57c-68.24-22.87-137.79-45.62-205.05-67.62l-13.34-4.36
			c-29.27-9.57-62.69-22.84-88.67-48.61c-11.89-11.8-21.38-25.84-30.55-39.41c-4.49-6.65-9.14-13.53-14.04-20.11
			c-37.91-50.92-92.85-67.38-151.02-84.79l-4.43-1.33c-8.99-2.7-18.03-5.7-27.61-8.88c-27.46-9.13-55.86-18.57-83.62-20.61
			l-0.1-0.01l-0.1,0c-50.1,0.19-100.06,37.19-140.21,66.91c-7.23,5.35-14.06,10.41-20.68,15.11c-6.97,4.95-14.03,10.07-20.85,15.02
			c-27.95,20.27-56.86,41.24-87.99,56.88c-59.64,29.97-124.57,51.61-187.37,72.54c-8.73,2.91-17.45,5.82-26.14,8.74
			c-22.93,7.71-46.79,15.41-69.87,22.85C779,772.82,654.26,813.05,553.41,887.38c-67.29,49.6-123.42,122.26-174.06,193.4l-2.99,4.2
			c-28.78,40.37-64.6,90.61-64.84,141.38l0,0.1l0.01,0.1c6.09,83.05,13.07,165.57,21.68,263.91
			c5.42,61.98,29.43,112.68,75.54,159.56c6.36,6.47,12.98,12.92,19.38,19.16c26.75,26.09,54.41,53.07,70.46,87.96
			c11.86,25.79,15.46,54.17,18.95,81.62l0.6,4.75l4.96-0.63l-0.6-4.75C518.96,1810.32,515.31,1781.55,503.13,1755.07z"/>
		<path class="st3" d="M530.41,1750.02c-17.16-38.87-48.99-66.47-79.77-93.16c-2.78-2.41-5.56-4.83-8.33-7.24
			c-50.36-43.98-76.6-85.77-85.08-135.48c-6.71-39.32-9.18-80.56-11.57-120.44c-1.07-17.89-2.18-36.38-3.65-54.36
			c-0.58-7.04-1.17-14.08-1.76-21.12c-1.46-17.43-2.97-35.44-4.25-53.17c0.25-53.89,37.01-107.48,66.56-150.55
			c45.37-66.13,101.13-140.44,170.67-190.17c100.54-71.88,222.88-112.39,341.19-151.57c23.35-7.73,47.5-15.73,70.79-23.76
			c7.47-2.58,14.97-5.14,22.47-7.71c62.47-21.38,127.07-43.49,186.15-74.47c29.26-15.35,57.64-33.69,85.08-51.43
			c11.08-7.16,22.54-14.57,33.85-21.65c7.45-4.66,15.02-9.58,23.03-14.79c44.97-29.24,95.94-62.39,147.5-62.59
			c26.19,1.63,53.32,10.39,79.55,18.86c8.88,2.87,17.26,5.57,25.64,8.03c50.47,14.78,98.56,32.2,132.13,82.22
			c1.52,2.26,3.02,4.52,4.52,6.78c11.6,17.44,23.6,35.47,39.75,50.12c26.15,23.73,58.78,36.41,90.14,46.58
			c81.93,26.57,149.61,48.84,212.98,70.09c10.34,3.47,20.95,6.9,31.21,10.21c29.69,9.59,60.39,19.52,89.26,31.87l1.97-4.6
			c-29.08-12.44-59.89-22.4-89.69-32.03c-10.25-3.31-20.84-6.74-31.16-10.2c-63.39-21.26-131.08-43.53-213.02-70.1
			c-30.83-10-62.87-22.43-88.32-45.53c-15.69-14.24-26.98-31.21-38.94-49.19c-1.51-2.26-3.02-4.53-4.53-6.8
			c-34.51-51.41-83.49-69.18-134.88-84.23c-8.31-2.44-16.66-5.13-25.51-7.99c-26.56-8.57-54.02-17.44-80.86-19.1l-0.16,0
			c-53.06,0.18-104.71,33.77-150.29,63.4c-8,5.2-15.55,10.11-22.96,14.75c-11.34,7.09-22.82,14.51-33.92,21.69
			c-27.35,17.68-55.63,35.96-84.69,51.2c-58.74,30.8-123.16,52.85-185.45,74.17c-7.51,2.57-15.01,5.14-22.48,7.71
			c-23.27,8.02-47.4,16.01-70.73,23.74c-118.66,39.29-241.37,79.92-342.52,152.25c-70.18,50.17-126.27,124.91-171.89,191.41
			c-29.95,43.66-67.23,97.99-67.44,153.45l0,0.09l0.01,0.09c1.28,17.79,2.8,35.86,4.27,53.33c0.59,7.04,1.18,14.07,1.76,21.11
			c1.47,17.92,2.58,36.39,3.65,54.25c2.4,40.01,4.88,81.39,11.63,120.98c8.69,50.93,35.44,93.61,86.72,138.41
			c2.77,2.42,5.56,4.84,8.35,7.25c30.37,26.33,61.77,53.57,78.47,91.41c10.45,23.66,13.56,49.7,16.57,74.87
			c0.28,2.37,0.57,4.74,0.86,7.11l4.96-0.61c-0.29-2.37-0.57-4.73-0.85-7.1C544.31,1800.77,541.15,1774.36,530.41,1750.02z"/>
		<path class="st3" d="M548.78,1728.89c-18.47-32.87-48.05-55.66-76.66-77.7c-16.69-12.85-33.94-26.15-48.7-41.25
			c-47.86-48.96-52.5-110.31-57.42-175.26c-0.48-6.31-0.96-12.64-1.48-18.98c-0.91-11.06-1.84-22.11-2.78-33.17
			c-2.18-25.8-4.44-52.48-6.3-78.73c0.14-53.66,32.1-106.69,64.81-156.42c40.42-61.44,96.64-138.78,173.35-191.94
			c99.09-68.68,217.25-109.24,331.51-148.46c23.34-8.01,47.46-16.29,70.82-24.62c6.14-2.19,12.31-4.38,18.48-6.56
			c62.62-22.21,127.37-45.17,185.8-78.18c19.67-11.12,39.56-22.61,58.79-33.72c22.23-12.84,45.21-26.12,67.98-38.89
			c7.19-4.03,14.43-8.21,22.1-12.62c49.86-28.74,106.38-61.31,162.53-61.44c26.43,1.37,53.89,10,80.44,18.34
			c7.83,2.46,15.23,4.78,22.62,6.93c48.53,14.12,80.04,37.39,108.75,80.31c17.16,25.65,36.93,45.87,60.45,61.8
			c21.16,14.34,46.24,25.93,78.92,36.5c78.18,25.27,142.86,46.52,203.55,66.89c9.84,3.3,19.94,6.57,29.7,9.74
			c29.38,9.52,59.77,19.37,88.31,31.68l1.98-4.59c-28.75-12.4-59.25-22.29-88.75-31.85c-9.75-3.16-19.83-6.43-29.65-9.72
			c-60.71-20.37-125.4-41.63-203.6-66.91c-32.22-10.41-56.89-21.81-77.65-35.88c-22.97-15.56-42.3-35.33-59.09-60.44
			c-29.43-44-61.73-67.85-111.51-82.33c-7.34-2.14-14.71-4.45-22.52-6.9c-26.88-8.44-54.67-17.17-81.75-18.56l-0.13,0
			c-57.51,0.11-114.66,33.04-165.09,62.1c-7.65,4.41-14.88,8.58-22.05,12.59c-22.79,12.78-45.79,26.07-68.03,38.92
			c-19.22,11.11-39.1,22.59-58.75,33.7c-58.05,32.8-122.59,55.69-185.01,77.82c-6.17,2.19-12.34,4.38-18.48,6.57
			c-23.33,8.31-47.44,16.59-70.76,24.6c-114.59,39.33-233.07,80-332.74,149.08c-77.41,53.65-134.01,131.49-174.68,193.3
			c-33.15,50.39-65.52,104.19-65.63,159.25l0,0.09l0.01,0.09c1.87,26.32,4.13,53.04,6.31,78.89c0.93,11.05,1.87,22.1,2.78,33.16
			c0.52,6.33,1,12.65,1.47,18.95c4.99,65.88,9.69,128.12,58.83,178.38c15.01,15.35,32.41,28.76,49.23,41.72
			c28.21,21.73,57.38,44.2,75.35,76.19c15.47,27.52,18.9,57.53,22.54,89.29l0.56,4.91l4.97-0.57l-0.56-4.9
			C568.39,1789.2,564.74,1757.29,548.78,1728.89z"/>
		<path class="st3" d="M574.01,1723.84c-18.96-34.8-51.11-57.11-82.2-78.69c-13.25-9.2-26.95-18.7-39.33-29
			c-54.86-45.63-63.65-102.08-68.87-165.79c-0.86-10.48-1.74-20.96-2.63-31.45c-2.11-25.02-4.29-50.89-6.09-76.34
			c0.13-57.55,32.62-113.92,63.06-162.23c54.18-85.99,111.97-149.29,176.69-193.53C710.86,921.02,824,880.47,933.42,841.26
			c24.9-8.92,50.66-18.15,75.61-27.48c58.67-21.92,127.5-49.18,193.11-85.15c49.89-27.35,91.84-50.05,134.47-71.98
			c6.33-3.26,12.63-6.55,19.31-10.04c55.68-29.09,118.79-62.07,181.2-62.19c33.4,1.37,72.06,14.1,98.23,23.56
			c40.65,14.69,62.99,42.52,90.1,80.23c35.55,49.44,81.77,72.1,140.24,90.92c75.44,24.28,138.1,44.83,197.19,64.66
			c9.48,3.18,19.21,6.34,28.61,9.4c29.53,9.59,60.06,19.51,88.71,31.96l1.99-4.59c-28.87-12.54-59.51-22.5-89.15-32.12
			c-9.39-3.05-19.1-6.21-28.57-9.38c-59.11-19.84-121.79-40.4-197.25-64.68c-57.53-18.52-102.97-40.75-137.72-89.08
			c-27.64-38.44-50.45-66.83-92.46-82.01c-26.5-9.58-65.67-22.47-99.78-23.86l-0.11,0c-63.65,0.11-127.35,33.39-183.56,62.76
			c-6.67,3.48-12.96,6.77-19.28,10.02c-42.67,21.95-84.66,44.67-134.58,72.04c-65.33,35.81-133.95,62.99-192.45,84.85
			c-24.92,9.31-50.65,18.53-75.54,27.45c-109.72,39.32-223.17,79.97-319.92,146.12c-65.29,44.64-123.55,108.42-178.09,194.99
			c-30.83,48.93-63.73,106.06-63.83,164.98l0.01,0.18c1.8,25.52,3.98,51.44,6.1,76.5c0.88,10.48,1.77,20.96,2.63,31.44
			c5.32,64.86,14.31,122.35,70.66,169.23c12.54,10.43,26.34,20.01,39.67,29.26c30.61,21.25,62.27,43.22,80.66,76.98
			c14.13,25.94,17.27,55.49,20.31,84.07c0.28,2.65,0.56,5.29,0.85,7.94l4.97-0.54c-0.29-2.64-0.57-5.28-0.85-7.92
			C591.81,1780.7,588.62,1750.65,574.01,1723.84z"/>
		<path class="st3" d="M598.91,1721.09c-19.15-37.81-54.32-60.05-88.33-81.56c-9.33-5.9-18.97-12-28.05-18.28
			c-49.68-34.4-75.09-78.22-79.97-137.91c-0.82-10-1.67-19.99-2.51-29.99c-2-23.6-4.07-48-5.7-72.02
			c0.02-58.66,29.74-115.83,61.86-168.87c48.94-80.82,107.72-144.16,179.71-193.62c91.53-62.89,198.27-103.24,301.49-142.27
			c25.5-9.64,51.86-19.61,77.42-29.71c74.13-29.29,145.7-66.07,214.91-101.64c36.27-18.64,73.78-37.91,111.26-55.91
			c5.56-2.67,11.19-5.4,16.88-8.16c61.93-30.02,132.11-64.05,201.02-64.16c41.91,1.46,88.79,18.11,116.66,41.42
			c14.02,11.72,25.11,26.6,35.83,40.99c2.72,3.65,5.53,7.42,8.35,11.09c21.11,27.47,44,47.84,69.98,62.27
			c30.54,16.97,64.9,27.32,98.12,37.32c10.12,3.05,20.59,6.2,30.69,9.47c41.81,13.53,79.57,25.91,115.44,37.84
			c11.46,3.81,23.22,7.59,34.59,11.25c35.81,11.51,72.85,23.42,107.51,38.55l2-4.58c-34.89-15.23-72.05-27.18-107.98-38.73
			c-11.36-3.65-23.1-7.43-34.54-11.23c-35.88-11.94-73.65-24.32-115.48-37.85c-10.15-3.28-20.64-6.44-30.78-9.5
			c-32.97-9.93-67.07-20.2-97.14-36.91c-25.37-14.1-47.75-34.03-68.44-60.95c-2.8-3.64-5.6-7.4-8.31-11.03
			c-10.9-14.62-22.17-29.74-36.63-41.84c-28.65-23.97-76.75-41.08-119.78-42.58c-70.14,0.12-140.87,34.41-203.28,64.66
			c-5.69,2.76-11.31,5.48-16.87,8.15c-37.54,18.03-75.08,37.32-111.38,55.97c-69.11,35.51-140.56,72.24-214.46,101.44
			c-25.53,10.09-51.87,20.05-77.35,29.68c-103.5,39.13-210.52,79.59-302.55,142.82c-72.59,49.87-131.84,113.7-181.15,195.15
			c-32.51,53.69-62.59,111.63-62.58,171.55l0.01,0.17c1.64,24.08,3.71,48.54,5.71,72.19c0.85,9.99,1.69,19.99,2.51,29.98
			c5.01,61.29,31.1,106.29,82.11,141.61c9.16,6.35,18.85,12.47,28.22,18.4c33.44,21.14,68.01,43.01,86.54,79.59
			c12.29,24.27,14.91,51.92,17.44,78.67c0.33,3.44,0.65,6.86,0.99,10.28l4.97-0.5c-0.34-3.4-0.67-6.82-0.99-10.25
			C614.29,1774.33,611.63,1746.2,598.91,1721.09z"/>
		<path class="st3" d="M622.61,1719.79c-18.78-41.52-57.32-63.91-94.6-85.57c-4.85-2.82-9.87-5.73-14.72-8.62
			c-53.29-31.75-81.25-65.96-90.66-110.94c-4.92-23.55-6.27-48.71-7.58-73.05c-0.38-7.08-0.77-14.4-1.25-21.51
			c0.07-62.96,30.7-124.05,60.65-175.5c43.32-74.41,103.47-137.71,183.89-193.53c86.32-59.91,185.79-100.16,281.98-139.08
			c25.71-10.41,52.3-21.17,78.14-32.1c61.38-25.98,121.6-56.88,179.84-86.75c46.74-23.97,95.06-48.76,143.68-70.86
			c4.43-2.01,8.89-4.05,13.4-6.11c67.94-31.03,144.95-66.2,220.27-66.27c35.87,0.87,74.52,16.74,100.86,41.41
			c10.53,9.86,19.79,21.33,28.75,32.42c5.63,6.97,11.45,14.18,17.56,20.96c20.89,23.19,45.52,41.86,73.19,55.49
			c28.78,14.17,60.22,23.67,90.62,32.85c10.05,3.03,20.43,6.17,30.51,9.42c42.65,13.74,81.13,26.32,117.63,38.47
			c10.73,3.57,21.73,7.12,32.37,10.54c34.92,11.25,71.03,22.88,104.78,37.77l2.02-4.58c-33.98-14.99-70.22-26.66-105.26-37.95
			c-10.63-3.42-21.62-6.97-32.32-10.53c-36.52-12.16-75.01-24.75-117.68-38.49c-10.11-3.26-20.52-6.4-30.59-9.44
			c-30.21-9.13-61.44-18.56-89.86-32.55c-27.1-13.34-51.22-31.63-71.68-54.35c-6.02-6.68-11.8-13.83-17.38-20.75
			c-9.06-11.22-18.43-22.82-29.22-32.92c-27.2-25.47-67.11-41.85-104.22-42.76c-76.47,0.07-154,35.48-222.41,66.72
			c-4.5,2.05-8.96,4.09-13.39,6.1c-48.73,22.15-97.11,46.96-143.9,70.96c-58.16,29.83-118.3,60.68-179.51,86.59
			c-25.8,10.92-52.37,21.68-78.07,32.07c-96.45,39.03-196.18,79.38-282.96,139.61c-81.03,56.24-141.67,120.06-185.36,195.12
			c-30.3,52.05-61.29,113.92-61.33,178.1l0.01,0.17c0.48,7.11,0.87,14.44,1.25,21.54c1.32,24.52,2.68,49.88,7.68,73.8
			c9.71,46.47,38.39,81.69,92.99,114.22c4.88,2.9,9.9,5.83,14.77,8.65c36.6,21.26,74.44,43.25,92.56,83.31
			c10.31,22.79,12.47,48.56,14.55,73.47c0.35,4.21,0.7,8.39,1.09,12.55l4.98-0.46c-0.39-4.14-0.74-8.32-1.09-12.51
			C635.47,1769.57,633.28,1743.37,622.61,1719.79z"/>
		<path class="st3" d="M644.89,1720.22c-17.93-46.19-61.79-69.78-100.49-90.59c-41.24-22.18-79.73-45.66-97.55-88.81
			c-9.92-24.01-11.59-50.48-13.21-76.06c-0.12-1.97-0.25-3.93-0.38-5.9c0.14-67.84,32.14-133.5,60.01-183.14
			c41.01-73.02,103.08-136.51,189.78-194.08c83.75-55.61,176.38-96.85,265.97-136.72c23.77-10.58,48.35-21.52,72.45-32.58
			c48.94-22.47,97.53-47.53,144.53-71.77c56.01-28.89,113.92-58.76,172.77-84.42l8.26-3.61c74.35-32.47,158.61-69.27,240.91-69.35
			c30.03,0.64,61.7,15.87,89.19,42.89c6.45,6.34,12.77,12.73,18.87,18.9c31.93,32.29,62.09,62.78,106.9,82.44
			c48.4,21.23,100.79,36.79,151.45,51.83c25.69,7.63,52.26,15.51,77.75,23.99c10.06,3.35,20.38,6.68,30.36,9.91
			c35.1,11.35,71.4,23.08,105.33,38.08l2.02-4.57c-34.17-15.11-70.59-26.88-105.81-38.26c-9.97-3.22-20.27-6.55-30.32-9.89
			c-25.57-8.5-52.18-16.4-77.91-24.04c-50.52-15-102.76-30.51-150.87-51.61c-43.94-19.28-73.77-49.44-105.35-81.38
			c-6.12-6.19-12.45-12.59-18.92-18.95c-28.4-27.92-61.28-43.66-92.64-44.32c-83.4,0.08-168.17,37.1-242.96,69.76l-8.26,3.61
			c-59,25.73-116.99,55.63-173.07,84.56c-46.94,24.21-95.49,49.25-144.32,71.67c-24.07,11.05-48.64,21.99-72.39,32.56
			c-89.77,39.96-182.6,81.28-266.7,137.12c-87.37,58.02-149.97,122.07-191.37,195.79c-28.18,50.18-60.54,116.63-60.65,185.66
			l0.01,0.17c0.13,1.99,0.26,3.98,0.38,5.97c1.64,26,3.34,52.88,13.58,77.66c18.45,44.67,57.73,68.68,99.8,91.3
			c37.94,20.4,80.93,43.53,98.2,88c8.33,21.47,10.07,45.45,11.74,68.65c0.34,4.77,0.7,9.7,1.11,14.49l4.98-0.42
			c-0.4-4.76-0.76-9.68-1.1-14.43C655.25,1766.75,653.49,1742.38,644.89,1720.22z"/>
		<path class="st3" d="M664.97,1721.17c-14.42-43.71-51.56-67.81-89.54-87.34c-30.31-15.58-59.39-31.32-81.95-52.46
			c-25.18-23.59-38.52-50.99-40.76-83.77c-0.05-55.97,19.36-118.4,59.36-190.84c39.43-71.43,100.82-133.71,187.67-190.38
			c77.77-50.75,161.92-92.01,243.31-131.91c26.47-12.98,53.84-26.39,80.66-39.97c30.37-15.38,60.92-31.4,90.46-46.89
			c71.96-37.74,146.36-76.76,223.06-108.96l6.48-2.72c78.17-32.85,166.8-70.11,252.32-69.01c30.94,1.09,58.33,23.01,78.74,41.99
			c46.18,42.94,82.95,74.94,135.76,95.64c51.88,20.34,106.41,36.49,159.15,52.1c64.66,19.15,131.52,38.94,193.98,66.62l2.03-4.57
			c-62.76-27.81-129.77-47.65-194.58-66.84c-52.64-15.58-107.06-31.7-158.74-51.96c-51.98-20.38-88.4-52.08-134.18-94.65
			c-21.04-19.57-49.38-42.18-82.03-43.33c-86.66-1.08-175.75,36.36-254.37,69.4l-6.48,2.72c-76.9,32.28-151.4,71.36-223.45,109.15
			c-29.53,15.49-60.06,31.5-90.4,46.86c-26.79,13.56-54.15,26.98-80.6,39.94c-81.52,39.96-165.82,81.29-243.84,132.21
			c-87.55,57.13-149.47,119.99-189.31,192.15c-40.43,73.24-60.05,136.49-59.98,193.35l0.01,0.17c2.31,34.13,16.16,62.65,42.34,87.16
			c23.03,21.58,52.44,37.5,83.08,53.26c37.04,19.04,73.22,42.45,87.08,84.46c6.87,20.81,8.26,43.77,9.62,65.97
			c0.31,5.14,0.64,10.46,1.02,15.62l4.99-0.37c-0.38-5.13-0.71-10.43-1.02-15.55C673.46,1765.89,672.04,1742.6,664.97,1721.17z"/>
		<path class="st3" d="M684.08,1727.43c-9.11-37.02-33.95-65.17-78.19-88.6c-7.95-4.21-16.31-8.35-24.39-12.35
			c-44.39-21.98-90.28-44.71-105.66-95.09c-6.3-28.82,3.36-61.55,11.13-87.85c10.77-36.48,25.27-71.48,43.08-104.04
			c40.05-73.22,102.62-136.35,191.3-193c61.59-39.35,127.14-74.27,190.54-108.05c37.86-20.17,77-41.02,114.91-62.61
			c88.6-50.45,194.27-108.19,306.18-153.91c56.38-23.03,103.32-39.41,147.73-51.54c40.51-11.07,80.05-20.86,118.37-18.9
			c28.05,2.04,53.55,23.52,74.04,40.79l1.29,1.09c37.69,31.74,84.33,67.04,144.46,88.15c42.6,14.95,86.88,28.15,129.7,40.91
			c70.4,20.98,143.2,42.67,210.95,72.87l2.04-4.57c-68.05-30.33-141-52.07-211.56-73.1c-42.77-12.74-86.99-25.92-129.47-40.83
			c-59.37-20.84-105.55-55.8-142.9-87.25l-1.29-1.09c-21.04-17.73-47.23-39.8-76.95-41.95c-39.11-1.99-79.08,7.88-120,19.07
			c-44.6,12.19-91.73,28.63-148.3,51.74c-112.18,45.82-218.02,103.66-306.77,154.19c-37.85,21.55-76.96,42.39-114.79,62.54
			c-63.49,33.82-129.13,68.8-190.89,108.25c-89.4,57.12-152.53,120.84-192.99,194.82c-17.98,32.87-32.61,68.21-43.48,105.03
			c-7.94,26.88-17.82,60.34-11.2,90.44l0.05,0.19c15.98,52.51,62.89,75.74,108.26,98.21c8.05,3.99,16.38,8.11,24.27,12.29
			c42.89,22.71,66.93,49.83,75.67,85.37c4.7,19.08,5.86,39.63,6.98,59.5c0.32,5.61,0.64,11.41,1.05,17.05l4.99-0.36
			c-0.4-5.6-0.73-11.38-1.04-16.97C690.06,1767.75,688.89,1746.97,684.08,1727.43z"/>
		<path class="st3" d="M701.64,1733.45c-7.37-36.63-29.73-66.25-66.48-88.06c-12.96-7.69-27.33-14.43-41.22-20.94
			c-34.32-16.09-69.8-32.73-89.67-65.77c-13.16-26.54-4.63-57.31,2.23-82.03c10.38-37.42,24.53-72.94,42.05-105.57
			c39.91-74.35,102.76-138.01,192.14-194.62c45.32-28.7,92.98-55.33,139.06-81.08c49.03-27.4,99.73-55.72,147.85-86.67
			c91.16-58.63,193.12-110.58,303.06-154.4c56.04-22.34,103.49-38.31,149.33-50.26c37.24-9.71,79.46-20.72,119.41-17.27
			c24.59,2.53,47.33,19.57,67.38,34.6c2.93,2.2,5.81,4.35,8.63,6.42c52.54,38.48,100.98,64.07,152.43,80.51
			c31.19,9.97,63.4,19.52,94.55,28.75c77.92,23.09,158.5,46.97,232.98,80.26l2.04-4.56c-74.79-33.42-155.52-57.35-233.6-80.49
			c-31.13-9.22-63.31-18.76-94.45-28.72c-50.92-16.28-98.9-41.63-151-79.78c-2.81-2.06-5.67-4.2-8.58-6.38
			c-20.58-15.42-43.9-32.9-69.91-35.58c-40.85-3.52-83.5,7.6-121.14,17.41c-46.04,12-93.68,28.04-149.92,50.46
			c-110.23,43.94-212.49,96.04-303.91,154.84c-47.99,30.86-98.62,59.15-147.58,86.51c-46.14,25.78-93.86,52.44-139.3,81.22
			c-90.13,57.08-153.55,121.35-193.87,196.48c-17.69,32.96-31.98,68.82-42.46,106.6c-7.1,25.58-15.93,57.4-1.85,85.68l0.09,0.17
			c20.64,34.4,56.86,51.38,91.88,67.81c13.78,6.46,28.04,13.15,40.79,20.71c35.48,21.05,57.05,49.57,64.13,84.75
			c3.62,17.99,4.71,37.07,5.77,55.53c0.31,5.33,0.62,10.85,0.99,16.22l4.99-0.34c-0.37-5.34-0.68-10.84-0.99-16.16
			C706.43,1771.05,705.33,1751.78,701.64,1733.45z"/>
		<path class="st3" d="M663.54,1653.08c-16.57-11.45-35.35-20.13-53.51-28.53c-25.68-11.87-52.24-24.15-72.5-44.38
			c-14.16-16.35-18.07-39.42-11.64-68.56c7.47-33.79,20.95-69.82,40.08-107.09c39.15-76.26,101.83-141.1,191.63-198.23
			c35.34-22.48,72.8-42.79,109.02-62.42c12.17-6.6,24.76-13.42,37.09-20.23c46.25-25.54,87.82-54.62,131.83-85.4l0.37-0.26
			c79.69-55.74,174.89-105,291.04-150.61c54.98-21.59,104.29-37.74,150.77-49.38c35.58-8.91,79.86-20,121.17-15.44
			c23.78,3,45.71,17.38,66.9,31.28c4.8,3.15,9.33,6.12,13.88,8.96c51.66,32.23,103.23,55.83,157.66,72.16
			c19.77,5.93,40.1,11.86,59.75,17.6c85.17,24.86,173.23,50.57,254.16,86.78l2.04-4.56c-81.24-36.35-169.47-62.11-254.8-87.02
			c-19.65-5.73-39.96-11.67-59.72-17.59c-53.99-16.2-105.17-39.62-156.45-71.61c-4.5-2.81-9.01-5.77-13.79-8.9
			c-20.67-13.56-44.09-28.92-69.06-32.07c-42.24-4.67-87,6.55-122.97,15.55c-46.69,11.69-96.21,27.91-151.39,49.58
			c-116.52,45.76-212.06,95.2-292.08,151.17l-0.37,0.26c-43.9,30.7-85.36,59.71-131.38,85.12c-12.31,6.8-24.89,13.62-37.06,20.21
			c-36.3,19.68-73.84,40.02-109.33,62.6c-90.57,57.62-153.83,123.1-193.4,200.17c-19.33,37.64-32.96,74.08-40.52,108.29
			c-6.81,30.81-2.5,55.37,12.8,72.98l0.12,0.13c20.9,20.9,47.9,33.37,74,45.44c17.97,8.3,36.54,16.89,52.76,28.1
			c51.27,35.44,54.91,89.06,58.77,145.84l0.28,4.16l4.99-0.34l-0.28-4.15C720.52,1744.69,716.8,1689.89,663.54,1653.08z"/>
		<path class="st3" d="M691.24,1661.66c-19.42-16.09-42.34-26.77-64.51-37.1c-17.52-8.17-35.64-16.61-51.76-27.63
			c-21.95-16.97-29.45-42-22.91-76.51c5.6-29.59,20.74-60.65,31.8-83.34l0.51-1.04c19.76-40.55,46.86-78.73,80.57-113.48
			c30.28-31.22,66.92-60.73,108.89-87.69c37.13-23.85,76.62-45.18,114.82-65.81c9.44-5.1,19.2-10.37,28.78-15.6
			c42.19-23.03,82.39-49.55,126.52-83.46c72.29-55.54,160.55-102.77,277.77-148.63c55.39-21.68,105.97-37.92,154.63-49.65
			c37.61-9.07,81.22-18.3,122.8-13.1c24.03,3.23,46.94,16.13,69.1,28.61c5.99,3.37,11.64,6.55,17.33,9.56
			c49.99,26.42,102.76,47.6,161.34,64.75c13.93,4.08,28.2,8.2,42,12.19c86.56,25,176.07,50.85,258.21,87.65l2.04-4.56
			c-82.46-36.94-172.14-62.84-258.87-87.89c-13.8-3.98-28.07-8.11-41.98-12.18c-58.25-17.05-110.72-38.11-160.41-64.37
			c-5.63-2.98-11.26-6.14-17.22-9.5c-22.57-12.71-45.91-25.84-70.91-29.21c-42.44-5.31-86.58,4.03-124.62,13.2
			c-48.88,11.78-99.67,28.09-155.28,49.85c-117.67,46.04-206.32,93.49-278.99,149.33c-43.92,33.74-83.92,60.13-125.87,83.03
			c-9.57,5.22-19.32,10.49-28.76,15.59c-38.28,20.67-77.86,42.05-115.15,66c-42.3,27.17-79.23,56.92-109.78,88.42
			c-34.07,35.13-61.48,73.75-81.47,114.78l-0.51,1.04c-22.75,46.68-60.82,124.81-7.39,166.04l0.11,0.08
			c16.48,11.28,34.81,19.82,52.53,28.08c21.88,10.2,44.5,20.74,63.43,36.42c41.03,33.99,44.09,82.09,47.32,133.01
			c0.21,3.23,0.41,6.46,0.63,9.69l4.99-0.33c-0.22-3.22-0.42-6.45-0.62-9.67C737.2,1748.46,733.93,1697.03,691.24,1661.66z"/>
		<path class="st3" d="M718.1,1671.27c-20.71-21.12-47.47-33.73-73.35-45.92c-9.84-4.64-20.02-9.43-29.64-14.6
			c-55.55-32.85-35.99-89.98-13.3-140.95c34.74-78.04,95.72-146.51,181.24-203.5c39.03-26.01,80.51-49.17,120.63-71.56
			c52.39-29.25,106.56-59.49,155.92-96.45c79.14-59.26,164.57-106.4,261.18-144.11c96.66-37.73,190.85-70.66,280.6-59.41
			c24.92,3.47,49.07,14.96,72.42,26.07c6.31,3,12.84,6.11,19.17,8.95c46.96,21.04,98.9,39.57,163.44,58.31
			c11.7,3.4,23.46,6.78,35.25,10.17c84.23,24.2,171.32,49.23,251.34,85.12l2.05-4.56c-80.34-36.03-167.61-61.11-252.01-85.36
			c-11.79-3.39-23.54-6.77-35.24-10.16c-64.31-18.67-116.04-37.12-162.79-58.07c-6.28-2.81-12.78-5.91-19.07-8.9
			c-23.69-11.28-48.19-22.94-73.91-26.51c-42.52-5.33-89.9-1.15-144.86,12.8c-47.59,12.08-94.38,29.79-138.22,46.91
			c-97.03,37.88-182.85,85.23-262.36,144.77c-49.09,36.76-103.11,66.92-155.36,96.08c-40.2,22.44-81.76,45.65-120.96,71.77
			c-86.32,57.53-147.9,126.71-183.03,205.63c-11.56,25.97-22.36,53.56-23.13,79.44c-0.89,29.84,11.71,52.05,38.5,67.87l0.09,0.05
			c9.75,5.24,20.01,10.07,29.93,14.74c25.48,12,51.84,24.41,71.91,44.89c31.68,32.32,34.3,77.06,36.84,120.33
			c0.28,4.73,0.55,9.45,0.87,14.13l4.99-0.33c-0.31-4.67-0.59-9.37-0.87-14.08C753.77,1750.62,751.09,1704.93,718.1,1671.27z"/>
		<path class="st3" d="M743.87,1682.25c-20.46-26.79-50.76-41.49-80.06-55.7c-2.38-1.15-4.75-2.31-7.04-3.42
			c-19.17-10.23-38-22.29-46-41.09c-10.78-25.35-0.54-54.86,9.9-80.53c32.7-80.38,91.74-150.3,175.49-207.82
			c44.76-30.75,92.77-58.04,139.19-84.43c44.29-25.18,90.09-51.22,133.15-80.28c75.81-51.17,157.64-104.22,251.06-141.13
			c92.67-36.61,191.57-68.84,286.99-56.96c26.54,3.63,52.56,14.07,77.73,24.17c6.69,2.68,13.6,5.46,20.35,8.03
			c53.49,20.39,106.8,36.03,161.25,51.58c7.94,2.27,15.91,4.53,23.9,6.8c83.48,23.72,169.8,48.25,249.07,83.93l2.05-4.56
			c-79.6-35.83-166.1-60.41-249.75-84.18c-7.99-2.27-15.95-4.53-23.9-6.8c-54.34-15.52-107.54-31.13-160.85-51.45
			c-6.7-2.56-13.6-5.32-20.26-8c-25.45-10.21-51.76-20.78-78.94-24.49c-96.56-12.03-196.19,20.41-289.47,57.26
			c-93.89,37.09-175.99,90.31-252.02,141.63c-42.9,28.96-88.62,54.95-132.83,80.08c-46.52,26.44-94.62,53.79-139.55,84.66
			c-84.56,58.08-144.21,128.76-177.29,210.06c-10.82,26.6-21.4,57.25-9.87,84.37c8.6,20.22,28.27,32.88,48.32,43.58
			c2.37,1.16,4.75,2.31,7.13,3.47c28.77,13.96,58.53,28.39,78.27,54.24c23.57,30.87,25.67,70.7,27.7,109.21
			c0.27,5.18,0.56,10.54,0.89,15.73l4.99-0.32c-0.33-5.17-0.61-10.51-0.88-15.68C770.52,1754.96,768.38,1714.35,743.87,1682.25z"/>
		<path class="st3" d="M768.48,1694.62c-16.33-28.3-43.24-45.18-69.8-59.17c-20.09-11.57-40.24-24.6-51.58-41.47
			c-11.62-17.28-13.45-37.2-5.75-62.67c16.16-53.43,58.4-133.5,167.86-211.56c53.44-38.1,111.78-71.57,168.2-103.93
			c33.4-19.16,67.93-38.96,101.03-59.5c9.53-5.91,19.04-11.85,28.53-17.79c68.71-42.93,139.75-87.33,216.79-118.12
			c54.27-21.69,99.72-36.06,143.03-45.21c53.97-11.41,102.58-14.15,148.6-8.36c28.45,3.63,56.59,13.19,83.81,22.42
			c6.6,2.24,13.42,4.56,20.1,6.74c40.98,13.37,83.08,25.02,123.79,36.29c10.76,2.98,21.53,5.96,32.29,8.97l7.55,2.11
			c84.14,23.55,171.15,47.9,251.2,83.75l2.04-4.56c-80.4-36-167.58-60.4-251.9-84l-7.55-2.11c-10.77-3.02-21.54-6-32.31-8.98
			c-40.66-11.25-82.7-22.88-123.57-36.22c-6.65-2.17-13.46-4.48-20.04-6.72c-27.45-9.32-55.83-18.95-84.79-22.65
			c-46.59-5.85-95.74-3.09-150.26,8.43c-43.59,9.22-89.3,23.66-143.85,45.46c-77.45,30.95-148.69,75.47-217.58,118.52
			c-9.49,5.93-18.99,11.87-28.52,17.78c-33.03,20.49-67.52,40.28-100.88,59.41c-56.53,32.42-114.98,65.95-168.62,104.2
			c-110.61,78.87-153.36,160.01-169.74,214.18c-8.06,26.66-5.97,48.54,6.38,66.91c11.91,17.71,32.62,31.14,53.32,43.05
			c25.98,13.68,52.19,30.1,67.88,57.29c16.39,28.4,18.05,63.01,19.66,96.49c0.28,5.82,0.57,11.84,0.93,17.63l4.99-0.31
			c-0.36-5.76-0.65-11.76-0.93-17.56C787.17,1759.3,785.48,1724.07,768.48,1694.62z"/>
		<path class="st3" d="M791.6,1708.75c-9.44-23.07-26.47-42.55-52.05-59.56c-5.94-4.3-12.2-8.45-18.26-12.46
			c-31.78-21.08-61.81-40.98-54.05-84.27c6.71-37.47,25.59-75.91,56.12-114.28c24.58-30.88,55.94-60.93,93.22-89.32
			c66.02-50.28,140.55-92.47,212.62-133.27c18.88-10.69,38.41-21.75,57.37-32.72c11.26-6.52,22.73-13.21,33.81-19.68
			c67.94-39.66,138.19-80.67,211.54-110.58c108.69-44.32,205.61-60.71,296.3-50.08c30.26,3.55,60.37,12.2,89.49,20.58
			c5.64,1.62,11.27,3.24,16.88,4.82c27.61,7.76,55.81,15.08,83.08,22.17c22.05,5.73,44.85,11.65,67.2,17.76
			c76.73,21,163.7,44.8,242.85,80.08l2.04-4.57c-79.5-35.44-166.66-59.29-243.56-80.34c-22.38-6.12-45.19-12.05-67.26-17.78
			c-27.25-7.08-55.42-14.39-82.99-22.14c-5.61-1.58-11.22-3.19-16.85-4.81c-29.32-8.43-59.63-17.14-90.29-20.74
			c-91.55-10.72-189.28,5.77-298.77,50.42c-73.69,30.05-144.09,71.15-212.18,110.89c-11.08,6.47-22.55,13.16-33.8,19.67
			c-18.94,10.96-38.46,22.01-57.33,32.7c-72.22,40.89-146.89,83.16-213.18,133.65c-37.61,28.64-69.27,58.98-94.1,90.18
			c-31.05,39.02-50.27,78.22-57.13,116.51c-8.33,46.52,24.48,68.28,56.21,89.32c6.03,4,12.26,8.13,18.13,12.38l0.08,0.06
			c24.75,16.44,41.18,35.19,50.23,57.31c10.47,25.58,11.8,54.97,13.09,83.4c0.27,6.01,0.55,12.23,0.92,18.21l4.99-0.31
			c-0.36-5.95-0.64-12.14-0.92-18.13C803.75,1764.96,802.4,1735.13,791.6,1708.75z"/>
		<path class="st3" d="M778.21,1665.92c-9.74-10.32-21.49-18.82-32.86-27.03c-13.19-9.54-26.84-19.4-36.98-31.98
			c-20.43-25.34-10.92-57.36-0.36-82.42c21.94-52.04,58.78-99.13,112.6-143.95c47.57-39.6,101.7-72.27,154.12-103.91
			c118.06-71.25,227.35-129.06,334.13-176.75c57.47-25.66,111.17-43.24,164.16-53.73c58.56-11.59,114.85-14.3,172.09-8.3
			c68.93,7.3,139.11,26.51,206.97,45.09c13.92,3.81,28.31,7.75,42.29,11.47c78.56,20.92,154.91,42.27,225.41,73.49l2.02-4.57
			c-70.83-31.36-147.39-52.78-226.15-73.75c-13.97-3.72-28.35-7.66-42.26-11.46c-68.06-18.63-138.44-37.9-207.77-45.24
			c-57.74-6.06-114.52-3.32-173.58,8.37c-53.36,10.56-107.41,28.25-165.23,54.06c-106.96,47.77-216.44,105.68-334.74,177.07
			c-52.51,31.69-106.81,64.46-154.67,104.31c-54.45,45.34-91.75,93.05-114.01,145.85c-11.11,26.34-21.02,60.09,1.07,87.5
			c10.56,13.1,24.48,23.17,37.94,32.9c11.19,8.09,22.76,16.46,32.19,26.46l0.09,0.09c36.58,34.96,39.26,84.24,41.86,131.89
			c0.22,3.97,0.43,7.93,0.67,11.88l4.99-0.3c-0.23-3.94-0.45-7.9-0.67-11.86C818.91,1752.51,816.17,1702.24,778.21,1665.92z"/>
		<path class="st3" d="M813.29,1687.14c-10.05-18.01-25.91-32.1-41.24-45.72c-27.45-24.39-53.38-47.42-41.58-89.49
			c14.39-51.34,47.05-99.17,99.85-146.22c46.15-41.14,100.63-75.25,148.06-103.99c109.54-66.38,224.79-124.22,342.56-171.91
			c48.53-19.65,105.25-41.49,164.34-51.81c54.22-9.47,113.29-11.16,180.56-5.17c78.93,7.64,158.59,27.91,235.62,47.5l2.2,0.56
			c64.64,16.44,139.27,36.48,206.84,66.29l2.02-4.57c-67.93-29.96-142.79-50.07-207.63-66.56l-2.2-0.56
			c-77.21-19.64-157.05-39.95-236.39-47.64c-67.73-6.03-127.23-4.33-181.89,5.22c-59.57,10.41-116.59,32.35-165.36,52.1
			c-118.01,47.79-233.5,105.75-343.27,172.27c-47.63,28.86-102.33,63.12-148.8,104.54c-53.53,47.71-86.68,96.32-101.33,148.61
			c-5.69,20.28-3.6,38.28,6.38,55.02c8.82,14.8,22.36,26.82,36.69,39.56c15.04,13.36,30.59,27.17,40.23,44.47l0.06,0.11
			c20.21,32.35,22,71.53,23.73,109.42c0.23,4.97,0.46,10.12,0.74,15.12l4.99-0.27c-0.27-4.98-0.51-10.11-0.73-15.08
			C835.98,1760.41,834.16,1720.58,813.29,1687.14z"/>
		<path class="st3" d="M843.39,1714.27c-9.36-37.28-32.19-60.94-58.84-85.86c-18.71-17.49-30.27-34.45-25.93-60.38
			c6.17-36.8,30.47-78.21,72.22-123.06c23.35-25.09,64.45-64.63,151.3-118.13c104.76-64.54,221.98-121.12,348.41-168.18
			c49.22-18.32,107.79-38.29,169.02-47.52c56.11-8.46,118.26-9.69,190-3.78c79.7,6.87,160.09,24.37,221.23,38.85
			c53.96,12.78,124.23,31.1,189.18,59.59l2.01-4.58c-65.32-28.65-135.87-47.05-190.04-59.88c-61.3-14.52-141.93-32.07-221.96-38.96
			c-72.14-5.94-134.67-4.69-191.17,3.82c-61.69,9.3-120.56,29.37-170.02,47.78c-126.73,47.17-244.25,103.9-349.29,168.61
			c-41.85,25.78-103.16,66.16-152.34,118.98c-42.44,45.58-67.16,87.85-73.49,125.64c-2.23,13.28-0.66,25.19,4.77,36.39
			c4.48,9.22,11.47,18,22.67,28.48c26.07,24.37,48.38,47.47,57.43,83.52c7.9,26.93,9.19,56.12,10.44,84.34
			c0.23,5.15,0.45,10.27,0.72,15.35l4.99-0.26c-0.26-5.07-0.49-10.18-0.72-15.32C852.74,1771.18,851.44,1741.69,843.39,1714.27z"/>
		<path class="st3" d="M867.21,1748.52c-0.85-42.98-14.75-78.04-42.5-107.16c-2.49-2.61-5.07-5.2-7.57-7.71
			c-14.5-14.53-28.19-28.26-28.46-49.67c-0.51-40.7,32.98-85.28,58.22-115.28c34.37-40.85,78.72-77.89,139.56-116.57
			c100.18-63.68,218.5-119.36,351.69-165.48c61.01-21.13,121.17-35.09,183.94-42.69c60.91-7.37,122.73-8.55,188.95-3.61
			c99.78,8.48,247.47,26.35,377.45,83.49l2.01-4.58c-55.25-24.29-116.1-43.06-186.03-57.39c-56.73-11.62-119.86-20.29-193.03-26.51
			c-66.58-4.97-128.71-3.78-189.95,3.63c-63.12,7.64-123.62,21.68-184.97,42.93c-133.56,46.25-252.24,102.1-352.74,165.99
			c-61.28,38.96-105.99,76.31-140.7,117.57c-25.75,30.6-59.92,76.19-59.39,118.56c0.29,23.44,15.35,38.54,29.92,53.14
			c2.48,2.48,5.04,5.05,7.49,7.62c26.85,28.18,40.3,62.14,41.12,103.85c0.41,12.31,1.22,24.79,2,36.86
			c0.65,10.08,1.33,20.51,1.76,30.76l5-0.21c-0.44-10.31-1.12-20.76-1.77-30.87C868.42,1773.16,867.61,1760.72,867.21,1748.52z"/>
	</g>
</g>
</svg>
