<?xml version="1.0" encoding="utf-8"?>
<!-- Generator: Adobe Illustrator 25.4.1, SVG Export Plug-In . SVG Version: 6.00 Build 0)  -->
<svg version="1.1" xmlns="http://www.w3.org/2000/svg" xmlns:xlink="http://www.w3.org/1999/xlink" x="0px" y="0px"
	 viewBox="0 0 2600 3000" style="enable-background:new 0 0 2600 3000;" xml:space="preserve">
<style type="text/css">
	.st0{display:none;}
	.st1{display:inline;}
	.st2{fill:#020203;}
	.st3{fill:#010202;}
	.st4{fill:none;stroke:#E30613;stroke-miterlimit:10;}
</style>
<g id="Layer_1" class="st0">
	<g id="turf-intersect" class="st1">
		<path class="st2" d="M1422.14,2404.57l3.84-16.96c0.23-1-0.34-2.01-1.31-2.34l-40.18-13.52c-0.67-0.23-1.41-0.08-1.95,0.38
			l-28.41,24.56c-0.5,0.43-0.76,1.09-0.68,1.75l4.7,39.61c0.11,0.94,0.86,1.67,1.8,1.76l14.75,1.4
			c4.35,17.55,22.1,28.26,39.66,23.91s28.26-22.1,23.91-39.66C1436.06,2416.54,1430.21,2408.96,1422.14,2404.57L1422.14,2404.57z
			 M1361.94,2435.98l-4.39-36.95l26.74-23.11l37.38,12.58l-3.25,14.33c-0.25-0.1-0.5-0.18-0.74-0.27c-0.17-0.06-0.34-0.13-0.51-0.19
			c-0.51-0.18-1.02-0.34-1.54-0.49c-0.03-0.01-0.05-0.02-0.07-0.02c-0.54-0.16-1.09-0.3-1.64-0.42c-0.17-0.04-0.33-0.07-0.5-0.11
			c-0.39-0.08-0.78-0.16-1.17-0.23c-0.2-0.04-0.4-0.07-0.61-0.1c-0.37-0.06-0.73-0.11-1.1-0.16c-0.21-0.03-0.41-0.05-0.62-0.07
			c-0.39-0.04-0.78-0.07-1.17-0.1c-0.18-0.01-0.36-0.03-0.54-0.04c-0.57-0.03-1.14-0.05-1.72-0.05
			c-18.08,0.02-32.72,14.67-32.74,32.75c0,0.59,0.02,1.18,0.05,1.77c0.01,0.19,0.03,0.38,0.04,0.56c0.03,0.41,0.06,0.81,0.11,1.22
			c0.01,0.08,0.01,0.17,0.02,0.25L1361.94,2435.98z M1406.49,2462.06c-12.68-0.02-23.85-8.32-27.53-20.45l32.3,3.06
			c0.06,0.01,0.13,0.01,0.19,0.01c0.03,0,0.07-0.01,0.1-0.01c0.05,0,0.09-0.01,0.14-0.01c0.08-0.01,0.15-0.02,0.23-0.04
			c0.03-0.01,0.07-0.02,0.1-0.03c0.09-0.03,0.17-0.06,0.26-0.1l0.06-0.03c0.09-0.04,0.18-0.1,0.26-0.15l0.04-0.02
			c0.08-0.06,0.16-0.13,0.23-0.2c0.01-0.01,0.02-0.02,0.03-0.03c0.07-0.07,0.13-0.15,0.19-0.23c0.01-0.02,0.02-0.03,0.03-0.04
			c0.05-0.08,0.1-0.17,0.14-0.26c0.01-0.02,0.02-0.04,0.03-0.06c0.05-0.11,0.09-0.23,0.11-0.34l7.81-34.49
			c13.63,8.14,18.09,25.78,9.95,39.42C1425.98,2456.74,1416.61,2462.06,1406.49,2462.06z"/>
	</g>
</g>
<g id="Layer_3">
	<g>
		<path class="st3" d="M261.82,1957.94c-9.72-34.19-21.05-68.31-32.04-101.36c-17.41-52.34-35.42-106.46-47.12-161.47
			c-13.62-64.03-17.54-129.67-21.33-193.14c-1.51-25.25-3.07-51.36-5.22-77.15l-49.87-598.49
			c67.26-58.84,136.08-118.29,202.66-175.79c202.2-174.64,411.27-355.22,605.84-544.23c114.29,14.54,225.65,31.15,331.54,72.96
			c60.44,23.86,115.18,59.53,168.12,94.02c22.41,14.6,45.59,29.7,69.01,43.8c80.54,48.49,170.6,91.96,275.33,132.91l8.82,3.45
			c102.95,40.26,209.35,81.85,318.36,110.9c0.09,2.97,1.81,5.5,4.55,6.2c3.61,0.93,7.63-1.67,8.96-5.77s-0.52-8.19-4.13-9.13
			c-2.71-0.71-5.65,0.57-7.51,2.99c-108.81-28.96-215.15-70.54-318.05-110.78l-8.82-3.45c-104.41-40.82-194.18-84.15-274.42-132.46
			c-23.33-14.05-46.46-29.11-68.83-43.69c-53.19-34.66-108.19-70.49-169.19-94.58c-106.98-42.24-219.23-58.88-334.42-73.51
			l-1.43-0.18l-1.04,1.01c-194.74,189.26-404.13,370.11-606.62,545c-66.96,57.83-136.19,117.63-203.83,176.81l-1.14,1l50.13,601.51
			c2.14,25.71,3.7,51.79,5.21,77c3.8,63.69,7.74,129.56,21.45,194.03c11.77,55.34,29.83,109.62,47.3,162.11
			c11.12,33.41,22.58,67.91,32.34,102.42c-5.68,3.72-9.36,8.32-8.66,11.1c0.81,3.21,7.2,2.72,14.47-1.29
			c7.27-4.01,12.6-9.95,11.69-13.06C273.13,1954.93,267.91,1955.21,261.82,1957.94z"/>
		<path class="st3" d="M308.6,1934.75c-12.4-34.26-27.54-67.84-42.22-100.37l-1.43-3.18c-27.83-61.68-61.38-144.02-73.99-234.08
			c-4.64-33.17-6.09-67.13-7.49-99.97c-0.91-21.37-1.85-43.46-3.66-65.19c-4.68-56.2-9.36-112.39-14.04-168.59
			c-3.39-40.7-6.88-82.07-10.26-122.08c-7.35-87.03-14.95-177.01-21.92-265.56c3.55-6.99,10-13.18,16.24-19.17
			c1.73-1.66,3.36-3.23,4.94-4.82c19.06-19.21,39.06-37.89,56.7-54.36c64.35-60.09,130.46-119.29,187.36-170.06
			c59.18-52.8,119.99-105.78,178.81-157.02c84.56-73.68,172.01-149.86,256.17-226.86c7.21-6.6,14.41-13.21,21.62-19.83
			c18.84-17.3,38.31-35.19,57.7-52.52c2.73-2.44,5.4-4.96,8.24-7.63c8.62-8.12,17.52-16.5,27.3-21.83
			c65.47,6.49,132.4,20.03,193.61,39.17c68.15,21.32,128.46,49,179.26,82.27c95.11,62.29,198.54,126.5,310.44,174.08
			c92.61,39.38,189.53,73.72,283.25,106.92c7.82,2.77,15.63,5.54,23.43,8.31c47.76,16.94,97.09,30.58,141.19,42.63
			c0.06,2.67,1.42,5.02,3.77,5.99c3.43,1.4,7.65-0.69,9.42-4.65c1.77-3.96,0.43-8.31-2.99-9.72c-2.82-1.16-6.16,0.03-8.25,2.7
			c-44.1-12.04-93.45-25.68-141.13-42.59c-7.81-2.77-15.62-5.54-23.44-8.31c-93.64-33.17-190.46-67.48-282.9-106.79
			c-111.46-47.4-214.62-111.44-309.5-173.58c-51.26-33.57-112.07-61.49-180.75-82.98c-61.88-19.36-129.55-33.02-195.72-39.51
			l-0.89-0.09l-0.79,0.42c-10.81,5.68-20.27,14.58-29.41,23.19c-2.81,2.64-5.46,5.14-8.12,7.52c-19.41,17.35-38.9,35.26-57.75,52.57
			c-7.2,6.61-14.4,13.22-21.61,19.82c-84.1,76.95-171.52,153.11-256.06,226.77c-58.82,51.25-119.65,104.25-178.86,157.07
			C337.9,673.64,271.77,732.87,207.37,793c-17.68,16.51-37.72,35.23-56.87,54.52c-1.52,1.54-3.13,3.08-4.84,4.72
			c-6.52,6.26-13.91,13.36-17.84,21.63l-0.35,0.72l0.06,0.8c6.98,88.83,14.61,179.11,21.98,266.41
			c3.38,40.01,6.87,81.38,10.26,122.08c4.68,56.2,9.36,112.39,14.04,168.59c1.8,21.61,2.74,43.64,3.64,64.94
			c1.4,32.99,2.86,67.09,7.54,100.55c6.68,47.7,21.18,117.6,74.46,235.71l1.43,3.18c14.78,32.75,30.03,66.57,42.42,100.97
			c-6.55,4.4-10.56,9.54-9.25,12.08c1.43,2.77,8.72,1.3,16.46-3.45c7.73-4.75,12.87-10.87,11.31-13.51
			C320.52,1930.71,314.9,1931.62,308.6,1934.75z"/>
		<path class="st3" d="M358.48,1908.32c-14.7-31.66-32.13-61.83-48.87-89.83c-34.65-57.95-73.05-126.24-90.08-203.37
			c-7.98-36.12-9.78-72.89-11.52-108.46c-0.79-16.14-1.61-32.84-2.99-49.41c-4.39-52.72-8.77-105.43-13.16-158.15
			c-3.25-39.12-6.65-78.88-9.95-117.34c-7.19-83.99-14.62-170.83-20.94-256.31c2.1-8.66,9.49-16.85,16.02-24.09
			c1.36-1.51,2.68-2.98,3.92-4.4c17.27-19.93,35.73-38.51,56.33-59.01c56.73-56.44,114.59-110.07,184.02-173.24
			c83.51-75.98,170.08-151.36,253.8-224.25c58.69-51.1,119.38-103.94,178.52-156.56l7.99-7.11c24.48-21.79,49.79-44.33,75.36-65.66
			c2.73-2.28,5.48-4.7,8.38-7.26c10.27-9.06,21.9-19.31,34.04-23.58c37.51,3.61,75.44,15.42,112.14,26.85l0.57,0.18
			c82.3,25.63,160.93,63.01,233.71,111.1c102.05,67.43,202.71,119.79,307.76,160.07c68.6,26.31,139.48,50.47,208.01,73.84
			c30.97,10.56,62.99,21.48,94.33,32.43c36.12,12.63,73.38,22.94,109.41,32.92c9.34,2.58,18.93,5.24,28.47,7.93
			c0.02,2.7,1.4,5.09,3.78,6.04c3.44,1.37,7.66-0.74,9.44-4.7c1.77-3.96,0.42-8.28-3.01-9.66c-2.79-1.12-6.1,0.05-8.2,2.66
			c-9.67-2.73-19.41-5.42-28.88-8.05c-35.94-9.95-73.1-20.24-109.03-32.8c-31.37-10.97-63.4-21.89-94.38-32.45
			c-68.49-23.35-139.3-47.5-207.8-73.76c-104.63-40.12-204.92-92.29-306.6-159.48c-73.25-48.4-152.39-86.02-235.23-111.82
			l-0.57-0.18c-37.2-11.58-75.66-23.56-114-27.15l-0.63-0.06l-0.6,0.2c-13.5,4.53-25.82,15.39-36.69,24.97
			c-2.88,2.54-5.59,4.93-8.26,7.15c-25.65,21.39-51,43.96-75.51,65.78l-7.99,7.11c-59.12,52.6-119.79,105.42-178.47,156.51
			c-83.74,72.91-170.34,148.31-253.9,224.34c-69.49,63.22-127.4,116.91-184.21,173.42c-20.68,20.58-39.22,39.25-56.63,59.33
			c-1.21,1.4-2.51,2.83-3.84,4.31c-7.13,7.91-15.21,16.87-17.52,27.23l-0.1,0.43l0.03,0.44c6.33,85.66,13.78,172.68,20.98,256.83
			c3.29,38.45,6.69,78.22,9.94,117.33c4.38,52.72,8.77,105.43,13.16,158.15c1.37,16.47,2.19,33.11,2.97,49.2
			c1.75,35.81,3.57,72.84,11.65,109.46c17.23,78.01,55.9,146.8,90.79,205.16c16.76,28.03,34.22,58.25,48.86,89.88
			c-7.02,4.81-11.27,10.18-9.76,12.55c1.63,2.56,9.47,0.52,17.65-4.69c8.18-5.21,13.5-11.53,11.73-13.94
			C371.42,1903.3,365.27,1904.69,358.48,1908.32z"/>
		<path class="st3" d="M411.15,1879.02c-18.36-31.16-39.45-58.97-56.01-79.96c-46.65-59.16-83.99-109.41-104.8-172.39
			c-13.49-40.83-19.92-85-20.86-143.23c-0.56-34.61-4.03-69.88-7.38-103.99c-1.44-14.61-2.92-29.72-4.15-44.5
			c-3.11-37.51-6.42-75.64-9.61-112.52c-7.01-80.96-14.27-164.67-19.97-247.07c1.23-10.74,9.45-21.19,16.71-30.41
			c1.05-1.34,2.08-2.65,3.06-3.91c17.05-22.16,35.99-42.53,55.52-63.18c58.65-62.02,120.92-120.87,179.47-175.22
			C557.2,596.74,677.16,493.49,793.17,393.64c25.22-21.71,51.3-44.16,76.91-66.28l1.31-1.13c28.19-24.35,57.34-49.53,87.21-72.73
			c2.59-2.02,5.24-4.17,8.04-6.45c11.99-9.77,25.56-20.82,39.43-24.04c31.55,3.26,65.06,16.85,94.65,28.85
			c3.13,1.27,6.23,2.53,9.29,3.76c79.83,32.09,154.04,77.79,217.34,118.1c146.55,93.33,311.99,147.01,471.98,198.93
			c43.52,14.12,88.52,28.72,132.54,43.92c30.57,10.56,62.08,19.17,92.56,27.5c14.21,3.89,28.84,7.9,43.3,12.07
			c0,2.72,1.38,5.12,3.8,6.06c3.44,1.34,7.68-0.79,9.45-4.74c1.77-3.95,0.41-8.24-3.03-9.59c-2.77-1.09-6.04,0.07-8.14,2.62
			c-14.63-4.23-29.43-8.29-43.8-12.22c-30.38-8.3-61.8-16.89-92.18-27.38c-44.07-15.22-89.1-29.83-132.65-43.96
			c-159.63-51.8-324.7-105.36-470.61-198.28c-63.52-40.46-138.02-86.32-218.32-118.6c-3.05-1.23-6.14-2.48-9.27-3.75
			c-30.11-12.21-64.24-26.05-96.79-29.31l-0.48-0.05l-0.47,0.1c-15.42,3.38-29.75,15.06-42.39,25.35c-2.77,2.26-5.39,4.39-7.93,6.36
			c-29.99,23.3-59.2,48.53-87.45,72.93l-1.31,1.13c-25.61,22.12-51.68,44.56-76.9,66.27C673.2,488.98,553.2,592.27,439.05,698.23
			c-58.63,54.43-120.98,113.35-179.75,175.5c-19.64,20.77-38.69,41.26-55.91,63.64c-0.96,1.25-1.98,2.54-3.02,3.86
			c-7.43,9.44-16.68,21.19-17.99,33.75l-0.03,0.26l0.02,0.26c5.71,82.54,12.97,166.37,20,247.44c3.19,36.87,6.5,75,9.61,112.5
			c1.23,14.83,2.72,29.96,4.16,44.59c3.34,33.99,6.8,69.14,7.35,103.5c0.95,58.86,7.48,103.58,21.16,145.01
			c21.11,63.91,58.76,114.6,105.78,174.23c16.46,20.88,37.44,48.53,55.64,79.44c-7.41,5.17-11.82,10.7-10.11,12.88
			c1.84,2.34,10.17-0.21,18.73-5.82c8.56-5.61,14-12.05,12.02-14.24C424.99,1873.13,418.36,1874.95,411.15,1879.02z"/>
		<path class="st3" d="M466.22,1847.23c-16.9-22.66-36.63-44.63-61.75-68.78c-3.29-3.16-6.58-6.31-9.87-9.46
			c-41.55-39.78-84.52-80.91-110.38-134.18c-17.7-36.45-28.07-78.53-30.82-125.06c-2.86-48.34-5.75-95.62-9.65-142.73
			c-2.94-35.52-6.11-71.64-9.18-106.57c-6.76-77.03-13.74-156.69-18.78-235.09c0.82-13.37,9.89-26.4,17.9-37.9
			c0.62-0.89,1.24-1.78,1.84-2.65c16.25-23.49,35.31-45.44,51.91-64.17c57.97-65.42,120.55-126.1,179.55-181.94
			C594.3,618.2,726.21,505.07,885.11,372.27c31.3-26.16,59.66-49.59,89.72-71.43c2.46-1.79,4.97-3.67,7.62-5.67
			c14.03-10.56,29.92-22.51,45.9-24.97c27.88,3.75,57.35,18.73,83.36,31.96c4.13,2.1,8.17,4.15,12.11,6.12
			c47.5,23.66,93.11,52.1,137.21,79.61c22.15,13.81,45.05,28.1,67.95,41.63c131.8,77.88,279.42,121.53,422.18,163.74
			c58.21,17.21,118.4,35.01,176.7,54.88c27.79,9.47,56.45,17.16,84.15,24.59c16.32,4.38,33.14,8.89,49.7,13.74
			c-0.02,2.73,1.37,5.15,3.81,6.08c3.45,1.31,7.69-0.83,9.45-4.76c1.77-3.93,0.4-8.18-3.05-9.5c-2.74-1.05-5.97,0.08-8.07,2.57
			c-16.77-4.92-33.78-9.49-50.28-13.92c-27.61-7.41-56.17-15.06-83.77-24.47c-58.41-19.91-118.67-37.73-176.93-54.96
			c-142.41-42.11-289.66-85.65-420.83-163.15c-22.84-13.5-45.71-27.76-67.83-41.56c-44.23-27.58-89.96-56.11-137.71-79.89
			c-3.93-1.96-7.96-4.01-12.07-6.1c-26.57-13.51-56.69-28.82-85.71-32.62l-0.41-0.05l-0.41,0.06c-17.64,2.54-34.33,15.1-49.05,26.17
			c-2.64,1.98-5.12,3.86-7.54,5.61c-30.22,21.95-58.66,45.45-90.05,71.68c-158.98,132.87-290.98,246.07-418.4,366.68
			c-59.09,55.93-121.79,116.73-179.91,182.32c-16.71,18.86-35.92,40.97-52.35,64.73c-0.6,0.86-1.21,1.74-1.83,2.63
			c-8.08,11.6-18.13,26.04-18.98,41.17l-0.01,0.18l0.01,0.18c5.05,78.54,12.04,158.29,18.81,235.42
			c3.06,34.92,6.23,71.03,9.17,106.54c3.9,47.04,6.79,94.28,9.64,142.58c2.8,47.32,13.37,90.17,31.41,127.33
			c26.33,54.24,69.69,95.75,111.63,135.89c3.29,3.15,6.58,6.3,9.86,9.46c24.76,23.8,44.21,45.44,60.86,67.71
			c-7.71,5.45-12.23,11.09-10.3,13.06c2.06,2.11,10.83-0.9,19.7-6.84c8.87-5.94,14.38-12.45,12.18-14.41
			C480.83,1840.59,473.78,1842.8,466.22,1847.23z"/>
		<path class="st3" d="M523.31,1813.37c-18.9-20.14-40.6-39-66.21-57.56c-7.89-5.71-16-11.44-23.85-16.97
			c-40.71-28.71-82.8-58.39-112.14-100.03c-40.72-57.78-44.73-127.57-48.62-195.06c-0.83-14.43-1.69-29.35-2.89-43.91
			c-2.78-33.56-5.8-67.7-8.73-100.71c-6.5-73.32-13.22-149.12-17.67-223.74c0.94-34.96,34.91-73.83,59.73-102.22
			c4.39-5.02,8.54-9.77,12.23-14.17c56.24-67.07,118.78-129.25,172.53-181.23C604.16,665.15,737.85,548.32,896.42,420.6
			c28.3-22.79,58.59-46.85,90.42-68.43c2.25-1.53,4.58-3.15,6.98-4.81c16.07-11.17,34.27-23.83,52.32-25.31
			c24.2,3.86,49.77,19.61,72.35,33.51c5.19,3.2,10.09,6.22,14.86,9.02c26.59,15.65,53.08,32.55,78.71,48.9
			c37.76,24.09,76.81,49,117.03,70.47c122.29,65.28,257.35,101.16,387.96,135.86c68.67,18.24,139.68,37.11,207.95,60.02
			c25.44,8.54,51.67,15.42,77.05,22.07c17.67,4.64,35.88,9.42,53.74,14.73c-0.04,2.73,1.36,5.15,3.83,6.06
			c3.46,1.28,7.7-0.86,9.46-4.77c1.76-3.91,0.38-8.11-3.08-9.4c-2.72-1.01-5.91,0.09-8.01,2.51c-18.1-5.4-36.53-10.24-54.42-14.93
			c-25.28-6.63-51.42-13.49-76.67-21.96c-68.45-22.97-139.55-41.86-208.32-60.13c-130.28-34.61-265-70.41-386.68-135.35
			c-40.02-21.36-78.97-46.21-116.63-70.24c-25.67-16.37-52.21-33.31-78.89-49.01c-4.71-2.77-9.59-5.78-14.76-8.96
			c-23.16-14.27-49.42-30.44-74.92-34.39l-0.34-0.05l-0.34,0.03c-19.8,1.47-39.67,15.29-55.64,26.39c-2.38,1.65-4.69,3.26-6.92,4.77
			c-32.02,21.71-62.42,45.86-90.82,68.73C733.95,543.76,600.12,660.71,483.52,773.46c-53.87,52.08-116.54,114.4-172.96,181.69
			c-3.65,4.35-7.78,9.08-12.15,14.08c-25.45,29.11-60.3,68.98-61.21,106.14l0,0.13l0.01,0.13c4.46,74.74,11.18,150.64,17.69,224.04
			c2.92,33,5.95,67.13,8.73,100.68c1.2,14.48,2.05,29.37,2.88,43.76c3.93,68.33,8,138.99,49.7,198.17
			c29.94,42.49,72.46,72.48,113.58,101.48c7.83,5.52,15.93,11.24,23.79,16.93c24.98,18.09,46.18,36.47,64.65,56.04
			c-7.93,5.67-12.47,11.33-10.34,13.1c2.27,1.89,11.43-1.53,20.56-7.73c9.12-6.2,14.64-12.72,12.22-14.46
			C538.55,1806.1,531.15,1808.65,523.31,1813.37z"/>
		<path class="st3" d="M600.05,1771.4c-2.31-1.33-9.99,1.51-18.03,6.44c-21.31-17.99-44.88-33.8-71.93-48.27
			c-11.48-6.14-23.37-12.11-34.87-17.89c-39.05-19.63-79.43-39.92-111.62-70.42c-55.93-52.99-61.22-120.53-66.83-192.04
			c-0.43-5.52-0.87-11.07-1.33-16.64c-2.61-31.56-5.48-63.67-8.25-94.72c-6.22-69.61-12.65-141.58-16.58-212.41
			c0.57-39.36,34.96-81.98,60.07-113.1c3.35-4.16,6.52-8.08,9.5-11.86c56-70.95,118.82-134.95,172.9-188.2
			C633.2,694,765.47,579.03,906.23,470.55c32.81-25.29,60.72-45.91,90.26-64.35c1.77-1.1,3.58-2.25,5.43-3.42
			c16.87-10.67,37.85-23.94,57.64-24.37c22.36,4.61,45.51,21.11,65.94,35.67c5.98,4.27,11.64,8.29,17.08,11.9l1.44,0.95
			c60.39,40.03,122.83,81.43,190.11,112.65c113.41,52.61,236.32,81.6,355.19,109.63c77.36,18.24,157.36,37.1,233.93,62.3
			c23.72,7.81,48.2,14.1,71.88,20.18c18.03,4.63,36.61,9.42,54.78,14.84c-0.04,2.72,1.37,5.12,3.85,6.01
			c3.47,1.25,7.7-0.89,9.45-4.77c1.75-3.88,0.36-8.03-3.11-9.29c-2.7-0.98-5.86,0.1-7.95,2.45c-18.45-5.53-37.27-10.37-55.54-15.07
			c-23.58-6.06-47.96-12.33-71.5-20.07c-76.81-25.27-156.94-44.17-234.42-62.44c-118.58-27.96-241.19-56.87-354.04-109.23
			c-66.87-31.02-129.12-72.29-189.32-112.2l-1.44-0.96c-5.36-3.55-10.97-7.55-16.91-11.79c-21.02-14.98-44.84-31.97-68.56-36.74
			l-0.31-0.06l-0.32,0c-21.58,0.31-43.48,14.17-61.08,25.3c-1.84,1.16-3.64,2.3-5.4,3.4c-29.75,18.57-57.8,39.29-90.75,64.68
			c-140.95,108.62-273.4,223.76-393.69,342.21c-54.21,53.38-117.2,117.55-173.4,188.76c-2.96,3.76-6.12,7.67-9.46,11.81
			c-25.68,31.83-60.86,75.43-61.4,116.89l0,0.1l0.01,0.1c3.93,70.96,10.37,143.02,16.6,212.71c2.77,31.04,5.64,63.14,8.25,94.68
			c0.46,5.56,0.89,11.1,1.33,16.62c5.7,72.69,11.08,141.35,68.69,195.93c32.83,31.11,73.62,51.61,113.06,71.43
			c11.47,5.76,23.32,11.72,34.74,17.82c26.11,13.96,48.92,29.19,69.56,46.44c-8.04,5.81-12.53,11.42-10.21,12.98
			c2.49,1.66,11.98-2.1,21.29-8.49C597.2,1779.4,602.68,1772.92,600.05,1771.4z"/>
		<path class="st3" d="M660.5,1734.08c-2.49-1.14-10.38,1.92-18.54,6.98c-23.27-15.53-48.24-28.34-76.21-39.08
			c-15.28-5.87-31.11-11.26-46.43-16.48c-38.17-13.02-77.64-26.47-112.13-48.35c-29.71-18.85-50.85-42.89-64.62-73.52
			c-11.56-25.69-18.3-56.65-21.22-97.43c-2.84-39.7-6.5-80.03-10.04-119.04c-5.1-56.23-10.37-114.38-13.29-171.63
			c0.38-44.14,34.07-89.16,61.14-125.33c2.05-2.75,4.06-5.43,6.01-8.05c28.65-38.57,73.62-95.02,167.9-190.01
			c122.52-123.45,250.51-234.17,380.39-329.1c27.54-20.12,57.41-41.25,89.32-59.36l3.52-2c18.49-10.55,41.48-23.67,62.83-22.73
			c20.12,4.73,40.77,20.87,59.01,35.12c6.64,5.19,12.92,10.09,18.93,14.3c65.15,45.54,129.52,80.38,196.77,106.51
			c102.99,40.02,212.4,62.57,318.21,84.38c85.56,17.64,174.03,35.87,258.51,63.24c22.72,7.36,46.16,13.28,68.83,19.02
			c18.02,4.56,36.59,9.26,54.73,14.66c-0.04,2.69,1.38,5.05,3.88,5.93c3.48,1.22,7.71-0.91,9.45-4.74c1.74-3.84,0.33-7.93-3.14-9.16
			c-2.68-0.94-5.81,0.1-7.9,2.4c-18.44-5.51-37.27-10.28-55.55-14.9c-22.58-5.71-45.92-11.61-68.45-18.91
			c-84.79-27.46-173.43-45.73-259.15-63.4c-105.56-21.76-214.72-44.26-317.25-84.1c-66.8-25.96-130.75-60.58-195.51-105.83
			c-5.88-4.11-12.1-8.97-18.67-14.11c-18.8-14.69-40.11-31.35-61.62-36.3l-0.52-0.07c-23.19-1.17-47.13,12.51-66.37,23.49l-3.5,2
			c-32.17,18.27-62.22,39.51-89.9,59.74C779.79,613.29,651.57,724.23,528.82,847.9c-49.67,50.04-113.7,116.93-168.46,190.66
			c-1.94,2.61-3.95,5.29-6,8.03c-27.62,36.9-61.99,82.82-62.34,128.97l0,0.09l0,0.09c2.92,57.41,8.2,115.64,13.31,171.96
			c3.53,38.98,7.19,79.28,10.03,118.92c2.97,41.51,9.88,73.12,21.73,99.47c14.27,31.73,36.15,56.63,66.88,76.12
			c35.09,22.26,74.91,35.84,113.41,48.96c15.26,5.2,31.04,10.58,46.21,16.41c26.73,10.26,50.66,22.43,72.97,37.1
			c-8.06,5.87-12.44,11.37-9.93,12.71c2.7,1.45,12.47-2.6,21.89-9.12S663.34,1735.37,660.5,1734.08z"/>
		<path class="st3" d="M721.61,1696.07c-2.66-0.95-10.68,2.26-18.9,7.37c-29.12-15.17-61.19-26.57-100.58-35.75
			c-13.35-3.11-26.85-5.85-41.16-8.74c-60.89-12.33-123.85-25.08-168.39-66.68c-26.8-25.03-42.47-59.9-46.58-103.62
			c-2.55-27.19-4.6-54.92-6.58-81.75c-1.17-15.85-2.38-32.24-3.69-48.35c-1.04-12.91-2.2-26.04-3.31-38.74
			c-2.71-30.89-5.52-62.82-6.98-94.22c0.22-49.67,35.28-99.67,63.46-139.85l1.92-2.75c53.28-76.03,115.8-143.1,164.31-193.03
			c124.51-128.15,243.78-230.57,364.61-313.1c25.49-17.41,55.89-37.39,88.11-53.58l0.54-0.27c19.84-9.97,44.52-22.38,67.21-20.1
			c18.73,5.01,36.94,19.56,54.55,33.64c7.51,6.01,14.61,11.68,21.52,16.41c53.87,36.89,118.75,67.29,198.34,92.94
			c93.79,30.22,191.97,47.62,286.92,64.44c93.42,16.55,190.01,33.67,282.13,62.98c21.42,6.81,43.52,12.31,64.9,17.63
			c17.95,4.47,36.45,9.07,54.49,14.45c-0.03,2.65,1.4,4.98,3.91,5.84c3.48,1.19,7.71-0.92,9.44-4.7c1.73-3.79,0.3-7.82-3.18-9.02
			c-2.66-0.91-5.75,0.1-7.83,2.32c-18.37-5.49-37.15-10.17-55.38-14.71c-21.29-5.29-43.3-10.77-64.53-17.52
			c-92.49-29.43-189.29-46.58-282.9-63.17c-94.75-16.79-192.73-34.15-286.12-64.24c-79.03-25.46-143.4-55.62-196.79-92.18
			c-6.73-4.61-13.74-10.21-21.17-16.15c-17.32-13.84-36.95-29.54-56.99-34.81l-0.45-0.08c-24.49-2.57-50.15,10.33-70.76,20.69
			l-0.54,0.27c-32.53,16.35-63.14,36.47-88.8,53.99C795.2,654.66,675.63,757.33,550.83,885.78
			c-48.67,50.09-111.4,117.39-164.92,193.77l-1.92,2.74c-28.67,40.89-64.35,91.77-64.54,143.35l0,0.08l0,0.08
			c1.47,31.55,4.28,63.57,7,94.55c1.11,12.69,2.27,25.81,3.31,38.7c1.3,16.08,2.51,32.47,3.68,48.31
			c1.98,26.85,4.04,54.62,6.59,81.87c4.25,45.23,20.55,81.38,48.45,107.45c45.77,42.76,109.58,55.68,171.29,68.17
			c14.26,2.89,27.72,5.61,40.98,8.71c37.58,8.76,68.39,19.55,96.29,33.74c-7.97,5.85-12.16,11.17-9.49,12.3
			c2.9,1.23,12.88-3.04,22.35-9.6C719.39,1703.41,724.65,1697.16,721.61,1696.07z"/>
		<path class="st3" d="M782.95,1657.81c-2.8-0.78-10.87,2.52-19.05,7.6c-47.91-19.41-100.5-24.49-151.4-29.4
			c-59.45-5.73-120.93-11.66-173.84-40.75c-29.6-16.27-48.61-39.42-59.84-72.85c-9.96-29.66-12.32-63.82-14.59-96.85
			c-0.5-7.26-1.02-14.77-1.61-22.11c-0.98-12.18-2.06-24.57-3.11-36.55c-2.61-29.91-5.32-60.83-6.65-91.23
			c0.28-56.03,38.38-113.64,63.59-151.77c41.11-62.17,91.6-123.6,163.72-199.2C702.6,796.36,811.15,704.04,921.79,634.18
			c4.3-2.71,8.76-5.58,13.47-8.62c41.07-26.43,97.3-62.62,144.79-56.19c17.42,4.68,34.26,17.51,50.55,29.91
			c8.8,6.7,17.12,13.04,25.45,18.09c64.89,39.34,141.11,61.87,207.12,78.72c81.29,20.75,165.49,33.08,246.92,45.01
			c100.74,14.75,204.92,30.01,303.91,61.34c21.33,6.75,43.34,12.19,64.63,17.44c17.88,4.42,36.3,8.98,54.27,14.3
			c-0.01,2.6,1.43,4.88,3.94,5.72c3.49,1.16,7.71-0.92,9.42-4.64c1.71-3.73,0.27-7.69-3.22-8.86c-2.64-0.88-5.69,0.09-7.77,2.23
			c-18.31-5.44-37.03-10.08-55.2-14.57c-21.19-5.24-43.11-10.65-64.25-17.34c-99.45-31.47-203.87-46.76-304.85-61.55
			c-81.28-11.9-165.32-24.21-246.31-44.89c-65.58-16.74-141.28-39.1-205.49-78.04c-8.06-4.89-16.26-11.13-24.93-17.73
			c-16.81-12.8-34.19-26.03-52.82-30.98l-0.36-0.07c-49.73-6.85-107.13,30.09-149.04,57.07c-4.71,3.03-9.15,5.89-13.43,8.59
			c-111.06,70.13-219.98,162.74-342.75,291.45c-72.37,75.87-123.07,137.56-164.38,200.03c-25.62,38.74-64.33,97.28-64.59,155.12
			l0,0.07l0,0.07c1.34,30.55,4.05,61.57,6.67,91.56c1.05,11.97,2.13,24.35,3.11,36.5c0.59,7.31,1.1,14.8,1.6,22.04
			c4.65,67.42,9.45,137.13,77.52,174.55c54,29.69,116.1,35.67,176.15,41.47c49.13,4.74,99.85,9.64,145.96,27.5
			c-7.79,5.75-11.74,10.83-8.92,11.77c3.09,1.03,13.23-3.4,22.68-9.94C781.09,1664.77,786.18,1658.71,782.95,1657.81z"/>
		<path class="st3" d="M844.11,1619.75c-2.93-0.62-10.97,2.7-19.05,7.68c-55.93-17.36-114.7-17.9-171.58-18.41
			c-54.24-0.49-110.33-0.99-163.36-16.21c-35.66-10.23-61.78-27.38-77.63-50.97c-17.89-26.62-20.32-58.48-22.67-89.29
			c-0.2-2.63-0.4-5.25-0.61-7.87c-0.9-11.22-1.89-22.64-2.86-33.69c-2.44-27.94-4.97-56.84-6.07-85.23
			c0.3-58.09,32.67-114.48,62.99-162.78c39.55-63,90.29-126.94,159.67-201.21c55.94-59.88,103.74-106.63,150.42-147.12
			c57.78-50.11,113.46-90.2,170.2-122.54c2.37-1.35,4.78-2.73,7.24-4.14c43.09-24.67,102.1-58.46,152.99-50.88
			c16.18,3.95,31.94,14.05,47.18,23.81c10.91,6.99,22.2,14.22,33.55,19.12c60.31,26.05,129.08,46.5,210.24,62.53
			c70.46,13.92,142.94,22.48,213.04,30.76c107.79,12.73,219.25,25.9,325,58.82c20.44,6.36,41.52,11.53,61.9,16.53
			c17.39,4.27,35.31,8.67,52.8,13.8c0.01,2.54,1.47,4.75,3.98,5.54c3.51,1.1,7.7-0.87,9.39-4.53c1.69-3.66,0.23-7.55-3.27-8.69
			c-2.62-0.85-5.63,0.08-7.69,2.13c-17.84-5.26-36.07-9.74-53.77-14.08c-20.29-4.98-41.28-10.12-61.54-16.43
			c-106.28-33.09-218.02-46.29-326.07-59.05c-69.98-8.27-142.35-16.81-212.58-30.68c-80.74-15.94-149.11-36.27-209.02-62.15
			c-10.91-4.71-21.99-11.81-32.7-18.67c-15.7-10.06-31.93-20.45-49.13-24.62l-0.26-0.05c-52.98-7.97-113.1,26.45-156.99,51.58
			c-2.45,1.4-4.86,2.78-7.23,4.13c-57.09,32.54-113.08,72.84-171.16,123.22c-46.85,40.63-94.79,87.52-150.88,147.55
			c-69.65,74.56-120.61,138.78-160.37,202.12c-30.77,49.02-63.62,106.31-63.91,166.01l0,0.07l0,0.06
			c1.1,28.56,3.64,57.55,6.09,85.59c0.97,11.03,1.96,22.44,2.86,33.64c0.21,2.61,0.41,5.23,0.61,7.85
			c2.41,31.59,4.9,64.25,23.67,92.18c16.66,24.8,43.9,42.76,80.95,53.39c53.82,15.44,110.32,15.95,164.96,16.44
			c54.86,0.49,111.5,1.02,165.22,16.74c-7.52,5.57-11.17,10.36-8.22,11.13c3.27,0.85,13.49-3.68,22.86-10.13
			C842.65,1626.3,847.51,1620.46,844.11,1619.75z"/>
		<path class="st3" d="M904.66,1582.31c-3.03-0.47-10.95,2.79-18.86,7.59c-64.07-15.1-130.1-10.72-193.98-6.47
			c-47.65,3.17-96.92,6.45-144.9,1.58c-95.77-9.72-123.8-58.76-130.46-98.19c-6.18-36.59-7.55-76.12-8.76-111.01
			c0.09-60.48,30.6-120.21,60.43-170.67c38.17-64.57,87.2-128.99,154.3-202.74c39.51-43.43,87.04-94.05,139.99-140.25
			c54.79-47.8,107.88-84.27,162.31-111.5c45.12-22.57,106.91-53.48,163.69-46.13c7.88,1.53,15.52,5.4,22.91,9.13
			c1.85,0.94,3.69,1.87,5.53,2.76c18.73,9.1,38.85,15.67,58.3,22.03l1.46,0.48c63.42,20.73,132.56,36.04,217.59,48.18
			c57.63,8.23,116.65,13.51,173.73,18.62c113.67,10.18,231.21,20.7,342.5,55c20.86,6.43,42.35,11.6,63.12,16.6
			c16.06,3.87,32.61,7.85,48.81,12.41c0.08,2.38,1.56,4.46,4.03,5.22c3.51,1.08,7.7-0.88,9.35-4.39s0.14-7.23-3.37-8.32
			c-2.58-0.79-5.51,0.06-7.55,1.95c-16.58-4.68-33.48-8.76-49.87-12.71c-20.69-4.98-42.08-10.13-62.76-16.5
			c-111.89-34.49-229.76-45.04-343.74-55.25c-57-5.1-115.94-10.38-173.41-18.58c-84.68-12.09-153.49-27.33-216.57-47.95l-1.46-0.48
			c-19.26-6.3-39.18-12.81-57.54-21.72c-1.8-0.88-3.62-1.79-5.44-2.71c-7.79-3.94-15.85-8.01-24.58-9.69l-0.18-0.03
			c-58.62-7.64-121.4,23.77-167.24,46.7c-54.89,27.46-108.4,64.21-163.57,112.35c-53.18,46.4-100.86,97.18-140.48,140.73
			c-67.38,74.06-116.65,138.8-155.03,203.73c-30.25,51.17-61.19,111.83-61.26,173.77l0,0.11c1.22,35.08,2.59,74.85,8.84,111.85
			c7.01,41.49,36.25,93.06,135.77,103.16c48.48,4.92,98.01,1.62,145.9-1.56c61.61-4.1,125.22-8.32,186.72,5.08
			c-7.18,5.33-10.48,9.79-7.43,10.39c3.43,0.68,13.67-3.86,22.89-10.16C903.61,1588.43,908.22,1582.87,904.66,1582.31z"/>
		<path class="st3" d="M964.18,1545.97c-3.11-0.35-10.83,2.79-18.49,7.35c-71.58-12.5-144.69-2.8-215.42,6.61
			c-39.89,5.3-81.14,10.79-121.4,12.15c-25.12,0.85-57.72,0.91-87.12-6.2c-32.66-7.9-55.25-22.85-69.07-45.72
			c-15.59-25.8-16.56-59.35-17.41-88.96l-0.16-5.28c0.41-67.27,31.77-131.81,59.05-180.53c36.82-65.75,86.43-133.32,151.67-206.56
			c38.99-43.77,80.96-89.93,127.48-130.79c50.65-44.49,100.19-76.69,151.44-98.44c55.21-23.43,114.15-44.45,171.05-39.72
			c20.43,2.45,41.32,8.53,61.53,14.41c11.74,3.41,23.88,6.94,35.71,9.69c65.21,15.15,135.81,26.03,222.19,34.26
			c44.91,4.28,90.69,7.19,134.96,10.01c118.83,7.57,241.71,15.39,358.39,50.4c19.63,5.89,39.86,10.66,59.42,15.27
			c16.27,3.84,33.04,7.79,49.43,12.39c0.11,2.32,1.6,4.33,4.06,5.08c3.52,1.07,7.69-0.84,9.32-4.27c1.63-3.43,0.1-7.09-3.41-8.16
			c-2.55-0.77-5.44,0.03-7.46,1.83c-16.79-4.73-33.93-8.78-50.56-12.7c-19.47-4.59-39.6-9.33-59.07-15.17
			c-117.34-35.2-240.57-43.05-359.73-50.64c-44.23-2.82-89.96-5.73-134.77-10c-86.11-8.2-156.46-19.05-221.4-34.13
			c-11.67-2.71-23.73-6.22-35.39-9.61c-20.46-5.95-41.61-12.1-62.55-14.61l-0.11-0.01c-27.1-2.26-56.34,0.92-89.37,9.74
			c-30.58,8.17-59.92,19.96-84.58,30.43c-51.86,22-101.92,54.53-153.06,99.45c-46.78,41.09-88.88,87.4-128,131.31
			c-65.53,73.57-115.39,141.48-152.43,207.62c-27.64,49.36-59.42,114.82-59.82,183.48l0.16,5.44c0.88,30.35,1.87,64.74,18.27,91.89
			c14.48,23.97,38.97,40.27,72.79,48.45c22.27,5.39,46.19,6.76,67.46,6.76c7.48,0,14.63-0.17,21.27-0.39
			c40.55-1.37,81.95-6.87,121.99-12.2c68.18-9.07,138.59-18.41,207.27-7.69c-6.74,5.01-9.66,9.09-6.53,9.56
			c3.57,0.53,13.77-3.96,22.76-10.03C963.56,1551.63,967.87,1546.38,964.18,1545.97z"/>
		<path class="st3" d="M2469.66,1673c-24.21-82.77-59.9-161.26-106.06-233.29c-84.2-131.38-209.94-226.57-373.82-283.02
			c-0.56-0.19-1.11-0.38-1.67-0.57c-0.01-0.09-0.03-0.19-0.05-0.28c-0.02-0.07-0.04-0.14-0.06-0.21c-0.03-0.11-0.06-0.22-0.1-0.32
			c-0.02-0.07-0.05-0.13-0.08-0.2c-0.04-0.11-0.08-0.21-0.13-0.31c-0.03-0.07-0.07-0.14-0.11-0.21c-0.05-0.09-0.1-0.19-0.16-0.28
			c-0.05-0.08-0.1-0.15-0.15-0.23c-0.05-0.08-0.1-0.15-0.16-0.23c-0.07-0.09-0.14-0.17-0.21-0.25c-0.05-0.06-0.1-0.12-0.16-0.18
			c-0.02-0.02-0.04-0.05-0.07-0.08c-0.06-0.06-0.13-0.12-0.19-0.18c-0.05-0.05-0.11-0.1-0.16-0.15c-0.09-0.08-0.19-0.16-0.29-0.24
			c-0.06-0.05-0.12-0.1-0.19-0.14c-0.1-0.07-0.2-0.13-0.3-0.2c-0.08-0.05-0.16-0.1-0.24-0.15c-0.09-0.05-0.19-0.1-0.28-0.15
			c-0.1-0.05-0.2-0.1-0.3-0.15c-0.03-0.02-0.06-0.03-0.1-0.05c-0.05-0.02-0.11-0.04-0.16-0.06c-0.12-0.05-0.24-0.1-0.37-0.14
			c-0.04-0.01-0.07-0.03-0.1-0.04c-0.05-0.02-0.11-0.03-0.16-0.05c-0.12-0.04-0.24-0.07-0.37-0.11c-0.11-0.03-0.22-0.05-0.32-0.07
			c-0.1-0.02-0.21-0.04-0.31-0.06c-0.14-0.02-0.27-0.04-0.41-0.06c-0.05-0.01-0.1-0.02-0.15-0.02c-0.03,0-0.07,0-0.1-0.01
			c-0.15-0.01-0.3-0.02-0.45-0.02c-0.08,0-0.17-0.01-0.25-0.01c-0.05,0-0.1,0-0.15,0c-0.09,0-0.17,0.01-0.26,0.01
			c-0.1,0-0.19,0.01-0.28,0.02c-0.12,0.01-0.24,0.02-0.35,0.04c-0.11,0.01-0.22,0.03-0.33,0.05c-0.1,0.02-0.2,0.04-0.3,0.06
			c-0.12,0.02-0.24,0.05-0.35,0.08c-0.09,0.02-0.18,0.05-0.27,0.08c-0.12,0.03-0.24,0.07-0.35,0.11c-0.09,0.03-0.18,0.07-0.27,0.1
			c-0.11,0.04-0.22,0.08-0.33,0.13c-0.1,0.04-0.19,0.09-0.29,0.13c-0.09,0.05-0.19,0.09-0.28,0.14c-0.1,0.06-0.2,0.11-0.3,0.17
			c-0.03,0.02-0.07,0.04-0.1,0.06c-57.4-19.13-125.25-38.78-197.12-43.07c-97.17-5.81-196.01,6.66-271.26,18.18
			c-108.51,16.6-217.3,41.98-322.52,66.53c-23.19,5.41-47.18,11.01-70.79,16.42c-70.15,16.09-119.76,44.04-165.91,93.48
			c-29.4,31.5-58.69,69.04-89.54,114.8c-1.41,2.1-3.62,5.09-6.41,8.89c-13.5,18.36-36.64,49.85-41.27,73.97
			c-1.93,0.58-3.86,1.15-5.79,1.72c-10.31,2.98-21.13,6.1-32.26,9.08c-2.36-13.95,8.67-32.61,16.16-45.27
			c1.19-2.01,2.3-3.89,3.28-5.61c13.06-22.96,28.1-46.92,45.99-73.27c31.47-46.35,59.89-82.68,89.45-114.35
			c19.8-21.21,43.99-44.97,73.27-60.35c24.41-12.81,51.69-18.18,78.07-23.37c52.32-10.29,105.07-22.43,156.08-34.16
			c70.97-16.32,144.35-33.21,217.58-45.36c115.76-18.41,215.74-25.1,305.64-20.47c65.45,3.37,133.07,17.23,218.53,44.8
			c0.32,1.91,1.8,3.61,4.11,4.37c3.49,1.15,7.55-0.3,9.05-3.25c1.5-2.95-0.12-6.27-3.62-7.4c-2.33-0.76-4.9-0.36-6.81,0.86
			c-86.39-27.93-154.74-41.96-220.95-45.37c-90.32-4.66-190.71,2.06-306.91,20.54c-73.43,12.19-146.9,29.09-217.96,45.43
			c-50.97,11.72-103.67,23.85-155.9,34.12c-26.81,5.27-54.53,10.73-79.71,23.95c-30.08,15.79-54.73,39.98-74.87,61.57
			c-29.77,31.9-58.38,68.46-90.02,115.07c-17.98,26.47-33.1,50.57-46.24,73.67c-0.96,1.69-2.06,3.54-3.23,5.52
			c-8.03,13.57-19.87,33.61-16.81,49.86c-0.99,0.26-1.98,0.51-2.97,0.76c-10.22,2.5-20.47,4.84-30.74,6.98
			c-4.45-5-4.98-13.68-1.53-25.84c6.22-21.96,19.01-42.97,31.39-63.28c2.38-3.91,4.84-7.95,7.17-11.86
			c14.57-24.49,30.64-49.33,47.75-73.82c30.47-43.6,57.71-77.86,85.74-107.83c42.87-45.85,82.16-67.44,140.12-77.01
			c60.85-10.05,121.91-24.26,180.95-38c56.04-13.04,113.98-26.53,171.63-36.43c117.29-19.72,232.15-27.3,341.37-22.54
			c74.49,3.25,151.86,18.19,242.98,46.93c0.3,1.93,1.79,3.65,4.11,4.4c3.5,1.13,7.56-0.37,9.07-3.35c1.51-2.98-0.11-6.31-3.61-7.42
			c-2.35-0.75-4.95-0.31-6.86,0.95c-92.03-29.09-170.16-44.2-245.44-47.49c-109.64-4.79-224.92,2.82-342.63,22.62
			c-57.84,9.93-115.87,23.44-171.99,36.5c-58.95,13.72-119.91,27.91-180.57,37.93c-59.41,9.81-99.65,31.91-143.52,78.83
			c-28.22,30.18-55.64,64.65-86.27,108.49c-17.2,24.61-33.35,49.57-47.99,74.19c-2.31,3.89-4.66,7.73-7.14,11.81
			c-12.58,20.65-25.59,42.01-32.03,64.77c-3.52,12.44-3.24,22.06,0.79,28.71c-4.18,0.74-8.37,1.42-12.55,2.02l-2.86,0.41
			c-0.25,0.04-0.5,0.07-0.75,0.11c-8.79-1.04-14.86-4.05-18.09-9.01c-8.54-13.11,2.69-39.47,11.89-58.15
			c45.34-92.12,106.41-180.3,176.62-255.01c35.1-37.35,70.62-63.9,129.86-72.04c62.29-8.56,124.55-23.01,184.77-36.99
			c47.4-11.01,96.42-22.39,145.1-30.81c120.85-20.32,247.41-28.28,376.19-23.68c84.04,3,169.34,18.61,267.95,49.02
			c0.29,1.96,1.78,3.69,4.12,4.43c3.51,1.11,7.58-0.44,9.1-3.46s-0.09-6.37-3.6-7.46c-2.37-0.74-5-0.27-6.92,1.04
			c-99.52-30.77-185.59-46.54-270.43-49.57c-129.18-4.62-256.15,3.38-377.41,23.76c-48.87,8.45-97.97,19.85-145.45,30.88
			c-60.08,13.95-122.21,28.37-184.23,36.89c-60.99,8.38-97.45,35.59-133.42,73.87c-70.61,75.14-132.03,163.82-177.63,256.46
			c-10.67,21.69-21.63,48.57-11.53,64.07c2.04,3.13,4.85,5.66,8.4,7.58c-13.02,1.24-26.96,1.11-36.88-4.72
			c-28.23-16.59-1.8-63.54,13.99-91.59c2.56-4.55,4.77-8.47,6.45-11.74c45.84-89.42,108.1-176.83,180.04-252.79
			c36.17-38.19,69.46-63.12,123.55-69.36c59.85-6.91,119.48-20.46,177.14-33.56c41.39-9.41,84.19-19.13,126.7-26.32
			c119.87-19.79,257.44-27.59,408.89-23.17c92.61,2.7,188.59,19.48,293.23,51.24c0.27,2,1.76,3.76,4.12,4.49
			c3.51,1.09,7.6-0.5,9.13-3.57c1.53-3.07-0.07-6.43-3.59-7.51c-2.39-0.73-5.05-0.22-6.98,1.14
			c-105.52-32.1-202.31-49.05-295.74-51.78c-151.83-4.43-289.79,3.39-410.06,23.25c-42.68,7.21-85.57,16.96-127.04,26.38
			c-57.51,13.07-116.97,26.58-176.5,33.45c-55.9,6.45-90.12,32.02-127.22,71.19c-72.33,76.36-134.92,164.25-181.02,254.18
			c-1.62,3.17-3.81,7.05-6.34,11.54c-8.04,14.29-19.06,33.85-24.23,52.31c-6.4,22.84-2.22,38.78,12.43,47.39
			c3.36,1.97,7.05,3.37,10.94,4.34c-25.87,1.6-52.83-1.96-59.28-24.36c-4.45-15.48,2.86-32.77,9.31-48.02
			c0.67-1.58,1.32-3.13,1.95-4.65c10.55-25.45,22.97-51.45,36.92-77.28c46.74-86.54,110.17-172.73,183.42-249.23
			c36.91-38.55,69.68-63.51,118.89-68.82c54.72-5.91,109.14-17.63,161.77-28.97c38.07-8.2,77.43-16.68,116.57-22.89
			c49.97-7.65,101.7-10.27,151.73-12.8c8.97-0.45,17.92-0.91,26.85-1.39c77.79-4.19,169.46-8.16,259.46-5.91
			c102,2.55,206.32,20.14,318.69,53.72c0.25,2.04,1.74,3.83,4.12,4.56c3.51,1.08,7.62-0.57,9.16-3.69c1.55-3.12-0.05-6.51-3.57-7.58
			c-2.42-0.73-5.11-0.18-7.06,1.24c-113.25-33.92-218.37-51.67-321.2-54.25c-90.21-2.26-182.02,1.73-259.93,5.92
			c-8.93,0.48-17.87,0.93-26.83,1.39c-50.18,2.54-102.07,5.17-152.35,12.87c-39.32,6.24-78.77,14.74-116.91,22.96
			c-52.48,11.31-106.75,23-161.15,28.87c-51.03,5.51-84.73,31.11-122.58,70.64c-73.62,76.88-137.37,163.51-184.37,250.52
			c-14.05,26.01-26.56,52.19-37.19,77.83c-0.62,1.51-1.27,3.04-1.94,4.61c-6.5,15.37-14.59,34.5-9.55,52.02
			c5.15,17.9,20.63,25.52,38.83,28.02c-5.98,0.06-11.95-0.02-17.91-0.29c-22.46-1.06-39.1-7.81-48.12-19.52
			c-7.44-9.65-9.51-22.53-6.14-38.28c10.33-48.35,37.95-97.29,62.33-140.46l0.05-0.09c48.43-85.79,112.11-169.6,189.26-249.09
			c32.85-33.85,66.63-64.74,118.43-70.89c46.22-5.49,92.31-14.91,136.89-24.02c38.2-7.81,77.71-15.88,117.04-21.43
			c43.16-5.7,88.03-6.45,131.43-7.16c17.26-0.29,35.11-0.58,52.52-1.19l2.8-0.1c89.87-3.13,182.81-6.36,274.17-4.24
			c110.9,2.57,223.51,21.13,344.06,56.67c0.22,2.09,1.72,3.91,4.12,4.64c3.52,1.07,7.63-0.63,9.2-3.8c1.56-3.17-0.03-6.61-3.55-7.67
			c-2.44-0.73-5.17-0.14-7.13,1.35c-121.41-35.87-234.84-54.59-346.56-57.19c-91.53-2.12-184.56,1.11-274.52,4.25l-2.8,0.1
			c-17.35,0.6-35.17,0.9-52.41,1.18c-43.56,0.72-88.61,1.47-132.14,7.22c-39.54,5.58-79.14,13.67-117.43,21.5
			c-44.45,9.09-90.42,18.48-136.39,23.94c-53.75,6.39-88.39,38.02-122.02,72.67c-77.51,79.86-141.49,164.08-190.17,250.32
			l-0.05,0.09c-24.59,43.55-52.45,92.91-62.97,142.16c-3.75,17.55-1.31,32.09,7.26,43.2c10.13,13.15,28.32,20.7,52.6,21.85
			c1.31,0.06,2.62,0.09,3.92,0.13c-23.71,0.88-50.95,0.31-73.5-10.35c-16.43-8.14-24.33-21.69-24.14-41.43
			c0.17-17.97,7.06-38.24,12.09-53.03c15.02-44.2,35.87-88.8,63.74-136.35c49.59-84.61,116.03-169.43,197.47-252.11
			c36.31-36.86,70.57-68.01,122.2-75.76c34.21-5.14,68.66-12.41,101.96-19.45c42.76-9.03,86.97-18.37,130.98-23.23
			c29.51-3.09,60.18-1.98,89.84-0.9c10.95,0.4,22.27,0.81,33.31,1c71.75,1.22,144.54,0.86,212.51,0.28
			c128.22-1.09,273.55-2.32,409.05,35.43c15.99,4.45,32.38,8.4,48.24,12.21c17.03,4.09,34.57,8.32,51.71,13.2
			c0.2,2.13,1.7,3.99,4.11,4.72c3.52,1.06,7.65-0.69,9.23-3.92s0-6.71-3.52-7.77c-2.47-0.74-5.24-0.09-7.22,1.48
			c-17.56-5.03-35.5-9.35-52.91-13.54c-15.8-3.8-32.15-7.73-48.03-12.15c-136.32-37.98-282.1-36.74-410.71-35.65
			c-67.93,0.58-140.68,0.94-212.36-0.28c-10.99-0.19-22.28-0.6-33.2-0.99c-29.87-1.08-60.75-2.21-90.7,0.93
			c-44.32,4.9-88.68,14.27-131.57,23.33c-33.22,7.02-67.58,14.27-101.61,19.38c-24.38,3.66-47.01,12.79-69.19,27.91
			c-19.12,13.04-36.37,29.25-56.39,49.57c-81.79,83.03-148.53,168.25-198.37,253.28c-28.08,47.9-49.09,92.86-64.24,137.45
			c-5.16,15.18-12.23,35.97-12.41,54.91c-0.21,21.96,9.03,37.73,27.52,46.89c19.25,9.1,41.36,11.24,62.06,11.24
			c4.95,0,9.81-0.12,14.54-0.3c38.51-1.45,76.84-8.15,114.62-16.73c0.38,0.08,0.77,0.16,1.16,0.23c-2.48,0.51-4.95,1.02-7.45,1.54
			c-57.72,11.98-123.14,25.56-181.36,12.16c-18.07-4.16-42.23-13.36-54.77-33.58c-16.62-29.56-0.94-72.89,10.51-104.53
			c1.06-2.93,2.09-5.77,3.05-8.49c15.49-43.73,37.39-88.45,66.96-136.72c51.65-84.32,118.76-167.24,205.17-253.49
			c43.35-43.27,78.37-70.87,129.07-83.91c65.76-16.9,140.29-36.06,215.23-42.13c26.64-1.88,54.43,1.13,81.31,4.03
			c11.24,1.22,22.86,2.47,34.14,3.33c63.66,4.87,133.52,7.94,219.88,9.66c16.99,0.34,34.24,0.61,50.93,0.86
			c128.21,1.99,260.78,4.05,387.56,40.11c17.4,4.95,35.27,9.19,52.55,13.3c16.77,3.98,34.05,8.1,50.94,12.86
			c0.17,2.19,1.67,4.09,4.1,4.82c3.52,1.06,7.66-0.75,9.26-4.04c1.59-3.29,0.03-6.83-3.49-7.88c-2.5-0.75-5.3-0.05-7.3,1.59
			c-17.3-4.91-34.97-9.11-52.12-13.19c-17.22-4.09-35.02-8.32-52.29-13.23c-127.54-36.28-260.51-38.34-389.11-40.34
			c-16.68-0.26-33.93-0.53-50.9-0.86c-86.24-1.72-156-4.78-219.54-9.65c-11.18-0.86-22.76-2.11-33.95-3.32
			c-27.14-2.93-55.21-5.97-82.41-4.05c-75.48,6.11-153.54,26.18-216.27,42.3c-25.44,6.54-48.91,17.43-71.77,33.3
			c-22.52,15.63-42.99,35.15-60.05,52.17C695.4,1092.01,628,1175.3,576.1,1260.02c-29.79,48.64-51.87,93.73-67.5,137.85
			c-0.96,2.71-1.98,5.54-3.04,8.46c-11.85,32.75-28.09,77.61-10.07,109.57l0.06,0.1c13.62,22.02,39.36,31.9,58.56,36.32
			c17.62,4.06,35.82,5.71,54.23,5.71c43.74,0,88.64-9.32,129.69-17.84c3.21-0.67,6.4-1.33,9.57-1.98c11.14-2.3,22.42-4.8,33.7-7.38
			c0.3,0.14,0.58,0.31,0.89,0.44c3.08,1.36,6.55,2.21,10.3,2.65c-6.72,1.26-13.43,2.54-20.12,3.81
			c-31.84,6.06-64.77,12.32-96.81,16.57c-26.55,3.52-61.37,7.36-95.17,5.75c-39.16-1.86-68.96-10.77-88.59-26.5
			c-17.2-13.77-27.03-33.21-29.23-57.75c-0.2-34.46,5.5-91.49,56.83-188.72c36.35-68.85,85.63-138.48,150.68-212.86
			c44.85-51.28,97.58-109.89,155.98-156.48c31.95-25.49,67.43-39.57,101.01-50.99c64.01-21.76,123.69-33.8,182.39-36.79
			c24.02-0.72,49.18,4.2,73.52,8.97c11.03,2.16,22.44,4.39,33.42,6.02c64.96,9.62,134.77,16.28,219.71,20.97
			c32.81,1.81,66.16,3.09,98.41,4.33c122.91,4.72,250,9.59,371.14,45c18.69,5.46,37.92,10,56.52,14.39
			c16.61,3.92,33.72,7.96,50.44,12.66c0.14,2.25,1.63,4.21,4.08,4.95c3.52,1.06,7.68-0.8,9.29-4.16c1.61-3.36,0.07-6.95-3.45-8.01
			c-2.52-0.76-5.37-0.01-7.37,1.71c-17.13-4.84-34.63-8.98-51.6-12.98c-18.52-4.37-37.67-8.89-56.21-14.3
			c-121.86-35.62-249.33-40.51-372.6-45.24c-32.23-1.24-65.55-2.51-98.31-4.32c-84.75-4.67-154.39-11.32-219.16-20.91
			c-10.84-1.61-22.18-3.83-33.15-5.97c-24.66-4.83-50.16-9.82-74.91-9.07c-59.33,3.02-119.54,15.16-184.08,37.11
			c-34.09,11.59-70.15,25.91-102.82,51.98c-58.79,46.9-111.74,105.74-156.75,157.22c-65.35,74.73-114.9,144.73-151.47,214.01
			c-24.91,47.2-57.98,118.41-57.52,191.69l0.01,0.25c2.33,26.3,12.91,47.17,31.47,62.03c20.63,16.53,51.61,25.88,92.06,27.81
			c5.55,0.26,11.12,0.38,16.68,0.38c28.76,0,57.1-3.2,79.56-6.18c32.21-4.27,65.22-10.55,97.14-16.62
			c19.68-3.74,39.53-7.52,59.48-10.88c1.59,0.18,3.22,0.28,4.88,0.28c9.48,0,19.93-2.73,28.93-5.5c43.16-5.96,86.6-8.85,129.61-4.3
			c-6.21,4.61-8.71,8.29-5.53,8.64c3.7,0.4,13.76-3.96,22.47-9.73c8.71-5.77,12.69-10.68,8.89-10.97
			c-3.15-0.24-10.59,2.7-17.95,6.94c-35.98-4.52-72.18-3.73-108.25-0.12c19.83-6.98,39.33-15.21,58.44-23.63
			c32.73-4.45,65.57-6.47,98.26-4.27c-5.6,4.16-7.64,7.4-4.47,7.65c3.79,0.3,13.66-3.85,22.02-9.26c8.36-5.4,11.97-9.93,8.08-10.14
			c-3.15-0.17-10.23,2.52-17.21,6.38c-29.32-2.6-58.71-1.73-88.01,1.33c0.15-0.07,0.29-0.13,0.44-0.2l4.54-2.03
			c14.2-6.34,28.52-12.86,42.69-19.34c28.64-4.27,57.38-6.46,86.09-5.32c-4.92,3.66-6.48,6.44-3.34,6.63
			c3.86,0.23,13.46-3.64,21.39-8.6s11.15-9.08,7.21-9.22c-3.11-0.12-9.73,2.25-16.25,5.65c-25.55-1.62-51.09-0.56-76.54,2.35
			c0.84-0.39,1.69-0.77,2.53-1.16c13.06-6,26.22-12.04,39.45-18.05c25.64-4.12,51.38-6.37,77.14-5.81c-4.14,3.1-5.24,5.42-2.19,5.57
			c3.9,0.18,13.14-3.31,20.59-7.76c7.45-4.45,10.24-8.12,6.27-8.24c-3.03-0.09-9.08,1.88-15.06,4.77c-22.47-1.1-44.9,0-67.23,2.67
			c12.36-5.54,24.78-11.02,37.25-16.38c22.88-3.81,45.86-5.96,68.88-5.67c-3.28,2.5-3.87,4.34-0.97,4.47
			c3.91,0.18,12.71-2.86,19.6-6.73c6.89-3.87,9.23-7.07,5.27-7.2c-2.87-0.1-8.25,1.44-13.61,3.75c-19.28-0.86-38.5,0.05-57.63,2.27
			c10.92-4.54,21.87-8.98,32.86-13.26c19.77-3.21,39.63-5,59.53-4.73c-2.33,1.87-2.41,3.24,0.25,3.38
			c3.88,0.21,12.16-2.29,18.43-5.5c6.27-3.22,8.13-5.92,4.22-6.1c-2.63-0.12-7.19,0.92-11.79,2.59
			c-15.47-0.81-30.89-0.33-46.25,1.15c8.42-3.08,16.85-6.06,25.3-8.91c0.76-0.26,1.53-0.52,2.29-0.77
			c16.19-2.35,32.5-3.58,48.76-3.17c-1.26,1.23-0.89,2.12,1.4,2.29c3.81,0.28,11.48-1.58,17.06-4.08c5.57-2.5,6.94-4.68,3.12-4.95
			c-2.29-0.16-5.93,0.4-9.68,1.42l0.01-0.09c-11.26-0.84-22.54-0.85-33.8-0.2c6-1.87,12.17-3.69,18.45-5.4
			c13.59-1.67,27.15-2.38,40.57-1.72c-0.08,0.57,0.64,1,2.25,1.17c1.87,0.2,4.57,0.01,7.41-0.45c0.4,0.04,0.81,0.07,1.21,0.12
			l0.04-0.33c2.39-0.44,4.81-1.06,6.84-1.77c4.81-1.7,5.66-3.35,1.97-3.76c-2.07-0.23-5.13-0.01-8.27,0.52l0.07-0.62
			c-5.48-0.59-10.98-0.93-16.5-1.06c7.3-1.19,14.64-2.08,21.97-2.58c8.55,0.23,17.03,0.97,25.41,2.31l0.16-0.97
			c2.17-0.12,4.34-0.36,6.14-0.71c5.57,0.66,11.07,1.64,16.47,3c21.92,10.56,33.32,30.43,34.84,60.73
			c1.33,26.5-5.33,56.36-10.19,78.17c-15.55,69.7-41.14,138.17-65.89,204.38c-3.55,9.48-7.09,18.96-10.59,28.42
			c-3.36,9.07-6.75,18.15-10.14,27.23c-23.22,62.2-47.23,126.52-63.62,191.9c-0.55,2.2-1.13,4.49-1.73,6.85
			c-0.15,0.6-0.31,1.21-0.46,1.82c-42.03,102.36-83.73,207.35-117.41,313.69c-21.29,67.23-44,147.01-51.05,229.01
			c-5.58,64.98,0.46,114.74,19.01,156.59c15.17,34.22,39.11,60.97,73.18,81.79c30.28,18.5,65.85,30.83,100.25,42.76
			c8.44,2.92,17.16,5.95,25.71,9.03c96.63,34.82,200.58,70.03,305.99,91.73c55.06,11.34,103.97,17.26,149.53,18.1
			c3.81,0.07,7.59,0.11,11.35,0.11c50.24,0,95.46-6.31,137.9-19.21c97.94-29.78,175.75-103.83,225.76-156.94
			c64.88-68.9,123.51-143.94,174.28-223.04c53.21-82.9,96.16-167.85,127.65-252.48c37.31-100.26,56.23-205.63,56.23-313.18
			C2506.12,1841.04,2493.85,1755.7,2469.66,1673z M1271.48,2143.43c15.54,15.18,40.9,16.39,63.28,17.47
			c5.82,0.28,11.32,0.54,16.35,1.04c8.93,0.88,18.06,1.87,26.89,2.83c27.06,2.94,55.04,5.97,82.41,6.5
			c34.25,0.65,69.28,1.81,103.16,2.92c28.74,0.95,58.46,1.93,87.65,2.6c39.13,0.9,80.76,1.74,121.63,1.29
			c4.43-0.05,9.23,0.08,14.31,0.23c4.66,0.13,9.49,0.27,14.35,0.27c13.17,0,26.54-0.99,37.34-5.77l0.73-0.32l0.47-0.65
			c11.12-15.14,15.83-37.81,20-57.81c1.3-6.25,2.53-12.15,3.88-17.49c13.15-51.97,24.81-104.89,35.45-154.33
			c11.95-55.49,22.24-105.67,31.47-153.41c1.33-6.86,2.83-13.94,4.28-20.78c4.33-20.41,8.81-41.52,9.86-62.05
			c1.31-25.7,4.89-52.43,8.36-78.27c1.26-9.4,2.56-19.11,3.73-28.59c1.25-10.18,2.51-20.37,3.78-30.55
			c6.56-52.97,13.35-107.74,18.83-161.75c5.11-50.35,10.57-109.82,12.31-169.12c0.1-3.28,0.44-7.63,0.84-12.68
			c0.77-9.82,1.71-21.76,1.46-33.19c1.66,12.21,1.82,25.26,1.93,34.61c0.05,4.02,0.09,7.5,0.22,10.34
			c2.64,58.22-0.13,116.74-3.51,171.31c-2.71,43.62-7.38,88.26-11.9,131.43c-6.11,58.33-12.42,118.64-13.96,177.27
			c-0.58,21.87-5.41,44.65-10.09,66.67c-1.39,6.53-2.82,13.29-4.11,19.84c-9.58,48.96-20.49,100.06-33.35,156.21
			c-11.13,48.55-23.47,100.73-38.37,153.29c-1.53,5.4-2.97,11.37-4.49,17.7c-5.18,21.52-11.05,45.89-23.43,60.42
			c-13.24,7.98-34.58,8.3-51.77,8.56c-4.58,0.07-8.9,0.13-12.86,0.33c-42.63,2.09-86.14,2.01-123.58,1.77
			c-38.49-0.25-77.67-1.1-115.57-1.93c-26.82-0.59-54.54-1.19-81.72-1.57c-29.5-0.42-59.8-4.19-89.11-7.84
			c-9.02-1.12-18.34-2.28-27.46-3.32c-4.82-0.55-9.82-0.91-15.11-1.3c-22.13-1.61-47.22-3.44-61.13-20.5
			c-3-3.68-5.44-7.7-7.43-11.96c0.79-3.79,1.6-7.58,2.43-11.37C1270.41,2142.33,1270.93,2142.89,1271.48,2143.43z M1253.31,2089.49
			c0,0.46,0,0.92,0.01,1.38c-16.34,51.27-32.42,106.5-44.88,161.99c-12.27,54.64-24.22,119.08-19.8,182.67
			c3.54,51.01,17.52,88.58,42.73,114.86c22.71,23.67,52.56,32.58,81.42,41.19c4.85,1.45,9.87,2.94,14.79,4.49
			c86.43,27.16,164.56,50.68,245.51,63.38c48.51,7.61,95.12,11.41,139.58,11.41c50.07,0,97.42-4.83,141.63-14.47
			c100.02-21.82,181.04-68.11,240.8-137.59c34.97-40.92,66.72-90.24,97.06-150.77c27.46-54.78,50.27-111.63,70.82-164.9
			c51.14-132.56,74.91-241.47,74.79-342.73c-0.08-72.26-7.88-146.26-23.17-219.94c-15.18-73.16-37.38-144.22-65.97-211.2
			c-27.96-65.49-62.96-121.58-104.03-166.72c-2-2.19-4.01-4.35-6.04-6.49c3.62,3.45,7.21,6.96,10.76,10.55
			c44.81,45.38,82.83,101.52,113.03,166.87c31.25,67.63,55.51,139.58,72.11,213.87c16.74,74.9,25.28,150.3,25.36,224.1
			c0.12,104.06-24.88,217.95-76.43,348.18c-41.35,104.47-94.47,224.1-174.96,319.29c-61.13,71.9-142.82,123.91-230.02,146.44
			c-85.35,22.06-182.08,23.49-295.72,4.37c-85.47-14.38-169.36-40.56-254.93-68.39c-6.53-2.12-13.16-4.11-19.57-6.02
			c-28.73-8.6-55.87-16.72-78.1-37.54c-25.89-24.26-41.79-60.43-47.25-107.51c-7.16-61.73,3.14-124.51,14.16-177.78
			C1211.76,2221.22,1232.97,2151.25,1253.31,2089.49z M2012.61,1236.46c-0.28-2.36-0.57-5.18-0.87-8.16
			c-0.92-9.18-2.09-20.71-4.41-31.99c4.28,13.05,6.82,27.07,8.79,37.88c0.38,2.11,0.74,4.1,1.09,5.95
			c10.92,57.89,13.25,116.69,14.13,171.62c1,62.01-1.55,125.1-4.02,186.13c-1.87,46.28-3.81,94.13-4.17,141.02
			c-0.21,27.04-6.04,55-11.69,82.03c-1.13,5.41-2.3,11-3.39,16.45c-10.15,50.66-22.13,102.74-36.62,159.2
			c-15.72,61.28-30.02,110.33-44.98,154.36c-1.97,5.81-3.86,12-5.86,18.56c-7.45,24.42-15.89,52.09-31.93,69.04
			c-14.84,12.61-40.95,15.37-61.93,17.58c-3.58,0.38-6.97,0.74-10.17,1.13c-42.65,5.22-86.34,6.9-123.46,7.85
			c-74.61,1.91-148.31,0.87-210.57-0.4c-36-0.74-72.84-6.44-108.46-11.95c-8.96-1.39-18.22-2.82-27.28-4.15
			c-3.82-0.56-7.74-1.05-11.53-1.52c-24.48-3.04-47.61-5.92-60.98-27.76c-6.85-11.19-10.36-24.14-11.79-37.66
			c1.9,4.68,4.23,9.16,7.09,13.38c15.13,22.31,42.03,24.94,65.75,27.25c4.66,0.46,9.07,0.89,13.41,1.45
			c9.06,1.18,18.33,2.47,27.3,3.72c32.46,4.53,66.02,9.21,98.9,9.73c8.9,0.14,17.8,0.29,26.71,0.43
			c46.18,0.76,93.61,1.54,140.8,1.54c12.19,0,24.38-0.05,36.51-0.17c39.99-0.39,82.79-1.25,124.77-4.89
			c3.47-0.3,7.3-0.53,11.36-0.78c19.9-1.21,44.66-2.71,59.6-14.18l0.39-0.36c15.29-16.8,22.75-43.72,29.33-67.48
			c1.75-6.3,3.39-12.25,5.1-17.68c16.8-53.5,30.55-107.96,41.78-154.18c13.36-54.98,24.62-105.65,34.44-154.89
			c1.27-6.36,2.66-12.93,4.01-19.28c5.41-25.43,11-51.73,11.35-77.35c0.75-54.71,4.74-110.79,8.6-165.03
			c3.57-50.11,7.26-101.93,8.41-152.83C2019.38,1354.34,2019.59,1294.75,2012.61,1236.46z M2037.35,1411.66
			c-0.89-55.19-3.23-114.3-14.23-172.63c-0.35-1.84-0.71-3.82-1.09-5.91c-1.72-9.48-3.87-21.3-7.24-32.96
			c5.53,13.51,9.31,28.01,12.4,39.92l0.45,1.73c15.1,58.04,20.07,119.39,22.94,171.76c4.4,80.36,3.09,162.25,1.81,241.45
			c-0.5,31.14-1.02,63.34-1.18,94.93c-0.16,30.62-6.71,62.09-13.04,92.52c-0.95,4.56-1.89,9.1-2.81,13.61
			c-10.36,50.91-22.77,102.94-37.92,159.05c-14.11,52.26-30.13,103.99-47.6,153.75c-2.02,5.75-3.97,11.8-6.03,18.2
			c-8.66,26.84-18.47,57.26-37.06,75.8c-16.52,14.66-44.22,19.04-66.49,22.55c-2.4,0.38-4.75,0.75-7.02,1.12
			c-43.76,7.19-88.06,9.76-125.62,11.32c-66.35,2.76-137.46,2.99-217.38,0.73c-39.5-1.12-79.78-7.96-118.73-14.58
			c-8.63-1.46-17.55-2.98-26.28-4.4c-3.25-0.53-6.54-1.02-9.73-1.49c-25.27-3.75-49.13-7.3-62.44-31.43
			c-6.78-12.29-10.22-26.06-11.48-40.65c1.94,5.73,4.43,11.24,7.6,16.41c14.88,24.31,40.54,27.5,65.36,30.59
			c3.76,0.47,7.65,0.95,11.4,1.5c9.04,1.32,18.29,2.75,27.23,4.14c35.82,5.55,72.86,11.28,109.26,12.02
			c37.63,0.77,79.45,1.45,123.12,1.45c28.66,0,58.12-0.29,87.72-1.05c37.26-0.96,81.13-2.64,124.03-7.9
			c3.15-0.39,6.51-0.74,10.07-1.12c21.87-2.31,49.09-5.19,65.32-19.09l0.22-0.21c17.08-17.97,25.76-46.43,33.42-71.54
			c1.99-6.51,3.86-12.66,5.8-18.38c15.01-44.19,29.35-93.38,45.11-154.8c14.52-56.57,26.52-108.74,36.69-159.51
			c1.09-5.42,2.25-11,3.38-16.4c5.71-27.32,11.6-55.57,11.82-83.21c0.36-46.79,2.29-94.59,4.16-140.82
			C2035.79,1537.02,2038.35,1473.84,2037.35,1411.66z M2056.57,1413.25c-2.89-52.66-7.89-114.39-23.13-172.94l-0.45-1.73
			c-2.67-10.27-5.82-22.38-10.16-34.25c6.68,13.6,11.36,27.51,14.8,37.77c19.52,58.15,27.22,120.24,32.18,173.3
			c10.37,110.9,9.92,224.46,9.5,334.28l-0.04,11.33c-0.13,34.2-7.39,69.19-14.42,103.02c-0.64,3.08-1.28,6.14-1.9,9.2
			c-10.64,51.69-23.57,104.17-39.53,160.46c-14.38,50.72-31.3,102.51-51.72,158.31c-1.84,5.02-3.63,10.18-5.53,15.64
			c-9.82,28.22-20.96,60.21-41.09,80.36c-18.07,16.76-48.33,22.88-72.64,27.8l-3.85,0.78c-45.02,9.17-91.1,12.67-126.22,14.69
			c-70.92,4.09-146.38,4.62-224.29,1.59c-42.96-1.67-86.6-9.72-128.8-17.5c-8.04-1.48-16.07-2.96-24.06-4.4
			c-2.9-0.52-5.8-1.01-8.68-1.5c-26.17-4.42-50.89-8.6-64.78-34.05c-7.48-13.72-11.01-29.4-12.1-45.9
			c1.97,6.99,4.64,13.72,8.16,20.1c14.74,26.73,41.21,30.66,66.81,34.47c3.16,0.47,6.44,0.96,9.65,1.48
			c8.71,1.42,17.62,2.93,26.24,4.39c39.15,6.65,79.64,13.52,119.56,14.66c36.19,1.03,70.58,1.54,103.55,1.54
			c39.95,0,77.81-0.76,114.25-2.27c37.74-1.57,82.27-4.15,126.35-11.39c2.26-0.37,4.59-0.74,6.98-1.12
			c23.06-3.64,51.77-8.18,69.6-24.05l0.12-0.11c19.66-19.56,29.72-50.75,38.6-78.27c2.05-6.36,3.99-12.37,5.99-18.05
			c17.52-49.89,33.57-101.77,47.73-154.17c15.19-56.24,27.62-108.38,38.01-159.42c0.92-4.5,1.86-9.03,2.81-13.58
			c6.4-30.72,13.01-62.48,13.17-93.71c0.16-31.55,0.68-63.74,1.18-94.86C2059.67,1575.82,2060.99,1493.82,2056.57,1413.25z
			 M2075.79,1414.83c-4.99-53.41-12.75-115.93-32.47-174.65c-2.82-8.41-6.45-19.19-11.32-30.33c5.6,10.02,11.31,22.06,17.08,36.57
			c23.19,58.31,33.54,121.89,39.98,170.77c16.57,125.88,18.46,255.77,18.26,354.86c-0.08,38.56-8.3,77.8-16.24,115.74l-0.91,4.32
			c-10.74,51.33-24.45,105.2-40.77,160.11c-14.71,49.51-32.36,101.31-53.97,158.37c-1.72,4.54-3.4,9.11-5.18,13.96
			c-11.34,30.85-24.2,65.82-46.71,88.77c-20.15,19.44-53.53,27.46-80.34,33.91l-0.76,0.18c-35.47,8.53-74.04,14.02-125.07,17.8
			c-73.88,5.47-151.7,6.22-231.3,2.22c-47.19-2.37-94.94-11.92-141.12-21.16c-7.52-1.5-15.01-3-22.49-4.47
			c-1.83-0.36-3.65-0.71-5.46-1.06c-29.03-5.59-54.1-10.42-68.28-38.67c-7.66-15.25-11.09-32.44-11.99-50.33
			c2.09,9.32,5.23,18.23,9.75,26.51c15.28,28.01,41.4,32.42,69.04,37.1c2.86,0.48,5.74,0.97,8.62,1.49c7.99,1.43,16,2.91,24.03,4.39
			c42.41,7.82,86.27,15.91,129.66,17.6c33.22,1.29,66,1.94,98.17,1.94c43.47,0,85.84-1.18,126.7-3.53
			c35.32-2.04,81.67-5.56,127.07-14.81l3.84-0.78c25.07-5.07,56.27-11.38,75.58-29.32l0.08-0.08
			c21.14-21.12,32.52-53.82,42.56-82.67c1.89-5.44,3.68-10.57,5.5-15.55c20.47-55.95,37.43-107.87,51.85-158.74
			c16-56.42,28.96-109.05,39.64-160.88c0.63-3.05,1.26-6.12,1.9-9.19c7.08-34.12,14.41-69.41,14.54-104.21l0.04-11.33
			C2085.74,1639.73,2086.18,1526.03,2075.79,1414.83z M2095.01,1416.41c-6.48-49.22-16.92-113.28-40.35-172.21
			c-4.11-10.34-8.83-21.27-14.38-31.88c7.54,11.72,13.69,23.72,18.71,34.32c27.82,58.74,40.98,122.95,49.33,172.33
			c18.42,108.95,27.27,228.06,27.06,364.12c-0.15,94.86-31.48,195.8-59.12,284.86l-0.88,2.82c-15.55,50.12-33.88,101.97-56.02,158.5
			c-1.45,3.71-2.91,7.49-4.39,11.31c-13.06,33.83-27.87,72.18-52.92,98.26c-21.76,21.67-56.72,31.69-82.25,39.01
			c-35.89,10.29-76.31,17.23-127.21,21.86c-76.34,6.94-156.54,7.84-238.37,2.67c-51.74-3.27-103.88-14.51-154.31-25.38
			c-6.77-1.46-13.53-2.92-20.28-4.35l-2.59-0.55c-29.79-6.32-55.52-11.78-70.57-40.39c-9.66-18.38-13.32-39.35-13.79-60.91
			c1.96,11.91,5.34,23.36,10.67,33.98c15.51,30.89,43.2,36.22,72.51,41.87c1.8,0.35,3.62,0.7,5.44,1.05
			c7.47,1.46,14.96,2.96,22.47,4.47c46.39,9.28,94.37,18.88,142,21.27c33.67,1.69,67.01,2.54,99.88,2.54
			c45.09,0,89.29-1.59,132.16-4.77c51.36-3.8,90.23-9.34,126.03-17.95l0.76-0.18c27.52-6.62,61.78-14.86,83.17-35.49
			c23.48-23.94,36.57-59.54,48.12-90.96c1.78-4.83,3.45-9.39,5.16-13.9c21.65-57.2,39.35-109.14,54.11-158.78
			c16.36-55.07,30.12-109.1,40.89-160.59l0.91-4.32c8.01-38.24,16.29-77.78,16.37-116.96
			C2113.52,1672.78,2111.62,1542.64,2095.01,1416.41z M1242.14,2301.43c1.13,22.8,5.68,44.5,16.34,63.45
			c17.35,30.83,46.29,37.42,76.93,44.41l3,0.69c5.45,1.25,10.91,2.51,16.38,3.77c54.51,12.56,110.88,25.55,167.25,29.88
			c37.03,2.84,73.61,4.26,109.58,4.26c46.87,0,92.7-2.41,137.05-7.23c51.96-5.64,93.48-14.06,130.65-26.51
			c31.09-10.41,63.3-22.5,85.59-45.56c27.63-29.17,44.34-70.06,59.09-106.13c0.92-2.26,1.84-4.51,2.76-6.74
			c22.19-54.07,42.49-109.43,60.32-164.55c32.87-101.57,62.37-200.72,62.36-297.03c-0.02-133.23-12.13-259.26-35.99-374.58
			c-9.61-46.45-26.24-115.2-59.48-175.67c-8.09-14.71-16.46-27.63-25.17-38.85c16.17,17.11,30.92,38.32,44.16,63.55
			c27.24,51.9,43.8,112.73,53.88,153.98c29.19,119.35,44.63,251.67,44.66,382.63c0.02,103.55-33.1,210.54-64.14,302.69
			c-19.57,58.1-40.47,113.39-62.11,164.31l-1,2.35c-17.43,41.03-35.45,83.46-65.16,115.45c-23,24.4-55.74,43.03-100.09,56.96
			c-40.04,12.58-82.7,18.94-115.39,23.09c-79.21,10.04-164.24,11.09-252.71,3.12c-60.71-5.46-121.42-20.39-180.12-34.83
			c-4.64-1.14-9.28-2.28-13.91-3.42c-32.58-7.98-60.72-14.88-77.84-44.94C1249.64,2373.48,1240.77,2350.01,1242.14,2301.43z
			 M2068.71,1246.78c15.74,28.62,38.96,77.79,58.87,174c23.78,114.92,35.85,240.54,35.87,373.37
			c0.01,95.43-29.35,194.08-62.07,295.18c-17.79,54.97-38.03,110.19-60.17,164.12c-0.92,2.24-1.84,4.49-2.76,6.75
			c-14.54,35.58-31.03,75.91-57.87,104.25c-21.32,22.06-52.77,33.84-83.16,44.02c-36.75,12.3-77.87,20.64-129.39,26.23
			c-78.03,8.47-160.63,9.46-245.52,2.95c-55.92-4.29-112.06-17.23-166.36-29.74c-5.47-1.26-10.94-2.52-16.39-3.77l-3.01-0.69
			c-30.58-6.97-56.98-12.99-73.03-41.5c-12.05-21.4-15.92-46.75-15.87-73.31c1.82,16.12,5.86,31.68,13.32,45.88
			c16.36,31.11,44.67,37.11,74.63,43.47l2.59,0.55c6.74,1.44,13.49,2.89,20.26,4.35c50.64,10.92,103.01,22.21,155.19,25.5
			c35.01,2.21,69.72,3.31,103.97,3.31c46.1,0,91.36-2,135.33-6c51.28-4.66,92.06-11.67,128.32-22.07
			c26.15-7.5,61.97-17.76,84.87-40.57c25.94-26.99,40.97-65.94,54.24-100.3c1.47-3.81,2.93-7.58,4.38-11.28
			c22.2-56.67,40.57-108.65,56.17-158.91l0.87-2.82c27.77-89.47,59.24-190.87,59.39-286.63c0.22-136.41-8.66-255.84-27.14-365.13
			c-8.41-49.76-21.68-114.5-49.82-173.9c-3.98-8.41-8.67-17.67-14.17-27.01C2056.56,1225.98,2062.71,1235.87,2068.71,1246.78z
			 M1236.55,2330.66c1.87,24.8,7.52,45.17,17.26,62.29c18.39,32.31,49.11,39.84,81.62,47.8c4.63,1.13,9.27,2.27,13.91,3.42
			c58.92,14.49,119.85,29.48,181.02,34.98c39.29,3.54,77.9,5.3,115.64,5.3c47.65,0,93.92-2.82,138.37-8.45
			c32.94-4.17,75.94-10.6,116.44-23.32c45.35-14.25,78.93-33.41,102.68-58.59c30.44-32.78,49.49-77.64,66.3-117.21l1-2.35
			c21.7-51.07,42.65-106.5,62.27-164.75c31.19-92.61,64.47-200.15,64.45-304.61c-0.02-131.44-15.52-264.24-44.83-384.06
			c-10.16-41.55-26.86-102.86-54.4-155.34c-6.07-11.56-12.45-22.29-19.15-32.2c8.21,10.48,16.06,21.92,23.53,34.33
			c24.57,40.8,45.32,91.98,63.44,156.44c35,124.55,53.49,260.05,53.46,391.87c-0.02,106.71-33.48,216.69-66.21,310.2
			c-22.11,63.19-43.32,117.59-64.82,166.29c-17.04,38.6-38.25,86.64-70.95,122.72c-23.67,25.77-57.57,46.8-100.75,62.51
			c-32.83,11.95-71.26,21.04-117.49,27.79c-80.22,11.71-167.68,12.79-259.94,3.2c-65.61-6.82-131-23.87-194.23-40.36l-10.26-2.68
			c-31.82-8.28-61.88-16.11-80.14-45.76c-21.62-35.11-21.68-80.35-18.7-120.23C1235.72,2309.89,1235.77,2320.31,1236.55,2330.66z
			 M1230.19,2298c-3.16,41.19-3.32,88.29,19.47,125.3c19.52,31.7,50.71,39.82,83.74,48.42l10.26,2.67
			c63.45,16.55,129.06,33.66,195.12,40.52c41.71,4.34,82.43,6.5,121.98,6.5c48.4,0,95.03-3.25,139.45-9.73
			c46.63-6.81,85.45-16,118.67-28.08c44.09-16.04,78.78-37.61,103.13-64.1c33.37-36.82,54.79-85.35,72.01-124.35
			c21.57-48.85,42.82-103.39,64.99-166.73c32.89-93.99,66.52-204.58,66.55-312.18c0.03-132.36-18.54-268.42-53.69-393.49
			c-18.27-64.99-39.22-116.64-64.07-157.91c-5.83-9.68-11.89-18.78-18.17-27.32c7.8,9.26,15.33,19.21,22.58,29.87
			c28.27,41.61,52.88,95.03,73.17,158.77c40.88,128.46,62.41,267.17,62.25,401.12c-0.13,114.62-36.56,230-68.29,317.72
			c-25.13,69.47-46.25,121.97-68.5,170.22c-20.08,43.56-42.41,89.14-74.83,125.52c-45.18,50.14-119.48,84.1-220.84,100.92
			c-81.24,13.49-171.13,14.59-267.17,3.28c-70.44-8.3-140.42-27.53-208.09-46.13l-8.78-2.41c-31.39-8.58-61.04-16.68-80.35-44.72
			c-24.45-35.49-25.64-82.62-23.94-119.7c1.22-26.67,4.14-53.28,8.36-79.8C1233.05,2267.4,1231.37,2282.68,1230.19,2298z
			 M1220.83,2331.68c-1.74,38.03-0.47,86.42,24.99,123.38c20.56,29.85,51.24,38.23,83.71,47.1l8.77,2.41
			c67.89,18.66,138.1,37.96,208.98,46.31c44,5.18,86.73,7.77,127.95,7.77c49.26,0,96.37-3.7,140.9-11.09
			c102.73-17.06,178.19-51.65,224.32-102.84c32.98-37,55.54-83.03,75.81-127.01c22.32-48.41,43.5-101.05,68.69-170.69
			c31.89-88.17,68.51-204.2,68.65-319.75c0.16-134.56-21.47-273.9-62.53-402.94c-20.75-65.19-44.93-117.64-73.92-160.32
			c-5.22-7.69-10.59-15.01-16.11-21.98c7.05,7.85,13.91,16.17,20.56,24.96c32.41,42.83,60.34,96.99,82.99,160.98
			c46.64,131.71,71.21,273.6,71.06,410.34c-0.06,58.1-7.42,155.04-70.34,325.29c-2.27,6.15-4.55,12.34-6.84,18.57
			c-35.42,96.26-75.55,205.37-144.18,283.58c-52.84,59.67-130.8,98.48-231.69,115.35c-77.58,12.98-167.07,12.96-265.97-0.06
			c-76.18-10.03-151.37-31.76-224.09-52.78c-2.15-0.62-4.3-1.24-6.44-1.85c-30.62-8.75-59.55-17.02-79.68-42.84
			c-27.29-35-30.01-83.74-29.68-117.36c0.54-54.85,8.93-109.57,21.69-163.9C1229.2,2245.16,1222.81,2288.31,1220.83,2331.68z
			 M1230.71,2206.29c2.66-10.61,5.48-21.2,8.41-31.75c-16.46,63.33-27.75,127.33-28.38,191.62c-0.34,34.52,2.5,84.63,30.95,121.11
			c21.34,27.37,51.18,35.9,82.77,44.92c2.14,0.61,4.28,1.22,6.42,1.84c72.93,21.08,148.34,42.88,224.97,52.96
			c49.78,6.55,97.21,9.83,141.96,9.83c44.69,0,86.73-3.27,125.78-9.8c102.29-17.11,181.42-56.57,235.21-117.3
			c69.37-79.05,109.71-188.72,145.31-285.47c2.29-6.23,4.57-12.42,6.84-18.56c22.06-59.7,38.31-112.26,49.65-160.67
			c14.12-60.22,21-114.75,21.06-166.69c0.15-137.41-24.54-280-71.4-412.35c-22.86-64.57-51.08-119.27-83.86-162.59
			c-4.07-5.37-8.21-10.57-12.42-15.6c5.75,6.08,11.38,12.43,16.9,19.03c36.53,43.73,67.82,98.57,93,162.98
			c25.65,65.63,45.54,135,59.13,206.19c13.66,71.59,20.63,143.39,20.72,213.39c0.11,95.89-22.88,201.68-72.37,332.92
			c-39.04,103.54-83.29,220.88-158.85,308.21c-55.82,64.01-134.79,106.2-234.71,125.39c-80.37,15.43-172.04,15.9-272.46,1.38
			c-81.63-11.8-162.77-36.32-234.35-57.95c-3.46-1.04-6.92-2.06-10.37-3.08c-30.09-8.85-58.51-17.21-79.44-41.44
			c-22.27-25.79-33.78-63.22-35.2-114.42C1204.37,2342.7,1212.47,2279.22,1230.71,2206.29z M1199.97,2400.54
			c1.46,52.64,13.45,91.29,36.66,118.18c22.08,25.57,52.69,34.57,82.29,43.28c3.44,1.01,6.88,2.02,10.32,3.06
			c71.79,21.69,153.15,46.28,235.23,58.14c48.95,7.08,95.83,10.62,140.39,10.61c47.45,0,92.27-4.02,134.06-12.04
			c101.27-19.45,181.38-62.29,238.11-127.35c76.26-88.14,120.72-206.02,159.93-310.03c31.31-83.02,72.91-208.08,72.76-335.05
			c-0.08-70.38-7.09-142.55-20.82-214.51c-13.66-71.55-33.66-141.28-59.44-207.25c-25.41-65.02-57.03-120.41-93.98-164.64
			c-4.15-4.97-8.37-9.79-12.65-14.47c42.94,41.99,85.15,100.79,120.3,183.14c28.43,66.62,50.51,137.29,65.61,210.06
			c15.21,73.28,22.96,146.87,23.04,218.72c0.12,100.5-23.52,208.72-74.39,340.57c-40.39,104.69-89.92,223.92-166.84,313.93
			c-58.89,68.46-138.8,114.09-237.52,135.63c-82.73,18.05-176.6,19.06-279,2.99c-80.54-12.63-158.45-36.09-244.65-63.18
			c-4.96-1.56-10-3.06-14.87-4.52c-29.41-8.78-57.2-17.07-78.81-39.59c-24.2-25.22-37.63-61.57-41.07-111.12
			c-3.95-56.96,5.42-114.81,16.28-165.52C1202.45,2316.85,1198.85,2360.1,1199.97,2400.54z M2002.41,1236.48
			c-0.12-2.74-0.17-6.17-0.21-10.14c-0.11-9.39-0.26-21.36-1.65-32.95c2.89,12.28,4.22,25.51,5.23,35.51
			c0.3,3.01,0.59,5.86,0.88,8.28c6.93,57.92,6.72,117.26,5.46,172.76c-1.15,50.76-4.84,102.5-8.4,152.54
			c-3.87,54.32-7.87,110.49-8.62,165.37c-0.34,25.03-5.87,51.03-11.22,76.18c-1.36,6.37-2.76,12.96-4.03,19.36
			c-9.8,49.16-21.04,99.75-34.38,154.65c-11.21,46.13-24.92,100.47-41.67,153.8c-1.74,5.53-3.4,11.53-5.16,17.88
			c-6.38,23.01-13.6,49.08-27.8,64.84c-13.52,10.21-37.12,11.64-56.1,12.79c-4.09,0.25-7.96,0.48-11.51,0.79
			c-41.78,3.62-84.44,4.48-124.31,4.86c-59.02,0.57-119.08-0.41-177.16-1.37c-8.91-0.15-17.82-0.29-26.71-0.43
			c-32.51-0.51-65.88-5.17-98.16-9.67c-8.98-1.25-18.28-2.55-27.36-3.73c-4.43-0.57-9.09-1.03-13.6-1.47
			c-23.51-2.29-47.81-4.67-61.37-24.65c-4.77-7.03-7.98-14.95-10.03-23.35c0.35-2.01,0.71-4.02,1.08-6.03
			c1.39,2.28,2.92,4.49,4.63,6.59c15.54,19.06,42,20.99,65.34,22.69c5.23,0.38,10.16,0.74,14.86,1.28c9.09,1.04,18.4,2.19,27.4,3.31
			c29.47,3.67,59.95,7.46,89.77,7.88c27.16,0.38,54.87,0.99,81.68,1.57c37.92,0.83,77.12,1.68,115.66,1.93
			c10.33,0.07,21.12,0.12,32.23,0.12c29.24,0,60.68-0.38,91.68-1.9c3.86-0.19,8.13-0.25,12.66-0.32c18.09-0.27,40.61-0.61,55.23-9.7
			l0.38-0.24l0.3-0.34c13.54-15.59,19.65-40.94,25.04-63.3c1.51-6.26,2.93-12.18,4.43-17.47c14.93-52.69,27.3-104.95,38.44-153.59
			c12.88-56.21,23.8-107.37,33.39-156.4c1.27-6.51,2.7-13.24,4.09-19.75c4.74-22.29,9.63-45.33,10.22-67.76
			c1.54-58.39,7.84-118.59,13.93-176.8c4.53-43.23,9.21-87.93,11.92-131.68C2002.29,1353.69,2005.06,1294.97,2002.41,1236.48z
			 M1254.9,2065.71c-22.49,67.01-47.18,145.43-63.76,225.56c-11.12,53.74-21.5,117.11-14.24,179.69
			c5.63,48.53,22.15,85.95,49.11,111.2c23.26,21.79,52.35,30.49,80.48,38.91c6.38,1.91,12.97,3.88,19.43,5.98
			c85.79,27.91,169.91,54.16,255.79,68.6c53.15,8.94,102.64,13.42,149.05,13.42c53.56,0,103-5.96,149.17-17.89
			c88.38-22.84,171.16-75.53,233.09-148.37c81.05-95.86,134.44-216.05,175.96-320.96c51.83-130.95,76.97-245.57,76.85-350.4
			c-0.08-74.24-8.67-150.08-25.51-225.41c-16.7-74.7-41.1-147.06-72.52-215.08c-30.48-65.98-68.91-122.7-114.2-168.57
			c-0.42-0.42-0.83-0.83-1.25-1.25c2.04,1.85,4.07,3.72,6.08,5.61c48.95,46,90.39,102.72,123.17,168.58
			c34.09,68.5,60.56,141.71,78.67,217.6c18.24,76.44,27.53,153.67,27.62,229.55c0.12,109.33-25.54,225.7-78.47,355.74
			c-57.03,140.13-115.26,243.18-183.25,324.31c-65.72,78.06-148.17,134.23-232.18,158.17c-85.87,24.47-184.87,26.15-302.65,5.13
			c-90.48-16.15-177.07-44-265.18-73.53c-8.05-2.7-16.23-5.14-24.14-7.49c-28.13-8.38-54.71-16.3-77.49-35.49
			c-27.64-23.28-46.2-59.13-53.68-103.67c-10.2-60.79-0.91-125.06,8.32-174.27c15.73-83.82,41.34-165.15,64.32-233.64
			c3.82-11.39,7.73-22.79,11.69-34.18C1255.08,2064.28,1254.99,2065,1254.9,2065.71z M1256.05,2042.22
			c-0.03,0.29-0.05,0.59-0.08,0.88c-6.2,17.57-12.29,35.16-18.18,52.74c-23.04,68.69-48.72,150.26-64.52,234.44
			c-9.33,49.69-18.7,114.65-8.34,176.37c7.71,45.97,26.99,83.06,55.73,107.27c23.74,19.99,52.16,28.46,79.64,36.65
			c7.86,2.34,15.99,4.77,23.95,7.43c88.33,29.6,175.15,57.52,266.03,73.74c54.84,9.79,105.65,14.69,153.02,14.69
			c55.16,0,105.65-6.65,152.33-19.95c85.14-24.27,168.64-81.12,235.13-160.08c68.4-81.62,126.94-185.18,184.21-325.9
			c53.23-130.78,79.04-247.89,78.92-358.01c-0.09-76.35-9.43-154.05-27.78-230.94c-18.21-76.33-44.84-149.98-79.13-218.88
			c-32.35-65-73.08-121.2-121.1-167.11c53.48,46.51,98.96,104.15,134.97,171.66c36.97,69.32,65.66,143.76,85.26,221.26
			c19.71,77.92,29.75,157,29.84,235.06c0.07,59.58-7.37,121.96-22.11,185.39c-13.31,57.28-32.97,117.11-58.44,177.85
			c-56.11,133.8-118.81,241.4-191.68,328.96c-49.75,59.55-130.81,137.34-234.41,169.74c-46.46,14.53-98.28,21.91-154,21.92
			c-0.06,0-0.12,0-0.18,0c-47.47,0-98.25-5.11-155.24-15.64c-93.72-17.3-183.73-47-275.35-78.49c-9.45-3.25-19.06-6.1-28.34-8.86
			c-27.68-8.21-53.82-15.97-77.11-33.65c-29.85-22.65-50.71-57.11-60.32-99.65c-13.39-59.29-5.88-122.2,2.16-170.39
			c14.04-84.16,39.25-165.52,62.05-234.01c10.51-31.57,21.63-63.15,33.08-94.58C1256.04,2042.16,1256.05,2042.19,1256.05,2042.22z
			 M1988.02,1186.11c0.81,12.94-0.34,27.58-1.19,38.4c-0.4,5.13-0.75,9.55-0.85,12.98c-1.73,59.11-7.18,118.44-12.28,168.69
			c-5.48,53.95-12.26,108.69-18.81,161.62c-1.26,10.19-2.52,20.37-3.78,30.56c-1.16,9.45-2.46,19.15-3.72,28.53
			c-3.48,25.97-7.08,52.82-8.4,78.76c-1.02,20.06-5.45,40.93-9.74,61.11c-1.46,6.87-2.97,13.98-4.3,20.89
			c-9.22,47.7-19.5,97.84-31.44,153.29c-10.63,49.39-22.28,102.24-35.4,154.12c-1.38,5.46-2.62,11.43-3.94,17.74
			c-3.98,19.11-8.47,40.72-18.49,54.84c-13.49,5.65-31.99,5.14-48.36,4.68c-5.14-0.14-9.99-0.28-14.54-0.23
			c-40.78,0.46-82.35-0.38-121.42-1.28c-29.16-0.67-58.86-1.65-87.59-2.6c-33.9-1.12-68.95-2.27-103.24-2.93
			c-27.1-0.52-54.95-3.54-81.88-6.46c-8.84-0.96-17.99-1.95-26.94-2.84c-5.19-0.51-10.76-0.78-16.66-1.06
			c-21.31-1.02-45.46-2.18-59.37-15.76c-1.5-1.47-2.88-3.03-4.14-4.67c1.42-6.26,2.91-12.51,4.44-18.76
			c15.89,13.25,40.15,14,61.6,14.65c5.89,0.18,11.46,0.35,16.57,0.77c8.81,0.72,17.8,1.52,26.49,2.3
			c23.82,2.12,48.45,4.32,72.58,5.17c35.76,1.26,72.31,2.98,107.66,4.65c25.21,1.19,51.28,2.42,76.89,3.47
			c40.57,1.67,80.33,3.25,120.8,4.26c5.01,0.13,10.2,0.44,15.7,0.78c7.48,0.46,15.07,0.92,22.55,0.92c8.31,0,16.48-0.57,24.16-2.37
			l1.39-0.32l0.63-1.28c8.09-16.52,11.7-36.1,15.2-55.03c1.23-6.67,2.39-12.98,3.74-19.08c11.15-50.68,21.72-102.54,31.49-151.02
			c4.36-21.64,9.31-43.89,14.09-65.41c11.93-53.67,24.27-109.16,29.42-163.13c5.65-59.21,15.96-120.36,25.92-179.5
			c6.12-36.28,12.44-73.79,17.61-110.43c9.66-68.42,16.17-120.86,21.1-170.04c0.47-4.74,1.43-10.64,2.43-16.89
			C1985.61,1208.09,1987.43,1196.82,1988.02,1186.11z M1255.05,2026.99c0,0.13,0,0.25,0,0.38c-13.1,35.67-25.84,71.56-37.79,107.45
			c-22.88,68.71-48.17,150.35-62.27,234.92c-8.13,48.73-15.71,112.39-2.09,172.7c9.92,43.94,31.55,79.59,62.54,103.1
			c24.16,18.33,52.06,26.61,79.03,34.62c9.23,2.74,18.77,5.57,28.1,8.78c91.85,31.57,182.09,61.34,276.21,78.72
			c57.35,10.59,108.48,15.74,156.32,15.74c0.06,0,0.12,0,0.19,0c56.33-0.02,108.74-7.48,155.79-22.19
			c104.99-32.83,186.96-111.45,237.23-171.63c73.27-88.03,136.27-196.13,192.61-330.48c25.6-61.04,45.36-121.2,58.75-178.81
			c14.84-63.88,22.34-126.71,22.27-186.75c-0.09-78.55-10.19-158.13-30.02-236.52c-19.72-77.97-48.59-152.87-85.79-222.61
			c-33.55-62.89-75.24-117.31-123.91-162.25c54.69,46.16,101.05,102.3,137.85,166.97c39.88,70.08,70.8,145.73,91.9,224.84
			c21.16,79.35,31.93,160.3,32.02,240.62c0.13,118.9-27.68,243.61-82.67,370.66c-55.07,127.23-122.45,239.35-200.27,333.23
			c-76.97,92.66-156.63,153.58-236.75,181.09c-47.69,16.37-99.07,24.38-157.08,24.49c-0.38,0-0.76,0-1.14,0
			c-47.82,0-99.45-5.45-157.79-16.66c-98.51-18.92-195.22-51.55-285.84-83.35c-10.57-3.71-21.32-6.93-31.71-10.04
			c-28.17-8.43-54.78-16.4-79.06-33.6c-31.34-22.2-53.93-55.18-65.33-95.38c-16.23-57.22-10.66-117.92-3.99-164.4
			c11.85-82.6,36.11-162.96,58.28-230.67C1217.43,2128.71,1235.91,2077.6,1255.05,2026.99z M1981.87,1171.14
			c1.41,13.72-1.41,31.24-3.8,46.08c-1.02,6.34-1.99,12.33-2.48,17.24c-4.92,49.09-11.42,101.46-21.07,169.8
			c-5.16,36.56-11.48,74.04-17.59,110.27c-9.99,59.24-20.31,120.51-25.98,179.93c-5.11,53.6-17.41,108.91-29.3,162.4
			c-4.79,21.55-9.74,43.83-14.11,65.52c-9.76,48.46-20.33,100.28-31.47,150.92c-1.36,6.2-2.54,12.56-3.78,19.29
			c-3.33,18.03-6.76,36.66-14.06,52.19c-13.41,2.84-28.74,1.9-43.59,0.99c-5.55-0.34-10.79-0.66-15.91-0.79
			c-40.42-1.01-80.16-2.59-120.7-4.26c-25.59-1.05-51.65-2.28-76.85-3.47c-35.37-1.67-71.94-3.39-107.73-4.65
			c-23.98-0.85-48.52-3.03-72.26-5.15c-8.7-0.78-17.7-1.58-26.54-2.3c-5.27-0.43-10.91-0.6-16.88-0.78
			c-20.78-0.63-44.33-1.34-58.59-13.8c-0.54-0.47-1.04-0.97-1.55-1.46c1.64-6.53,3.34-13.05,5.09-19.55
			c19.42,11.54,48.12,11.52,72.1,11.49c7.86-0.01,15.29-0.02,21.67,0.38l429.11,26.82l0.49-2.61
			c11.17-59.59,22.58-120.17,33.61-178.75C1887.51,1692.85,1936.93,1430.33,1981.87,1171.14z M1442.7,1400.32
			c5.16,22.76,3.47,47.02-0.08,69.86c-10.61,65.13-35.11,129.15-58.98,191.33c1.37-3.75,2.73-7.49,4.07-11.22
			c19.03-53.15,37.04-105.37,48.39-159.92C1441.94,1462.32,1447.61,1430.26,1442.7,1400.32z M1194.95,2178.08
			c-22.25,67.96-46.6,148.63-58.52,231.69c-6.75,47.07-12.38,108.58,4.15,166.89c11.78,41.53,35.17,75.64,67.63,98.64
			c25.08,17.77,53.41,26.25,80.81,34.45c10.33,3.09,21,6.29,31.44,9.95c90.83,31.87,187.78,64.58,286.69,83.58
			c58.72,11.28,110.72,16.77,158.92,16.77c0.38,0,0.77,0,1.15,0c58.68-0.11,110.7-8.22,159.02-24.81
			c81.18-27.87,161.73-89.42,239.42-182.94c78.19-94.33,145.87-206.93,201.16-334.68c55.32-127.81,83.3-253.32,83.17-373.05
			c-0.09-80.84-10.93-162.31-32.22-242.16c-21.23-79.61-52.34-155.73-92.48-226.27c-34.45-60.54-77.21-113.67-127.28-158.25
			c55.8,45.55,103.29,100.35,141.31,163.11c42.83,70.71,76,147.54,98.59,228.36c22.57,80.73,34.05,163.58,34.14,246.25
			c0.13,123.46-28.51,251.73-85.13,381.25c-50.01,114.41-120.23,226.75-208.7,333.87c-38.21,45.65-73.59,82.08-108.13,111.38
			c-43.79,37.14-86.69,63.54-131.16,80.71c-47.67,18.41-100.37,27.57-160.7,27.57c-48.52,0-101.98-5.93-161.68-17.74
			c-102.68-20.32-205.49-55.57-293.78-87.01c-11.6-4.13-23.42-7.73-34.85-11.21c-28.59-8.71-55.6-16.93-80.81-33.07
			c-34.21-21.9-59.46-53.92-73.02-92.62c-9.25-26.38-20.39-71.39-10.4-157.31c9.7-83.39,33.78-164.8,56.07-233.43
			c20.51-63.17,43.69-126.03,67.77-188.1C1229.05,2078.93,1211.2,2128.44,1194.95,2178.08z M858.54,1431.24
			c2.83-3.85,5.06-6.89,6.55-9.09c30.68-45.49,59.77-82.79,88.95-114.06c45.26-48.49,93.97-75.93,162.86-91.73
			c23.62-5.42,47.61-11.01,70.81-16.43c105.1-24.52,213.78-49.88,322.06-66.44c74.96-11.47,173.38-23.89,269.99-18.12
			c70.82,4.23,137.88,23.57,194.72,42.49c0.01,0.07,0.03,0.15,0.04,0.22c0.02,0.08,0.04,0.16,0.06,0.24c0.03,0.1,0.05,0.2,0.09,0.3
			c0.03,0.07,0.06,0.15,0.08,0.22c0.04,0.1,0.08,0.2,0.12,0.29c0.04,0.08,0.08,0.15,0.12,0.22c0.05,0.09,0.09,0.18,0.15,0.26
			c0.05,0.08,0.1,0.16,0.16,0.24c0.05,0.08,0.1,0.15,0.16,0.22c0.07,0.09,0.14,0.17,0.21,0.25c0.05,0.06,0.11,0.13,0.16,0.19
			c0.08,0.08,0.16,0.16,0.25,0.24c0.06,0.06,0.12,0.11,0.18,0.17c0.09,0.07,0.18,0.14,0.27,0.22c0.07,0.06,0.14,0.11,0.22,0.17
			c0.08,0.06,0.17,0.12,0.26,0.17c0.09,0.06,0.18,0.12,0.28,0.17c0.04,0.02,0.08,0.05,0.13,0.07
			c-45.32,261.87-95.29,527.29-143.64,784.03c-10.87,57.73-22.11,117.4-33.12,176.15l-423.82-26.49c-6.56-0.41-14.08-0.4-22.05-0.39
			c-23.83,0.03-52.5,0.05-70.44-11.53c2.53-9.24,5.16-18.47,7.87-27.67c16.39-53.93,35.44-107.2,54.19-159.61
			c7.7-21.53,15.65-43.75,23.24-65.54c4.36-12.16,8.69-24.35,12.9-36.41c0.88-2.52,1.75-5.03,2.63-7.54
			c1.71-4.78,3.42-9.54,5.11-14.26c24.52-68.34,49.59-138.26,64.82-208.99c10.45-40.16,21.23-84.79,16.65-125.9
			c-1.71-15.37-5.89-29.54-12.12-42.05c-0.27-0.56-0.56-1.11-0.83-1.66c-0.1-0.2-0.2-0.4-0.3-0.6c-3.16-6.16-6.85-11.91-11.03-17.16
			c-0.43-0.55-0.86-1.09-1.3-1.62c-0.01-0.01-0.02-0.02-0.03-0.03c-0.01-0.01-0.02-0.02-0.03-0.03
			c-6.15-7.48-13.39-13.89-21.58-19.1c-0.36-0.23-0.72-0.45-1.08-0.67c-0.56-0.34-1.11-0.69-1.68-1.02
			c-0.59-0.35-1.19-0.68-1.78-1.02c-0.35-0.19-0.69-0.39-1.04-0.58c-0.52-0.28-1.04-0.56-1.56-0.83c-2.18-1.16-4.46-2.25-6.84-3.25
			c-0.25-0.1-0.49-0.21-0.74-0.31c-0.56-0.23-1.13-0.46-1.71-0.68c-0.2-0.08-0.4-0.15-0.6-0.23c-0.39-0.15-0.79-0.3-1.19-0.44
			c-0.52-0.19-1.03-0.38-1.56-0.56c-0.21-0.07-0.43-0.15-0.64-0.22c-0.53-0.18-1.06-0.34-1.6-0.51c-0.45-0.14-0.9-0.3-1.36-0.43
			c-0.14-0.04-0.29-0.09-0.43-0.13c-1.03-0.3-2.07-0.59-3.12-0.87c-0.07-0.02-0.14-0.04-0.22-0.06c0,0-0.01,0-0.01,0l0,0
			c0,0,0,0,0,0c-0.01,0-0.02-0.01-0.03-0.01l0,0c0,0-0.01,0-0.01,0l0,0c0,0,0,0-0.01,0l0,0c0,0,0,0,0,0l0,0c0,0,0,0,0,0l0,0
			c0,0,0,0,0,0v0c0,0,0,0,0,0l0,0c0,0,0,0,0,0l0,0c0,0-0.01,0-0.01,0l-0.73,2.84c0,0,0,0,0,0l0.72-2.84
			c-16.19-4.12-33.13-5.03-50.09-3.89c-47.63-1.22-97.14,13.09-144.23,30.25c-0.61,0.18-1.22,0.36-1.82,0.54
			c-24.7,7.3-49.37,15.48-73.77,24.1c-42.83,13.7-85.69,29.14-127.61,44.54c-14.29,4.91-28.5,9.85-42.49,14.71
			c-45.14,15.7-91.69,31.89-138.29,45.97C824.7,1477.27,846.76,1447.26,858.54,1431.24z M882.98,1490.02
			c-3.25,0.9-6.5,1.79-9.75,2.69c4.59-1.42,9.15-2.82,13.68-4.2C885.6,1489.02,884.29,1489.52,882.98,1490.02z M790.37,1521
			c-3.03,0.84-6.27,1.7-9.61,2.51c-0.02-0.01-0.04-0.03-0.06-0.04C783.93,1522.65,787.15,1521.83,790.37,1521z M825.15,1524.17
			c-1.37-0.81-2.54-1.75-3.52-2.81c13.02-3.1,26.1-6.21,39.25-9.22c-10.77,4.34-23.33,8.95-35.53,12.13
			C825.28,1524.24,825.21,1524.2,825.15,1524.17z M849.72,1508.55c11.77-4.11,23.48-8.4,35.14-12.83
			c13.68-3.77,27.43-7.52,41.25-11.11c-11.7,4.99-23.43,9.93-35.13,14.78C877.17,1502.27,863.41,1505.37,849.72,1508.55z
			 M933.73,1476.47c6.56-2.66,13.09-5.32,19.6-7.99c10.55-3.18,21.15-6.32,31.79-9.36c-8.42,3.66-16.9,7.35-25.42,11.04
			C951.01,1472.17,942.36,1474.28,933.73,1476.47z M1005.04,1447.38c2.29-0.92,4.59-1.85,6.88-2.76c8.01-2.55,16.05-5.09,24.12-7.58
			c-4.5,1.94-8.99,3.87-13.47,5.81C1016.72,1444.3,1010.88,1445.81,1005.04,1447.38z M815.22,1522.88c0.75,1.14,1.63,2.19,2.61,3.16
			c-8.85,1.87-17.25,2.75-24.31,1.97C800.79,1526.31,808.04,1524.59,815.22,1522.88z M877.49,1517.8c-1.62,0.5-3.41,1.08-5.32,1.71
			c-2.09,0.68-4.33,1.41-6.68,2.14c-7.08,0.98-14.15,2.04-21.21,3.16c14.59-5.01,28.28-10.97,37.88-15.15
			c2.79-1.22,5.2-2.27,6.99-3.01c1.2-0.49,2.39-0.99,3.59-1.49c12.73-2.65,25.5-5.1,38.3-7.25
			C913.45,1505.3,895.58,1512.2,877.49,1517.8z M975.67,1478.33l-4.54,2.03c-6.06,2.71-12.16,5.43-18.3,8.14
			c-10.97,1.5-21.92,3.27-32.85,5.24c13.92-5.9,27.8-11.87,41.58-17.84c12.1-2.78,24.23-5.35,36.39-7.6
			C990.51,1471.67,983.07,1475.03,975.67,1478.33z M1039.38,1449.34c-6.7,3.08-13.47,6.19-20.28,9.31
			c-9.93,1.49-19.85,3.24-29.74,5.17c1.2-0.52,2.41-1.05,3.6-1.57c10.43-4.54,20.96-9.12,31.53-13.7
			c10.91-2.71,21.86-5.22,32.83-7.44C1051.32,1443.86,1045.34,1446.61,1039.38,1449.34z M1079.62,1430.94
			c-8.27,1.34-16.53,2.87-24.77,4.56c9.44-4.03,18.91-8.05,28.41-12.02c9.3-2.43,18.63-4.69,27.97-6.73
			C1100.65,1421.43,1090.11,1426.18,1079.62,1430.94z M1136.4,1405.76c-6.09,1.02-12.17,2.15-18.24,3.39
			c6.59-2.65,13.18-5.28,19.77-7.86c0.24-0.09,0.48-0.19,0.72-0.28c7.37-1.97,14.76-3.84,22.17-5.55
			C1152.66,1398.84,1144.52,1402.28,1136.4,1405.76z M1190.95,1383.36c-4.36,0.71-8.72,1.5-13.08,2.34
			c1.66-0.64,3.32-1.28,4.98-1.92c7.27-2.03,14.62-3.96,22.02-5.74C1200.23,1379.79,1195.59,1381.56,1190.95,1383.36z
			 M1339.17,1750.25c3.39-9.09,6.78-18.16,10.14-27.24c3.51-9.46,7.04-18.93,10.59-28.4c24.82-66.41,50.49-135.07,66.13-205.17
			c4.94-22.14,11.71-52.46,10.33-79.78c-0.55-10.87-2.38-20.58-5.46-29.13c1.9,4.27,3.42,8.88,4.55,13.83
			c6.99,30.79,0.97,65.07-5.21,94.79c-11.27,54.17-29.21,106.18-48.17,159.12c-11.88,33.19-25.23,67.1-38.14,99.9
			c-19.1,48.52-38.57,97.98-54.63,148.24c-1.26,3.04-2.52,6.09-3.77,9.14C1300.88,1852.82,1320.28,1800.83,1339.17,1750.25z
			 M2444.26,2237.75c-31.35,84.23-74.1,168.79-127.08,251.33c-50.57,78.79-108.98,153.54-173.6,222.17
			c-49.54,52.61-126.58,125.96-223.14,155.32c-45,13.68-93.22,19.84-147.39,18.85c-45.19-0.83-93.74-6.71-148.43-17.98
			c-105.04-21.63-208.74-56.76-305.16-91.5c-8.58-3.09-17.32-6.12-25.77-9.05c-70.57-24.47-137.23-47.58-169.91-121.31
			c-18.13-40.89-24.01-89.71-18.52-153.64c6.99-81.41,29.6-160.79,50.79-227.71c23.41-73.92,50.72-147.23,79.33-219.47
			c-21.75,56.62-42.63,113.86-61.31,171.4c-22.38,68.91-46.56,150.67-56.32,234.59c-4.85,41.74-9.02,103.74,10.69,159.99
			c14.01,39.97,40.1,73.06,75.45,95.69c25.9,16.58,54.57,25.31,82.3,33.76c11.36,3.46,23.12,7.04,34.58,11.12
			c88.5,31.51,191.55,66.84,294.63,87.24c60.1,11.89,113.93,17.86,162.86,17.86c61.07,0,114.49-9.3,162.85-27.97
			c45.11-17.42,88.57-44.15,132.88-81.73c34.81-29.52,70.42-66.19,108.87-112.12c88.83-107.57,159.34-220.38,209.58-335.3
			c56.95-130.29,85.76-259.37,85.63-383.66c-0.09-83.21-11.65-166.6-34.36-247.86c-22.73-81.34-56.12-158.67-99.23-229.85
			c-35.57-58.73-79.38-110.55-130.46-154.44c57.04,45.08,105.34,98.33,144.54,159.48c45.85,71.55,81.3,149.52,105.35,231.74
			c24.03,82.15,36.22,166.92,36.22,251.97C2500.12,2033.5,2481.32,2138.17,2444.26,2237.75z"/>
	</g>
</g>
<g id="Layer_2" class="st0">
	<g class="st1">
		<polygon class="st4" points="900,0 100,700 200,1900 1800,2000 2100,400 		"/>
		<circle class="st4" cx="1601.58" cy="1801.58" r="898.42"/>
	</g>
</g>
</svg>
