<?xml version="1.0" encoding="UTF-8"?>
<svg width="369px" height="167px" viewBox="0 0 369 167" version="1.1" xmlns="http://www.w3.org/2000/svg" xmlns:xlink="http://www.w3.org/1999/xlink">
    <title>Process</title>
    <g id="Process" stroke="none" stroke-width="1" fill="none" fill-rule="evenodd">
        <path d="M105.7963,70.1218 C103.3763,70.1218 101.4153,72.0838 101.4153,74.5028 L101.4153,92.0278 C101.4153,94.4478 103.3763,96.4088 105.7963,96.4088 L161.2923,96.4088 C163.7113,96.4088 165.6733,94.4478 165.6733,92.0278 L165.6733,74.5028 C165.6733,72.0838 163.7113,70.1218 161.2923,70.1218 L105.7963,70.1218 Z" id="Fill-510" fill="#F5F5F5"></path>
        <path d="M111.339858,86.7068648 C112.829515,86.7068648 113.960083,85.9855898 113.960083,84.4330148 L113.960083,80.7573648 L112.411583,80.7573648 L112.411583,84.2903898 C112.411583,85.0981363 112.037172,85.4771113 111.339858,85.4771113 C110.642625,85.4771113 110.268133,85.0981363 110.268133,84.2903898 L110.268133,80.7573648 L108.719633,80.7573648 L108.719633,84.4330148 C108.719633,85.9855898 109.850201,86.7068648 111.339858,86.7068648 Z M116.635646,86.6802143 C117.853174,86.6802143 118.779096,86.2649718 118.779096,85.2648038 C118.779096,84.2555893 117.978114,84.0215213 117.171672,83.8911213 L116.712582,83.8200533 C116.285603,83.7502893 116.034258,83.6665073 116.034258,83.4211108 C116.034258,83.1630818 116.280143,83.0254283 116.606551,83.0254283 C116.980554,83.0254283 117.239561,83.2323568 117.2971,83.5728638 L118.63639,83.4450718 C118.481132,82.5834538 117.660264,82.1460433 116.591228,82.1460433 C115.571174,82.1460433 114.593582,82.5956788 114.593582,83.5116573 C114.593582,84.4670003 115.353325,84.7304898 116.068732,84.8387218 L116.583078,84.9179398 C117.034099,84.9899858 117.303049,85.1122358 117.303049,85.3363608 C117.303049,85.6211218 117.053089,85.7972433 116.646078,85.7972433 C116.184217,85.7972433 115.893588,85.5835503 115.825617,85.1724643 L114.456906,85.3119108 C114.603606,86.2119968 115.476553,86.6802143 116.635646,86.6802143 Z M121.450829,86.6801329 C122.916525,86.6801329 123.544075,85.8701044 123.6867,85.2683898 L122.201118,85.1859933 C122.142275,85.4463858 121.951158,85.7424753 121.450829,85.7424753 C120.965497,85.7424753 120.643083,85.3499713 120.636318,84.6992753 L123.734622,84.6992753 C123.836986,83.0058683 122.903811,82.1460433 121.448547,82.1460433 C119.991979,82.1460433 119.150736,83.0035863 119.150736,84.4212788 C119.150736,85.8284579 120.006975,86.6801329 121.450829,86.6801329 Z M122.249122,83.8670788 L120.64675,83.8670788 C120.664843,83.3920968 120.960933,83.0542794 121.448628,83.0542794 C121.934858,83.0542794 122.231028,83.3920968 122.249122,83.8670788 Z M125.758593,86.5764648 L125.758593,84.5159003 C125.758593,83.7094579 126.203665,83.4753898 126.798615,83.4753898 C126.973351,83.4753898 127.178894,83.4975579 127.27539,83.5079898 L127.27539,82.1750573 C127.222415,82.1564753 127.140426,82.1460433 127.057133,82.1460433 C126.398776,82.1460433 125.979947,82.4448224 125.732758,82.9288509 L125.700158,82.9288509 L125.700158,82.2497113 L124.310583,82.2497113 L124.310583,86.5764648 L125.758593,86.5764648 Z M132.624072,86.5764648 L132.624072,82.0365073 L134.43655,82.0365073 L134.43655,80.7573648 L129.263093,80.7573648 L129.263093,82.0365073 L131.075572,82.0365073 L131.075572,86.5764648 L132.624072,86.5764648 Z M135.729629,86.6801329 C137.195325,86.6801329 137.822875,85.8701044 137.9655,85.2683898 L136.479918,85.1859933 C136.421075,85.4463858 136.229958,85.7424753 135.729629,85.7424753 C135.244297,85.7424753 134.921883,85.3499713 134.915118,84.6992753 L138.013422,84.6992753 C138.115786,83.0058683 137.182611,82.1460433 135.727347,82.1460433 C134.270779,82.1460433 133.429536,83.0035863 133.429536,84.4212788 C133.429536,85.8284579 134.285775,86.6801329 135.729629,86.6801329 Z M136.527922,83.8670788 L134.92555,83.8670788 C134.943643,83.3920968 135.239733,83.0542794 135.727428,83.0542794 C136.213658,83.0542794 136.509828,83.3920968 136.527922,83.8670788 Z M140.474396,86.6802143 C141.691924,86.6802143 142.617846,86.2649718 142.617846,85.2648038 C142.617846,84.2555893 141.816864,84.0215213 141.010422,83.8911213 L140.551332,83.8200533 C140.124353,83.7502893 139.873008,83.6665073 139.873008,83.4211108 C139.873008,83.1630818 140.118893,83.0254283 140.445301,83.0254283 C140.819304,83.0254283 141.078311,83.2323568 141.13585,83.5728638 L142.47514,83.4450718 C142.319882,82.5834538 141.499014,82.1460433 140.429978,82.1460433 C139.409924,82.1460433 138.432332,82.5956788 138.432332,83.5116573 C138.432332,84.4670003 139.192075,84.7304898 139.907482,84.8387218 L140.421828,84.9179398 C140.872849,84.9899858 141.141799,85.1122358 141.141799,85.3363608 C141.141799,85.6211218 140.891839,85.7972433 140.484828,85.7972433 C140.022967,85.7972433 139.732338,85.5835503 139.664367,85.1724643 L138.295656,85.3119108 C138.442356,86.2119968 139.315303,86.6802143 140.474396,86.6802143 Z M145.770999,86.5764648 L145.770999,85.5097113 C145.727519,85.5108523 145.683367,85.5114228 145.632256,85.5117081 L145.451764,85.5119933 L145.451764,85.5119933 C145.06684,85.5119933 144.923807,85.4712433 144.923807,85.1013148 L144.923807,83.1562358 L145.784528,83.1562358 L145.784528,82.2497928 L144.923807,82.2497928 L144.923807,81.0589963 L143.475797,81.0589963 L143.475797,82.2497928 L142.813853,82.2497928 L142.813853,83.1562358 L143.475797,83.1562358 L143.475797,85.4472823 C143.475797,86.3899113 143.881503,86.5927648 144.886724,86.5927648 C145.239864,86.5927648 145.64011,86.5904829 145.770999,86.5764648 Z M147.730993,81.7240363 L147.730993,80.6758648 L146.282983,80.6758648 L146.282983,81.7240363 L147.730993,81.7240363 Z M147.730993,86.5764648 L147.730993,82.2497113 L146.282983,82.2497113 L146.282983,86.5764648 L147.730993,86.5764648 Z M149.923343,86.5764648 L149.923343,84.2423863 C149.923343,83.5822363 150.28015,83.2906294 150.688547,83.2906294 C151.11145,83.2906294 151.351386,83.5053003 151.351386,84.0825648 L151.351386,86.5764648 L152.799397,86.5764648 L152.799397,83.7475183 C152.799397,82.6495503 152.167283,82.1460433 151.287083,82.1460433 C150.571268,82.1460433 150.149261,82.4842683 149.897508,82.8356148 L149.864908,82.8356148 L149.864908,82.2497113 L148.475333,82.2497113 L148.475333,86.5764648 L149.923343,86.5764648 Z M155.622475,88.1798143 C156.903818,88.1798143 157.906268,87.7053213 157.906268,86.2278893 L157.906268,82.2497113 L156.516693,82.2497113 L156.516693,82.7916863 L156.484093,82.7916863 C156.191182,82.2895648 155.691261,82.1460433 155.178708,82.1460433 C154.132818,82.1460433 153.351722,82.9325183 153.351722,84.2442608 C153.351722,85.5640718 154.132818,86.3542143 155.13755,86.3542143 C155.75149,86.3542143 156.162168,86.1658678 156.425739,85.7891748 L156.458339,85.7891748 L156.458339,86.2048248 C156.458339,86.9142823 156.102917,87.1633463 155.622475,87.1633463 C155.185146,87.1633463 154.930703,86.9904033 154.80886,86.6218603 L153.35816,86.7223498 C153.62711,87.7745963 154.513178,88.1798143 155.622475,88.1798143 Z M155.678628,85.2974853 C155.162897,85.2974853 154.82785,84.9071818 154.82785,84.2442608 C154.82785,83.5954393 155.162897,83.2132858 155.678628,83.2132858 C156.18621,83.2132858 156.527125,83.5954393 156.527125,84.2442608 C156.527125,84.9071818 156.18621,85.2974853 155.678628,85.2974853 Z" id="UserTesting" fill="#000000" fill-rule="nonzero"></path>
        <path d="M207.2116,70.1218 C204.7916,70.1218 202.8306,72.0838 202.8306,74.5028 L202.8306,92.0278 C202.8306,94.4478 204.7916,96.4088 207.2116,96.4088 L262.7076,96.4088 C265.1266,96.4088 267.0886,94.4478 267.0886,92.0278 L267.0886,74.5028 C267.0886,72.0838 265.1266,70.1218 262.7076,70.1218 L207.2116,70.1218 Z" id="Fill-512" fill="#F5F5F5"></path>
        <path d="M217.522864,86.5764648 L217.522864,84.6123148 L218.43436,84.6123148 L219.529068,86.5764648 L221.326632,86.5764648 L220.027848,84.4320369 C220.753931,84.1486613 221.160453,83.5416494 221.160453,82.6848398 C221.160453,81.4700823 220.343172,80.7573648 218.956775,80.7573648 L215.974364,80.7573648 L215.974364,86.5764648 L217.522864,86.5764648 Z M218.695567,83.4283643 L217.522864,83.4282829 L217.522864,81.9413968 L218.695567,81.9413968 C219.285953,81.9413968 219.583917,82.2257503 219.583917,82.6848398 C219.583917,83.1440108 219.285953,83.4283643 218.695567,83.4283643 Z M223.579129,86.6801329 C225.044825,86.6801329 225.672375,85.8701044 225.815,85.2683898 L224.329418,85.1859933 C224.270575,85.4463858 224.079458,85.7424753 223.579129,85.7424753 C223.093797,85.7424753 222.771383,85.3499713 222.764618,84.6992753 L225.862922,84.6992753 C225.965286,83.0058683 225.032111,82.1460433 223.576847,82.1460433 C222.120279,82.1460433 221.279036,83.0035863 221.279036,84.4212788 C221.279036,85.8284579 222.135275,86.6801329 223.579129,86.6801329 Z M224.377422,83.8670788 L222.77505,83.8670788 C222.793143,83.3920968 223.089233,83.0542794 223.576928,83.0542794 C224.063158,83.0542794 224.359328,83.3920968 224.377422,83.8670788 Z M229.013386,86.5764648 L230.55284,82.2497113 L229.018358,82.2497113 L228.180293,85.0180218 L228.147693,85.0180218 L227.298708,82.2497113 L225.739776,82.2497113 L227.278333,86.5764648 L229.013386,86.5764648 Z M232.344943,81.7240363 L232.344943,80.6758648 L230.896933,80.6758648 L230.896933,81.7240363 L232.344943,81.7240363 Z M232.344943,86.5764648 L232.344943,82.2497113 L230.896933,82.2497113 L230.896933,86.5764648 L232.344943,86.5764648 Z M234.974296,86.6802143 C236.191824,86.6802143 237.117746,86.2649718 237.117746,85.2648038 C237.117746,84.2555893 236.316764,84.0215213 235.510322,83.8911213 L235.051232,83.8200533 C234.624253,83.7502893 234.372908,83.6665073 234.372908,83.4211108 C234.372908,83.1630818 234.618793,83.0254283 234.945201,83.0254283 C235.319204,83.0254283 235.578211,83.2323568 235.63575,83.5728638 L236.97504,83.4450718 C236.819782,82.5834538 235.998914,82.1460433 234.929878,82.1460433 C233.909824,82.1460433 232.932232,82.5956788 232.932232,83.5116573 C232.932232,84.4670003 233.691975,84.7304898 234.407382,84.8387218 L234.921728,84.9179398 C235.372749,84.9899858 235.641699,85.1122358 235.641699,85.3363608 C235.641699,85.6211218 235.391739,85.7972433 234.984728,85.7972433 C234.522867,85.7972433 234.232238,85.5835503 234.164267,85.1724643 L232.795556,85.3119108 C232.942256,86.2119968 233.815203,86.6802143 234.974296,86.6802143 Z M239.109443,81.7240363 L239.109443,80.6758648 L237.661433,80.6758648 L237.661433,81.7240363 L239.109443,81.7240363 Z M239.109443,86.5764648 L239.109443,82.2497113 L237.661433,82.2497113 L237.661433,86.5764648 L239.109443,86.5764648 Z M242.005872,86.6801329 C243.469204,86.6801329 244.327725,85.8307398 244.327725,84.4189968 C244.327725,83.0013858 243.469204,82.1460433 242.005872,82.1460433 C240.534308,82.1460433 239.681736,83.0013858 239.681736,84.4189968 C239.681736,85.8307398 240.534308,86.6801329 242.005872,86.6801329 Z M242.005872,85.6423933 C241.489243,85.6423933 241.157783,85.3005823 241.157783,84.4189968 C241.157783,83.5374928 241.489243,83.1838643 242.005872,83.1838643 C242.520218,83.1838643 242.851597,83.5374928 242.851597,84.4189968 C242.851597,85.3005823 242.520218,85.6423933 242.005872,85.6423933 Z M246.346643,86.5764648 L246.346643,84.2423863 C246.346643,83.5822363 246.70345,83.2906294 247.111847,83.2906294 C247.53475,83.2906294 247.774686,83.5053003 247.774686,84.0825648 L247.774686,86.5764648 L249.222697,86.5764648 L249.222697,83.7475183 C249.222697,82.6495503 248.590583,82.1460433 247.710383,82.1460433 C246.994568,82.1460433 246.572561,82.4842683 246.320808,82.8356148 L246.288208,82.8356148 L246.288208,82.2497113 L244.898633,82.2497113 L244.898633,86.5764648 L246.346643,86.5764648 Z M251.820346,86.6802143 C253.037874,86.6802143 253.963796,86.2649718 253.963796,85.2648038 C253.963796,84.2555893 253.162814,84.0215213 252.356372,83.8911213 L251.897282,83.8200533 C251.470303,83.7502893 251.218958,83.6665073 251.218958,83.4211108 C251.218958,83.1630818 251.464843,83.0254283 251.791251,83.0254283 C252.165254,83.0254283 252.424261,83.2323568 252.4818,83.5728638 L253.82109,83.4450718 C253.665832,82.5834538 252.844964,82.1460433 251.775928,82.1460433 C250.755874,82.1460433 249.778282,82.5956788 249.778282,83.5116573 C249.778282,84.4670003 250.538025,84.7304898 251.253432,84.8387218 L251.767778,84.9179398 C252.218799,84.9899858 252.487749,85.1122358 252.487749,85.3363608 C252.487749,85.6211218 252.237789,85.7972433 251.830778,85.7972433 C251.368917,85.7972433 251.078288,85.5835503 251.010317,85.1724643 L249.641606,85.3119108 C249.788306,86.2119968 250.661253,86.6802143 251.820346,86.6802143 Z" id="Revisions" fill="#000000" fill-rule="nonzero"></path>
        <path d="M308.6269,70.1218 C306.2069,70.1218 304.2459,72.0838 304.2459,74.5028 L304.2459,92.0278 C304.2459,94.4478 306.2069,96.4088 308.6269,96.4088 L364.1229,96.4088 C366.5419,96.4088 368.5039,94.4478 368.5039,92.0278 L368.5039,74.5028 C368.5039,72.0838 366.5419,70.1218 364.1229,70.1218 L308.6269,70.1218 Z" id="Fill-514" fill="#F5F5F5"></path>
        <path d="M321.752529,86.5764648 C322.990433,86.5764648 323.709426,85.9317183 323.709426,84.8387218 C323.709426,84.1532253 323.303311,83.7240463 322.77079,83.4981283 L322.77079,83.4655283 C323.217247,83.2499608 323.519694,82.8778318 323.519694,82.3172748 C323.519694,81.3813288 322.821565,80.7574463 321.625308,80.7574463 L318.573133,80.7573648 L318.573133,86.5764648 L321.752529,86.5764648 Z M321.283008,83.1069283 L320.121633,83.1069283 L320.121633,81.8943713 L321.283008,81.8943713 C321.744379,81.8943713 321.984315,82.1275428 321.984315,82.5006498 C321.984315,82.8737568 321.744379,83.1069283 321.283008,83.1069283 Z M321.386676,85.4115853 L320.121633,85.4115853 L320.121633,84.1184248 L321.386676,84.1184248 C321.877958,84.1184248 322.13289,84.3665923 322.13289,84.7650458 C322.13289,85.1634993 321.877958,85.4115853 321.386676,85.4115853 Z M326.414329,86.6801329 C327.880025,86.6801329 328.507575,85.8701044 328.6502,85.2683898 L327.164618,85.1859933 C327.105775,85.4463858 326.914658,85.7424753 326.414329,85.7424753 C325.928997,85.7424753 325.606583,85.3499713 325.599818,84.6992753 L328.698122,84.6992753 C328.800486,83.0058683 327.867311,82.1460433 326.412047,82.1460433 C324.955479,82.1460433 324.114236,83.0035863 324.114236,84.4212788 C324.114236,85.8284579 324.970475,86.6801329 326.414329,86.6801329 Z M327.212622,83.8670788 L325.61025,83.8670788 C325.628343,83.3920968 325.924433,83.0542794 326.412128,83.0542794 C326.898358,83.0542794 327.194528,83.3920968 327.212622,83.8670788 Z M331.818349,86.5764648 L331.818349,85.5097113 C331.774869,85.5108523 331.730717,85.5114228 331.679606,85.5117081 L331.499114,85.5119933 L331.499114,85.5119933 C331.11419,85.5119933 330.971157,85.4712433 330.971157,85.1013148 L330.971157,83.1562358 L331.831878,83.1562358 L331.831878,82.2497928 L330.971157,82.2497928 L330.971157,81.0589963 L329.523147,81.0589963 L329.523147,82.2497928 L328.861203,82.2497928 L328.861203,83.1562358 L329.523147,83.1562358 L329.523147,85.4472823 C329.523147,86.3899113 329.928853,86.5927648 330.934074,86.5927648 C331.287214,86.5927648 331.68746,86.5904829 331.818349,86.5764648 Z M333.639874,86.6802143 C334.294645,86.6802143 334.832545,86.4022178 335.047135,85.9471218 C335.047135,86.2500573 335.082913,86.4795613 335.165799,86.5764648 L336.606882,86.5764648 C336.500932,86.4221038 336.492782,86.1834718 336.492782,85.7673329 L336.492782,83.6288544 C336.492782,82.6997544 335.818614,82.1460433 334.4693,82.1460433 C333.351853,82.1460433 332.552257,82.6458829 332.358939,83.5120648 L333.710046,83.6502073 C333.823738,83.2884288 334.090895,83.0919323 334.442649,83.0919323 C334.818038,83.0919323 335.044853,83.2409143 335.044853,83.5098643 C335.044853,83.7552608 334.821217,83.8607218 333.935556,83.9834608 C332.825363,84.1328503 332.190152,84.4869678 332.190152,85.4101998 C332.190152,86.2147678 332.900995,86.6802143 333.639874,86.6802143 Z M334.185517,85.7705928 C333.872638,85.7705928 333.666117,85.5881143 333.666117,85.2983003 C333.666117,84.9786573 333.915589,84.7961788 334.299128,84.7273928 C334.65406,84.6644748 334.906303,84.6205463 335.044853,84.5385573 L335.044853,84.9166358 C335.044853,85.5351393 334.535967,85.7705928 334.185517,85.7705928 Z M342.086372,86.5764648 L342.086372,82.0365073 L343.89885,82.0365073 L343.89885,80.7573648 L338.725393,80.7573648 L338.725393,82.0365073 L340.537872,82.0365073 L340.537872,86.5764648 L342.086372,86.5764648 Z M345.192744,86.6801329 C346.65844,86.6801329 347.28599,85.8701044 347.428615,85.2683898 L345.943033,85.1859933 C345.88419,85.4463858 345.693073,85.7424753 345.192744,85.7424753 C344.707412,85.7424753 344.384998,85.3499713 344.378233,84.6992753 L347.476537,84.6992753 C347.578901,83.0058683 346.645726,82.1460433 345.190462,82.1460433 C343.733894,82.1460433 342.892651,83.0035863 342.892651,84.4212788 C342.892651,85.8284579 343.74889,86.6801329 345.192744,86.6801329 Z M345.991037,83.8670788 L344.388665,83.8670788 C344.406758,83.3920968 344.702848,83.0542794 345.190543,83.0542794 C345.676773,83.0542794 345.972943,83.3920968 345.991037,83.8670788 Z M349.937511,86.6802143 C351.155039,86.6802143 352.080961,86.2649718 352.080961,85.2648038 C352.080961,84.2555893 351.279979,84.0215213 350.473537,83.8911213 L350.014447,83.8200533 C349.587468,83.7502893 349.336123,83.6665073 349.336123,83.4211108 C349.336123,83.1630818 349.582008,83.0254283 349.908416,83.0254283 C350.282419,83.0254283 350.541426,83.2323568 350.598965,83.5728638 L351.938255,83.4450718 C351.782997,82.5834538 350.962129,82.1460433 349.893093,82.1460433 C348.873039,82.1460433 347.895447,82.5956788 347.895447,83.5116573 C347.895447,84.4670003 348.65519,84.7304898 349.370597,84.8387218 L349.884943,84.9179398 C350.335964,84.9899858 350.604914,85.1122358 350.604914,85.3363608 C350.604914,85.6211218 350.354954,85.7972433 349.947943,85.7972433 C349.486082,85.7972433 349.195453,85.5835503 349.127482,85.1724643 L347.758771,85.3119108 C347.905471,86.2119968 348.778418,86.6802143 349.937511,86.6802143 Z M355.234114,86.5764648 L355.234114,85.5097113 C355.190634,85.5108523 355.146482,85.5114228 355.095371,85.5117081 L354.914879,85.5119933 L354.914879,85.5119933 C354.529955,85.5119933 354.386922,85.4712433 354.386922,85.1013148 L354.386922,83.1562358 L355.247643,83.1562358 L355.247643,82.2497928 L354.386922,82.2497928 L354.386922,81.0589963 L352.938912,81.0589963 L352.938912,82.2497928 L352.276968,82.2497928 L352.276968,83.1562358 L352.938912,83.1562358 L352.938912,85.4472823 C352.938912,86.3899113 353.344618,86.5927648 354.349839,86.5927648 C354.702979,86.5927648 355.103225,86.5904829 355.234114,86.5764648 Z" id="BetaTest" fill="#000000" fill-rule="nonzero"></path>
        <line x1="270.6754" y1="83.2656" x2="300.9024" y2="83.2656" id="Stroke-516" stroke="#5FBAB1" stroke-width="0.773" stroke-linecap="round" stroke-linejoin="round"></line>
        <polyline id="Stroke-517" stroke="#5FBAB1" stroke-width="0.773" stroke-linecap="round" stroke-linejoin="round" points="297.142 79.769 300.903 83.266 297.142 86.762"></polyline>
        <line x1="68.0172" y1="83.2656" x2="98.2432" y2="83.2656" id="Stroke-518" stroke="#5FBAB1" stroke-width="0.774" stroke-linecap="round" stroke-linejoin="round"></line>
        <polyline id="Stroke-519" stroke="#5FBAB1" stroke-width="0.774" stroke-linecap="round" stroke-linejoin="round" points="94.4813 79.7685 98.2433 83.2655 94.4813 86.7635"></polyline>
        <path d="M4.381,2.84217094e-14 C1.961,2.84217094e-14 1.42108547e-14,1.962 1.42108547e-14,4.381 L1.42108547e-14,36.51 C1.42108547e-14,38.93 1.961,40.891 4.381,40.891 L59.877,40.891 C62.296,40.891 64.258,38.93 64.258,36.51 L64.258,4.381 C64.258,1.962 62.296,2.84217094e-14 59.877,2.84217094e-14 L4.381,2.84217094e-14 Z" id="Fill-520" fill="#FAE6E6"></path>
        <path d="M10.8895355,18.3951648 L11.5379495,14.4768079 L11.5705495,14.4768079 L12.235182,18.3951648 L14.172111,18.3951648 L15.4774965,12.5760648 L13.872843,12.5760648 L13.123043,16.6556288 L13.090443,16.6556288 L12.416275,12.5760648 L10.675761,12.5760648 L10.001593,16.6556288 L9.96899301,16.6556288 L9.221475,12.5760648 L7.64265699,12.5760648 L8.9434785,18.3951648 L10.8895355,18.3951648 Z M17.3682965,18.4988329 C18.831629,18.4988329 19.69015,17.6494398 19.69015,16.2376968 C19.69015,14.8200858 18.831629,13.9647433 17.3682965,13.9647433 C15.8967325,13.9647433 15.044161,14.8200858 15.044161,16.2376968 C15.044161,17.6494398 15.8967325,18.4988329 17.3682965,18.4988329 Z M17.3682965,17.4610933 C16.851668,17.4610933 16.5202075,17.1192823 16.5202075,16.2376968 C16.5202075,15.3561928 16.851668,15.0025643 17.3682965,15.0025643 C17.882643,15.0025643 18.214022,15.3561928 18.214022,16.2376968 C18.214022,17.1192823 17.882643,17.4610933 17.3682965,17.4610933 Z M21.709068,18.3951648 L21.709068,16.3346003 C21.709068,15.5281579 22.1541395,15.2940898 22.7490895,15.2940898 C22.9238255,15.2940898 23.1293685,15.3162579 23.2258645,15.3266898 L23.2258645,13.9937573 C23.1728895,13.9751753 23.0909005,13.9647433 23.0076075,13.9647433 C22.3492505,13.9647433 21.930422,14.2635224 21.6832325,14.7475509 L21.6506325,14.7475509 L21.6506325,14.0684113 L20.2610575,14.0684113 L20.2610575,18.3951648 L21.709068,18.3951648 Z M25.140218,18.3951648 L25.140218,17.2075468 L25.591239,16.7103968 L26.624007,18.3951648 L28.276175,18.3951648 L26.5569325,15.7382648 L28.100461,14.0684113 L26.517079,14.0684113 L25.140218,15.6843933 L25.140218,12.4945648 L23.6922075,12.4945648 L23.6922075,18.3951648 L25.140218,18.3951648 Z M30.230871,18.4989143 C31.4483995,18.4989143 32.374321,18.0836718 32.374321,17.0835038 C32.374321,16.0742893 31.573339,15.8402213 30.7668965,15.7098213 L30.307807,15.6387533 C29.8808285,15.5689893 29.6294825,15.4852073 29.6294825,15.2398108 C29.6294825,14.9817818 29.875368,14.8441283 30.2017755,14.8441283 C30.575779,14.8441283 30.834786,15.0510568 30.892325,15.3915638 L32.2316145,15.2637718 C32.076357,14.4021538 31.255489,13.9647433 30.1864535,13.9647433 C29.1663995,13.9647433 28.188807,14.4143788 28.188807,15.3303573 C28.188807,16.2857003 28.94855,16.5491898 29.663957,16.6574218 L30.1783035,16.7366398 C30.6293245,16.8086858 30.8982745,16.9309358 30.8982745,17.1550608 C30.8982745,17.4398218 30.648314,17.6159433 30.241303,17.6159433 C29.7794425,17.6159433 29.4888134,17.4022503 29.4208425,16.9911643 L28.0521315,17.1306108 C28.1988315,18.0306968 29.071778,18.4989143 30.230871,18.4989143 Z M37.2420715,18.3952463 L37.2420715,15.5662998 C37.2420715,14.4683318 36.6099575,13.9648248 35.7600755,13.9648248 C35.072297,13.9648248 34.65844,14.3030498 34.3985366,14.6543963 L34.366018,14.6543148 L34.366018,12.4945648 L32.9180075,12.4945648 L32.9180075,18.3951648 L34.366018,18.3951648 L34.366018,16.0837433 C34.366018,15.4235933 34.7273075,15.1094108 35.1312215,15.1094108 C35.554125,15.1094108 35.794061,15.3240003 35.794061,15.9013463 L35.794061,18.3952463 L37.2420715,18.3952463 Z M40.1067965,18.4988329 C41.570129,18.4988329 42.42865,17.6494398 42.42865,16.2376968 C42.42865,14.8200858 41.570129,13.9647433 40.1067965,13.9647433 C38.6352325,13.9647433 37.782661,14.8200858 37.782661,16.2376968 C37.782661,17.6494398 38.6352325,18.4988329 40.1067965,18.4988329 Z M40.1067965,17.4610933 C39.590168,17.4610933 39.2587075,17.1192823 39.2587075,16.2376968 C39.2587075,15.3561928 39.590168,15.0025643 40.1067965,15.0025643 C40.621143,15.0025643 40.952522,15.3561928 40.952522,16.2376968 C40.952522,17.1192823 40.621143,17.4610933 40.1067965,17.4610933 Z M44.447568,19.8947648 L44.447568,17.8767433 L44.480168,17.8767433 C44.7459395,18.2847323 45.1611005,18.4989143 45.779604,18.4988329 C46.7911005,18.4988329 47.576679,17.6435718 47.576679,16.2258794 C47.576679,14.8141363 46.7911005,13.9647433 45.7384465,13.9647433 C45.221329,13.9647433 44.7169255,14.1186968 44.4217325,14.6498323 L44.3891325,14.6498323 L44.3891325,14.0684113 L42.9995575,14.0684113 L42.9995575,19.8947648 L44.447568,19.8947648 Z M45.2385255,17.4316718 C44.724179,17.4316718 44.3787005,17.0780433 44.3787005,16.2318288 C44.3787005,15.3914823 44.724179,15.0378538 45.2385255,15.0378538 C45.761022,15.0378538 46.1006325,15.3914823 46.1006325,16.2318288 C46.1006325,17.0780433 45.761022,17.4316718 45.2385255,17.4316718 Z M52.1290243,18.5165999 C52.7587749,18.5165999 53.3568219,18.3151319 53.8445995,17.9434919 L54.287389,18.3951648 L55.978025,18.3951648 L54.629363,17.0209933 C54.8835616,16.5514718 55.0317285,15.9829279 55.0317285,15.3321503 L53.821861,15.3321503 C53.821861,15.5861044 53.7872235,15.8455189 53.717541,16.0919749 L52.915581,15.274856 L53.304336,15.060022 C53.823654,14.7729789 54.247943,14.4510539 54.247943,13.8674324 C54.247943,13.0479499 53.4556,12.4457464 52.367575,12.4457464 C51.27955,12.4457464 50.487207,13.0479499 50.487207,13.8674324 C50.487207,14.2344269 50.6045669,14.5623014 51.0823199,15.1082699 L50.8747394,15.2081074 C50.1403429,15.5631214 49.7478389,15.9936859 49.7478389,16.7738039 C49.7478389,17.9741359 50.9074208,18.5165999 52.1290243,18.5165999 Z M52.2186745,14.5613233 C51.9400259,14.2656413 51.8189169,14.0934318 51.8189169,13.9054928 C51.8188355,13.6741143 51.989089,13.4001928 52.3676565,13.4001928 C52.7461425,13.4001928 52.916396,13.6741143 52.916396,13.9054928 C52.916396,14.1708568 52.72536,14.3179643 52.3771919,14.4850393 L52.2186745,14.5613233 Z M52.1290245,17.4566108 C51.506935,17.4566108 51.174578,17.1473998 51.174578,16.7258818 C51.174578,16.3731498 51.3855815,16.1218038 51.769039,15.9085998 L51.821525,15.8795858 L53.05951,17.1425913 C52.810935,17.3379468 52.5010719,17.4566108 52.1290245,17.4566108 Z M13.8479855,28.3951648 L14.4963995,24.4768079 L14.5289995,24.4768079 L15.193632,28.3951648 L17.130561,28.3951648 L18.4359465,22.5760648 L16.831293,22.5760648 L16.081493,26.6556288 L16.048893,26.6556288 L15.374725,22.5760648 L13.634211,22.5760648 L12.960043,26.6556288 L12.927443,26.6556288 L12.179925,22.5760648 L10.601107,22.5760648 L11.9019285,28.3951648 L13.8479855,28.3951648 Z M20.323568,23.5427363 L20.323568,22.4945648 L18.8755575,22.4945648 L18.8755575,23.5427363 L20.323568,23.5427363 Z M20.323568,28.3951648 L20.323568,24.0684113 L18.8755575,24.0684113 L18.8755575,28.3951648 L20.323568,28.3951648 Z M22.515918,28.3951648 L22.515918,26.3346003 C22.515918,25.5281579 22.9609895,25.2940898 23.5559395,25.2940898 C23.6607811,25.2940898 23.7767133,25.3020703 23.8735274,25.310708 L24.0327145,25.3266898 L24.0327145,25.3266898 L24.0327145,23.9937573 C23.9797395,23.9751753 23.8977505,23.9647433 23.8144575,23.9647433 C23.1561005,23.9647433 22.737272,24.2635224 22.4900825,24.7475509 L22.4574825,24.7475509 L22.4574825,24.0684113 L21.0679075,24.0684113 L21.0679075,28.3951648 L22.515918,28.3951648 Z M26.586354,28.4988329 C28.05205,28.4988329 28.6796,27.6888044 28.822225,27.0870898 L27.336643,27.0046933 C27.2778,27.2650858 27.0866825,27.5611753 26.586354,27.5611753 C26.1010215,27.5611753 25.7786075,27.1686713 25.771843,26.5179753 L28.870147,26.5179753 C28.972511,24.8245683 28.039336,23.9647433 26.584072,23.9647433 C25.127504,23.9647433 24.286261,24.8222863 24.286261,26.2399788 C24.286261,27.6471579 25.1425,28.4988329 26.586354,28.4988329 Z M27.3846465,25.6857788 L25.782275,25.6857788 C25.800368,25.2107968 26.0964575,24.8729794 26.5841535,24.8729794 C27.0703825,24.8729794 27.3665535,25.2107968 27.3846465,25.6857788 Z M31.1431005,28.3951648 L31.1431005,24.9749358 L32.003822,24.9749358 L32.003822,24.0684928 L31.1431005,24.0684928 L31.1431005,23.8420858 C31.1431005,23.5278218 31.3264755,23.4060608 31.6733395,23.4060608 C31.820936,23.4060608 32.000725,23.4164928 32.131125,23.4269248 L32.131125,22.4420788 C31.953618,22.4234968 31.6117255,22.3908968 31.3898825,22.3908968 C30.4136755,22.3908968 29.6951715,22.6137178 29.6951715,23.6605038 L29.6951715,24.0684928 L29.0332285,24.0684928 L29.0332285,24.9749358 L29.6951715,24.9749358 L29.6951715,28.3951648 L31.1431005,28.3951648 Z M34.023718,28.3951648 L34.023718,26.3346003 C34.023718,25.5281579 34.4687895,25.2940898 35.0637395,25.2940898 C35.2384755,25.2940898 35.4440185,25.3162579 35.5405145,25.3266898 L35.5405145,23.9937573 C35.4875395,23.9751753 35.4055505,23.9647433 35.3222575,23.9647433 C34.6639005,23.9647433 34.245072,24.2635224 33.9978825,24.7475509 L33.9652825,24.7475509 L33.9652825,24.0684113 L32.5757075,24.0684113 L32.5757075,28.3951648 L34.023718,28.3951648 Z M37.1615495,28.4989143 C37.8163204,28.4989143 38.3542204,28.2209178 38.56881,27.7658218 C38.56881,28.0687573 38.6045884,28.2982613 38.6874739,28.3951648 L40.128557,28.3951648 C40.022607,28.2408038 40.014457,28.0021718 40.014457,27.5860329 L40.014457,25.4475544 C40.014457,24.5184544 39.340289,23.9647433 37.990975,23.9647433 C36.8735285,23.9647433 36.073932,24.4645829 35.880614,25.3307648 L37.231721,25.4689073 C37.3454134,25.1071288 37.6125704,24.9106323 37.9643245,24.9106323 C38.3397134,24.9106323 38.566528,25.0596143 38.566528,25.3285643 C38.566528,25.5739608 38.3428919,25.6794218 37.4572315,25.8021608 C36.3470384,25.9515503 35.7118274,26.3056678 35.7118274,27.2288998 C35.7118274,28.0334678 36.4226704,28.4989143 37.1615495,28.4989143 Z M37.7071919,27.5892928 C37.3943134,27.5892928 37.1877925,27.4068143 37.1877925,27.1170003 C37.1877925,26.7973573 37.437264,26.6148788 37.820803,26.5460928 C38.1757355,26.4831748 38.427978,26.4392463 38.566528,26.3572573 L38.566528,26.7353358 C38.566528,27.3538393 38.0576419,27.5892928 37.7071919,27.5892928 Z M42.173718,28.3952463 L42.173718,26.0611678 C42.173718,25.4010178 42.499229,25.1094108 42.878693,25.1094108 C43.2621505,25.1094108 43.485868,25.3240818 43.485868,25.9013463 L43.485868,28.3952463 L44.933797,28.3952463 L44.933797,26.0611678 C44.933797,25.4010178 45.25344,25.1094108 45.632904,25.1094108 C46.0163616,25.1094108 46.245947,25.3240818 46.245947,25.9013463 L46.245947,28.3952463 L47.6938761,28.3952463 L47.6938761,25.5662998 C47.6938761,24.4683318 47.0862935,23.9648248 46.2454581,23.9648248 C45.47675,23.9647433 45.064686,24.3424143 44.7558825,24.6951463 C44.518636,24.2002783 44.062725,23.9648248 43.485379,23.9648248 C42.794911,23.9648248 42.399636,24.3053318 42.1478825,24.6566783 L42.1152825,24.6566783 L42.1152825,24.0684928 L40.7257075,24.0684928 L40.7257075,28.3952463 L42.173718,28.3952463 Z M50.531054,28.4988329 C51.99675,28.4988329 52.6243,27.6888044 52.766925,27.0870898 L51.281343,27.0046933 C51.2225,27.2650858 51.0313825,27.5611753 50.531054,27.5611753 C50.0457215,27.5611753 49.7233075,27.1686713 49.716543,26.5179753 L52.814847,26.5179753 C52.917211,24.8245683 51.984036,23.9647433 50.528772,23.9647433 C49.072204,23.9647433 48.230961,24.8222863 48.230961,26.2399788 C48.230961,27.6471579 49.0872,28.4988329 50.531054,28.4988329 Z M51.3293465,25.6857788 L49.726975,25.6857788 C49.745068,25.2107968 50.0411575,24.8729794 50.5288535,24.8729794 C51.0150825,24.8729794 51.3112535,25.2107968 51.3293465,25.6857788 Z" id="Workshop&amp;Wireframe" fill="#000000" fill-rule="nonzero"></path>
        <path d="M4.381,70.1218 C1.961,70.1218 1.42108547e-14,72.0838 1.42108547e-14,74.5028 L1.42108547e-14,92.0278 C1.42108547e-14,94.4478 1.961,96.4088 4.381,96.4088 L59.877,96.4088 C62.296,96.4088 64.258,94.4478 64.258,92.0278 L64.258,74.5028 C64.258,72.0838 62.296,70.1218 59.877,70.1218 L4.381,70.1218 Z" id="Fill-522" fill="#F5F5F5"></path>
        <path d="M12.753579,86.5764648 C14.5456825,86.5764648 15.8012715,85.7080823 15.8012715,83.6669148 C15.8012715,81.6258288 14.5456825,80.7573648 12.753579,80.7573648 L10.3484325,80.7573648 L10.3484325,86.5764648 L12.753579,86.5764648 Z M12.5041075,85.3924329 L11.8969325,85.3924329 L11.8969325,81.9413968 L12.5041075,81.9413968 C13.5745285,81.9413968 14.2247355,82.3298259 14.2247355,83.6669148 C14.2247355,85.0039224 13.5745285,85.3924329 12.5041075,85.3924329 Z M17.876343,86.5764648 L17.876343,84.5159003 C17.876343,83.7094579 18.3214145,83.4753898 18.9163645,83.4753898 C19.0911005,83.4753898 19.2966435,83.4975579 19.3931395,83.5079898 L19.3931395,82.1750573 C19.3401645,82.1564753 19.2581755,82.1460433 19.1748825,82.1460433 C18.5165255,82.1460433 18.097697,82.4448224 17.8505075,82.9288509 L17.8179075,82.9288509 L17.8179075,82.2497113 L16.4283325,82.2497113 L16.4283325,86.5764648 L17.876343,86.5764648 Z M21.0141745,86.6802143 C21.6689454,86.6802143 22.2068454,86.4022178 22.421435,85.9471218 C22.421435,86.2500573 22.4572134,86.4795613 22.5400989,86.5764648 L23.981182,86.5764648 C23.875232,86.4221038 23.867082,86.1834718 23.867082,85.7673329 L23.867082,83.6288544 C23.867082,82.6997544 23.192914,82.1460433 21.8436,82.1460433 C20.7261535,82.1460433 19.926557,82.6458829 19.733239,83.5120648 L21.084346,83.6502073 C21.1980384,83.2884288 21.4651954,83.0919323 21.8169495,83.0919323 C22.1923384,83.0919323 22.419153,83.2409143 22.419153,83.5098643 C22.419153,83.7552608 22.1955169,83.8607218 21.3098565,83.9834608 C20.1996634,84.1328503 19.5644524,84.4869678 19.5644524,85.4101998 C19.5644524,86.2147678 20.2752954,86.6802143 21.0141745,86.6802143 Z M21.5598169,85.7705928 C21.2469384,85.7705928 21.0404175,85.5881143 21.0404175,85.2983003 C21.0404175,84.9786573 21.289889,84.7961788 21.673428,84.7273928 C22.0283605,84.6644748 22.280603,84.6205463 22.419153,84.5385573 L22.419153,84.9166358 C22.419153,85.5351393 21.9102669,85.7705928 21.5598169,85.7705928 Z M26.3568255,86.5764648 L26.3568255,83.1562358 L27.217547,83.1562358 L27.217547,82.2497928 L26.3568255,82.2497928 L26.3568255,82.0233858 C26.3568255,81.7091218 26.5402005,81.5873608 26.8870645,81.5873608 C27.034661,81.5873608 27.21445,81.5977928 27.34485,81.6082248 L27.34485,80.6233788 C27.167343,80.6047968 26.8254505,80.5721968 26.6036075,80.5721968 C25.6274005,80.5721968 24.9088965,80.7950178 24.9088965,81.8418038 L24.9088965,82.2497928 L24.2469535,82.2497928 L24.2469535,83.1562358 L24.9088965,83.1562358 L24.9088965,86.5764648 L26.3568255,86.5764648 Z M30.4396495,86.5764648 L30.4396495,85.5097113 C30.3961692,85.5108523 30.3520166,85.5114228 30.3009059,85.5117081 L30.120414,85.5119933 L30.120414,85.5119933 C29.7354895,85.5119933 29.592457,85.4712433 29.592457,85.1013148 L29.592457,83.1562358 L30.4531785,83.1562358 L30.4531785,82.2497928 L29.592457,82.2497928 L29.592457,81.0589963 L28.1444465,81.0589963 L28.1444465,82.2497928 L27.4825035,82.2497928 L27.4825035,83.1562358 L28.1444465,83.1562358 L28.1444465,85.4472823 C28.1444465,86.3899113 28.5501535,86.5927648 29.5553745,86.5927648 C29.908514,86.5927648 30.3087605,86.5904829 30.4396495,86.5764648 Z M34.2664005,86.5764648 L34.2664005,84.3397788 L36.9994215,84.3397788 L36.9994215,83.2014683 L34.2664005,83.2014683 L34.266482,81.9413968 L37.153375,81.9413968 L37.153375,80.7573648 L32.7120325,80.7573648 L32.7120325,86.5764648 L34.2664005,86.5764648 Z M39.8356215,86.6801329 C41.298954,86.6801329 42.157475,85.8307398 42.157475,84.4189968 C42.157475,83.0013858 41.298954,82.1460433 39.8356215,82.1460433 C38.3640575,82.1460433 37.511486,83.0013858 37.511486,84.4189968 C37.511486,85.8307398 38.3640575,86.6801329 39.8356215,86.6801329 Z M39.8356215,85.6423933 C39.318993,85.6423933 38.9875325,85.3005823 38.9875325,84.4189968 C38.9875325,83.5374928 39.318993,83.1838643 39.8356215,83.1838643 C40.349968,83.1838643 40.681347,83.5374928 40.681347,84.4189968 C40.681347,85.3005823 40.349968,85.6423933 39.8356215,85.6423933 Z M44.176393,86.5764648 L44.176393,84.5159003 C44.176393,83.7094579 44.6214645,83.4753898 45.2164145,83.4753898 C45.3911505,83.4753898 45.5966935,83.4975579 45.6931895,83.5079898 L45.6931895,82.1750573 C45.6402145,82.1564753 45.5582255,82.1460433 45.4749325,82.1460433 C44.8165755,82.1460433 44.397747,82.4448224 44.1505575,82.9288509 L44.1179575,82.9288509 L44.1179575,82.2497113 L42.7283825,82.2497113 L42.7283825,86.5764648 L44.176393,86.5764648 Z M50.1897075,82.8764463 C49.952461,82.3815783 49.49655,82.1461248 48.919204,82.1461248 C48.228736,82.1461248 47.833461,82.4866318 47.5817075,82.8379783 L47.5491075,82.8379783 L47.5491075,82.2497928 L46.1595325,82.2497928 L46.1595325,86.5765463 L47.607543,86.5765463 L47.607543,84.2424678 C47.607543,83.5823178 47.933054,83.2907108 48.312518,83.2907108 C48.6959755,83.2907108 48.919693,83.5053818 48.919693,84.0826463 L48.919693,86.5765463 L50.367622,86.5765463 L50.367622,84.2424678 C50.367622,83.5823178 50.687265,83.2907108 51.066729,83.2907108 C51.4501866,83.2907108 51.679772,83.5053818 51.679772,84.0826463 L51.679772,86.5765463 L53.1277011,86.5765463 L53.1277011,83.7475998 C53.1277011,82.71063 52.5857525,82.2039048 51.8171984,82.1508025 L51.6793645,82.1460433 C50.910575,82.1460433 50.498511,82.5237143 50.1897075,82.8764463 Z" id="DraftForm" fill="#000000" fill-rule="nonzero"></path>
        <line x1="32.1285" y1="44.5188" x2="32.1285" y2="66.5258" id="Stroke-524" stroke="#5FBAB1" stroke-width="0.773" stroke-linecap="round" stroke-linejoin="round"></line>
        <polyline id="Stroke-525" stroke="#5FBAB1" stroke-width="0.773" stroke-linecap="round" stroke-linejoin="round" points="35.6251 62.7649 32.1281 66.5259 28.6321 62.7649"></polyline>
        <path d="M307.8541,125.7754 C305.4341,125.7754 303.4731,127.7374 303.4731,130.1564 L303.4731,162.2854 C303.4731,164.7054 305.4341,166.6664 307.8541,166.6664 L363.3501,166.6664 C365.7691,166.6664 367.7311,164.7054 367.7311,162.2854 L367.7311,130.1564 C367.7311,127.7374 365.7691,125.7754 363.3501,125.7754 L307.8541,125.7754 Z" id="Fill-526" fill="#D7EEEB"></path>
        <path d="M316.415803,144.170565 L316.415803,140.380815 L316.448403,140.380815 L318.586393,144.170565 L320.323728,144.170565 L320.323728,138.351465 L318.911008,138.351465 L318.911008,142.058411 L318.878408,142.058411 L316.7753,138.351465 L315.003083,138.351465 L315.003083,144.170565 L316.415803,144.170565 Z M323.243629,144.274233 C324.709325,144.274233 325.336875,143.464204 325.4795,142.86249 L323.993918,142.780093 C323.935075,143.040486 323.743958,143.336575 323.243629,143.336575 C322.758297,143.336575 322.435883,142.944071 322.429118,142.293375 L325.527422,142.293375 C325.629786,140.599968 324.696611,139.740143 323.241347,139.740143 C321.784779,139.740143 320.943536,140.597686 320.943536,142.015379 C320.943536,143.422558 321.799775,144.274233 323.243629,144.274233 Z M324.041922,141.461179 L322.43955,141.461179 C322.457643,140.986197 322.753733,140.648379 323.241428,140.648379 C323.727658,140.648379 324.023828,140.986197 324.041922,141.461179 Z M328.499483,144.170565 L329.203561,141.447568 L329.236161,141.447568 L329.94024,144.170565 L331.550761,144.170565 L332.950279,139.843811 L331.418079,139.843811 L330.722151,142.590361 L330.689551,142.590361 L330.047494,139.843811 L328.469165,139.843811 L327.827108,142.590361 L327.794508,142.590361 L327.098579,139.843811 L325.510226,139.843811 L326.912026,144.170565 L328.499483,144.170565 Z M336.606451,144.170565 L336.606451,141.933879 L339.339472,141.933879 L339.339472,140.795568 L336.606451,140.795568 L336.606532,139.535497 L339.493425,139.535497 L339.493425,138.351465 L335.052083,138.351465 L335.052083,144.170565 L336.606451,144.170565 Z M342.175672,144.274233 C343.639004,144.274233 344.497525,143.42484 344.497525,142.013097 C344.497525,140.595486 343.639004,139.740143 342.175672,139.740143 C340.704108,139.740143 339.851536,140.595486 339.851536,142.013097 C339.851536,143.42484 340.704108,144.274233 342.175672,144.274233 Z M342.175672,143.236493 C341.659043,143.236493 341.327583,142.894682 341.327583,142.013097 C341.327583,141.131593 341.659043,140.777964 342.175672,140.777964 C342.690018,140.777964 343.021397,141.131593 343.021397,142.013097 C343.021397,142.894682 342.690018,143.236493 342.175672,143.236493 Z M346.516443,144.170565 L346.516443,142.11 C346.516443,141.303558 346.961515,141.06949 347.556465,141.06949 C347.731201,141.06949 347.936744,141.091658 348.03324,141.10209 L348.03324,139.769157 C347.980265,139.750575 347.898276,139.740143 347.814983,139.740143 C347.156626,139.740143 346.737797,140.038922 346.490608,140.522951 L346.458008,140.522951 L346.458008,139.843811 L345.068433,139.843811 L345.068433,144.170565 L346.516443,144.170565 Z M349.947593,144.170646 L349.947593,141.836568 C349.947593,141.176418 350.273104,140.884811 350.652568,140.884811 C351.036026,140.884811 351.259743,141.099482 351.259743,141.676746 L351.259743,144.170646 L352.707672,144.170646 L352.707672,141.836568 C352.707672,141.176418 353.027315,140.884811 353.406779,140.884811 C353.790237,140.884811 354.019822,141.099482 354.019822,141.676746 L354.019822,144.170646 L355.467751,144.170646 L355.467751,141.3417 C355.467751,140.243732 354.860169,139.740225 354.019333,139.740225 C353.250625,139.740143 352.838561,140.117814 352.529758,140.470546 C352.292511,139.975678 351.8366,139.740225 351.259254,139.740225 C350.568786,139.740225 350.173511,140.080732 349.921758,140.432078 L349.889158,140.432078 L349.889158,139.843893 L348.499583,139.843893 L348.499583,144.170646 L349.947593,144.170646 Z M331.705203,154.170565 L331.705203,152.891504 L328.762157,152.891504 L328.762157,148.351465 L327.207789,148.351465 L327.207708,154.170565 L331.705203,154.170565 Z M333.643518,149.318136 L333.643518,148.269965 L332.195508,148.269965 L332.195508,149.318136 L333.643518,149.318136 Z M333.643518,154.170565 L333.643518,149.843811 L332.195508,149.843811 L332.195508,154.170565 L333.643518,154.170565 Z M337.263911,154.170565 L338.803365,149.843811 L337.268883,149.843811 L336.430818,152.612122 L336.398218,152.612122 L335.549233,149.843811 L333.990301,149.843811 L335.528858,154.170565 L337.263911,154.170565 Z M341.112504,154.274233 C342.5782,154.274233 343.20575,153.464204 343.348375,152.86249 L341.862793,152.780093 C341.80395,153.040486 341.612833,153.336575 341.112504,153.336575 C340.627172,153.336575 340.304758,152.944071 340.297993,152.293375 L343.396297,152.293375 C343.498661,150.599968 342.565486,149.740143 341.110222,149.740143 C339.653654,149.740143 338.812411,150.597686 338.812411,152.015379 C338.812411,153.422558 339.66865,154.274233 341.112504,154.274233 Z M341.910797,151.461179 L340.308425,151.461179 C340.326518,150.986197 340.622608,150.648379 341.110303,150.648379 C341.596533,150.648379 341.892703,150.986197 341.910797,151.461179 Z" id="NewFormLive" fill="#000000" fill-rule="nonzero"></path>
        <text id="-" font-family="LucidaGrande, Lucida Grande" font-size="8.15" font-weight="normal"></text>
        <line x1="335.6017" y1="100.5299" x2="335.6017" y2="122.5369" id="Stroke-528" stroke="#5FBAB1" stroke-width="0.773" stroke-linecap="round" stroke-linejoin="round"></line>
        <polyline id="Stroke-529" stroke="#5FBAB1" stroke-width="0.773" stroke-linecap="round" stroke-linejoin="round" points="339.0983 118.776 335.6013 122.537 332.1053 118.776"></polyline>
        <line x1="169.2602" y1="83.2656" x2="199.4872" y2="83.2656" id="Stroke-530" stroke="#5FBAB1" stroke-width="0.773" stroke-linecap="round" stroke-linejoin="round"></line>
        <polyline id="Stroke-531" stroke="#5FBAB1" stroke-width="0.773" stroke-linecap="round" stroke-linejoin="round" points="195.7267 79.769 199.4877 83.266 195.7267 86.762"></polyline>
        <g id="Group-536" transform="translate(231.589800, 37.411300)" stroke="#5FBAB1" stroke-linecap="round" stroke-linejoin="round" stroke-width="0.773">
            <path d="M3.4964,29.148 L3.4964,3.307 C3.4964,1.484 4.9804,0 6.8034,0 L101.0914,0 C102.9144,0 104.3984,1.484 104.3984,3.307 L104.3984,29.148" id="Stroke-532"></path>
            <polyline id="Stroke-534" points="5.68434189e-14 25.3874 3.496 29.1484 6.993 25.3874"></polyline>
        </g>
        <polygon id="Fill-537" fill="#FFFFFF" points="251.195 51.6633 320.564 51.6633 320.564 22.3863 251.195 22.3863"></polygon>
        <path d="M258.1318,26.0719 C255.7118,26.0719 253.7508,28.0339 253.7508,30.4529 L253.7508,43.5969 C253.7508,46.0169 255.7118,47.9779 258.1318,47.9779 L313.6278,47.9779 C316.0468,47.9779 318.0088,46.0169 318.0088,43.5969 L318.0088,30.4529 C318.0088,28.0339 316.0468,26.0719 313.6278,26.0719 L258.1318,26.0719 Z" id="Fill-538" fill="#F5F5F5"></path>
        <path d="M273.174164,40.3359648 L273.174164,38.3718148 L274.08566,38.3718148 L275.180368,40.3359648 L276.977932,40.3359648 L275.679148,38.1915369 C276.405231,37.9081613 276.811753,37.3011494 276.811753,36.4443398 C276.811753,35.2295823 275.994472,34.5168648 274.608075,34.5168648 L271.625664,34.5168648 L271.625664,40.3359648 L273.174164,40.3359648 Z M274.346867,37.1878643 L273.174164,37.1877829 L273.174164,35.7008968 L274.346867,35.7008968 C274.937253,35.7008968 275.235217,35.9852503 275.235217,36.4443398 C275.235217,36.9035108 274.937253,37.1878643 274.346867,37.1878643 Z M279.368979,40.4396329 C280.834675,40.4396329 281.462225,39.6296044 281.60485,39.0278898 L280.119268,38.9454933 C280.060425,39.2058858 279.869308,39.5019753 279.368979,39.5019753 C278.883647,39.5019753 278.561233,39.1094713 278.554468,38.4587753 L281.652772,38.4587753 C281.755136,36.7653683 280.821961,35.9055433 279.366697,35.9055433 C277.910129,35.9055433 277.068886,36.7630863 277.068886,38.1807788 C277.068886,39.5879579 277.925125,40.4396329 279.368979,40.4396329 Z M280.167272,37.6265788 L278.5649,37.6265788 C278.582993,37.1515968 278.879083,36.8137794 279.366778,36.8137794 C279.853008,36.8137794 280.149178,37.1515968 280.167272,37.6265788 Z M283.676743,41.8355648 L283.676743,39.8175433 L283.709343,39.8175433 C283.975115,40.2255323 284.390276,40.4397143 285.008779,40.4396329 C286.020276,40.4396329 286.805854,39.5843718 286.805854,38.1666794 C286.805854,36.7549363 286.020276,35.9055433 284.967622,35.9055433 C284.450504,35.9055433 283.946101,36.0594968 283.650908,36.5906323 L283.618308,36.5906323 L283.618308,36.0092113 L282.228733,36.0092113 L282.228733,41.8355648 L283.676743,41.8355648 Z M284.467701,39.3724718 C283.953354,39.3724718 283.607876,39.0188433 283.607876,38.1726288 C283.607876,37.3322823 283.953354,36.9786538 284.467701,36.9786538 C284.990197,36.9786538 285.329808,37.3322823 285.329808,38.1726288 C285.329808,39.0188433 284.990197,39.3724718 284.467701,39.3724718 Z M289.507579,40.4396329 C290.973275,40.4396329 291.600825,39.6296044 291.74345,39.0278898 L290.257868,38.9454933 C290.199025,39.2058858 290.007908,39.5019753 289.507579,39.5019753 C289.022247,39.5019753 288.699833,39.1094713 288.693068,38.4587753 L291.791372,38.4587753 C291.893736,36.7653683 290.960561,35.9055433 289.505297,35.9055433 C288.048729,35.9055433 287.207486,36.7630863 287.207486,38.1807788 C287.207486,39.5879579 288.063725,40.4396329 289.507579,40.4396329 Z M290.305872,37.6265788 L288.7035,37.6265788 C288.721593,37.1515968 289.017683,36.8137794 289.505378,36.8137794 C289.991608,36.8137794 290.287778,37.1515968 290.305872,37.6265788 Z M293.619824,40.4397143 C294.274595,40.4397143 294.812495,40.1617178 295.027085,39.7066218 C295.027085,40.0095573 295.062863,40.2390613 295.145749,40.3359648 L296.586832,40.3359648 C296.494126,40.200899 296.476298,40.0013131 296.473289,39.6747464 L296.472732,37.3883544 C296.472732,36.4592544 295.798564,35.9055433 294.44925,35.9055433 C293.331803,35.9055433 292.532207,36.4053829 292.338889,37.2715648 L293.689996,37.4097073 C293.803688,37.0479288 294.070845,36.8514323 294.422599,36.8514323 C294.797988,36.8514323 295.024803,37.0004143 295.024803,37.2693643 C295.024803,37.5147608 294.801167,37.6202218 293.915506,37.7429608 C292.805313,37.8923503 292.170102,38.2464678 292.170102,39.1696998 C292.170102,39.9742678 292.880945,40.4397143 293.619824,40.4397143 Z M294.165467,39.5300928 C293.852588,39.5300928 293.646067,39.3476143 293.646067,39.0578003 C293.646067,38.7381573 293.895539,38.5556788 294.279078,38.4868928 C294.63401,38.4239748 294.886253,38.3800463 295.024803,38.2980573 L295.024803,38.6761358 C295.024803,39.2946393 294.515917,39.5300928 294.165467,39.5300928 Z M299.809749,40.3359648 L299.809749,39.2692113 C299.766269,39.2703523 299.722117,39.2709228 299.671006,39.2712081 L299.490433,39.2714933 C299.10559,39.2714933 298.962557,39.2307433 298.962557,38.8608148 L298.962557,36.9157358 L299.823278,36.9157358 L299.823278,36.0092928 L298.962557,36.0092928 L298.962557,34.8184963 L297.514547,34.8184963 L297.514547,36.0092928 L296.852603,36.0092928 L296.852603,36.9157358 L297.514547,36.9157358 L297.514547,39.2067823 C297.514547,40.1494113 297.920253,40.3522648 298.925474,40.3522648 C299.278614,40.3522648 299.67886,40.3499829 299.809749,40.3359648 Z" id="Repeat" fill="#000000" fill-rule="nonzero"></path>
    </g>
</svg>