<?xml version="1.0" encoding="UTF-8"?>
<svg width="261px" height="217px" viewBox="0 0 261 217" version="1.1" xmlns="http://www.w3.org/2000/svg" xmlns:xlink="http://www.w3.org/1999/xlink">
    <title>process-narrow</title>
    <g id="process-narrow" stroke="none" stroke-width="1" fill="none" fill-rule="evenodd">
        <g id="Group-536" transform="translate(127.589800, 90.411300)" stroke="#5FBAB1" stroke-linecap="round" stroke-linejoin="round" stroke-width="0.773">
            <path d="M3.4964,29.148 L3.4964,3.307 C3.4964,1.484 4.9804,0 6.8034,0 L101.0914,0 C102.9144,0 104.3984,1.484 104.3984,3.307 L104.3984,29.148" id="Stroke-532"></path>
            <polyline id="Stroke-534" points="5.68434189e-14 25.3874 3.496 29.1484 6.993 25.3874"></polyline>
        </g>
        <g id="Right-Arrow" transform="translate(66.017200, 132.768500)" stroke="#5FBAB1" stroke-linecap="round" stroke-linejoin="round" stroke-width="0.774">
            <line x1="0" y1="3.4971" x2="30.226" y2="3.4971" id="Stroke-518"></line>
            <polyline id="Stroke-519" points="26.4641 0 30.2261 3.497 26.4641 6.995"></polyline>
        </g>
        <g id="Right-Arrow-Copy" transform="translate(164.017200, 132.768500)" stroke="#5FBAB1" stroke-linecap="round" stroke-linejoin="round" stroke-width="0.774">
            <line x1="0" y1="3.4971" x2="30.226" y2="3.4971" id="Stroke-518"></line>
            <polyline id="Stroke-519" points="26.4641 0 30.2261 3.497 26.4641 6.995"></polyline>
        </g>
        <g id="Down-Arrow" transform="translate(28.632100, 44.518800)" stroke="#5FBAB1" stroke-linecap="round" stroke-linejoin="round" stroke-width="0.773">
            <line x1="3.4964" y1="0" x2="3.4964" y2="22.007" id="Stroke-524"></line>
            <polyline id="Stroke-525" points="6.993 18.2461 3.496 22.0071 0 18.2461"></polyline>
        </g>
        <g id="Down-Arrow-Copy" transform="translate(28.632100, 44.518800)" stroke="#5FBAB1" stroke-linecap="round" stroke-linejoin="round" stroke-width="0.773">
            <line x1="3.4964" y1="0" x2="3.4964" y2="22.007" id="Stroke-524"></line>
            <polyline id="Stroke-525" points="6.993 18.2461 3.496 22.0071 0 18.2461"></polyline>
        </g>
        <g id="Down-Arrow-Copy-2" transform="translate(28.632100, 98.518800)" stroke="#5FBAB1" stroke-linecap="round" stroke-linejoin="round" stroke-width="0.773">
            <line x1="3.4964" y1="0" x2="3.4964" y2="22.007" id="Stroke-524"></line>
            <polyline id="Stroke-525" points="6.993 18.2461 3.496 22.0071 0 18.2461"></polyline>
        </g>
        <g id="Down-Arrow-Copy-3" transform="translate(126.632100, 151.518800)" stroke="#5FBAB1" stroke-linecap="round" stroke-linejoin="round" stroke-width="0.773">
            <line x1="3.4964" y1="0" x2="3.4964" y2="22.007" id="Stroke-524"></line>
            <polyline id="Stroke-525" points="6.993 18.2461 3.496 22.0071 0 18.2461"></polyline>
        </g>
        <g id="New-Form-Live" transform="translate(98.473100, 175.775400)">
            <path d="M4.381,0 C1.961,0 0,1.962 0,4.381 L0,36.51 C0,38.93 1.961,40.891 4.381,40.891 L59.877,40.891 C62.296,40.891 64.258,38.93 64.258,36.51 L64.258,4.381 C64.258,1.962 62.296,0 59.877,0 L4.381,0 Z" id="Fill-526" fill="#D7EEEB"></path>
            <path d="M12.9427035,18.3951648 L12.9427035,14.6054148 L12.9753035,14.6054148 L15.113293,18.3951648 L16.8506285,18.3951648 L16.8506285,12.5760648 L15.4379075,12.5760648 L15.4379075,16.2830108 L15.4053075,16.2830108 L13.3022,12.5760648 L11.5299825,12.5760648 L11.5299825,18.3951648 L12.9427035,18.3951648 Z M19.770529,18.4988329 C21.236225,18.4988329 21.863775,17.6888044 22.0064,17.0870898 L20.520818,17.0046933 C20.461975,17.2650858 20.2708575,17.5611753 19.770529,17.5611753 C19.2851965,17.5611753 18.9627825,17.1686713 18.956018,16.5179753 L22.054322,16.5179753 C22.156686,14.8245683 21.223511,13.9647433 19.768247,13.9647433 C18.311679,13.9647433 17.470436,14.8222863 17.470436,16.2399788 C17.470436,17.6471579 18.326675,18.4988329 19.770529,18.4988329 Z M20.5688215,15.6857788 L18.96645,15.6857788 C18.984543,15.2107968 19.2806325,14.8729794 19.7683285,14.8729794 C20.2545575,14.8729794 20.5507285,15.2107968 20.5688215,15.6857788 Z M25.0263825,18.3951648 L25.730461,15.6721683 L25.763061,15.6721683 L26.4671395,18.3951648 L28.077661,18.3951648 L29.477179,14.0684113 L27.944979,14.0684113 L27.2490505,16.8149613 L27.2164505,16.8149613 L26.5743935,14.0684113 L24.9960645,14.0684113 L24.3540075,16.8149613 L24.3214075,16.8149613 L23.625479,14.0684113 L22.0371255,14.0684113 L23.4389255,18.3951648 L25.0263825,18.3951648 Z M33.1333505,18.3951648 L33.1333505,16.1584788 L35.8663715,16.1584788 L35.8663715,15.0201683 L33.1333505,15.0201683 L33.133432,13.7600968 L36.020325,13.7600968 L36.020325,12.5760648 L31.5789825,12.5760648 L31.5789825,18.3951648 L33.1333505,18.3951648 Z M38.7025715,18.4988329 C40.165904,18.4988329 41.024425,17.6494398 41.024425,16.2376968 C41.024425,14.8200858 40.165904,13.9647433 38.7025715,13.9647433 C37.2310075,13.9647433 36.378436,14.8200858 36.378436,16.2376968 C36.378436,17.6494398 37.2310075,18.4988329 38.7025715,18.4988329 Z M38.7025715,17.4610933 C38.185943,17.4610933 37.8544825,17.1192823 37.8544825,16.2376968 C37.8544825,15.3561928 38.185943,15.0025643 38.7025715,15.0025643 C39.216918,15.0025643 39.548297,15.3561928 39.548297,16.2376968 C39.548297,17.1192823 39.216918,17.4610933 38.7025715,17.4610933 Z M43.043343,18.3951648 L43.043343,16.3346003 C43.043343,15.5281579 43.4884145,15.2940898 44.0833645,15.2940898 C44.2581005,15.2940898 44.4636435,15.3162579 44.5601395,15.3266898 L44.5601395,13.9937573 C44.5071645,13.9751753 44.4251755,13.9647433 44.3418825,13.9647433 C43.6835255,13.9647433 43.264697,14.2635224 43.0175075,14.7475509 L42.9849075,14.7475509 L42.9849075,14.0684113 L41.5953325,14.0684113 L41.5953325,18.3951648 L43.043343,18.3951648 Z M46.474493,18.3952463 L46.474493,16.0611678 C46.474493,15.4010178 46.800004,15.1094108 47.179468,15.1094108 C47.5629255,15.1094108 47.786643,15.3240818 47.786643,15.9013463 L47.786643,18.3952463 L49.234572,18.3952463 L49.234572,16.0611678 C49.234572,15.4010178 49.554215,15.1094108 49.933679,15.1094108 C50.3171366,15.1094108 50.546722,15.3240818 50.546722,15.9013463 L50.546722,18.3952463 L51.9946511,18.3952463 L51.9946511,15.5662998 C51.9946511,14.4683318 51.3870685,13.9648248 50.5462331,13.9648248 C49.777525,13.9647433 49.365461,14.3424143 49.0566575,14.6951463 C48.819411,14.2002783 48.3635,13.9648248 47.786154,13.9648248 C47.095686,13.9648248 46.700411,14.3053318 46.4486575,14.6566783 L46.4160575,14.6566783 L46.4160575,14.0684928 L45.0264825,14.0684928 L45.0264825,18.3952463 L46.474493,18.3952463 Z M28.2321035,28.3951648 L28.2321035,27.1161038 L25.289057,27.1161038 L25.289057,22.5760648 L23.734689,22.5760648 L23.7346075,28.3951648 L28.2321035,28.3951648 Z M30.170418,23.5427363 L30.170418,22.4945648 L28.7224075,22.4945648 L28.7224075,23.5427363 L30.170418,23.5427363 Z M30.170418,28.3951648 L30.170418,24.0684113 L28.7224075,24.0684113 L28.7224075,28.3951648 L30.170418,28.3951648 Z M33.790811,28.3951648 L35.3302645,24.0684113 L33.7957825,24.0684113 L32.957718,26.8367218 L32.925118,26.8367218 L32.0761325,24.0684113 L30.5172005,24.0684113 L32.0557575,28.3951648 L33.790811,28.3951648 Z M37.639404,28.4988329 C39.1051,28.4988329 39.73265,27.6888044 39.875275,27.0870898 L38.389693,27.0046933 C38.33085,27.2650858 38.1397325,27.5611753 37.639404,27.5611753 C37.1540715,27.5611753 36.8316575,27.1686713 36.824893,26.5179753 L39.923197,26.5179753 C40.025561,24.8245683 39.092386,23.9647433 37.637122,23.9647433 C36.180554,23.9647433 35.339311,24.8222863 35.339311,26.2399788 C35.339311,27.6471579 36.19555,28.4988329 37.639404,28.4988329 Z M38.4376965,25.6857788 L36.835325,25.6857788 C36.853418,25.2107968 37.1495075,24.8729794 37.6372035,24.8729794 C38.1234325,24.8729794 38.4196035,25.2107968 38.4376965,25.6857788 Z" id="NewFormLive" fill="#000000" fill-rule="nonzero"></path>
        </g>
        <g id="Revisions" transform="translate(196.830600, 123.121800)">
            <path d="M4.381,0 C1.961,0 0,1.962 0,4.381 L0,21.906 C0,24.326 1.961,26.287 4.381,26.287 L59.877,26.287 C62.296,26.287 64.258,24.326 64.258,21.906 L64.258,4.381 C64.258,1.962 62.296,0 59.877,0 L4.381,0 Z" id="Fill-512" fill="#F5F5F5"></path>
            <path d="M14.692264,16.4546648 L14.692264,14.4905148 L15.60376,14.4905148 L16.698468,16.4546648 L18.496032,16.4546648 L17.197248,14.3102369 C17.9233315,14.0268613 18.3298535,13.4198494 18.3298535,12.5630398 C18.3298535,11.3482823 17.5125715,10.6355648 16.126175,10.6355648 L13.143764,10.6355648 L13.143764,16.4546648 L14.692264,16.4546648 Z M15.8649675,13.3065643 L14.692264,13.3064829 L14.692264,11.8195968 L15.8649675,11.8195968 C16.4553535,11.8195968 16.7533175,12.1039503 16.7533175,12.5630398 C16.7533175,13.0222108 16.4553535,13.3065643 15.8649675,13.3065643 Z M20.748529,16.5583329 C22.214225,16.5583329 22.841775,15.7483044 22.9844,15.1465898 L21.498818,15.0641933 C21.439975,15.3245858 21.2488575,15.6206753 20.748529,15.6206753 C20.2631965,15.6206753 19.9407825,15.2281713 19.934018,14.5774753 L23.032322,14.5774753 C23.134686,12.8840683 22.201511,12.0242433 20.746247,12.0242433 C19.289679,12.0242433 18.448436,12.8817863 18.448436,14.2994788 C18.448436,15.7066579 19.304675,16.5583329 20.748529,16.5583329 Z M21.5468215,13.7452788 L19.94445,13.7452788 C19.962543,13.2702968 20.2586325,12.9324794 20.7463285,12.9324794 C21.2325575,12.9324794 21.5287285,13.2702968 21.5468215,13.7452788 Z M26.182786,16.4546648 L27.7222395,12.1279113 L26.1877575,12.1279113 L25.349693,14.8962218 L25.317093,14.8962218 L24.4681075,12.1279113 L22.9091755,12.1279113 L24.4477325,16.4546648 L26.182786,16.4546648 Z M29.514343,11.6022363 L29.514343,10.5540648 L28.0663325,10.5540648 L28.0663325,11.6022363 L29.514343,11.6022363 Z M29.514343,16.4546648 L29.514343,12.1279113 L28.0663325,12.1279113 L28.0663325,16.4546648 L29.514343,16.4546648 Z M32.143696,16.5584143 C33.3612245,16.5584143 34.287146,16.1431718 34.287146,15.1430038 C34.287146,14.1337893 33.486164,13.8997213 32.6797215,13.7693213 L32.220632,13.6982533 C31.7936535,13.6284893 31.5423075,13.5447073 31.5423075,13.2993108 C31.5423075,13.0412818 31.788193,12.9036283 32.1146005,12.9036283 C32.488604,12.9036283 32.747611,13.1105568 32.80515,13.4510638 L34.1444395,13.3232718 C33.989182,12.4616538 33.168314,12.0242433 32.0992785,12.0242433 C31.0792245,12.0242433 30.101632,12.4738788 30.101632,13.3898573 C30.101632,14.3452003 30.861375,14.6086898 31.576782,14.7169218 L32.0911285,14.7961398 C32.5421495,14.8681858 32.8110995,14.9904358 32.8110995,15.2145608 C32.8110995,15.4993218 32.561139,15.6754433 32.154128,15.6754433 C31.6922675,15.6754433 31.4016384,15.4617503 31.3336675,15.0506643 L29.9649565,15.1901108 C30.1116565,16.0901968 30.984603,16.5584143 32.143696,16.5584143 Z M36.278843,11.6022363 L36.278843,10.5540648 L34.8308325,10.5540648 L34.8308325,11.6022363 L36.278843,11.6022363 Z M36.278843,16.4546648 L36.278843,12.1279113 L34.8308325,12.1279113 L34.8308325,16.4546648 L36.278843,16.4546648 Z M39.1752715,16.5583329 C40.638604,16.5583329 41.497125,15.7089398 41.497125,14.2971968 C41.497125,12.8795858 40.638604,12.0242433 39.1752715,12.0242433 C37.7037075,12.0242433 36.851136,12.8795858 36.851136,14.2971968 C36.851136,15.7089398 37.7037075,16.5583329 39.1752715,16.5583329 Z M39.1752715,15.5205933 C38.658643,15.5205933 38.3271825,15.1787823 38.3271825,14.2971968 C38.3271825,13.4156928 38.658643,13.0620643 39.1752715,13.0620643 C39.689618,13.0620643 40.020997,13.4156928 40.020997,14.2971968 C40.020997,15.1787823 39.689618,15.5205933 39.1752715,15.5205933 Z M43.516043,16.4546648 L43.516043,14.1205863 C43.516043,13.4604363 43.87285,13.1688294 44.2812465,13.1688294 C44.70415,13.1688294 44.944086,13.3835003 44.944086,13.9607648 L44.944086,16.4546648 L46.3920965,16.4546648 L46.3920965,13.6257183 C46.3920965,12.5277503 45.7599825,12.0242433 44.8797825,12.0242433 C44.163968,12.0242433 43.741961,12.3624683 43.4902075,12.7138148 L43.4576075,12.7138148 L43.4576075,12.1279113 L42.0680325,12.1279113 L42.0680325,16.4546648 L43.516043,16.4546648 Z M48.989746,16.5584143 C50.2072745,16.5584143 51.133196,16.1431718 51.133196,15.1430038 C51.133196,14.1337893 50.332214,13.8997213 49.5257715,13.7693213 L49.066682,13.6982533 C48.6397035,13.6284893 48.3883575,13.5447073 48.3883575,13.2993108 C48.3883575,13.0412818 48.634243,12.9036283 48.9606505,12.9036283 C49.334654,12.9036283 49.593661,13.1105568 49.6512,13.4510638 L50.9904895,13.3232718 C50.835232,12.4616538 50.014364,12.0242433 48.9453285,12.0242433 C47.9252745,12.0242433 46.947682,12.4738788 46.947682,13.3898573 C46.947682,14.3452003 47.707425,14.6086898 48.422832,14.7169218 L48.9371785,14.7961398 C49.3881995,14.8681858 49.6571495,14.9904358 49.6571495,15.2145608 C49.6571495,15.4993218 49.407189,15.6754433 49.000178,15.6754433 C48.5383175,15.6754433 48.2476884,15.4617503 48.1797175,15.0506643 L46.8110065,15.1901108 C46.9577065,16.0901968 47.830653,16.5584143 48.989746,16.5584143 Z" fill="#000000" fill-rule="nonzero"></path>
        </g>
        <g id="Beta-Test" transform="translate(98.245900, 123.121800)">
            <path d="M4.381,0 C1.961,0 0,1.962 0,4.381 L0,21.906 C0,24.326 1.961,26.287 4.381,26.287 L59.877,26.287 C62.296,26.287 64.258,24.326 64.258,21.906 L64.258,4.381 C64.258,1.962 62.296,0 59.877,0 L4.381,0 Z" id="Fill-514" fill="#F5F5F5"></path>
            <path d="M16.506629,16.4546648 C17.7445325,16.4546648 18.4635255,15.8099183 18.4635255,14.7169218 C18.4635255,14.0314253 18.057411,13.6022463 17.52489,13.3763283 L17.52489,13.3437283 C17.971347,13.1281608 18.2737935,12.7560318 18.2737935,12.1954748 C18.2737935,11.2595288 17.5756645,10.6356463 16.3794075,10.6356463 L13.3272325,10.6355648 L13.3272325,16.4546648 L16.506629,16.4546648 Z M16.0371075,12.9851283 L14.8757325,12.9851283 L14.8757325,11.7725713 L16.0371075,11.7725713 C16.498479,11.7725713 16.738415,12.0057428 16.738415,12.3788498 C16.738415,12.7519568 16.498479,12.9851283 16.0371075,12.9851283 Z M16.1407755,15.2897853 L14.8757325,15.2897853 L14.8757325,13.9966248 L16.1407755,13.9966248 C16.6320575,13.9966248 16.8869895,14.2447923 16.8869895,14.6432458 C16.8869895,15.0416993 16.6320575,15.2897853 16.1407755,15.2897853 Z M21.168429,16.5583329 C22.634125,16.5583329 23.261675,15.7483044 23.4043,15.1465898 L21.918718,15.0641933 C21.859875,15.3245858 21.6687575,15.6206753 21.168429,15.6206753 C20.6830965,15.6206753 20.3606825,15.2281713 20.353918,14.5774753 L23.452222,14.5774753 C23.554586,12.8840683 22.621411,12.0242433 21.166147,12.0242433 C19.709579,12.0242433 18.868336,12.8817863 18.868336,14.2994788 C18.868336,15.7066579 19.724575,16.5583329 21.168429,16.5583329 Z M21.9667215,13.7452788 L20.36435,13.7452788 C20.382443,13.2702968 20.6785325,12.9324794 21.1662285,12.9324794 C21.6524575,12.9324794 21.9486285,13.2702968 21.9667215,13.7452788 Z M26.5724495,16.4546648 L26.5724495,15.3879113 C26.5289692,15.3890523 26.4848166,15.3896228 26.4337059,15.3899081 L26.253214,15.3901933 L26.253214,15.3901933 C25.8682895,15.3901933 25.725257,15.3494433 25.725257,14.9795148 L25.725257,13.0344358 L26.5859785,13.0344358 L26.5859785,12.1279928 L25.725257,12.1279928 L25.725257,10.9371963 L24.2772465,10.9371963 L24.2772465,12.1279928 L23.6153035,12.1279928 L23.6153035,13.0344358 L24.2772465,13.0344358 L24.2772465,15.3254823 C24.2772465,16.2681113 24.6829535,16.4709648 25.6881745,16.4709648 C26.041314,16.4709648 26.4415605,16.4686829 26.5724495,16.4546648 Z M28.3939745,16.5584143 C29.0487454,16.5584143 29.5866454,16.2804178 29.801235,15.8253218 C29.801235,16.1282573 29.8370134,16.3577613 29.9198989,16.4546648 L31.360982,16.4546648 C31.255032,16.3003038 31.246882,16.0616718 31.246882,15.6455329 L31.246882,13.5070544 C31.246882,12.5779544 30.572714,12.0242433 29.2234,12.0242433 C28.1059535,12.0242433 27.306357,12.5240829 27.113039,13.3902648 L28.464146,13.5284073 C28.5778384,13.1666288 28.8449954,12.9701323 29.1967495,12.9701323 C29.5721384,12.9701323 29.798953,13.1191143 29.798953,13.3880643 C29.798953,13.6334608 29.5753169,13.7389218 28.6896565,13.8616608 C27.5794634,14.0110503 26.9442524,14.3651678 26.9442524,15.2883998 C26.9442524,16.0929678 27.6550954,16.5584143 28.3939745,16.5584143 Z M28.9396169,15.6487928 C28.6267384,15.6487928 28.4202175,15.4663143 28.4202175,15.1765003 C28.4202175,14.8568573 28.669689,14.6743788 29.053228,14.6055928 C29.4081605,14.5426748 29.660403,14.4987463 29.798953,14.4167573 L29.798953,14.7948358 C29.798953,15.4133393 29.2900669,15.6487928 28.9396169,15.6487928 Z M36.8404715,16.4546648 L36.8404715,11.9147073 L38.65295,11.9147073 L38.65295,10.6355648 L33.479493,10.6355648 L33.479493,11.9147073 L35.2919715,11.9147073 L35.2919715,16.4546648 L36.8404715,16.4546648 Z M39.946844,16.5583329 C41.41254,16.5583329 42.04009,15.7483044 42.182715,15.1465898 L40.697133,15.0641933 C40.63829,15.3245858 40.4471725,15.6206753 39.946844,15.6206753 C39.4615115,15.6206753 39.1390975,15.2281713 39.132333,14.5774753 L42.230637,14.5774753 C42.333001,12.8840683 41.399826,12.0242433 39.944562,12.0242433 C38.487994,12.0242433 37.646751,12.8817863 37.646751,14.2994788 C37.646751,15.7066579 38.50299,16.5583329 39.946844,16.5583329 Z M40.7451365,13.7452788 L39.142765,13.7452788 C39.160858,13.2702968 39.4569475,12.9324794 39.9446435,12.9324794 C40.4308725,12.9324794 40.7270435,13.2702968 40.7451365,13.7452788 Z M44.691611,16.5584143 C45.9091395,16.5584143 46.835061,16.1431718 46.835061,15.1430038 C46.835061,14.1337893 46.034079,13.8997213 45.2276365,13.7693213 L44.768547,13.6982533 C44.3415685,13.6284893 44.0902225,13.5447073 44.0902225,13.2993108 C44.0902225,13.0412818 44.336108,12.9036283 44.6625155,12.9036283 C45.036519,12.9036283 45.295526,13.1105568 45.353065,13.4510638 L46.6923545,13.3232718 C46.537097,12.4616538 45.716229,12.0242433 44.6471935,12.0242433 C43.6271395,12.0242433 42.649547,12.4738788 42.649547,13.3898573 C42.649547,14.3452003 43.40929,14.6086898 44.124697,14.7169218 L44.6390435,14.7961398 C45.0900645,14.8681858 45.3590145,14.9904358 45.3590145,15.2145608 C45.3590145,15.4993218 45.109054,15.6754433 44.702043,15.6754433 C44.2401825,15.6754433 43.9495534,15.4617503 43.8815825,15.0506643 L42.5128715,15.1901108 C42.6595715,16.0901968 43.532518,16.5584143 44.691611,16.5584143 Z M49.9882145,16.4546648 L49.9882145,15.3879113 C49.9447342,15.3890523 49.9005816,15.3896228 49.8494709,15.3899081 L49.668979,15.3901933 L49.668979,15.3901933 C49.2840545,15.3901933 49.141022,15.3494433 49.141022,14.9795148 L49.141022,13.0344358 L50.0017435,13.0344358 L50.0017435,12.1279928 L49.141022,12.1279928 L49.141022,10.9371963 L47.6930115,10.9371963 L47.6930115,12.1279928 L47.0310685,12.1279928 L47.0310685,13.0344358 L47.6930115,13.0344358 L47.6930115,15.3254823 C47.6930115,16.2681113 48.0987185,16.4709648 49.1039395,16.4709648 C49.457079,16.4709648 49.8573255,16.4686829 49.9882145,16.4546648 Z" id="BetaTest" fill="#000000" fill-rule="nonzero"></path>
        </g>
        <g id="Draft-Form" transform="translate(0.000000, 70.121800)">
            <path d="M4.381,0 C1.961,0 0,1.962 0,4.381 L0,21.906 C0,24.326 1.961,26.287 4.381,26.287 L59.877,26.287 C62.296,26.287 64.258,24.326 64.258,21.906 L64.258,4.381 C64.258,1.962 62.296,0 59.877,0 L4.381,0 Z" id="Fill-522" fill="#F5F5F5"></path>
            <path d="M12.753579,16.4546648 C14.5456825,16.4546648 15.8012715,15.5862823 15.8012715,13.5451148 C15.8012715,11.5040288 14.5456825,10.6355648 12.753579,10.6355648 L10.3484325,10.6355648 L10.3484325,16.4546648 L12.753579,16.4546648 Z M12.5041075,15.2706329 L11.8969325,15.2706329 L11.8969325,11.8195968 L12.5041075,11.8195968 C13.5745285,11.8195968 14.2247355,12.2080259 14.2247355,13.5451148 C14.2247355,14.8821224 13.5745285,15.2706329 12.5041075,15.2706329 Z M17.876343,16.4546648 L17.876343,14.3941003 C17.876343,13.5876579 18.3214145,13.3535898 18.9163645,13.3535898 C19.0911005,13.3535898 19.2966435,13.3757579 19.3931395,13.3861898 L19.3931395,12.0532573 C19.3401645,12.0346753 19.2581755,12.0242433 19.1748825,12.0242433 C18.5165255,12.0242433 18.097697,12.3230224 17.8505075,12.8070509 L17.8179075,12.8070509 L17.8179075,12.1279113 L16.4283325,12.1279113 L16.4283325,16.4546648 L17.876343,16.4546648 Z M21.0141745,16.5584143 C21.6689454,16.5584143 22.2068454,16.2804178 22.421435,15.8253218 C22.421435,16.1282573 22.4572134,16.3577613 22.5400989,16.4546648 L23.981182,16.4546648 C23.875232,16.3003038 23.867082,16.0616718 23.867082,15.6455329 L23.867082,13.5070544 C23.867082,12.5779544 23.192914,12.0242433 21.8436,12.0242433 C20.7261535,12.0242433 19.926557,12.5240829 19.733239,13.3902648 L21.084346,13.5284073 C21.1980384,13.1666288 21.4651954,12.9701323 21.8169495,12.9701323 C22.1923384,12.9701323 22.419153,13.1191143 22.419153,13.3880643 C22.419153,13.6334608 22.1955169,13.7389218 21.3098565,13.8616608 C20.1996634,14.0110503 19.5644524,14.3651678 19.5644524,15.2883998 C19.5644524,16.0929678 20.2752954,16.5584143 21.0141745,16.5584143 Z M21.5598169,15.6487928 C21.2469384,15.6487928 21.0404175,15.4663143 21.0404175,15.1765003 C21.0404175,14.8568573 21.289889,14.6743788 21.673428,14.6055928 C22.0283605,14.5426748 22.280603,14.4987463 22.419153,14.4167573 L22.419153,14.7948358 C22.419153,15.4133393 21.9102669,15.6487928 21.5598169,15.6487928 Z M26.3568255,16.4546648 L26.3568255,13.0344358 L27.217547,13.0344358 L27.217547,12.1279928 L26.3568255,12.1279928 L26.3568255,11.9015858 C26.3568255,11.5873218 26.5402005,11.4655608 26.8870645,11.4655608 C27.034661,11.4655608 27.21445,11.4759928 27.34485,11.4864248 L27.34485,10.5015788 C27.167343,10.4829968 26.8254505,10.4503968 26.6036075,10.4503968 C25.6274005,10.4503968 24.9088965,10.6732178 24.9088965,11.7200038 L24.9088965,12.1279928 L24.2469535,12.1279928 L24.2469535,13.0344358 L24.9088965,13.0344358 L24.9088965,16.4546648 L26.3568255,16.4546648 Z M30.4396495,16.4546648 L30.4396495,15.3879113 C30.3961692,15.3890523 30.3520166,15.3896228 30.3009059,15.3899081 L30.120414,15.3901933 L30.120414,15.3901933 C29.7354895,15.3901933 29.592457,15.3494433 29.592457,14.9795148 L29.592457,13.0344358 L30.4531785,13.0344358 L30.4531785,12.1279928 L29.592457,12.1279928 L29.592457,10.9371963 L28.1444465,10.9371963 L28.1444465,12.1279928 L27.4825035,12.1279928 L27.4825035,13.0344358 L28.1444465,13.0344358 L28.1444465,15.3254823 C28.1444465,16.2681113 28.5501535,16.4709648 29.5553745,16.4709648 C29.908514,16.4709648 30.3087605,16.4686829 30.4396495,16.4546648 Z M34.2664005,16.4546648 L34.2664005,14.2179788 L36.9994215,14.2179788 L36.9994215,13.0796683 L34.2664005,13.0796683 L34.266482,11.8195968 L37.153375,11.8195968 L37.153375,10.6355648 L32.7120325,10.6355648 L32.7120325,16.4546648 L34.2664005,16.4546648 Z M39.8356215,16.5583329 C41.298954,16.5583329 42.157475,15.7089398 42.157475,14.2971968 C42.157475,12.8795858 41.298954,12.0242433 39.8356215,12.0242433 C38.3640575,12.0242433 37.511486,12.8795858 37.511486,14.2971968 C37.511486,15.7089398 38.3640575,16.5583329 39.8356215,16.5583329 Z M39.8356215,15.5205933 C39.318993,15.5205933 38.9875325,15.1787823 38.9875325,14.2971968 C38.9875325,13.4156928 39.318993,13.0620643 39.8356215,13.0620643 C40.349968,13.0620643 40.681347,13.4156928 40.681347,14.2971968 C40.681347,15.1787823 40.349968,15.5205933 39.8356215,15.5205933 Z M44.176393,16.4546648 L44.176393,14.3941003 C44.176393,13.5876579 44.6214645,13.3535898 45.2164145,13.3535898 C45.3911505,13.3535898 45.5966935,13.3757579 45.6931895,13.3861898 L45.6931895,12.0532573 C45.6402145,12.0346753 45.5582255,12.0242433 45.4749325,12.0242433 C44.8165755,12.0242433 44.397747,12.3230224 44.1505575,12.8070509 L44.1179575,12.8070509 L44.1179575,12.1279113 L42.7283825,12.1279113 L42.7283825,16.4546648 L44.176393,16.4546648 Z M50.1897075,12.7546463 C49.952461,12.2597783 49.49655,12.0243248 48.919204,12.0243248 C48.228736,12.0243248 47.833461,12.3648318 47.5817075,12.7161783 L47.5491075,12.7161783 L47.5491075,12.1279928 L46.1595325,12.1279928 L46.1595325,16.4547463 L47.607543,16.4547463 L47.607543,14.1206678 C47.607543,13.4605178 47.933054,13.1689108 48.312518,13.1689108 C48.6959755,13.1689108 48.919693,13.3835818 48.919693,13.9608463 L48.919693,16.4547463 L50.367622,16.4547463 L50.367622,14.1206678 C50.367622,13.4605178 50.687265,13.1689108 51.066729,13.1689108 C51.4501866,13.1689108 51.679772,13.3835818 51.679772,13.9608463 L51.679772,16.4547463 L53.1277011,16.4547463 L53.1277011,13.6257998 C53.1277011,12.58883 52.5857525,12.0821048 51.8171984,12.0290025 L51.6793645,12.0242433 C50.910575,12.0242433 50.498511,12.4019143 50.1897075,12.7546463 Z" id="DraftForm" fill="#000000" fill-rule="nonzero"></path>
        </g>
        <g id="User-Testing" transform="translate(0.415300, 123.121800)">
            <path d="M4.36341,0 C1.95312646,0 0,1.962 0,4.381 L0,21.906 C0,24.326 1.95312646,26.287 4.36341,26.287 L59.63659,26.287 C62.0458776,26.287 64,24.326 64,21.906 L64,4.381 C64,1.962 62.0458776,0 59.63659,0 L4.36341,0 Z" id="Fill-510" fill="#F5F5F5"></path>
            <path d="M9.92455752,16.5850648 C11.4142145,16.5850648 12.5447825,15.8637898 12.5447825,14.3112148 L12.5447825,10.6355648 L10.9962825,10.6355648 L10.9962825,14.1685898 C10.9962825,14.9763363 10.6218715,15.3553113 9.92455752,15.3553113 C9.227325,15.3553113 8.85283252,14.9763363 8.85283252,14.1685898 L8.85283252,10.6355648 L7.30433252,10.6355648 L7.30433252,14.3112148 C7.30433252,15.8637898 8.43490053,16.5850648 9.92455752,16.5850648 Z M15.220346,16.5584143 C16.4378745,16.5584143 17.363796,16.1431718 17.363796,15.1430038 C17.363796,14.1337893 16.562814,13.8997213 15.7563715,13.7693213 L15.297282,13.6982533 C14.8703035,13.6284893 14.6189575,13.5447073 14.6189575,13.2993108 C14.6189575,13.0412818 14.864843,12.9036283 15.1912505,12.9036283 C15.565254,12.9036283 15.824261,13.1105568 15.8818,13.4510638 L17.2210895,13.3232718 C17.065832,12.4616538 16.244964,12.0242433 15.1759285,12.0242433 C14.1558745,12.0242433 13.178282,12.4738788 13.178282,13.3898573 C13.178282,14.3452003 13.938025,14.6086898 14.653432,14.7169218 L15.1677785,14.7961398 C15.6187995,14.8681858 15.8877495,14.9904358 15.8877495,15.2145608 C15.8877495,15.4993218 15.637789,15.6754433 15.230778,15.6754433 C14.7689175,15.6754433 14.4782884,15.4617503 14.4103175,15.0506643 L13.0416065,15.1901108 C13.1883065,16.0901968 14.061253,16.5584143 15.220346,16.5584143 Z M20.035529,16.5583329 C21.501225,16.5583329 22.128775,15.7483044 22.2714,15.1465898 L20.785818,15.0641933 C20.726975,15.3245858 20.5358575,15.6206753 20.035529,15.6206753 C19.5501965,15.6206753 19.2277825,15.2281713 19.221018,14.5774753 L22.319322,14.5774753 C22.421686,12.8840683 21.488511,12.0242433 20.033247,12.0242433 C18.576679,12.0242433 17.735436,12.8817863 17.735436,14.2994788 C17.735436,15.7066579 18.591675,16.5583329 20.035529,16.5583329 Z M20.8338215,13.7452788 L19.23145,13.7452788 C19.249543,13.2702968 19.5456325,12.9324794 20.0333285,12.9324794 C20.5195575,12.9324794 20.8157285,13.2702968 20.8338215,13.7452788 Z M24.343293,16.4546648 L24.343293,14.3941003 C24.343293,13.5876579 24.7883645,13.3535898 25.3833145,13.3535898 C25.5580505,13.3535898 25.7635935,13.3757579 25.8600895,13.3861898 L25.8600895,12.0532573 C25.8071145,12.0346753 25.7251255,12.0242433 25.6418325,12.0242433 C24.9834755,12.0242433 24.564647,12.3230224 24.3174575,12.8070509 L24.2848575,12.8070509 L24.2848575,12.1279113 L22.8952825,12.1279113 L22.8952825,16.4546648 L24.343293,16.4546648 Z M31.2087715,16.4546648 L31.2087715,11.9147073 L33.02125,11.9147073 L33.02125,10.6355648 L27.847793,10.6355648 L27.847793,11.9147073 L29.6602715,11.9147073 L29.6602715,16.4546648 L31.2087715,16.4546648 Z M34.314329,16.5583329 C35.780025,16.5583329 36.407575,15.7483044 36.5502,15.1465898 L35.064618,15.0641933 C35.005775,15.3245858 34.8146575,15.6206753 34.314329,15.6206753 C33.8289965,15.6206753 33.5065825,15.2281713 33.499818,14.5774753 L36.598122,14.5774753 C36.700486,12.8840683 35.767311,12.0242433 34.312047,12.0242433 C32.855479,12.0242433 32.014236,12.8817863 32.014236,14.2994788 C32.014236,15.7066579 32.870475,16.5583329 34.314329,16.5583329 Z M35.1126215,13.7452788 L33.51025,13.7452788 C33.528343,13.2702968 33.8244325,12.9324794 34.3121285,12.9324794 C34.7983575,12.9324794 35.0945285,13.2702968 35.1126215,13.7452788 Z M39.059096,16.5584143 C40.2766245,16.5584143 41.202546,16.1431718 41.202546,15.1430038 C41.202546,14.1337893 40.401564,13.8997213 39.5951215,13.7693213 L39.136032,13.6982533 C38.7090535,13.6284893 38.4577075,13.5447073 38.4577075,13.2993108 C38.4577075,13.0412818 38.703593,12.9036283 39.0300005,12.9036283 C39.404004,12.9036283 39.663011,13.1105568 39.72055,13.4510638 L41.0598395,13.3232718 C40.904582,12.4616538 40.083714,12.0242433 39.0146785,12.0242433 C37.9946245,12.0242433 37.017032,12.4738788 37.017032,13.3898573 C37.017032,14.3452003 37.776775,14.6086898 38.492182,14.7169218 L39.0065285,14.7961398 C39.4575495,14.8681858 39.7264995,14.9904358 39.7264995,15.2145608 C39.7264995,15.4993218 39.476539,15.6754433 39.069528,15.6754433 C38.6076675,15.6754433 38.3170384,15.4617503 38.2490675,15.0506643 L36.8803565,15.1901108 C37.0270565,16.0901968 37.900003,16.5584143 39.059096,16.5584143 Z M44.3556995,16.4546648 L44.3556995,15.3879113 C44.3122192,15.3890523 44.2680666,15.3896228 44.2169559,15.3899081 L44.036464,15.3901933 L44.036464,15.3901933 C43.6515395,15.3901933 43.508507,15.3494433 43.508507,14.9795148 L43.508507,13.0344358 L44.3692285,13.0344358 L44.3692285,12.1279928 L43.508507,12.1279928 L43.508507,10.9371963 L42.0604965,10.9371963 L42.0604965,12.1279928 L41.3985535,12.1279928 L41.3985535,13.0344358 L42.0604965,13.0344358 L42.0604965,15.3254823 C42.0604965,16.2681113 42.4662035,16.4709648 43.4714245,16.4709648 C43.824564,16.4709648 44.2248105,16.4686829 44.3556995,16.4546648 Z M46.315693,11.6022363 L46.315693,10.5540648 L44.8676825,10.5540648 L44.8676825,11.6022363 L46.315693,11.6022363 Z M46.315693,16.4546648 L46.315693,12.1279113 L44.8676825,12.1279113 L44.8676825,16.4546648 L46.315693,16.4546648 Z M48.508043,16.4546648 L48.508043,14.1205863 C48.508043,13.4604363 48.86485,13.1688294 49.2732465,13.1688294 C49.69615,13.1688294 49.936086,13.3835003 49.936086,13.9607648 L49.936086,16.4546648 L51.3840965,16.4546648 L51.3840965,13.6257183 C51.3840965,12.5277503 50.7519825,12.0242433 49.8717825,12.0242433 C49.155968,12.0242433 48.733961,12.3624683 48.4822075,12.7138148 L48.4496075,12.7138148 L48.4496075,12.1279113 L47.0600325,12.1279113 L47.0600325,16.4546648 L48.508043,16.4546648 Z M54.207175,18.0580143 C55.488518,18.0580143 56.490968,17.5835213 56.490968,16.1060893 L56.490968,12.1279113 L55.101393,12.1279113 L55.101393,12.6698863 L55.068793,12.6698863 C54.775882,12.1677648 54.275961,12.0242433 53.7634075,12.0242433 C52.717518,12.0242433 51.936422,12.8107183 51.936422,14.1224608 C51.936422,15.4422718 52.717518,16.2324143 53.72225,16.2324143 C54.3361895,16.2324143 54.746868,16.0440678 55.010439,15.6673748 L55.043039,15.6673748 L55.043039,16.0830248 C55.043039,16.7924823 54.6876175,17.0415463 54.207175,17.0415463 C53.769846,17.0415463 53.515403,16.8686033 53.3935605,16.5000603 L51.9428605,16.6005498 C52.2118105,17.6527963 53.0978785,18.0580143 54.207175,18.0580143 Z M54.2633285,15.1756853 C53.7475965,15.1756853 53.41255,14.7853818 53.41255,14.1224608 C53.41255,13.4736393 53.7475965,13.0914858 54.2633285,13.0914858 C54.7709105,13.0914858 55.111825,13.4736393 55.111825,14.1224608 C55.111825,14.7853818 54.7709105,15.1756853 54.2633285,15.1756853 Z" id="UserTesting" fill="#000000" fill-rule="nonzero"></path>
        </g>
        <g id="Repeat" transform="translate(149.750800, 80.071900)">
            <path d="M4.381,-5.68434189e-14 C1.961,-5.68434189e-14 0,1.962 0,4.381 L0,17.525 C0,19.945 1.961,21.906 4.381,21.906 L59.877,21.906 C62.296,21.906 64.258,19.945 64.258,17.525 L64.258,4.381 C64.258,1.962 62.296,-5.68434189e-14 59.877,-5.68434189e-14 L4.381,-5.68434189e-14 Z" id="Fill-538" fill="#F5F5F5"></path>
            <path d="M19.423364,14.2640648 L19.423364,12.2999148 L20.33486,12.2999148 L21.429568,14.2640648 L23.227132,14.2640648 L21.928348,12.1196369 C22.6544315,11.8362613 23.0609535,11.2292494 23.0609535,10.3724398 C23.0609535,9.15768232 22.2436715,8.44496484 20.857275,8.44496484 L17.874864,8.44496484 L17.874864,14.2640648 L19.423364,14.2640648 Z M20.5960675,11.1159643 L19.423364,11.1158829 L19.423364,9.62899683 L20.5960675,9.62899683 C21.1864535,9.62899683 21.4844175,9.91335033 21.4844175,10.3724398 C21.4844175,10.8316108 21.1864535,11.1159643 20.5960675,11.1159643 Z M25.618179,14.3677329 C27.083875,14.3677329 27.711425,13.5577044 27.85405,12.9559898 L26.368468,12.8735933 C26.309625,13.1339858 26.1185075,13.4300753 25.618179,13.4300753 C25.1328465,13.4300753 24.8104325,13.0375713 24.803668,12.3868753 L27.901972,12.3868753 C28.004336,10.6934683 27.071161,9.83364334 25.615897,9.83364334 C24.159329,9.83364334 23.318086,10.6911863 23.318086,12.1088788 C23.318086,13.5160579 24.174325,14.3677329 25.618179,14.3677329 Z M26.4164715,11.5546788 L24.8141,11.5546788 C24.832193,11.0796968 25.1282825,10.7418794 25.6159785,10.7418794 C26.1022075,10.7418794 26.3983785,11.0796968 26.4164715,11.5546788 Z M29.925943,15.7636648 L29.925943,13.7456433 L29.958543,13.7456433 C30.2243145,14.1536323 30.6394755,14.3678143 31.257979,14.3677329 C32.2694755,14.3677329 33.055054,13.5124718 33.055054,12.0947794 C33.055054,10.6830363 32.2694755,9.83364334 31.2168215,9.83364334 C30.699704,9.83364334 30.1953005,9.98759683 29.9001075,10.5187323 L29.8675075,10.5187323 L29.8675075,9.93731135 L28.4779325,9.93731135 L28.4779325,15.7636648 L29.925943,15.7636648 Z M30.7169005,13.3005718 C30.202554,13.3005718 29.8570755,12.9469433 29.8570755,12.1007288 C29.8570755,11.2603823 30.202554,10.9067538 30.7169005,10.9067538 C31.239397,10.9067538 31.5790075,11.2603823 31.5790075,12.1007288 C31.5790075,12.9469433 31.239397,13.3005718 30.7169005,13.3005718 Z M35.756779,14.3677329 C37.222475,14.3677329 37.850025,13.5577044 37.99265,12.9559898 L36.507068,12.8735933 C36.448225,13.1339858 36.2571075,13.4300753 35.756779,13.4300753 C35.2714465,13.4300753 34.9490325,13.0375713 34.942268,12.3868753 L38.040572,12.3868753 C38.142936,10.6934683 37.209761,9.83364334 35.754497,9.83364334 C34.297929,9.83364334 33.456686,10.6911863 33.456686,12.1088788 C33.456686,13.5160579 34.312925,14.3677329 35.756779,14.3677329 Z M36.5550715,11.5546788 L34.9527,11.5546788 C34.970793,11.0796968 35.2668825,10.7418794 35.7545785,10.7418794 C36.2408075,10.7418794 36.5369785,11.0796968 36.5550715,11.5546788 Z M39.8690245,14.3678143 C40.5237954,14.3678143 41.0616954,14.0898178 41.276285,13.6347218 C41.276285,13.9376573 41.3120634,14.1671613 41.3949489,14.2640648 L42.836032,14.2640648 C42.7433257,14.128999 42.7254976,13.9294131 42.7224891,13.6028464 L42.721932,11.3164544 C42.721932,10.3873544 42.047764,9.83364334 40.69845,9.83364334 C39.5810035,9.83364334 38.781407,10.3334829 38.588089,11.1996648 L39.939196,11.3378073 C40.0528884,10.9760288 40.3200454,10.7795323 40.6717995,10.7795323 C41.0471884,10.7795323 41.274003,10.9285143 41.274003,11.1974643 C41.274003,11.4428608 41.0503669,11.5483218 40.1647065,11.6710608 C39.0545134,11.8204503 38.4193024,12.1745678 38.4193024,13.0977998 C38.4193024,13.9023678 39.1301454,14.3678143 39.8690245,14.3678143 Z M40.4146669,13.4581928 C40.1017884,13.4581928 39.8952675,13.2757143 39.8952675,12.9859003 C39.8952675,12.6662573 40.144739,12.4837788 40.528278,12.4149928 C40.8832105,12.3520748 41.135453,12.3081463 41.274003,12.2261573 L41.274003,12.6042358 C41.274003,13.2227393 40.7651169,13.4581928 40.4146669,13.4581928 Z M46.0589495,14.2640648 L46.0589495,13.1973113 C46.0154692,13.1984523 45.9713166,13.1990228 45.9202059,13.1993081 L45.7396325,13.1995933 C45.3547895,13.1995933 45.211757,13.1588433 45.211757,12.7889148 L45.211757,10.8438358 L46.0724785,10.8438358 L46.0724785,9.9373928 L45.211757,9.9373928 L45.211757,8.7465963 L43.7637465,8.7465963 L43.7637465,9.9373928 L43.1018035,9.9373928 L43.1018035,10.8438358 L43.7637465,10.8438358 L43.7637465,13.1348823 C43.7637465,14.0775113 44.1694535,14.2803648 45.1746745,14.2803648 C45.527814,14.2803648 45.9280605,14.2780829 46.0589495,14.2640648 Z" fill="#000000" fill-rule="nonzero"></path>
        </g>
        <g id="Workshop-&amp;-Wireframe">
            <path d="M4.381,0 C1.961,0 0,1.962 0,4.381 L0,36.51 C0,38.93 1.961,40.891 4.381,40.891 L59.877,40.891 C62.296,40.891 64.258,38.93 64.258,36.51 L64.258,4.381 C64.258,1.962 62.296,0 59.877,0 L4.381,0 Z" id="Fill-520" fill="#FAE6E6"></path>
            <path d="M10.8895355,18.3951648 L11.5379495,14.4768079 L11.5705495,14.4768079 L12.235182,18.3951648 L14.172111,18.3951648 L15.4774965,12.5760648 L13.872843,12.5760648 L13.123043,16.6556288 L13.090443,16.6556288 L12.416275,12.5760648 L10.675761,12.5760648 L10.001593,16.6556288 L9.96899301,16.6556288 L9.221475,12.5760648 L7.64265699,12.5760648 L8.9434785,18.3951648 L10.8895355,18.3951648 Z M17.3682965,18.4988329 C18.831629,18.4988329 19.69015,17.6494398 19.69015,16.2376968 C19.69015,14.8200858 18.831629,13.9647433 17.3682965,13.9647433 C15.8967325,13.9647433 15.044161,14.8200858 15.044161,16.2376968 C15.044161,17.6494398 15.8967325,18.4988329 17.3682965,18.4988329 Z M17.3682965,17.4610933 C16.851668,17.4610933 16.5202075,17.1192823 16.5202075,16.2376968 C16.5202075,15.3561928 16.851668,15.0025643 17.3682965,15.0025643 C17.882643,15.0025643 18.214022,15.3561928 18.214022,16.2376968 C18.214022,17.1192823 17.882643,17.4610933 17.3682965,17.4610933 Z M21.709068,18.3951648 L21.709068,16.3346003 C21.709068,15.5281579 22.1541395,15.2940898 22.7490895,15.2940898 C22.9238255,15.2940898 23.1293685,15.3162579 23.2258645,15.3266898 L23.2258645,13.9937573 C23.1728895,13.9751753 23.0909005,13.9647433 23.0076075,13.9647433 C22.3492505,13.9647433 21.930422,14.2635224 21.6832325,14.7475509 L21.6506325,14.7475509 L21.6506325,14.0684113 L20.2610575,14.0684113 L20.2610575,18.3951648 L21.709068,18.3951648 Z M25.140218,18.3951648 L25.140218,17.2075468 L25.591239,16.7103968 L26.624007,18.3951648 L28.276175,18.3951648 L26.5569325,15.7382648 L28.100461,14.0684113 L26.517079,14.0684113 L25.140218,15.6843933 L25.140218,12.4945648 L23.6922075,12.4945648 L23.6922075,18.3951648 L25.140218,18.3951648 Z M30.230871,18.4989143 C31.4483995,18.4989143 32.374321,18.0836718 32.374321,17.0835038 C32.374321,16.0742893 31.573339,15.8402213 30.7668965,15.7098213 L30.307807,15.6387533 C29.8808285,15.5689893 29.6294825,15.4852073 29.6294825,15.2398108 C29.6294825,14.9817818 29.875368,14.8441283 30.2017755,14.8441283 C30.575779,14.8441283 30.834786,15.0510568 30.892325,15.3915638 L32.2316145,15.2637718 C32.076357,14.4021538 31.255489,13.9647433 30.1864535,13.9647433 C29.1663995,13.9647433 28.188807,14.4143788 28.188807,15.3303573 C28.188807,16.2857003 28.94855,16.5491898 29.663957,16.6574218 L30.1783035,16.7366398 C30.6293245,16.8086858 30.8982745,16.9309358 30.8982745,17.1550608 C30.8982745,17.4398218 30.648314,17.6159433 30.241303,17.6159433 C29.7794425,17.6159433 29.4888134,17.4022503 29.4208425,16.9911643 L28.0521315,17.1306108 C28.1988315,18.0306968 29.071778,18.4989143 30.230871,18.4989143 Z M37.2420715,18.3952463 L37.2420715,15.5662998 C37.2420715,14.4683318 36.6099575,13.9648248 35.7600755,13.9648248 C35.072297,13.9648248 34.65844,14.3030498 34.3985366,14.6543963 L34.366018,14.6543148 L34.366018,12.4945648 L32.9180075,12.4945648 L32.9180075,18.3951648 L34.366018,18.3951648 L34.366018,16.0837433 C34.366018,15.4235933 34.7273075,15.1094108 35.1312215,15.1094108 C35.554125,15.1094108 35.794061,15.3240003 35.794061,15.9013463 L35.794061,18.3952463 L37.2420715,18.3952463 Z M40.1067965,18.4988329 C41.570129,18.4988329 42.42865,17.6494398 42.42865,16.2376968 C42.42865,14.8200858 41.570129,13.9647433 40.1067965,13.9647433 C38.6352325,13.9647433 37.782661,14.8200858 37.782661,16.2376968 C37.782661,17.6494398 38.6352325,18.4988329 40.1067965,18.4988329 Z M40.1067965,17.4610933 C39.590168,17.4610933 39.2587075,17.1192823 39.2587075,16.2376968 C39.2587075,15.3561928 39.590168,15.0025643 40.1067965,15.0025643 C40.621143,15.0025643 40.952522,15.3561928 40.952522,16.2376968 C40.952522,17.1192823 40.621143,17.4610933 40.1067965,17.4610933 Z M44.447568,19.8947648 L44.447568,17.8767433 L44.480168,17.8767433 C44.7459395,18.2847323 45.1611005,18.4989143 45.779604,18.4988329 C46.7911005,18.4988329 47.576679,17.6435718 47.576679,16.2258794 C47.576679,14.8141363 46.7911005,13.9647433 45.7384465,13.9647433 C45.221329,13.9647433 44.7169255,14.1186968 44.4217325,14.6498323 L44.3891325,14.6498323 L44.3891325,14.0684113 L42.9995575,14.0684113 L42.9995575,19.8947648 L44.447568,19.8947648 Z M45.2385255,17.4316718 C44.724179,17.4316718 44.3787005,17.0780433 44.3787005,16.2318288 C44.3787005,15.3914823 44.724179,15.0378538 45.2385255,15.0378538 C45.761022,15.0378538 46.1006325,15.3914823 46.1006325,16.2318288 C46.1006325,17.0780433 45.761022,17.4316718 45.2385255,17.4316718 Z M52.1290243,18.5165999 C52.7587749,18.5165999 53.3568219,18.3151319 53.8445995,17.9434919 L54.287389,18.3951648 L55.978025,18.3951648 L54.629363,17.0209933 C54.8835616,16.5514718 55.0317285,15.9829279 55.0317285,15.3321503 L53.821861,15.3321503 C53.821861,15.5861044 53.7872235,15.8455189 53.717541,16.0919749 L52.915581,15.274856 L53.304336,15.060022 C53.823654,14.7729789 54.247943,14.4510539 54.247943,13.8674324 C54.247943,13.0479499 53.4556,12.4457464 52.367575,12.4457464 C51.27955,12.4457464 50.487207,13.0479499 50.487207,13.8674324 C50.487207,14.2344269 50.6045669,14.5623014 51.0823199,15.1082699 L50.8747394,15.2081074 C50.1403429,15.5631214 49.7478389,15.9936859 49.7478389,16.7738039 C49.7478389,17.9741359 50.9074208,18.5165999 52.1290243,18.5165999 Z M52.2186745,14.5613233 C51.9400259,14.2656413 51.8189169,14.0934318 51.8189169,13.9054928 C51.8188355,13.6741143 51.989089,13.4001928 52.3676565,13.4001928 C52.7461425,13.4001928 52.916396,13.6741143 52.916396,13.9054928 C52.916396,14.1708568 52.72536,14.3179643 52.3771919,14.4850393 L52.2186745,14.5613233 Z M52.1290245,17.4566108 C51.506935,17.4566108 51.174578,17.1473998 51.174578,16.7258818 C51.174578,16.3731498 51.3855815,16.1218038 51.769039,15.9085998 L51.821525,15.8795858 L53.05951,17.1425913 C52.810935,17.3379468 52.5010719,17.4566108 52.1290245,17.4566108 Z M13.8479855,28.3951648 L14.4963995,24.4768079 L14.5289995,24.4768079 L15.193632,28.3951648 L17.130561,28.3951648 L18.4359465,22.5760648 L16.831293,22.5760648 L16.081493,26.6556288 L16.048893,26.6556288 L15.374725,22.5760648 L13.634211,22.5760648 L12.960043,26.6556288 L12.927443,26.6556288 L12.179925,22.5760648 L10.601107,22.5760648 L11.9019285,28.3951648 L13.8479855,28.3951648 Z M20.323568,23.5427363 L20.323568,22.4945648 L18.8755575,22.4945648 L18.8755575,23.5427363 L20.323568,23.5427363 Z M20.323568,28.3951648 L20.323568,24.0684113 L18.8755575,24.0684113 L18.8755575,28.3951648 L20.323568,28.3951648 Z M22.515918,28.3951648 L22.515918,26.3346003 C22.515918,25.5281579 22.9609895,25.2940898 23.5559395,25.2940898 C23.6607811,25.2940898 23.7767133,25.3020703 23.8735274,25.310708 L24.0327145,25.3266898 L24.0327145,25.3266898 L24.0327145,23.9937573 C23.9797395,23.9751753 23.8977505,23.9647433 23.8144575,23.9647433 C23.1561005,23.9647433 22.737272,24.2635224 22.4900825,24.7475509 L22.4574825,24.7475509 L22.4574825,24.0684113 L21.0679075,24.0684113 L21.0679075,28.3951648 L22.515918,28.3951648 Z M26.586354,28.4988329 C28.05205,28.4988329 28.6796,27.6888044 28.822225,27.0870898 L27.336643,27.0046933 C27.2778,27.2650858 27.0866825,27.5611753 26.586354,27.5611753 C26.1010215,27.5611753 25.7786075,27.1686713 25.771843,26.5179753 L28.870147,26.5179753 C28.972511,24.8245683 28.039336,23.9647433 26.584072,23.9647433 C25.127504,23.9647433 24.286261,24.8222863 24.286261,26.2399788 C24.286261,27.6471579 25.1425,28.4988329 26.586354,28.4988329 Z M27.3846465,25.6857788 L25.782275,25.6857788 C25.800368,25.2107968 26.0964575,24.8729794 26.5841535,24.8729794 C27.0703825,24.8729794 27.3665535,25.2107968 27.3846465,25.6857788 Z M31.1431005,28.3951648 L31.1431005,24.9749358 L32.003822,24.9749358 L32.003822,24.0684928 L31.1431005,24.0684928 L31.1431005,23.8420858 C31.1431005,23.5278218 31.3264755,23.4060608 31.6733395,23.4060608 C31.820936,23.4060608 32.000725,23.4164928 32.131125,23.4269248 L32.131125,22.4420788 C31.953618,22.4234968 31.6117255,22.3908968 31.3898825,22.3908968 C30.4136755,22.3908968 29.6951715,22.6137178 29.6951715,23.6605038 L29.6951715,24.0684928 L29.0332285,24.0684928 L29.0332285,24.9749358 L29.6951715,24.9749358 L29.6951715,28.3951648 L31.1431005,28.3951648 Z M34.023718,28.3951648 L34.023718,26.3346003 C34.023718,25.5281579 34.4687895,25.2940898 35.0637395,25.2940898 C35.2384755,25.2940898 35.4440185,25.3162579 35.5405145,25.3266898 L35.5405145,23.9937573 C35.4875395,23.9751753 35.4055505,23.9647433 35.3222575,23.9647433 C34.6639005,23.9647433 34.245072,24.2635224 33.9978825,24.7475509 L33.9652825,24.7475509 L33.9652825,24.0684113 L32.5757075,24.0684113 L32.5757075,28.3951648 L34.023718,28.3951648 Z M37.1615495,28.4989143 C37.8163204,28.4989143 38.3542204,28.2209178 38.56881,27.7658218 C38.56881,28.0687573 38.6045884,28.2982613 38.6874739,28.3951648 L40.128557,28.3951648 C40.022607,28.2408038 40.014457,28.0021718 40.014457,27.5860329 L40.014457,25.4475544 C40.014457,24.5184544 39.340289,23.9647433 37.990975,23.9647433 C36.8735285,23.9647433 36.073932,24.4645829 35.880614,25.3307648 L37.231721,25.4689073 C37.3454134,25.1071288 37.6125704,24.9106323 37.9643245,24.9106323 C38.3397134,24.9106323 38.566528,25.0596143 38.566528,25.3285643 C38.566528,25.5739608 38.3428919,25.6794218 37.4572315,25.8021608 C36.3470384,25.9515503 35.7118274,26.3056678 35.7118274,27.2288998 C35.7118274,28.0334678 36.4226704,28.4989143 37.1615495,28.4989143 Z M37.7071919,27.5892928 C37.3943134,27.5892928 37.1877925,27.4068143 37.1877925,27.1170003 C37.1877925,26.7973573 37.437264,26.6148788 37.820803,26.5460928 C38.1757355,26.4831748 38.427978,26.4392463 38.566528,26.3572573 L38.566528,26.7353358 C38.566528,27.3538393 38.0576419,27.5892928 37.7071919,27.5892928 Z M42.173718,28.3952463 L42.173718,26.0611678 C42.173718,25.4010178 42.499229,25.1094108 42.878693,25.1094108 C43.2621505,25.1094108 43.485868,25.3240818 43.485868,25.9013463 L43.485868,28.3952463 L44.933797,28.3952463 L44.933797,26.0611678 C44.933797,25.4010178 45.25344,25.1094108 45.632904,25.1094108 C46.0163616,25.1094108 46.245947,25.3240818 46.245947,25.9013463 L46.245947,28.3952463 L47.6938761,28.3952463 L47.6938761,25.5662998 C47.6938761,24.4683318 47.0862935,23.9648248 46.2454581,23.9648248 C45.47675,23.9647433 45.064686,24.3424143 44.7558825,24.6951463 C44.518636,24.2002783 44.062725,23.9648248 43.485379,23.9648248 C42.794911,23.9648248 42.399636,24.3053318 42.1478825,24.6566783 L42.1152825,24.6566783 L42.1152825,24.0684928 L40.7257075,24.0684928 L40.7257075,28.3952463 L42.173718,28.3952463 Z M50.531054,28.4988329 C51.99675,28.4988329 52.6243,27.6888044 52.766925,27.0870898 L51.281343,27.0046933 C51.2225,27.2650858 51.0313825,27.5611753 50.531054,27.5611753 C50.0457215,27.5611753 49.7233075,27.1686713 49.716543,26.5179753 L52.814847,26.5179753 C52.917211,24.8245683 51.984036,23.9647433 50.528772,23.9647433 C49.072204,23.9647433 48.230961,24.8222863 48.230961,26.2399788 C48.230961,27.6471579 49.0872,28.4988329 50.531054,28.4988329 Z M51.3293465,25.6857788 L49.726975,25.6857788 C49.745068,25.2107968 50.0411575,24.8729794 50.5288535,24.8729794 C51.0150825,24.8729794 51.3112535,25.2107968 51.3293465,25.6857788 Z" id="Workshop&amp;Wireframe" fill="#000000" fill-rule="nonzero"></path>
        </g>
    </g>
</svg>