<?xml version="1.0" encoding="UTF-8"?>
<svg width="1129px" height="410px" viewBox="0 0 1129 410" version="1.1" xmlns="http://www.w3.org/2000/svg" xmlns:xlink="http://www.w3.org/1999/xlink">
    <title>cwu-logo</title>
    <g id="cwu-logo" stroke="none" stroke-width="1" fill="none" fill-rule="evenodd">
        <g transform="translate(0.400000, -12.400000)" fill="#CE1069" fill-rule="nonzero" id="Group">
            <g>
                <path d="M963.6,12.3 L963.6,181.5 C963.6,227.2 976.8,266.4 1026,266.4 C1075.2,266.4 1088.4,227.1 1088.4,181.5 L1088.4,12.3 L1129.1,12.3 L1129.1,193.4 C1129.1,256.7 1090.8,305.9 1026,305.9 C961.2,305.9 922.9,256.6 922.9,193.4 L922.9,12.3 L963.6,12.3 L963.6,12.3 Z" id="Path"></path>
                <path d="M670.2,141.2 C635.1,137.9 597,139.6 553.2,145.4 C456.1,158.4 309.5,238.6 212.6,251.6 C145.2,260.6 91.9,259.6 40.9,246 C75.8,249 113.2,247 157,241.2 C253.9,228.3 400.5,148 497.6,135 C564.9,126 620.1,127.5 670.2,141.2 L670.2,141.2 Z" id="Path"></path>
                <path d="M629.3,97.9 C594.2,94.6 556.1,96.3 512.3,102.1 C415.2,115.1 268.6,195.3 171.7,208.3 C104.3,217.3 51,216.3 -5.68434189e-14,202.7 C34.9,205.7 72.4,203.7 116.1,197.9 C213,184.9 359.6,104.7 456.7,91.7 C524,82.8 579.3,84.3 629.3,97.9 L629.3,97.9 Z" id="Path"></path>
                <path d="M588.5,89.6 C574.1,87.6 559.1,86.5 543.6,86.2 L514.9,12.3 L559,12.3 L588.5,89.6 L588.5,89.6 Z" id="Path"></path>
                <path d="M552.7,109.5 C567.4,108.1 581.5,107.3 595.1,107.1 L604,130.3 C590,129.4 575.4,129.2 560.3,129.7 L552.7,109.5 L552.7,109.5 Z" id="Path"></path>
                <path d="M570.5,155.2 C584.9,153.4 598.6,152.2 611.8,151.3 L632.9,207.2 L709.9,0 L786.9,207.2 L860.8,12.2 L904.9,12.2 L786.9,317.2 L710,111.3 L633,317.2 L570.5,155.2 L570.5,155.2 Z" id="Path"></path>
                <path d="M285.2,145.4 C291.4,68.4 355.8,7.9 434.4,7.9 C462.3,7.9 488.4,15.5 510.7,28.8 L491.5,64.9 C474.9,54.7 455.3,48.7 434.4,48.7 C384.3,48.7 342.1,82.5 329.4,128.6 C314.9,134 299.9,139.8 285.2,145.4 L285.2,145.4 Z" id="Path"></path>
                <path d="M329.8,187.1 C317,192 304.1,197 291.4,201.7 C290.2,197.8 289.1,193.8 288.2,189.8 C301,185.2 313.9,180.4 327,175.4 C327.7,179.5 328.7,183.3 329.8,187.1 L329.8,187.1 Z" id="Path"></path>
                <path d="M349.5,225.6 C369.4,250.5 400,266.5 434.5,266.5 C457.2,266.5 478.4,259.5 495.9,247.6 L512.6,285.4 C489.9,299.3 463.1,307.4 434.4,307.4 C382.2,307.4 336.2,280.7 309.4,240.2 C322.7,235.7 335.8,230.7 349.5,225.6 L349.5,225.6 Z" id="Path"></path>
            </g>
            <g transform="translate(284.200000, 367.700000)">
                <polygon id="Path" points="14.1 10.5 -5.68434189e-14 10.5 1.5 2.8 38.6 2.8 37.1 10.5 22.9 10.5 14.7 53.7 5.9 53.7"></polygon>
                <path d="M34.5,53.7 L44.7,0 L53.5,0 L49.2,22.4 L49.4,22.4 C52.5,18.5 56.6,16 61.7,16 C66.8,16 70.9,19.1 70.9,25.9 C70.9,27.8 70.6,30.4 70.2,32.3 L66.2,53.6 L57.4,53.6 L61.3,33 C61.5,31.6 61.8,30 61.8,28.2 C61.8,25.4 60.5,23.2 57.2,23.2 C53,23.2 48.1,28.3 46.6,36.1 L43.3,53.6 L34.5,53.6 L34.5,53.7 Z" id="Path"></path>
                <path d="M105,51.5 C101.4,53.4 96.5,54.4 92,54.4 C81.8,54.4 77,48.1 77,39.2 C77,28.1 85.2,16 97.8,16 C105.1,16 109.7,20.2 109.7,26.4 C109.7,35.9 99.8,38.9 85.6,38.6 C85.5,39.9 85.8,42.3 86.6,43.8 C88,46.3 90.7,47.5 94.2,47.5 C98.4,47.5 101.7,46.4 104.3,45.1 L105,51.5 Z M101.3,26.4 C101.3,24.1 99.4,22.6 96.6,22.6 C91.2,22.6 87.5,27.5 86.4,32 C95.5,32.1 101.3,30.9 101.3,26.4 L101.3,26.4 Z" id="Shape"></path>
                <path d="M152.5,52.4 C150.3,53.5 146.6,54.5 141.9,54.5 C132.7,54.5 127,48.6 127,39.8 C127,26.9 136.8,16.1 150.4,16.1 C153.7,16.1 156.5,16.9 158,17.5 L155.7,24.3 C154.3,23.7 152.6,23.2 150.1,23.2 C141.6,23.2 136.3,31.1 136.3,38.8 C136.3,44.3 139.5,47.4 144.4,47.4 C147.8,47.4 150.4,46.5 152.2,45.7 L152.5,52.4 Z" id="Path"></path>
                <path d="M173.8,54.6 C164.5,54.6 158.8,48.2 158.8,39.4 C158.8,26.9 167.5,16.1 180,16.1 C189.9,16.1 195,23.2 195,31.3 C195.1,43.8 186.4,54.6 173.8,54.6 L173.8,54.6 Z M175.1,47.8 C181.7,47.8 186.1,38.7 186.1,31.4 C186.1,27.6 184.4,22.9 179.1,22.9 C172.1,22.9 168,32.3 168,39.2 C167.9,44.2 170.5,47.8 175.1,47.8 L175.1,47.8 Z" id="Shape"></path>
                <path d="M199,53.7 L203.7,28.3 C204.5,23.9 205.1,20.1 205.5,16.9 L213.1,16.9 L212.3,23.3 L212.5,23.3 C215.9,18.4 220.5,16 225.3,16 C231,16 233.6,19.6 233.9,23.6 C237.2,18.5 241.8,16.1 247,16 C252,16 255.9,19.3 255.9,25.8 C255.9,27.4 255.6,30.1 255.3,32.1 L251.3,53.6 L242.8,53.6 L246.6,33 C246.9,31.5 247.1,29.8 247.1,28.4 C247.1,25.2 245.8,23.1 242.6,23.1 C238.5,23.1 234.1,28.2 232.6,36 L229.3,53.6 L220.8,53.6 L224.7,32.7 C224.9,31.2 225.1,29.8 225.1,28.4 C225.1,25.6 224.3,23.1 220.7,23.1 C216.6,23.1 211.9,28.6 210.6,36.1 L207.4,53.6 L199,53.6 L199,53.7 Z" id="Path"></path>
                <path d="M261.1,53.7 L265.8,28.3 C266.6,23.9 267.2,20.1 267.6,16.9 L275.2,16.9 L274.4,23.3 L274.6,23.3 C278,18.4 282.6,16 287.4,16 C293.1,16 295.7,19.6 296,23.6 C299.3,18.5 303.9,16.1 309.1,16 C314.1,16 318,19.3 318,25.8 C318,27.4 317.7,30.1 317.4,32.1 L313.4,53.6 L304.9,53.6 L308.7,33 C309,31.5 309.2,29.8 309.2,28.4 C309.2,25.2 307.9,23.1 304.7,23.1 C300.6,23.1 296.2,28.2 294.7,36 L291.4,53.7 L282.9,53.7 L286.8,32.8 C287,31.3 287.2,29.9 287.2,28.5 C287.2,25.7 286.4,23.2 282.8,23.2 C278.7,23.2 274,28.7 272.7,36.2 L269.5,53.7 L261.1,53.7 L261.1,53.7 Z" id="Path"></path>
                <path d="M360.7,16.9 L355.9,42.3 C355.1,46.7 354.5,50.5 354.1,53.7 L346.2,53.7 L347,47.3 L346.8,47.3 C343.2,52.1 338.6,54.6 334,54.6 C328.6,54.6 324.4,51.7 324.4,44.2 C324.4,42.2 324.6,40.1 325.2,37.6 L329.1,17 L337.9,17 L334.1,37.1 C333.7,38.9 333.5,40.7 333.5,42.2 C333.5,45.2 334.7,47.4 338.2,47.4 C342.3,47.4 347,42.6 348.5,34.9 L351.8,17 L360.7,17 L360.7,16.9 Z" id="Path"></path>
                <path d="M363.8,53.7 L368.6,28.3 C369.5,23.9 370,20.1 370.5,16.9 L378.4,16.9 L377.6,23.5 L377.7,23.5 C381.1,18.6 385.8,16.1 390.9,16.1 C396.2,16.1 400.3,19.3 400.3,26.2 C400.3,27.9 400,30.4 399.6,32.3 L395.6,53.8 L386.8,53.8 L390.7,33 C390.9,31.6 391.1,30.1 391.1,28.6 C391.1,25.5 390,23.3 386.5,23.3 C382.6,23.3 377.4,28.1 375.8,36.8 L372.6,53.8 L363.8,53.8 L363.8,53.7 Z" id="Path"></path>
                <path d="M405.4,53.7 L412.4,16.9 L421.2,16.9 L414.2,53.7 L405.4,53.7 Z M418.2,11.6 C415.6,11.6 413.7,9.7 413.7,6.9 C413.7,3.8 416.1,1.6 419,1.6 C421.8,1.6 423.7,3.5 423.7,6.3 C423.7,9.6 421.3,11.6 418.2,11.6 L418.2,11.6 Z" id="Shape"></path>
                <path d="M450.5,52.4 C448.3,53.5 444.6,54.5 439.9,54.5 C430.7,54.5 425,48.6 425,39.8 C425,26.9 434.8,16.1 448.4,16.1 C451.7,16.1 454.5,16.9 456,17.5 L453.7,24.3 C452.3,23.7 450.6,23.2 448.1,23.2 C439.6,23.2 434.3,31.1 434.3,38.8 C434.3,44.3 437.5,47.4 442.4,47.4 C445.8,47.4 448.4,46.5 450.2,45.7 L450.5,52.4 Z" id="Path"></path>
                <path d="M479.9,53.7 C480,51.5 480.2,48.6 480.6,45.5 L480.4,45.5 C476.8,52.2 471.9,54.6 467.2,54.6 C460.6,54.6 456.3,49.5 456.3,42.1 C456.3,29.5 465.1,16.2 482.2,16.2 C486.2,16.2 490.5,17 493.3,17.9 L489.5,37.1 C488.4,42.5 487.8,49.5 488,53.9 L479.9,53.9 L479.9,53.7 Z M483.5,23.3 C482.7,23.1 481.5,22.9 479.9,22.9 C471.7,22.9 465.5,32 465.5,40.4 C465.5,44.3 466.9,47.4 470.8,47.4 C474.9,47.4 479.9,42.3 481.6,32.9 L483.5,23.3 Z" id="Shape"></path>
                <path d="M515.2,7.5 L513.5,16.9 L521.7,16.9 L520.4,23.7 L512.2,23.7 L509.3,38.6 C508.9,40.3 508.6,42.2 508.6,43.7 C508.6,45.7 509.5,47 511.9,47 C513,47 514,46.9 514.9,46.8 L514.1,53.7 C512.8,54.2 510.5,54.5 508.4,54.5 C502.3,54.5 499.7,51.2 499.7,46.9 C499.7,44.9 499.9,42.8 500.5,40.1 L503.7,23.7 L498.8,23.7 L500.1,16.9 L505,16.9 L506.4,10 L515.2,7.5 Z" id="Path"></path>
                <path d="M521.7,53.7 L528.7,16.9 L537.5,16.9 L530.5,53.7 L521.7,53.7 Z M534.6,11.6 C532,11.6 530.1,9.7 530.1,6.9 C530.1,3.8 532.5,1.6 535.4,1.6 C538.2,1.6 540.1,3.5 540.1,6.3 C540,9.6 537.6,11.6 534.6,11.6 L534.6,11.6 Z" id="Shape"></path>
                <path d="M556.5,54.6 C547.2,54.6 541.5,48.2 541.5,39.4 C541.5,26.9 550.2,16.1 562.7,16.1 C572.6,16.1 577.7,23.2 577.7,31.3 C577.7,43.8 569,54.6 556.5,54.6 L556.5,54.6 Z M557.7,47.8 C564.3,47.8 568.7,38.7 568.7,31.4 C568.7,27.6 567,22.9 561.7,22.9 C554.7,22.9 550.6,32.3 550.6,39.2 C550.5,44.2 553.2,47.8 557.7,47.8 L557.7,47.8 Z" id="Shape"></path>
                <path d="M581.6,53.7 L586.4,28.3 C587.3,23.9 587.8,20.1 588.3,16.9 L596.2,16.9 L595.4,23.5 L595.5,23.5 C598.9,18.6 603.6,16.1 608.7,16.1 C614,16.1 618.1,19.3 618.1,26.2 C618.1,27.9 617.8,30.4 617.4,32.3 L613.4,53.8 L604.6,53.8 L608.5,33 C608.7,31.6 608.9,30.1 608.9,28.6 C608.9,25.5 607.8,23.3 604.3,23.3 C600.4,23.3 595.2,28.1 593.6,36.8 L590.4,53.8 L581.6,53.8 L581.6,53.7 Z" id="Path"></path>
                <path d="M624.1,45.5 C626,46.6 629.6,47.9 632.9,47.9 C636.5,47.9 638.6,45.9 638.6,43.4 C638.6,41.1 637.4,39.6 633.8,37.7 C629.6,35.5 626.5,32.3 626.5,28.2 C626.5,21.1 632.7,16.1 641.4,16.1 C645.3,16.1 648.4,17 650.1,18 L647.8,24.3 C646.4,23.5 643.9,22.6 640.9,22.6 C637.6,22.6 635.3,24.3 635.3,26.8 C635.3,28.8 637,30.3 640.1,31.9 C644.2,34 647.7,37.1 647.7,41.7 C647.7,49.9 640.9,54.4 632.1,54.3 C627.8,54.2 623.8,53 621.8,51.6 L624.1,45.5 Z" id="Path"></path>
                <path d="M705.1,16.9 L700.3,42.3 C699.5,46.7 698.9,50.5 698.5,53.7 L690.6,53.7 L691.4,47.3 L691.2,47.3 C687.6,52.1 683,54.6 678.4,54.6 C673,54.6 668.8,51.7 668.8,44.2 C668.8,42.2 669,40.1 669.6,37.6 L673.5,17 L682.3,17 L678.5,37.1 C678.1,38.9 677.9,40.7 677.9,42.2 C677.9,45.2 679.1,47.4 682.6,47.4 C686.7,47.4 691.4,42.6 692.9,34.9 L696.2,17 L705.1,17 L705.1,16.9 Z" id="Path"></path>
                <path d="M708.2,53.7 L713,28.3 C713.9,23.9 714.4,20.1 714.9,16.9 L722.8,16.9 L722,23.5 L722.1,23.5 C725.5,18.6 730.2,16.1 735.3,16.1 C740.6,16.1 744.7,19.3 744.7,26.2 C744.7,27.9 744.4,30.4 744,32.3 L740,53.8 L731.2,53.8 L735.1,33 C735.3,31.6 735.5,30.1 735.5,28.6 C735.5,25.5 734.4,23.3 730.9,23.3 C727,23.3 721.8,28.1 720.2,36.8 L717,53.8 L708.2,53.8 L708.2,53.7 Z" id="Path"></path>
                <path d="M749.8,53.7 L756.8,16.9 L765.6,16.9 L758.6,53.7 L749.8,53.7 Z M762.6,11.6 C760,11.6 758.1,9.7 758.1,6.9 C758.1,3.8 760.5,1.6 763.4,1.6 C766.2,1.6 768.1,3.5 768.1,6.3 C768.1,9.6 765.7,11.6 762.6,11.6 L762.6,11.6 Z" id="Shape"></path>
                <path d="M784.5,54.6 C775.2,54.6 769.5,48.2 769.5,39.4 C769.5,26.9 778.2,16.1 790.7,16.1 C800.6,16.1 805.7,23.2 805.7,31.3 C805.8,43.8 797.1,54.6 784.5,54.6 L784.5,54.6 Z M785.8,47.8 C792.4,47.8 796.8,38.7 796.8,31.4 C796.8,27.6 795.1,22.9 789.8,22.9 C782.8,22.9 778.7,32.3 778.7,39.2 C778.6,44.2 781.2,47.8 785.8,47.8 L785.8,47.8 Z" id="Shape"></path>
                <path d="M809.6,53.7 L814.4,28.3 C815.3,23.9 815.8,20.1 816.3,16.9 L824.2,16.9 L823.4,23.5 L823.5,23.5 C826.9,18.6 831.6,16.1 836.7,16.1 C842,16.1 846.1,19.3 846.1,26.2 C846.1,27.9 845.8,30.4 845.4,32.3 L841.4,53.8 L832.6,53.8 L836.5,33 C836.7,31.6 837,30.1 837,28.6 C837,25.5 835.9,23.3 832.4,23.3 C828.5,23.3 823.3,28.1 821.7,36.8 L818.5,53.8 L809.6,53.8 L809.6,53.7 Z" id="Path"></path>
            </g>
        </g>
    </g>
</svg>