<?xml version="1.0" encoding="UTF-8"?><svg id="Layer_1" xmlns="http://www.w3.org/2000/svg" viewBox="0 0 305.36 291.29"><defs><style>.cls-1{fill:#25303b;stroke-width:0px;}</style></defs><path class="cls-1" d="m32.01,169.23c-1.6.82-3.52,1.57-5.77,2.25-2.25.68-4.54,1.02-6.86,1.02-3.44,0-6.39-.57-8.85-1.71-2.47-1.14-4.48-2.64-6.03-4.5-1.55-1.86-2.69-3.98-3.41-6.35-.73-2.37-1.09-4.81-1.09-7.33s.33-4.89.98-7.26c.65-2.37,1.68-4.49,3.08-6.35,1.4-1.86,3.19-3.36,5.37-4.5,2.18-1.14,4.77-1.71,7.77-1.71,3.19,0,5.85.57,7.98,1.71,2.13,1.14,3.82,2.61,5.08,4.43,1.26,1.82,2.14,3.86,2.65,6.13.51,2.27.76,4.53.76,6.75v3.48H9.65c.05,1.4.33,2.72.84,3.95.51,1.23,1.17,2.3,2,3.19.82.9,1.81,1.61,2.98,2.14,1.16.53,2.44.8,3.85.8,2.37,0,4.51-.33,6.42-.98,1.91-.65,4-1.61,6.28-2.87v7.69Zm-7.84-20.18c-.05-3-.67-5.34-1.85-7-1.19-1.67-2.94-2.51-5.26-2.51s-3.99.87-5.15,2.61c-1.16,1.74-1.91,4.04-2.25,6.9h14.52Z"/><path class="cls-1" d="m62.65,167.05c-2.47,3.63-5.9,5.44-10.31,5.44-3.1,0-5.67-.63-7.73-1.89-2.06-1.26-3.7-2.85-4.94-4.79-1.23-1.93-2.11-4.08-2.61-6.42-.51-2.35-.76-4.63-.76-6.86,0-2.76.36-5.33,1.09-7.73.73-2.4,1.78-4.49,3.16-6.28s3.08-3.19,5.12-4.21c2.03-1.01,4.36-1.52,6.97-1.52,2.03,0,3.89.4,5.59,1.2,1.69.8,3,1.9,3.92,3.3v-14.59h-4.14c-.44-1.01-.65-2.06-.65-3.12s.22-2.11.65-3.12h13.43v48.78h4.21c.39,1.06.58,2.11.58,3.12s-.19,2.06-.58,3.12h-12.63l-.36-4.43Zm-8.56-1.45c.73,0,1.56-.17,2.5-.51.94-.34,1.85-.97,2.72-1.89.87-.92,1.61-2.22,2.21-3.88.6-1.67.91-3.81.91-6.42,0-1.06-.09-2.33-.25-3.81-.17-1.48-.53-2.9-1.09-4.28-.56-1.38-1.38-2.55-2.47-3.52-1.09-.97-2.55-1.45-4.39-1.45-1.94,0-3.46.48-4.57,1.45-1.11.97-1.96,2.15-2.54,3.56-.58,1.4-.94,2.89-1.09,4.46-.14,1.57-.22,2.94-.22,4.1,0,3.63.73,6.57,2.18,8.82,1.45,2.25,3.48,3.38,6.1,3.38Z"/><path class="cls-1" d="m78.87,140.12h-4.43c-.39-1.06-.58-2.11-.58-3.12s.19-2.06.58-3.12h13.72v23.95c0,2.47.39,4.37,1.16,5.7.77,1.33,2.32,2,4.65,2,.82,0,1.68-.15,2.58-.43.89-.29,1.71-.81,2.43-1.56.73-.75,1.33-1.78,1.81-3.09.48-1.31.73-3,.73-5.08v-15.24h-4.36c-.39-1.06-.58-2.11-.58-3.12s.19-2.06.58-3.12h13.65v31.36h4.43c.39,1.06.58,2.11.58,3.12s-.19,2.06-.58,3.12h-12.41l-.36-4.35c-.87,1.31-2.23,2.53-4.06,3.67-1.84,1.14-4.14,1.71-6.9,1.71-4.11,0-7.25-1.19-9.4-3.56-2.15-2.37-3.23-5.76-3.23-10.16v-18.65Z"/><path class="cls-1" d="m146.96,168.65c-.73.39-1.54.81-2.43,1.27-.9.46-1.9.87-3.01,1.23-1.11.36-2.36.67-3.74.91-1.38.24-2.92.36-4.61.36-3,0-5.62-.52-7.88-1.56-2.25-1.04-4.15-2.46-5.7-4.25-1.55-1.79-2.71-3.85-3.48-6.17-.77-2.32-1.16-4.77-1.16-7.33s.34-5.23,1.02-7.69c.68-2.47,1.72-4.65,3.12-6.53,1.4-1.89,3.16-3.39,5.26-4.5,2.1-1.11,4.61-1.67,7.51-1.67,2.03,0,3.8.38,5.3,1.12,1.5.75,2.66,1.73,3.48,2.94v-2.76c1.06-.39,2.1-.58,3.12-.58,1.11,0,2.25.22,3.41.65v15.17c-1.26.43-2.44.65-3.56.65s-2.32-.22-3.48-.65v-2.47c0-2.47-.68-4.31-2.03-5.52-1.35-1.21-3.05-1.82-5.08-1.82-1.65,0-3.02.39-4.14,1.16-1.11.77-2.02,1.8-2.72,3.09-.7,1.28-1.2,2.72-1.49,4.32-.29,1.6-.43,3.19-.43,4.79,0,3.87.97,6.88,2.9,9.04,1.93,2.15,4.43,3.23,7.48,3.23,1.35,0,2.59-.14,3.7-.43s2.15-.68,3.12-1.16c.97-.48,1.9-1.06,2.79-1.74.89-.68,1.8-1.4,2.72-2.18v9.07Z"/><path class="cls-1" d="m172.95,167.92c-1.11,1.4-2.59,2.52-4.43,3.34-1.84.82-4.06,1.23-6.68,1.23-1.79,0-3.47-.25-5.04-.76-1.57-.51-2.94-1.26-4.1-2.25-1.16-.99-2.08-2.2-2.76-3.63-.68-1.43-1.02-3.08-1.02-4.97,0-3.34.76-5.88,2.29-7.62,1.52-1.74,3.45-3.02,5.77-3.85,2.32-.82,4.85-1.33,7.59-1.52,2.73-.19,5.33-.41,7.8-.65,0-1.21-.11-2.3-.33-3.27-.22-.97-.6-1.77-1.16-2.4-.56-.63-1.32-1.11-2.29-1.45-.97-.34-2.2-.51-3.7-.51-2.23,0-4.33.43-6.31,1.27-1.98.85-4.11,1.97-6.39,3.38v-7.33c.68-.39,1.48-.82,2.4-1.31.92-.48,1.97-.93,3.16-1.34s2.53-.76,4.03-1.05c1.5-.29,3.14-.43,4.94-.43.73,0,1.6.05,2.61.14,1.02.1,2.06.29,3.12.58,1.06.29,2.14.72,3.23,1.31,1.09.58,2.04,1.35,2.87,2.32.82.97,1.5,2.18,2.03,3.63.53,1.45.8,3.19.8,5.23v19.24h4.06c.39,1.06.58,2.11.58,3.12s-.19,2.06-.58,3.12h-12.12l-.36-3.56Zm-.58-14.3l-7.69.73c-2.42.24-4.15.93-5.19,2.07-1.04,1.14-1.56,2.65-1.56,4.54,0,1.26.47,2.38,1.42,3.38.94.99,2.33,1.49,4.17,1.49,1.16,0,2.27-.16,3.34-.47,1.06-.31,2.01-.77,2.83-1.38.82-.61,1.48-1.32,1.96-2.14.48-.82.73-1.74.73-2.76v-5.44Z"/><path class="cls-1" d="m188.21,140.2h-4.5c-.39-1.26-.58-2.35-.58-3.27,0-1.01.19-2.06.58-3.12h4.5v-8.71l9.36-4.86v13.57h7.48c.39,1.06.58,2.11.58,3.12,0,.92-.19,2.01-.58,3.27h-7.48v20.83c0,1.64.33,2.73.98,3.27.65.53,1.49.8,2.5.8.92,0,1.74-.07,2.47-.22.73-.14,1.72-.53,2.98-1.16v6.68c-1.26.53-2.57.92-3.92,1.16-1.36.24-2.59.36-3.7.36-3.82,0-6.56-.98-8.2-2.94-1.65-1.96-2.47-4.83-2.47-8.6v-20.18Z"/><path class="cls-1" d="m213.74,165.24v-25.19h-4.07c-.39-1.06-.58-2.11-.58-3.12s.19-2.06.58-3.12h13.36v31.43h4.06c.39,1.06.58,2.11.58,3.12s-.19,2.06-.58,3.12h-17.42c-.39-1.06-.58-2.11-.58-3.12s.19-2.06.58-3.12h4.07Zm3.7-35.79c-1.27,0-2.36-.47-3.28-1.41-.92-.94-1.38-2.1-1.38-3.49s.46-2.55,1.38-3.49c.92-.94,2.01-1.41,3.28-1.41s2.36.47,3.28,1.41c.92.94,1.38,2.11,1.38,3.49s-.46,2.55-1.38,3.49c-.92.94-2.01,1.41-3.28,1.41Z"/><path class="cls-1" d="m245.19,172.5c-3.19,0-5.95-.58-8.27-1.74-2.32-1.16-4.24-2.69-5.73-4.57-1.5-1.89-2.6-4.02-3.3-6.39-.7-2.37-1.05-4.77-1.05-7.19s.35-4.81,1.05-7.19c.7-2.37,1.8-4.49,3.3-6.35,1.5-1.86,3.41-3.38,5.73-4.54,2.32-1.16,5.08-1.74,8.27-1.74s5.95.58,8.27,1.74c2.32,1.16,4.22,2.68,5.7,4.54,1.48,1.86,2.58,3.98,3.3,6.35.73,2.37,1.09,4.77,1.09,7.19s-.36,4.82-1.09,7.19c-.73,2.37-1.83,4.5-3.3,6.39-1.48,1.89-3.38,3.41-5.7,4.57-2.32,1.16-5.08,1.74-8.27,1.74Zm0-6.9c1.79,0,3.25-.43,4.39-1.31,1.14-.87,2.03-1.96,2.69-3.27.65-1.31,1.11-2.72,1.38-4.25.26-1.52.4-2.91.4-4.17s-.13-2.64-.4-4.14c-.27-1.5-.73-2.9-1.38-4.21-.65-1.31-1.55-2.4-2.69-3.27-1.14-.87-2.6-1.31-4.39-1.31s-3.25.44-4.39,1.31c-1.14.87-2.03,1.96-2.69,3.27-.65,1.31-1.11,2.71-1.38,4.21-.27,1.5-.4,2.88-.4,4.14s.13,2.65.4,4.17c.26,1.52.73,2.94,1.38,4.25.65,1.31,1.55,2.4,2.69,3.27,1.14.87,2.6,1.31,4.39,1.31Z"/><path class="cls-1" d="m268.41,165.24v-25.19h-4.43c-.39-1.06-.58-2.11-.58-3.12s.19-2.06.58-3.12h12.41l.36,4.35c.87-1.31,2.23-2.53,4.07-3.66,1.84-1.14,4.14-1.71,6.89-1.71,4.11,0,7.25,1.19,9.4,3.56,2.15,2.37,3.23,5.76,3.23,10.16v18.73h4.43c.39,1.06.58,2.11.58,3.12s-.19,2.06-.58,3.12h-17.49c-.39-1.06-.58-2.11-.58-3.12s.19-2.06.58-3.12h3.77v-17.78c0-2.47-.39-4.37-1.16-5.7-.77-1.33-2.32-2-4.65-2-.82,0-1.68.15-2.58.44-.9.29-1.71.81-2.43,1.56-.73.75-1.33,1.78-1.81,3.08-.48,1.31-.73,3-.73,5.08v15.32h3.77c.39,1.06.58,2.11.58,3.12s-.19,2.06-.58,3.12h-17.49c-.39-1.06-.58-2.11-.58-3.12s.19-2.06.58-3.12h4.43Z"/><path class="cls-1" d="m81.59,110.31v-17.26h-3.07c-.18-.45-.27-.92-.27-1.4s.09-.95.27-1.4h6.31v3.38c.21-.39.51-.83.9-1.31.39-.48.88-.92,1.46-1.31.59-.39,1.28-.72,2.1-.99.81-.27,1.74-.41,2.79-.41,2.4,0,4.25.69,5.54,2.05,1.29,1.37,1.94,3.39,1.94,6.06v12.58h3.06c.18.45.27.92.27,1.4s-.09.95-.27,1.4h-9.56c-.18-.45-.27-.92-.27-1.4s.09-.95.27-1.4h2.66v-11.27c0-.93-.06-1.78-.18-2.55-.12-.77-.35-1.41-.7-1.91-.35-.51-.82-.91-1.42-1.19-.6-.29-1.37-.43-2.3-.43-.69,0-1.38.13-2.05.38-.68.26-1.28.68-1.83,1.26-.54.59-.98,1.37-1.33,2.37s-.52,2.23-.52,3.7v9.65h2.66c.18.45.27.92.27,1.4s-.09.95-.27,1.4h-9.56c-.18-.45-.27-.92-.27-1.4s.09-.95.27-1.4h3.07Z"/><path class="cls-1" d="m117.65,110.05c-.24.42-.54.85-.9,1.28-.36.44-.83.83-1.42,1.19-.59.36-1.29.65-2.12.88-.83.23-1.8.34-2.91.34-2.19,0-3.99-.59-5.39-1.78-1.4-1.19-2.1-2.86-2.1-5.02,0-.99.14-1.92.43-2.8.28-.87.74-1.65,1.38-2.32.63-.68,1.46-1.22,2.48-1.65,1.02-.42,2.27-.71,3.74-.86l6.63-.63v-.77c0-.81-.08-1.53-.25-2.16-.16-.63-.45-1.17-.86-1.6-.41-.44-.95-.77-1.65-.99-.69-.22-1.58-.34-2.66-.34-.81,0-1.58.11-2.3.32-.72.21-1.39.46-2.01.74-.62.28-1.17.59-1.67.92-.5.33-.89.62-1.19.86v-3.56c.3-.21.69-.46,1.17-.74.48-.28,1.06-.55,1.74-.81.68-.26,1.45-.47,2.32-.65.87-.18,1.85-.27,2.93-.27.66,0,1.47.07,2.41.2.95.14,1.86.47,2.73.99.87.53,1.61,1.3,2.21,2.32.6,1.02.9,2.42.9,4.19v12.98h2.89c.18.45.27.92.27,1.4s-.09.95-.27,1.4h-6.54v-3.06Zm-.18-8.47l-5.68.59c-1.65.18-2.92.63-3.81,1.35-.89.72-1.33,1.88-1.33,3.47,0,1.11.39,2,1.17,2.66.78.66,1.85.99,3.2.99.75,0,1.52-.12,2.3-.36.78-.24,1.47-.59,2.07-1.04.6-.45,1.1-1.01,1.49-1.69.39-.68.59-1.45.59-2.32v-3.65Z"/><path class="cls-1" d="m126.13,93.05h-3.47c-.18-.45-.27-.92-.27-1.4s.09-.95.27-1.4h3.47v-6.13l3.88-2.07v8.2h5.41c.18.45.27.92.27,1.4s-.09.94-.27,1.4h-5.41v14.11c0,2.1.93,3.15,2.79,3.15.81,0,1.49-.09,2.03-.27.54-.18.95-.35,1.22-.5v3.06c-.48.3-1.09.51-1.83.63-.74.12-1.39.18-1.96.18-2.04,0-3.58-.56-4.6-1.69-1.02-1.13-1.53-2.71-1.53-4.76v-13.93Z"/><path class="cls-1" d="m141,110.31v-17.26h-3.06c-.18-.45-.27-.92-.27-1.4s.09-.95.27-1.4h6.9v20.06h3.06c.18.45.27.92.27,1.4s-.09.95-.27,1.4h-9.96c-.18-.45-.27-.92-.27-1.4s.09-.95.27-1.4h3.06Zm1.26-24.08c-.6,0-1.11-.23-1.53-.68-.43-.45-.64-1.02-.64-1.69s.21-1.24.64-1.69c.43-.45.94-.68,1.53-.68s1.11.23,1.54.68c.43.45.64,1.02.64,1.69s-.21,1.24-.64,1.69c-.43.45-.94.68-1.54.68Z"/><path class="cls-1" d="m158.58,113.74c-1.83,0-3.41-.35-4.73-1.06-1.32-.71-2.42-1.63-3.29-2.77-.87-1.14-1.52-2.43-1.94-3.88-.42-1.44-.63-2.9-.63-4.37s.21-2.93.63-4.37c.42-1.44,1.07-2.73,1.94-3.85.87-1.13,1.97-2.04,3.29-2.75,1.32-.7,2.9-1.06,4.73-1.06s3.42.36,4.76,1.06c1.34.71,2.44,1.62,3.31,2.75.87,1.13,1.52,2.41,1.94,3.85.42,1.44.63,2.9.63,4.37s-.21,2.93-.63,4.37c-.42,1.44-1.07,2.73-1.94,3.88-.87,1.14-1.98,2.07-3.31,2.77-1.34.7-2.92,1.06-4.76,1.06Zm0-3.24c1.38,0,2.5-.32,3.36-.95.86-.63,1.53-1.41,2.03-2.32.5-.92.83-1.88,1.01-2.89s.27-1.9.27-2.68-.09-1.64-.27-2.66c-.18-1.02-.52-1.98-1.01-2.88-.5-.9-1.17-1.67-2.03-2.3-.86-.63-1.98-.95-3.36-.95s-2.5.32-3.36.95c-.86.63-1.53,1.4-2.01,2.3-.48.9-.81,1.86-.99,2.88-.18,1.02-.27,1.91-.27,2.66s.09,1.67.27,2.68c.18,1.01.51,1.97.99,2.89.48.92,1.15,1.69,2.01,2.32.86.63,1.98.95,3.36.95Z"/><path class="cls-1" d="m172.47,110.31v-17.26h-3.07c-.18-.45-.27-.92-.27-1.4s.09-.95.27-1.4h6.31v3.38c.21-.39.51-.83.9-1.31.39-.48.88-.92,1.46-1.31.59-.39,1.28-.72,2.1-.99.81-.27,1.74-.41,2.79-.41,2.4,0,4.25.69,5.54,2.05,1.29,1.37,1.94,3.39,1.94,6.06v12.58h3.06c.18.45.27.92.27,1.4s-.09.95-.27,1.4h-9.56c-.18-.45-.27-.92-.27-1.4s.09-.95.27-1.4h2.66v-11.27c0-.93-.06-1.78-.18-2.55-.12-.77-.35-1.41-.7-1.91-.35-.51-.82-.91-1.42-1.19-.6-.29-1.37-.43-2.3-.43-.69,0-1.38.13-2.05.38-.68.26-1.28.68-1.83,1.26-.54.59-.98,1.37-1.33,2.37-.35.99-.52,2.23-.52,3.7v9.65h2.66c.18.45.27.92.27,1.4s-.09.95-.27,1.4h-9.56c-.18-.45-.27-.92-.27-1.4s.09-.95.27-1.4h3.07Z"/><path class="cls-1" d="m208.53,110.05c-.24.42-.54.85-.9,1.28-.36.44-.83.83-1.42,1.19-.59.36-1.29.65-2.12.88-.83.23-1.8.34-2.91.34-2.19,0-3.99-.59-5.39-1.78-1.4-1.19-2.1-2.86-2.1-5.02,0-.99.14-1.92.43-2.8.28-.87.74-1.65,1.38-2.32.63-.68,1.46-1.22,2.48-1.65,1.02-.42,2.27-.71,3.74-.86l6.63-.63v-.77c0-.81-.08-1.53-.25-2.16-.16-.63-.45-1.17-.86-1.6s-.95-.77-1.65-.99c-.69-.22-1.58-.34-2.66-.34-.81,0-1.58.11-2.3.32-.72.21-1.39.46-2.01.74-.62.28-1.17.59-1.67.92-.5.33-.89.62-1.19.86v-3.56c.3-.21.69-.46,1.17-.74.48-.28,1.06-.55,1.74-.81.68-.26,1.45-.47,2.32-.65.87-.18,1.85-.27,2.93-.27.66,0,1.46.07,2.41.2.95.14,1.86.47,2.73.99.87.53,1.61,1.3,2.21,2.32.6,1.02.9,2.42.9,4.19v12.98h2.89c.18.45.27.92.27,1.4s-.09.95-.27,1.4h-6.54v-3.06Zm-.18-8.47l-5.68.59c-1.65.18-2.92.63-3.81,1.35-.89.72-1.33,1.88-1.33,3.47,0,1.11.39,2,1.17,2.66.78.66,1.85.99,3.2.99.75,0,1.52-.12,2.3-.36.78-.24,1.47-.59,2.07-1.04.6-.45,1.1-1.01,1.49-1.69.39-.68.59-1.45.59-2.32v-3.65Z"/><path class="cls-1" d="m219.3,110.31v-27.3h-3.06c-.18-.45-.27-.92-.27-1.4s.09-.95.27-1.4h6.9v30.1h3.06c.18.45.27.92.27,1.4s-.09.95-.27,1.4h-9.96c-.18-.45-.27-.92-.27-1.4s.09-.95.27-1.4h3.06Z"/><path class="cls-1" d="m101.74,190.25h-3.02c-.18-.45-.27-.92-.27-1.4s.09-.95.27-1.4h6.85v14.06c0,.96.07,1.82.2,2.57.14.75.37,1.38.7,1.89.33.51.8.91,1.4,1.19.6.29,1.37.43,2.3.43.66,0,1.34-.13,2.03-.38.69-.25,1.31-.68,1.85-1.26.54-.59.98-1.38,1.33-2.37.35-.99.52-2.22.52-3.7v-9.65h-3.02c-.18-.45-.27-.92-.27-1.4s.09-.95.27-1.4h6.9v20.06h3.02c.18.45.27.92.27,1.4s-.09.95-.27,1.4h-6.27v-3.38c-.27.42-.6.86-.99,1.33-.39.47-.88.9-1.47,1.31-.59.41-1.27.74-2.05,1.02-.78.27-1.7.4-2.75.4-2.43,0-4.3-.68-5.59-2.05-1.29-1.37-1.94-3.4-1.94-6.11v-12.58Z"/><path class="cls-1" d="m127.43,207.51v-17.26h-3.07c-.18-.45-.27-.92-.27-1.4s.09-.95.27-1.4h6.31v3.38c.21-.39.51-.83.9-1.31.39-.48.88-.92,1.46-1.31.59-.39,1.28-.72,2.1-.99.81-.27,1.74-.41,2.79-.41,2.4,0,4.25.69,5.54,2.05,1.29,1.37,1.94,3.39,1.94,6.06v12.58h3.06c.18.45.27.92.27,1.4s-.09.95-.27,1.4h-9.56c-.18-.45-.27-.92-.27-1.4s.09-.95.27-1.4h2.66v-11.27c0-.93-.06-1.78-.18-2.55-.12-.77-.35-1.41-.7-1.91-.35-.51-.82-.91-1.42-1.19-.6-.29-1.37-.43-2.3-.43-.69,0-1.38.13-2.05.38-.68.26-1.28.68-1.83,1.26-.54.59-.98,1.37-1.33,2.37-.35.99-.52,2.23-.52,3.7v9.65h2.66c.18.45.27.92.27,1.4s-.09.95-.27,1.4h-9.56c-.18-.45-.27-.92-.27-1.4s.09-.95.27-1.4h3.07Z"/><path class="cls-1" d="m153.04,207.51v-17.26h-3.06c-.18-.45-.27-.92-.27-1.4s.09-.95.27-1.4h6.9v20.06h3.06c.18.45.27.92.27,1.4s-.09.95-.27,1.4h-9.96c-.18-.45-.27-.92-.27-1.4s.09-.95.27-1.4h3.06Zm1.26-23.06c-.69,0-1.28-.26-1.78-.79-.5-.53-.74-1.18-.74-1.96s.25-1.43.74-1.96c.5-.53,1.09-.79,1.78-.79s1.29.26,1.78.79c.5.53.74,1.18.74,1.96s-.25,1.43-.74,1.96c-.5.53-1.09.79-1.78.79Z"/><path class="cls-1" d="m170.39,210.94c-1.83,0-3.41-.35-4.73-1.06-1.32-.71-2.42-1.63-3.29-2.77-.87-1.14-1.52-2.43-1.94-3.88-.42-1.44-.63-2.9-.63-4.37s.21-2.93.63-4.37c.42-1.44,1.07-2.73,1.94-3.85.87-1.13,1.97-2.04,3.29-2.75,1.32-.7,2.9-1.06,4.73-1.06s3.42.36,4.76,1.06c1.34.71,2.44,1.62,3.31,2.75.87,1.13,1.52,2.41,1.94,3.85s.63,2.9.63,4.37-.21,2.93-.63,4.37-1.07,2.73-1.94,3.88c-.87,1.14-1.98,2.07-3.31,2.77-1.34.7-2.92,1.06-4.76,1.06Zm0-3.24c1.38,0,2.5-.32,3.36-.95.86-.63,1.53-1.41,2.03-2.32.5-.92.83-1.88,1.01-2.89.18-1.01.27-1.9.27-2.68s-.09-1.64-.27-2.66c-.18-1.02-.52-1.98-1.01-2.88-.5-.9-1.17-1.67-2.03-2.3-.86-.63-1.98-.95-3.36-.95s-2.5.32-3.36.95c-.86.63-1.53,1.4-2.01,2.3-.48.9-.81,1.86-.99,2.88-.18,1.02-.27,1.91-.27,2.66s.09,1.67.27,2.68c.18,1.01.51,1.97.99,2.89.48.92,1.15,1.69,2.01,2.32.86.63,1.98.95,3.36.95Z"/><path class="cls-1" d="m184.27,207.51v-17.26h-3.07c-.18-.45-.27-.92-.27-1.4s.09-.95.27-1.4h6.31v3.38c.21-.39.51-.83.9-1.31.39-.48.88-.92,1.47-1.31.59-.39,1.28-.72,2.1-.99.81-.27,1.74-.41,2.79-.41,2.4,0,4.25.69,5.54,2.05,1.29,1.37,1.94,3.39,1.94,6.06v12.58h3.06c.18.45.27.92.27,1.4s-.09.95-.27,1.4h-9.56c-.18-.45-.27-.92-.27-1.4s.09-.95.27-1.4h2.66v-11.27c0-.93-.06-1.78-.18-2.55-.12-.77-.35-1.41-.7-1.91-.35-.51-.82-.91-1.42-1.19-.6-.29-1.37-.43-2.3-.43-.69,0-1.38.13-2.05.38-.68.26-1.28.68-1.83,1.26-.54.59-.98,1.37-1.33,2.37s-.52,2.23-.52,3.7v9.65h2.66c.18.45.27.92.27,1.4s-.09.95-.27,1.4h-9.56c-.18-.45-.27-.92-.27-1.4s.09-.95.27-1.4h3.07Z"/><polygon class="cls-1" points="31.18 181.84 23.71 180.98 20.58 187.82 26.12 192.91 32.67 189.21 32.22 187.01 31.67 184.27 31.18 181.84"/><polygon class="cls-1" points="51.16 184.3 50.11 179.53 45.25 179.05 44.02 181.85 43.29 183.53 44.51 184.61 46.95 186.77 51.16 184.3"/><polygon class="cls-1" points="82.82 229.42 80.84 227.45 79.12 225.75 72.44 229.19 73.38 234.97 73.64 236.61 75.42 236.89 81.08 237.76 84.46 231.05 82.82 229.42"/><polygon class="cls-1" points="59.24 265.12 64.81 254.22 61.51 250.92 59.53 248.94 56.17 245.56 45.26 251.11 47.17 263.13 59.24 265.12"/><polygon class="cls-1" points="95.33 218.35 91.88 214.89 87.52 217.1 88.01 220.22 88.28 221.93 89.98 222.2 93.1 222.7 95.33 218.35"/><polygon class="cls-1" points="150.41 33.18 145.62 36.72 148 43.85 150.41 43.85 153.21 43.85 155.52 43.85 157.79 36.72 153.21 33.37 151.67 32.25 150.41 33.18"/><polygon class="cls-1" points="150.41 53.27 147.75 55.23 149.3 59.87 154.19 59.87 155.66 55.23 153.21 53.44 151.68 52.33 150.41 53.27"/><polygon class="cls-1" points="157.81 18.83 161.6 7.2 151.71 0 141.81 7.19 145.58 18.82 150.41 18.83 153.21 18.83 157.81 18.83"/><polygon class="cls-1" points="136.8 32.85 137.86 25.4 131.1 22.1 125.87 27.5 129.39 34.14 131.78 33.73 134.54 33.24 136.8 32.85"/><polygon class="cls-1" points="135.13 45.04 133.99 46.23 131.76 48.58 134.08 52.88 138.89 51.99 139.54 47.15 136.76 45.82 135.13 45.04"/><polygon class="cls-1" points="58.13 193.95 50.82 195.67 50.34 201.38 50.2 203.17 51.73 203.81 57.13 206.07 62.04 200.38 60.86 198.45 59.41 196.05 58.13 193.95"/><polygon class="cls-1" points="38.49 202.81 26.56 205.53 25.46 217.72 36.7 222.53 44.76 213.32 42.37 209.31 40.93 206.9 38.49 202.81"/><polygon class="cls-1" points="68.92 193.72 72.01 194.95 75.14 191.2 72.54 187.06 67.8 188.26 67.6 191.24 67.47 193.14 68.92 193.72"/><polygon class="cls-1" points="176.06 34.32 179.57 27.67 174.34 22.27 167.59 25.58 168.65 33.03 170.98 33.43 173.74 33.91 176.06 34.32"/><polygon class="cls-1" points="168.77 45.97 165.93 47.38 166.65 52.22 171.46 53.07 173.72 48.76 171.52 46.47 170.31 45.21 168.77 45.97"/><polygon class="cls-1" points="35.78 115.61 34.54 116.57 35.16 118.35 37.04 123.66 44.56 123.47 46.7 116.26 40.5 112 35.78 115.61"/><polygon class="cls-1" points="28.66 108.64 18.49 101.83 8.87 109.4 13.1 120.88 25.32 120.41 26.59 115.93 27.36 113.23 28.66 108.64"/><polygon class="cls-1" points="69.01 41.6 64.66 30.16 52.44 30.77 49.24 42.58 59.48 49.27 63.14 46.32 65.32 44.56 69.01 41.6"/><polygon class="cls-1" points="83.32 63 80.64 55.97 74.83 56.26 73.13 56.34 72.67 58.04 71.17 63.6 77.46 67.71 79.31 66.22 81.49 64.46 83.32 63"/><polygon class="cls-1" points="86.54 70.67 84.71 70.77 84.29 72.35 83.45 75.5 87.56 78.15 91.35 75.07 89.59 70.51 86.54 70.67"/><polygon class="cls-1" points="114.2 34.01 113.4 21.8 101.54 18.79 95.01 29.15 102.84 38.55 107.25 36.79 109.85 35.75 114.2 34.01"/><polygon class="cls-1" points="119.87 54.97 119.44 47.46 113.86 46 112.16 45.56 111.24 46.99 108.1 51.88 112.86 57.7 115.1 56.83 117.71 55.81 119.87 54.97"/><polygon class="cls-1" points="123.53 63.8 120.52 63 118.8 62.55 117.89 63.96 116.15 66.65 119.23 70.44 123.79 68.68 123.53 63.8"/><polygon class="cls-1" points="93.92 46.84 92.23 39.51 84.74 38.86 81.8 45.78 87.47 50.71 89.56 49.46 91.96 48.02 93.92 46.84"/><polygon class="cls-1" points="98.67 59.19 96.98 59.06 96.3 60.69 95.11 63.57 98.83 66.74 102.99 64.18 101.85 59.43 98.67 59.19"/><polygon class="cls-1" points="46.39 94.79 40.87 89.69 34.31 93.36 35.78 100.73 43.24 101.62 44.21 99.52 45.38 96.98 46.39 94.79"/><polygon class="cls-1" points="53.71 100.9 52.19 101.74 52.51 103.44 53.1 106.54 57.95 107.15 60.03 102.73 56.47 99.38 53.71 100.9"/><polygon class="cls-1" points="38.53 70.05 33.78 64.22 26.77 66.93 27.18 74.44 34.45 76.36 35.68 74.46 37.2 72.11 38.53 70.05"/><polygon class="cls-1" points="55.8 84.22 54.11 84.88 54.22 86.53 54.42 89.76 59.16 90.97 61.77 86.85 58.66 83.08 55.8 84.22"/><polygon class="cls-1" points="64.95 69.23 61.15 62.75 53.81 64.36 53.07 71.84 59.96 74.86 61.45 73.18 63.31 71.08 64.95 69.23"/><polygon class="cls-1" points="70.09 77.1 68.41 77.45 68.21 79.18 67.87 82.31 72.32 84.32 75.61 80.71 73.19 76.46 70.09 77.1"/><polygon class="cls-1" points="253.44 124.2 255.16 118.64 255.66 117.02 254.23 116.01 249.52 112.68 243.5 117.18 245.92 124.3 253.44 124.2"/><polygon class="cls-1" points="269.38 118.77 281.61 118.56 285.18 106.86 275.16 99.84 265.39 107.21 266.94 111.69 267.85 114.34 269.38 118.77"/><polygon class="cls-1" points="279.6 193.62 285.29 188.7 282.37 181.77 274.88 182.4 274.33 184.73 273.7 187.45 273.16 189.72 279.6 193.62"/><polygon class="cls-1" points="262.45 181.98 261.21 179.05 256.34 179.46 255.23 184.22 259.41 186.75 261.78 184.7 263.11 183.56 262.45 181.98"/><polygon class="cls-1" points="259.24 202.45 258.31 196.7 250.88 195.54 249.82 197.64 248.55 200.14 247.49 202.25 252.82 207.55 257.93 204.93 259.51 204.12 259.24 202.45"/><polygon class="cls-1" points="284.06 205.64 271.97 203.73 269.87 207.88 269.87 207.88 268.6 210.37 268.6 210.38 266.43 214.64 275.09 223.29 285.98 217.72 284.06 205.64"/><polygon class="cls-1" points="237.28 191.24 236.82 187.93 232 187.08 229.71 191.39 233.1 194.91 235.76 193.61 237.5 192.77 237.28 191.24"/><polygon class="cls-1" points="277.83 92.48 285.26 91.32 286.45 83.89 279.75 80.47 274.43 85.78 275.53 87.94 276.8 90.44 277.83 92.48"/><polygon class="cls-1" points="257.31 103.49 257.84 100.23 258.1 98.67 256.44 97.81 253.76 96.42 250.28 99.85 252.47 104.22 257.31 103.49"/><polygon class="cls-1" points="198.6 42.24 206.39 32.8 199.81 22.48 187.97 25.55 187.22 37.76 191.45 39.43 194.06 40.45 198.6 42.24"/><polygon class="cls-1" points="187.32 49.99 181.84 51.42 181.4 58.93 183.49 59.75 186.1 60.76 188.41 61.66 193.17 55.84 189.98 50.87 189.11 49.52 187.32 49.99"/><polygon class="cls-1" points="179.76 69.29 176.66 70.1 176.36 74.97 180.91 76.76 184.02 72.99 182.34 70.36 181.39 68.87 179.76 69.29"/><polygon class="cls-1" points="229.36 59.07 227.55 58.96 221.85 58.61 219.09 65.61 224.89 70.39 231.24 66.35 229.77 60.67 229.36 59.07"/><polygon class="cls-1" points="247.07 47.47 257.4 40.9 254.34 29.05 242.13 28.3 237.64 39.68 241.19 42.62 243.35 44.4 247.07 47.47"/><polygon class="cls-1" points="249.9 70.56 256.75 67.46 255.92 59.99 248.56 58.47 244.84 65 246.48 66.81 248.37 68.88 249.9 70.56"/><polygon class="cls-1" points="241.82 78.3 241.45 75.19 241.24 73.45 239.56 73.11 236.44 72.5 234.06 76.77 237.38 80.35 241.82 78.3"/><polygon class="cls-1" points="252.25 76.52 247.79 82.58 249.2 84.54 250.83 86.81 252.18 88.68 259.34 86.4 259.38 78.88 252.25 76.52"/><polygon class="cls-1" points="241.79 89.88 238.85 88.92 235.97 92.87 238.83 96.83 243.48 95.33 243.49 92.11 243.49 90.44 241.79 89.88"/><polygon class="cls-1" points="221.21 46.38 218.22 39.49 210.73 40.21 209.1 47.55 211.03 48.68 213.44 50.1 215.58 51.36 221.21 46.38"/><polygon class="cls-1" points="204.44 59.65 201.38 59.91 200.27 64.67 204.46 67.2 208.15 64 206.89 61.01 206.25 59.49 204.44 59.65"/><polygon class="cls-1" points="111.44 244.85 106.69 250.68 109.79 255.49 110.76 257 112.37 256.57 118.03 255.08 118.45 247.57 116.24 246.71 113.63 245.7 111.44 244.85"/><polygon class="cls-1" points="100.59 266.27 92.84 275.74 99.45 286.04 111.28 282.93 111.99 270.72 107.52 268.97 104.91 267.96 100.59 266.27"/><polygon class="cls-1" points="115.41 234.21 117.11 236.8 118.09 238.29 119.71 237.85 122.8 237 123.03 232.12 118.46 230.39 115.41 234.21"/><polygon class="cls-1" points="194.87 258.96 197.95 254.1 193.16 248.31 191 249.17 188.39 250.2 186.17 251.08 186.64 258.59 192.29 260.04 193.92 260.46 194.87 258.96"/><polygon class="cls-1" points="200.53 273.25 197.93 274.29 193.48 276.07 194.28 288.28 206.14 291.29 212.67 280.94 204.84 271.53 200.53 273.25"/><polygon class="cls-1" points="186.11 236.82 187.79 234.15 184.66 230.39 180.13 232.21 180.45 237.09 183.51 237.86 185.19 238.28 186.11 236.82"/><polygon class="cls-1" points="153.05 268.41 150.25 268.41 145.42 268.41 141.73 280.01 151.69 287.29 161.53 280.01 157.66 268.41 153.05 268.41"/><polygon class="cls-1" points="153.05 257.61 157.74 254.14 155.36 247.01 153.05 247.01 150.25 247.01 147.84 247.01 145.58 254.14 150.25 257.55 151.7 258.61 153.05 257.61"/><polygon class="cls-1" points="153.05 240.47 155.6 238.59 154.05 233.95 149.16 233.95 147.69 238.59 150.25 240.46 151.67 241.49 153.05 240.47"/><polygon class="cls-1" points="88.14 250.63 86.13 249.41 80.43 254.32 83.34 261.25 90.84 260.62 92.56 253.3 90.54 252.08 88.14 250.63"/><polygon class="cls-1" points="97.19 241 100.32 240.76 101.47 236.01 97.31 233.45 93.59 236.62 94.8 239.55 95.45 241.14 97.19 241"/><polygon class="cls-1" points="176.05 265.79 173.29 266.3 171 266.72 170 274.17 176.78 277.42 181.97 271.98 178.39 265.36 176.05 265.79"/><polygon class="cls-1" points="173.8 253.06 175.94 250.81 173.61 246.52 168.81 247.41 168.16 252.25 171.06 253.64 172.57 254.36 173.8 253.06"/><polygon class="cls-1" points="244.53 226.1 249.05 232.11 256.16 229.67 256.04 222.15 248.86 219.94 247.45 221.94 245.84 224.23 244.53 226.1"/><polygon class="cls-1" points="230.8 213.81 232.47 213.23 232.44 211.54 232.39 208.35 227.72 206.91 224.91 210.92 227.85 214.82 230.8 213.81"/><polygon class="cls-1" points="127.15 261.67 123.33 268.15 128.31 273.78 135.21 270.78 134.49 263.3 132.2 262.79 129.47 262.18 127.15 261.67"/><polygon class="cls-1" points="134.99 250.2 137.87 248.94 137.4 244.08 132.63 243.02 130.15 247.24 132.25 249.6 133.39 250.89 134.99 250.2"/><polygon class="cls-1" points="213.18 250.44 210.78 251.88 208.79 253.08 210.48 260.4 217.97 261.06 220.91 254.14 215.23 249.21 213.18 250.44"/><polygon class="cls-1" points="206.64 239.56 207.91 236.58 204.23 233.37 200.04 235.87 201.12 240.64 204.18 240.91 205.99 241.08 206.64 239.56"/><polygon class="cls-1" points="238.75 245.25 236.72 247.18 233.16 250.59 238.46 261.62 250.58 259.98 252.78 247.95 242.01 242.14 238.75 245.25"/><polygon class="cls-1" points="230.7 236.81 231.69 231.25 225.06 227.7 223.47 229.23 221.45 231.18 219.64 232.91 222.92 239.68 228.79 238.87 230.37 238.65 230.7 236.81"/><polygon class="cls-1" points="216.18 221.59 216.72 218.66 212.43 216.32 208.89 219.68 210.98 224.09 214.29 223.66 215.83 223.46 216.18 221.59"/><polygon class="cls-1" points="44.02 181.85 36.22 183.38 31.67 184.27 32.22 187.01 36.76 186.13 44.51 184.61 43.29 183.53 44.02 181.85"/><polygon class="cls-1" points="73.38 234.97 69.3 239.08 59.53 248.94 61.51 250.92 71.34 241 75.42 236.89 73.64 236.61 73.38 234.97"/><polygon class="cls-1" points="88.01 220.22 80.84 227.45 82.82 229.42 89.98 222.2 88.28 221.93 88.01 220.22"/><polygon class="cls-1" points="150.41 18.83 150.41 33.18 151.67 32.25 153.21 33.37 153.21 18.83 150.41 18.83"/><polygon class="cls-1" points="150.41 53.27 151.68 52.33 153.21 53.44 153.21 43.85 150.41 43.85 150.41 53.27"/><polygon class="cls-1" points="136.76 45.82 135.48 38.57 134.54 33.24 131.78 33.73 132.72 39.06 133.99 46.23 135.13 45.04 136.76 45.82"/><polygon class="cls-1" points="67.47 193.14 67.6 191.24 59.41 196.05 60.86 198.45 68.92 193.72 67.47 193.14"/><polygon class="cls-1" points="50.34 201.38 40.93 206.9 42.37 209.31 51.73 203.81 50.2 203.17 50.34 201.38"/><polygon class="cls-1" points="173.74 33.91 170.98 33.43 170.08 38.57 168.77 45.97 170.31 45.21 171.52 46.47 172.83 39.06 173.74 33.91"/><polygon class="cls-1" points="35.78 115.61 30.34 114.08 27.36 113.23 26.59 115.93 29.58 116.77 35.16 118.35 34.54 116.57 35.78 115.61"/><polygon class="cls-1" points="86.54 70.67 81.49 64.46 79.31 66.22 84.29 72.35 84.71 70.77 86.54 70.67"/><polygon class="cls-1" points="74.83 56.26 74.06 55.31 65.32 44.56 63.14 46.32 71.88 57.08 72.67 58.04 73.13 56.34 74.83 56.26"/><polygon class="cls-1" points="120.52 63 117.71 55.81 115.1 56.83 117.89 63.96 118.8 62.55 120.52 63"/><polygon class="cls-1" points="113.86 46 109.85 35.75 107.25 36.79 111.24 46.99 112.16 45.56 113.86 46"/><polygon class="cls-1" points="98.67 59.19 94.47 52.2 91.96 48.02 89.56 49.46 92.07 53.64 96.3 60.69 96.98 59.06 98.67 59.19"/><polygon class="cls-1" points="53.71 100.9 47.29 97.88 45.38 96.98 44.21 99.52 46.13 100.43 52.51 103.44 52.19 101.74 53.71 100.9"/><polygon class="cls-1" points="55.8 84.22 45.48 77.5 37.2 72.11 35.68 74.46 43.95 79.85 54.22 86.53 54.11 84.88 55.8 84.22"/><polygon class="cls-1" points="70.09 77.1 66.22 73.67 63.31 71.08 61.45 73.18 64.36 75.76 68.21 79.18 68.41 77.45 70.09 77.1"/><polygon class="cls-1" points="255.16 118.64 263.96 115.66 267.85 114.34 266.94 111.69 262.91 113.06 254.23 116.01 255.66 117.02 255.16 118.64"/><polygon class="cls-1" points="269.84 183.69 262.45 181.98 263.11 183.56 261.78 184.7 269.21 186.42 273.7 187.45 274.33 184.73 269.84 183.69"/><polygon class="cls-1" points="237.28 191.24 237.5 192.77 235.76 193.61 248.55 200.14 249.82 197.64 237.28 191.24"/><polygon class="cls-1" points="269.87 207.88 259.24 202.45 259.51 204.12 257.93 204.93 268.6 210.38 268.6 210.37 269.87 207.88"/><polygon class="cls-1" points="257.84 100.23 269.22 94.36 276.8 90.44 275.53 87.94 267.93 91.87 256.44 97.81 258.1 98.67 257.84 100.23"/><polygon class="cls-1" points="179.76 69.29 181.39 68.87 182.34 70.36 186.1 60.76 183.49 59.75 179.76 69.29"/><polygon class="cls-1" points="194.06 40.45 191.45 39.43 187.88 48.56 187.32 49.99 189.11 49.52 189.98 50.87 190.48 49.58 194.06 40.45"/><polygon class="cls-1" points="229.77 60.67 238.79 49.86 243.35 44.4 241.19 42.62 236.65 48.06 227.55 58.96 229.36 59.07 229.77 60.67"/><polygon class="cls-1" points="241.45 75.19 246.08 70.97 248.37 68.88 246.48 66.81 244.2 68.89 239.56 73.11 241.24 73.45 241.45 75.19"/><polygon class="cls-1" points="246.35 86.59 241.79 89.88 243.49 90.44 243.49 92.11 247.95 88.89 250.83 86.81 249.2 84.54 246.35 86.59"/><polygon class="cls-1" points="208.28 53.25 204.44 59.65 206.25 59.49 206.89 61.01 210.69 54.69 213.44 50.1 211.03 48.68 208.28 53.25"/><polygon class="cls-1" points="109.79 255.49 109.73 255.66 104.91 267.96 107.52 268.97 112.33 256.68 112.37 256.57 110.76 257 109.79 255.49"/><polygon class="cls-1" points="117.11 236.8 113.63 245.7 116.24 246.71 119.71 237.85 118.09 238.29 117.11 236.8"/><polygon class="cls-1" points="194.87 258.96 193.92 260.46 192.29 260.04 197.93 274.29 200.53 273.25 194.87 258.96"/><polygon class="cls-1" points="186.11 236.82 185.19 238.28 183.51 237.86 188.39 250.2 191 249.17 186.11 236.82"/><polygon class="cls-1" points="153.05 240.47 151.67 241.49 150.25 240.46 150.25 247.01 153.05 247.01 153.05 240.47"/><polygon class="cls-1" points="153.05 260.61 153.05 257.61 151.7 258.61 150.25 257.55 150.25 260.61 150.25 268.41 153.05 268.41 153.05 260.61"/><polygon class="cls-1" points="93.33 247.44 97.19 241 95.45 241.14 94.8 239.55 90.92 245.99 88.14 250.63 90.54 252.08 93.33 247.44"/><polygon class="cls-1" points="175.19 260.93 173.8 253.06 172.57 254.36 171.06 253.64 172.43 261.41 173.29 266.3 176.05 265.79 175.19 260.93"/><polygon class="cls-1" points="230.8 213.81 237.54 218.49 245.84 224.23 247.45 221.94 239.14 216.18 232.44 211.54 232.47 213.23 230.8 213.81"/><polygon class="cls-1" points="134.99 250.2 133.39 250.89 132.25 249.6 130.62 256.98 129.47 262.18 132.2 262.79 133.35 257.58 134.99 250.2"/><polygon class="cls-1" points="210.62 246.19 206.64 239.56 205.99 241.08 204.18 240.91 208.22 247.63 210.78 251.88 213.18 250.44 210.62 246.19"/><polygon class="cls-1" points="216.18 221.59 215.83 223.46 214.29 223.66 221.45 231.18 223.47 229.23 216.18 221.59"/><polygon class="cls-1" points="230.7 236.81 230.37 238.65 228.79 238.87 236.72 247.18 238.75 245.25 230.7 236.81"/><polygon class="cls-1" points="69.99 213.45 64.48 217.81 60.21 221.19 61.96 223.37 66.22 220 71.7 215.67 70.07 215.22 69.99 213.45"/><polygon class="cls-1" points="58.71 219.33 51.69 222.01 52.06 229.52 59.32 231.49 63.43 225.19 61.96 223.37 60.21 221.19 58.71 219.33"/><polygon class="cls-1" points="77.46 212.41 74.4 208.61 69.83 210.34 69.99 213.45 70.07 215.22 71.7 215.67 74.79 216.5 77.46 212.41"/></svg>